<svg width="377" height="1131" viewBox="0 0 377 1131" fill="none" xmlns="http://www.w3.org/2000/svg">
<path d="M377 1131V0C373.682 4.0334 371.219 9.46129 369.944 15.4395C362.937 10.4837 355.376 12.0127 347.952 13.8136C341.172 14.342 339.548 20.1576 334.965 25.7731C327.175 16.7652 321.291 17.1685 321.291 17.1685C321.384 8.59521 316.108 2.12301 310.044 1.18501C306.508 0.331427 302.942 0.819187 299.965 3.283C297.775 5.09647 295.835 6.77549 294.239 11.084C294.239 11.084 288.36 10.0616 284.966 18.0409C283.749 20.9018 284.05 24.8883 284.43 28.0743C284.43 28.0743 280.637 34.3402 285.515 39.7024C283.511 41.9005 282.245 44.2486 281.532 47.4378C280.257 47.5472 279.131 47.6441 277.929 47.7473C277.389 45.1866 275.783 42.4445 273.728 40.728C271.763 39.0896 269.258 38.8488 269.258 38.8488C265.101 27.9524 252.285 26.2452 247.843 37.5575C243.285 35.5314 239.14 40.0088 236.545 44.6457C233.442 49.4295 234.146 54.8886 236.236 60.1477C233.294 61.8392 230.495 63.4995 231.187 68.8992C227.23 68.6804 223.534 72.0978 221.979 76.9598C217.743 72.695 213.556 71.8102 209.372 76.5846C198.502 67.1608 184.442 78.1354 184.133 92.9339C183.48 80.7555 175.938 70.3312 166.664 72.1385C163.258 73.0139 160.163 74.8962 156.995 76.8191C146.454 63.7934 128.962 72.6293 125.952 91.4175C121.249 90.789 112.342 92.9277 108.491 99.8313C105.87 93.8532 98.7887 94.344 96.2839 97.4738C98.4481 81.9468 86.2599 65.3661 74.3476 62.8304C63.9807 61.2233 55.9426 67.6204 48.6737 76.3657C46.2894 69.0743 42.6978 63.562 37.278 60.2759C41.1268 47.3596 34.6411 34.1151 26.6076 27.2489C27.889 20.3358 28.4127 12.7162 23.5745 8.10119C17.2858 0.959887 9.24768 2.03859 1.99969 6.18767C1.38565 5.63738 0.713677 5.12773 0 4.67124V1131H187.794H377Z" fill="#F7F5F0"/>
</svg>
