<svg width="2367" height="1831" viewBox="0 0 2367 1831" fill="none" xmlns="http://www.w3.org/2000/svg">
<path d="M2367 1831V0C2346.17 18.7747 2330.7 44.0405 2322.7 71.8678C2278.71 48.7997 2231.24 55.9166 2184.62 64.2997C2142.06 66.7594 2131.86 93.8299 2103.08 119.969C2054.17 78.0388 2017.23 79.9162 2017.23 79.9162C2017.82 40.0091 1984.69 9.88219 1946.62 5.51598C1924.42 1.54273 1902.03 3.81316 1883.33 15.2817C1869.58 23.7231 1857.41 31.5386 1847.38 51.5941C1847.38 51.5941 1810.47 46.8349 1789.16 83.9768C1781.52 97.2938 1783.42 115.85 1785.8 130.681C1785.8 130.681 1761.99 159.847 1792.61 184.807C1780.03 195.039 1772.08 205.969 1767.6 220.814C1759.6 221.323 1752.53 221.774 1744.98 222.255C1741.59 210.335 1731.51 197.571 1718.6 189.581C1706.27 181.955 1690.54 180.834 1690.54 180.834C1664.44 130.113 1583.97 122.167 1556.09 174.823C1527.47 165.392 1501.44 186.233 1485.15 207.817C1465.67 230.085 1470.09 255.496 1483.21 279.976C1464.74 287.85 1447.16 295.578 1451.51 320.713C1426.67 319.694 1403.46 335.602 1393.7 358.233C1367.1 338.381 1340.82 334.263 1314.54 356.487C1246.3 312.621 1158.02 363.705 1156.08 432.59C1151.98 375.902 1104.63 327.379 1046.41 335.791C1025.02 339.866 1005.58 348.627 985.696 357.578C919.516 296.946 809.692 338.076 790.794 425.531C761.262 422.606 705.338 432.561 681.159 464.696C664.705 436.869 620.246 439.154 604.52 453.722C618.108 381.447 541.584 304.267 466.792 292.463C401.704 284.983 351.236 314.76 305.599 355.468C290.629 321.528 268.079 295.869 234.051 280.573C258.215 220.45 217.495 158.799 167.057 126.838C175.102 94.6595 178.39 59.1913 148.013 37.7095C108.529 4.46809 58.0617 9.48923 12.5551 28.8024C8.6998 26.2409 4.48083 23.8686 0 21.7437V1831H2367Z" fill="#F7F5F0"/>
</svg>
