<svg xmlns="http://www.w3.org/2000/svg" viewBox="0 0 819.54 828.67"><defs><style>.cls-1{fill:#7c8c38;}</style></defs><g id="圖層_2" data-name="圖層 2"><g id="圖層_1-2" data-name="圖層 1"><path class="cls-1" d="M739.72,429q-38.55-76.83-67-175.8a881,881,0,0,0,2.5-123.57C665.45-18.87,632-21.71,593.33,31.53,574.52,57.47,534.62,81.5,505,118L413.65,89.81c-54.16-11.4-64.41-10.4-108.69,13.85a270.81,270.81,0,0,1-38.71,17.89c-28.41,10.08-54.88,3.57-87.85-1.33L36.4,99.11Q.84,98.95,0,139.79c2.35,71.88-9.74,116.57,45.44,177.84,68.08,75.6,176.4,57.27,192.22,189,12.26,102.09-25.55,200.67-18.52,303.22A517.75,517.75,0,0,0,358,828.67c201.46,0,376-115.1,461.56-283.12L764.07,475C758.45,459.11,746.84,443.17,739.72,429Z"/></g></g></svg>