<svg width="388" height="480" viewBox="0 0 388 480" fill="none" xmlns="http://www.w3.org/2000/svg">
<rect width="388" height="480" rx="20" fill="#F7F5F0"/>
<path d="M143.24 174.96V181.3H144.66V174.96H143.24ZM143.24 182.12V187.42H144.66V182.12H143.24ZM137.72 181.48V188.56H139.14V182.6H148.94V188.5H150.42V181.48H137.72ZM135.2 177.64V178.92H152.78V177.64H135.2ZM138.54 184.16V185.16H149.64V184.16H138.54ZM138.54 186.8V187.92H149.64V186.8H138.54ZM149 173.76C146.42 174.22 141.76 174.48 137.98 174.56C138.12 174.86 138.28 175.34 138.32 175.64C142.12 175.62 146.86 175.32 149.82 174.84L149 173.76ZM142.34 177.88C140.66 179.68 137.38 181.38 134.56 182.16C134.88 182.44 135.32 182.98 135.52 183.34C138.32 182.4 141.66 180.5 143.48 178.44L142.34 177.88ZM145.54 177.86L144.44 178.36C146.22 180.44 149.44 182.24 152.38 183.06C152.6 182.7 153 182.16 153.32 181.88C150.36 181.2 147.14 179.64 145.54 177.86ZM138.28 175.94C138.7 176.58 139.1 177.44 139.24 178.02L140.62 177.64C140.46 177.06 140.02 176.24 139.56 175.64L138.28 175.94ZM148.34 175.4C148.1 176.06 147.62 177.06 147.24 177.68L148.4 178.1C148.82 177.52 149.34 176.68 149.84 175.84L148.34 175.4ZM143.24 170.22V172.72H144.74V170.22H143.24ZM135.54 171.8V175.4H136.94V173.1H151V175.4H152.48V171.8H135.54ZM161.8 173.24V174.62H173.14V173.24H161.8ZM166.8 170.26V173.94H168.28V170.26H166.8ZM168.02 184.5C169.48 185.76 171.26 187.58 172.12 188.66L173.34 187.74C172.44 186.64 170.58 184.92 169.16 183.7L168.02 184.5ZM162.1 177.86C163.52 178.9 165.32 180.42 166.18 181.38L167.1 180.22C166.22 179.28 164.38 177.84 162.98 176.88L162.1 177.86ZM166.48 173.94C165.8 175.22 164.54 177.04 163.6 178.12L164.66 178.72C165.66 177.7 166.94 176.06 167.94 174.68L166.48 173.94ZM171.64 179.76C169.58 183.24 165.72 185.96 161.14 187.38C161.48 187.72 161.86 188.22 162.04 188.58C166.8 186.98 170.72 184.12 172.98 180.34L171.64 179.76ZM169.98 176.1C168.24 179.06 165.08 181.74 161.68 183.22C162.02 183.5 162.42 183.98 162.64 184.32C166.16 182.62 169.38 179.84 171.28 176.64L169.98 176.1ZM155.02 174.5V175.92H161.74V174.5H155.02ZM157.98 170.2V188.58H159.38V170.2H157.98ZM157.92 175.38C157.34 178.26 156 181.72 154.64 183.52C154.9 183.86 155.26 184.44 155.42 184.84C156.86 182.82 158.24 178.9 158.86 175.7L157.92 175.38ZM159.28 177.32L158.56 177.96C159.14 178.8 160.64 181.24 161.14 182.28L162 181.12C161.6 180.5 159.78 177.88 159.28 177.32ZM184.42 179.88V181.04H192.24V179.88H184.42ZM184.42 183.16V184.34H192.24V183.16H184.42ZM184.44 186.46V187.74H193.18V186.46H184.44ZM182.16 172.26V175.68H183.46V173.56H191.74V175.68H193.08V172.26H182.16ZM187.68 177.5V187.14H189.08V177.5H187.68ZM184.96 176.54H184.84L183.54 177.9V188.6H184.96V177.84H192.58V176.54H184.96ZM186.84 170.2C185.86 173.88 184.02 176.98 181.38 178.9C181.7 179.16 182.24 179.72 182.46 180C185.16 177.86 187.14 174.54 188.28 170.48L186.84 170.2ZM188.92 174.16C188.68 175.04 188.16 176.3 187.74 177.1L188.9 177.44C189.32 176.68 189.86 175.56 190.34 174.52L188.92 174.16ZM175.04 171.56V172.94H182.1V171.56H175.04ZM177.06 177.4V178.74H180.26V184.84H177.06V186.16H181.58V177.4H177.06ZM177.4 172.22C176.92 175.98 176.06 179.52 174.46 181.78C174.74 182.12 175.16 182.86 175.32 183.2C177.18 180.58 178.22 176.64 178.84 172.44L177.4 172.22ZM176.44 177.4V187.72H177.7V177.4H176.44ZM206.4 171.6C206.06 174.34 205.24 177.26 201.98 178.76C202.3 179 202.72 179.5 202.88 179.82C206.38 178.08 207.36 174.84 207.78 171.6H206.4ZM202.72 174.46C204.8 175.16 207.3 176.48 208.64 177.46L209.36 176.28C208.04 175.36 205.54 174.12 203.46 173.42L202.72 174.46ZM211.12 171.06V171.32C210.96 175.84 210.76 177.44 210.4 177.86C210.26 178.02 210.08 178.08 209.76 178.06C209.44 178.06 208.6 178.06 207.68 177.98C207.9 178.34 208.04 178.92 208.06 179.34C209 179.38 209.94 179.4 210.42 179.36C210.96 179.3 211.3 179.16 211.62 178.78C212.12 178.2 212.32 176.42 212.52 171.7C212.54 171.5 212.54 171.06 212.54 171.06H211.12ZM204.98 181.72V186.56C204.98 188.04 205.32 188.46 206.84 188.46C207.16 188.46 208.74 188.46 209.06 188.46C210.32 188.46 210.7 187.84 210.86 185.4C210.46 185.28 209.86 185.08 209.58 184.84C209.52 186.84 209.44 187.12 208.9 187.12C208.58 187.12 207.28 187.12 207.02 187.12C206.46 187.12 206.38 187.04 206.38 186.54V181.72H204.98ZM203.08 182.4C202.88 184.06 202.44 185.82 201.48 186.8L202.6 187.54C203.66 186.42 204.08 184.48 204.3 182.7L203.08 182.4ZM205.32 179.88C206.62 180.64 208.14 181.8 208.86 182.64L209.8 181.62C209.06 180.78 207.52 179.7 206.2 179L205.32 179.88ZM209.98 182.54C211.02 184 211.9 186.02 212.16 187.38L213.5 186.82C213.2 185.46 212.3 183.5 211.22 182.04L209.98 182.54ZM202.9 171.06V172.36H211.74V171.06H202.9ZM195.66 176.26V177.46H201.34V176.26H195.66ZM195.74 170.92V172.12H201.26V170.92H195.74ZM195.66 178.94V180.14H201.34V178.94H195.66ZM194.76 173.54V174.78H201.9V173.54H194.76ZM196.32 181.64V182.88H200.04V186.22H196.32V187.48H201.34V181.64H196.32ZM195.64 181.64V188.4H196.92V181.64H195.64ZM225.22 178.36C224.06 180.42 221.96 182.26 219.8 183.42C220.12 183.68 220.62 184.26 220.82 184.54C223.02 183.2 225.24 181.14 226.58 178.78L225.22 178.36ZM225.34 170.2C224.62 171.3 223.34 172.8 222.36 173.74L223.42 174.36C224.42 173.46 225.66 172.1 226.66 170.88L225.34 170.2ZM229.2 171.74C227.56 173.8 224.74 176.54 222.56 178.22L223.58 178.88C225.78 177.24 228.56 174.64 230.56 172.48L229.2 171.74ZM220.7 173.44C222.26 174.46 224.08 175.98 224.94 176.98L225.9 175.9C225.02 174.88 223.14 173.46 221.62 172.48L220.7 173.44ZM228.96 175.82C230.22 177.18 231.6 179.06 232.18 180.26L233.46 179.52C232.82 178.32 231.4 176.48 230.12 175.18L228.96 175.82ZM220.04 177.8L220.16 179.16C223.14 179.08 227.54 178.94 231.74 178.8L231.8 177.56C227.46 177.68 222.9 177.76 220.04 177.8ZM223.92 181.46L222.7 181.88C224.64 185.28 228.22 187.64 232.54 188.64C232.74 188.24 233.14 187.68 233.46 187.36C229.22 186.54 225.64 184.38 223.92 181.46ZM224.38 180.6L223.34 181.8H230.34V180.6H224.38ZM229.86 180.6V180.84C228.28 184.36 224.02 186.56 219.74 187.38C220.02 187.68 220.36 188.28 220.5 188.66C225.06 187.62 229.5 185.28 231.36 181L230.4 180.54L230.14 180.6H229.86ZM219.34 174.28C218.16 176.4 216.26 178.5 214.4 179.86C214.68 180.18 215.12 180.88 215.26 181.2C217.22 179.6 219.32 177.18 220.7 174.78L219.34 174.28ZM218.88 170.22C218 171.64 216.2 173.34 214.64 174.4C214.9 174.68 215.28 175.2 215.48 175.5C217.18 174.3 219.06 172.42 220.22 170.74L218.88 170.22ZM217.54 178V188.68H218.96V176.88L218.76 176.78L217.54 178ZM237.14 189.14C239.24 188.42 240.6 186.78 240.6 184.62C240.6 183.22 240 182.3 238.88 182.3C238.08 182.3 237.36 182.8 237.36 183.74C237.36 184.7 238.04 185.18 238.86 185.18C239.24 185.18 239.64 185.08 239.92 184.72L238.84 183.2L239.22 184.9C239.22 186.4 238.32 187.42 236.68 188.1L237.14 189.14ZM59.1 210.2V213.56H60.62V210.2H59.1ZM55.04 212.76V214.14H64.56V212.76H55.04ZM64.42 215.5V216.92H73.12V215.5H64.42ZM57.52 217H62.18V219.68H57.52V217ZM56.12 215.7V220.96H63.64V215.7H56.12ZM59.18 220.42V226.88C59.18 227.1 59.1 227.16 58.88 227.18C58.62 227.2 57.84 227.2 56.92 227.18C57.12 227.56 57.34 228.14 57.4 228.54C58.62 228.54 59.44 228.54 59.96 228.3C60.48 228.06 60.62 227.64 60.62 226.9V220.42H59.18ZM56.5 222.02C56.14 223.62 55.5 225.2 54.64 226.26C54.98 226.46 55.54 226.88 55.8 227.12C56.7 225.94 57.46 224.12 57.88 222.32L56.5 222.02ZM61.66 222.28C62.22 223.34 62.8 224.78 63.04 225.7L64.3 225.24C64.06 224.32 63.46 222.92 62.86 221.86L61.66 222.28ZM69.4 211.38C70.36 212.36 71.3 213.76 71.7 214.72L72.94 214.08C72.54 213.12 71.58 211.78 70.56 210.82L69.4 211.38ZM67.32 210.2V214.4C67.32 218.3 66.96 223.88 62.68 227.78C63.06 227.96 63.68 228.36 63.96 228.64C68.36 224.54 68.78 218.66 68.78 214.4V210.2H67.32ZM68.28 217.92V226.5C68.28 227.52 68.38 227.84 68.74 228.14C69.08 228.4 69.58 228.48 70.04 228.48C70.3 228.48 71 228.48 71.3 228.48C71.74 228.48 72.22 228.4 72.5 228.26C72.84 228.06 73.04 227.78 73.18 227.32C73.28 226.9 73.36 225.68 73.38 224.62C73 224.5 72.5 224.24 72.2 223.98C72.22 225.08 72.18 226.04 72.14 226.42C72.1 226.66 71.98 226.86 71.84 226.94C71.7 227.02 71.44 227.06 71.2 227.06C70.94 227.06 70.58 227.06 70.38 227.06C70.16 227.06 69.98 227.02 69.86 226.92C69.72 226.86 69.66 226.72 69.66 226.56V217.92H68.28ZM88.92 212.08V226.42C88.92 226.84 88.78 226.98 88.34 227C87.86 227.02 86.24 227.04 84.62 226.96C84.86 227.4 85.16 228.14 85.26 228.58C87.24 228.58 88.64 228.56 89.44 228.3C90.22 228.06 90.48 227.54 90.48 226.46V212.08H88.92ZM77.16 216.08V225.14H78.62V216.08H77.16ZM77.78 216.08V217.5H83.86V222.1H77.78V223.54H85.36V216.08H77.78ZM75.1 211.62V213.14H92.94V211.62H75.1ZM101.28 213.36C102.56 214.84 103.86 216.9 104.38 218.28L105.82 217.5C105.24 216.14 103.96 214.16 102.62 212.7L101.28 213.36ZM94.7 224.88L95.24 226.44C97.46 225.48 100.5 224.14 103.28 222.86L102.94 221.4C99.94 222.72 96.74 224.08 94.7 224.88ZM106.7 222.24C108.62 224.2 111.02 226.9 112.14 228.56L113.42 227.38C112.24 225.74 109.76 223.14 107.86 221.26L106.7 222.24ZM109.48 211.24C108.58 219.94 106.46 224.84 99.54 227.36C99.92 227.68 100.52 228.34 100.74 228.66C107.74 225.74 110.08 220.64 111.1 211.4L109.48 211.24ZM97.14 211.3L97.48 224.52L99.02 224.46L98.68 211.24L97.14 211.3ZM121.48 220.36V221.72H133.14V220.36H121.48ZM126.16 211.76L125.48 212.88H131.26L131.58 211.76H126.16ZM129.16 217.76V226.84C129.16 227.12 129.06 227.18 128.76 227.2C128.42 227.22 127.36 227.22 126.16 227.18C126.36 227.6 126.56 228.22 126.62 228.62C128.24 228.62 129.22 228.6 129.8 228.36C130.42 228.12 130.6 227.68 130.6 226.84V217.76H129.16ZM126.96 210.24C125.78 212.02 123.52 213.84 121.04 214.92C121.34 215.14 121.78 215.58 122 215.84C124.52 214.62 126.94 212.72 128.4 210.66L126.96 210.24ZM122.86 223.14C123.8 224.04 124.8 225.32 125.22 226.16L126.46 225.38C126 224.54 124.96 223.32 124.02 222.44L122.86 223.14ZM124.96 213.66C126.2 214.38 127.62 215.5 128.28 216.28L129.14 215.46C128.46 214.68 127 213.62 125.76 212.94L124.96 213.66ZM122.62 215.18C123.8 215.98 125.14 217.16 125.76 218L126.7 217.24C126.06 216.4 124.7 215.26 123.5 214.5L122.62 215.18ZM114.8 220.26V221.58H120.06V220.26H114.8ZM119.42 210.22V228.6H120.82V210.22H119.42ZM115.9 220.76V222.02C115.9 223.58 115.72 226.08 114.62 227.92C114.98 228.06 115.52 228.4 115.78 228.64C117.02 226.64 117.22 223.8 117.22 222.06V220.76H115.9ZM131.04 211.76V212C129.54 215.68 125.48 218.06 121.54 219C121.8 219.26 122.14 219.76 122.28 220.1C126.52 218.96 130.72 216.5 132.5 212.16L131.58 211.7L131.32 211.76H131.04ZM115.66 211.1V217.3H120.26V215.94H117V211.1H115.66ZM135.22 218.42V219.92H152.84V218.42H135.22ZM136.66 213.48V214.98H151.46V213.48H136.66ZM143.18 210.22V228.6H144.74V210.22H143.18ZM142.78 219.18C141.06 222.02 137.74 224.88 134.66 226.22C135.02 226.54 135.5 227.12 135.76 227.5C138.86 225.92 142.18 222.92 144.08 219.74L142.78 219.18ZM145.14 219.18L143.9 219.72C145.82 222.88 149.14 225.94 152.22 227.5C152.48 227.1 152.96 226.52 153.32 226.22C150.24 224.88 146.88 222 145.14 219.18ZM155.44 213V214.46H172.7V213H155.44ZM163.16 210.22V228.6H164.72V210.22H163.16ZM163.34 219.1C161.54 222.14 158.08 225.06 154.74 226.42C155.08 226.72 155.56 227.32 155.8 227.7C159.18 226.12 162.64 223.02 164.6 219.6L163.34 219.1ZM164.64 219.14L163.38 219.66C165.32 223.08 168.72 226.2 172.16 227.74C172.42 227.32 172.9 226.72 173.28 226.4C169.82 225.08 166.4 222.2 164.64 219.14ZM158.1 218.06C159.06 218.9 160.26 220.1 160.88 220.82L161.9 219.8C161.28 219.08 160.04 217.94 159.1 217.14L158.1 218.06ZM158.94 214.94C158.34 217.52 157.08 219.7 155.26 221.06C155.62 221.3 156.2 221.78 156.44 222.04C158.3 220.5 159.7 218.12 160.4 215.2L158.94 214.94ZM167.72 218.1C169.08 219.2 170.88 220.74 171.74 221.7L172.8 220.66C171.9 219.74 170.06 218.24 168.72 217.22L167.72 218.1ZM168.42 214.94C167.98 217.18 167.02 219.14 165.56 220.36C165.92 220.54 166.56 220.96 166.84 221.2C168.26 219.8 169.34 217.7 169.86 215.18L168.42 214.94ZM176.62 213.42V214.76H181.3V225.14H176.62V226.5H182.7V213.42H176.62ZM175.72 213.42V228.1H177.12V213.42H175.72ZM176.52 218.98V220.32H182.04V218.98H176.52ZM178.78 210.16C178.62 211.2 178.24 212.72 177.9 213.68L179.1 213.98C179.5 213.08 180 211.7 180.4 210.46L178.78 210.16ZM185.54 213.36V214.76H191.68V213.36H185.54ZM191.16 213.36V213.68C190.88 222.5 190.56 225.82 189.9 226.54C189.68 226.8 189.44 226.86 189.04 226.86C188.58 226.86 187.38 226.84 186.08 226.74C186.36 227.14 186.54 227.76 186.58 228.2C187.7 228.26 188.88 228.3 189.56 228.22C190.26 228.16 190.72 227.98 191.16 227.4C191.96 226.42 192.24 223.32 192.56 214.14C192.56 213.92 192.56 213.36 192.56 213.36H191.16ZM185.96 210.12C185.32 212.9 184.22 215.66 182.86 217.42C183.22 217.62 183.84 218.04 184.1 218.28C185.48 216.38 186.66 213.44 187.4 210.46L185.96 210.12ZM185.04 218.56C186.14 220.02 187.48 222 188.08 223.22L189.36 222.42C188.72 221.24 187.34 219.3 186.2 217.88L185.04 218.56ZM203.2 210.22V212.88H204.74V210.22H203.2ZM195.74 212V215.98H197.2V213.38H210.84V215.98H212.36V212H195.74ZM198.3 215.38V216.7H209.56V215.38H198.3ZM200.92 218.38C204.8 221.34 204.88 225.86 203.46 226.88C203.06 227.22 202.62 227.26 202.08 227.26C201.62 227.26 200.94 227.24 200.2 227.16C200.46 227.58 200.6 228.2 200.64 228.6C201.26 228.64 201.9 228.66 202.38 228.66C203.28 228.66 203.84 228.52 204.52 227.98C206.58 226.54 206.48 220.96 202.04 217.68L200.92 218.38ZM203.92 215.68C202.1 217.38 198.66 218.74 195.6 219.48C195.86 219.76 196.26 220.38 196.42 220.66C199.54 219.76 203.1 218.22 205.16 216.22L203.92 215.68ZM202.5 219.5C201.02 220.72 198 222.14 195.74 222.76C196.04 223.06 196.36 223.58 196.54 223.92C198.84 223.1 201.84 221.54 203.5 220.18L202.5 219.5ZM203.98 221.56C202.1 223.5 198.22 225.58 195.04 226.42C195.32 226.76 195.66 227.3 195.84 227.68C199.04 226.62 202.94 224.42 205.02 222.32L203.98 221.56ZM205.82 215.9L204.58 216.16C205.78 221.18 208.14 225.24 212.08 227.04C212.32 226.62 212.78 226.04 213.12 225.74C209.32 224.22 206.92 220.4 205.82 215.9ZM210.96 217.38C209.82 218.4 207.88 219.76 206.52 220.56L207.46 221.48C208.88 220.72 210.76 219.48 212.12 218.38L210.96 217.38ZM222.96 210.82C222.82 213.48 222.82 223.1 214.66 227.26C215.12 227.6 215.62 228.06 215.88 228.44C224.16 223.94 224.46 213.96 224.62 210.82H222.96ZM224.56 211.22L223.12 211.36C223.26 213.2 223.82 224.38 232.3 228.44C232.54 228.02 233 227.52 233.44 227.18C225.2 223.4 224.62 212.78 224.56 211.22ZM235.56 218.08V221.94H236.96V219.34H251.1V221.94H252.58V218.08H235.56ZM241.36 210.54V217.04H246.68V210.54H245.28V215.88H242.7V210.54H241.36ZM235.16 212.62V213.84H252.86V212.62H235.16ZM248.42 210.48V215.62C248.42 216.94 248.72 217.3 250 217.3C250.26 217.3 251.26 217.3 251.52 217.3C252.52 217.3 252.88 216.78 253 214.88C252.62 214.8 252.1 214.6 251.82 214.4C251.78 215.9 251.7 216.12 251.34 216.12C251.14 216.12 250.38 216.12 250.2 216.12C249.84 216.12 249.78 216.06 249.78 215.62V210.48H248.42ZM238.34 210.48V213.08C238.34 214.32 238.02 215.94 235.3 216.84C235.58 217.08 235.96 217.52 236.14 217.82C239.18 216.64 239.72 214.7 239.72 213.08V210.48H238.34ZM243.18 219.12V228.58H244.66V219.12H243.18ZM237.54 221.38V227.44H239V222.62H249.74V221.38H237.54ZM249.18 221.38V225.84C249.18 226.06 249.1 226.14 248.8 226.14C248.52 226.16 247.46 226.16 246.32 226.12C246.52 226.5 246.74 227.04 246.8 227.44C248.32 227.44 249.28 227.44 249.9 227.22C250.5 227 250.64 226.58 250.64 225.86V221.38H249.18ZM261.48 217H266.34V221.6H261.48V217ZM260.06 215.66V222.92H267.84V215.66H260.06ZM255.64 211.02V228.58H257.18V212.54H270.76V228.58H272.36V211.02H255.64ZM256.5 226.1V227.52H271.68V226.1H256.5ZM283.2 210.22V212.88H284.74V210.22H283.2ZM275.74 212V215.98H277.2V213.38H290.84V215.98H292.36V212H275.74ZM278.3 215.38V216.7H289.56V215.38H278.3ZM280.92 218.38C284.8 221.34 284.88 225.86 283.46 226.88C283.06 227.22 282.62 227.26 282.08 227.26C281.62 227.26 280.94 227.24 280.2 227.16C280.46 227.58 280.6 228.2 280.64 228.6C281.26 228.64 281.9 228.66 282.38 228.66C283.28 228.66 283.84 228.52 284.52 227.98C286.58 226.54 286.48 220.96 282.04 217.68L280.92 218.38ZM283.92 215.68C282.1 217.38 278.66 218.74 275.6 219.48C275.86 219.76 276.26 220.38 276.42 220.66C279.54 219.76 283.1 218.22 285.16 216.22L283.92 215.68ZM282.5 219.5C281.02 220.72 278 222.14 275.74 222.76C276.04 223.06 276.36 223.58 276.54 223.92C278.84 223.1 281.84 221.54 283.5 220.18L282.5 219.5ZM283.98 221.56C282.1 223.5 278.22 225.58 275.04 226.42C275.32 226.76 275.66 227.3 275.84 227.68C279.04 226.62 282.94 224.42 285.02 222.32L283.98 221.56ZM285.82 215.9L284.58 216.16C285.78 221.18 288.14 225.24 292.08 227.04C292.32 226.62 292.78 226.04 293.12 225.74C289.32 224.22 286.92 220.4 285.82 215.9ZM290.96 217.38C289.82 218.4 287.88 219.76 286.52 220.56L287.46 221.48C288.88 220.72 290.76 219.48 292.12 218.38L290.96 217.38ZM308.8 212.24H310.9V214.4H308.8V212.24ZM305.72 212.24H307.74V214.4H305.72V212.24ZM302.7 212.24H304.66V214.4H302.7V212.24ZM301.4 211.1V215.54H312.24V211.1H301.4ZM302.74 215.5C302.4 216.42 301.68 217.76 301.16 218.58L302.02 219.02C302.58 218.24 303.3 217.06 303.9 216.02L302.74 215.5ZM304.6 217.3C303.8 218.82 302.38 220.98 301.28 222.26L302.08 222.72C303.22 221.48 304.64 219.46 305.7 217.84L304.6 217.3ZM300.4 218.52C301.22 219.26 302.2 220.34 302.62 221.06L303.34 220.04C302.9 219.36 301.9 218.36 301.08 217.62L300.4 218.52ZM304.52 224.18C304.9 225.16 305.24 226.44 305.36 227.24L306.36 226.86C306.26 226.1 305.86 224.86 305.46 223.88L304.52 224.18ZM304.18 220.86C304.74 221.72 305.28 222.92 305.46 223.68L306.38 223.24C306.16 222.5 305.6 221.36 305.04 220.48L304.18 220.86ZM300.34 222.04L300.44 223.26C301.94 223.18 303.76 223.1 305.66 222.98L305.68 221.88C303.66 221.94 301.74 222 300.34 222.04ZM302.72 222.44V228.62H303.92V222.44H302.72ZM300.9 223.88C300.64 225.1 300.22 226.34 299.6 227.24C299.92 227.36 300.44 227.6 300.68 227.76C301.22 226.84 301.74 225.46 302.06 224.14L300.9 223.88ZM307.86 215.64C307.28 217.46 306.4 219.34 305.36 220.62C305.64 220.82 306.12 221.28 306.32 221.48C307.4 220.1 308.44 217.98 309.08 215.96L307.86 215.64ZM308 218.3H307.72L306.8 219.4V228.58H308V219.52H312.92V218.3H308ZM310.72 215.74C310.46 216.64 309.94 217.98 309.54 218.8L310.5 219.18C310.94 218.4 311.46 217.2 311.94 216.16L310.72 215.74ZM309.7 218.8V227.16H310.84V218.8H309.7ZM307.4 221.1V222.22H312.72V221.1H307.4ZM307.4 223.8V224.92H312.76V223.8H307.4ZM307.22 226.58V227.74H313.26V226.58H307.22ZM296.18 212.16V213.52H298.82V221.98H296.18V223.36H300.06V212.16H296.18ZM295.44 212.16V225.02H296.68V212.16H295.44ZM323.34 222.18H324.64L325.04 214.42L325.1 212.04H322.88L322.94 214.42L323.34 222.18ZM324 227.1C324.7 227.1 325.28 226.6 325.28 225.8C325.28 225 324.7 224.46 324 224.46C323.28 224.46 322.7 225 322.7 225.8C322.7 226.6 323.28 227.1 324 227.1Z" fill="#4C4C4C"/>
<path d="M123.52 112.4V116.72H144.28V112.4H123.52ZM116.08 119.6V124.12H151.92V119.6H116.08ZM125.76 123.2C125.16 128.68 124.08 132.4 114.92 134.44C116 135.44 117.24 137.44 117.72 138.72C128.28 135.92 130.2 130.64 130.96 123.2H125.76ZM136.08 122.44V132.28C136.08 136.6 137.2 138 141.88 138C142.8 138 146.08 138 147 138C150.8 138 152.08 136.48 152.56 130.64C151.32 130.32 149.24 129.56 148.28 128.8C148.12 133 147.88 133.68 146.56 133.68C145.8 133.68 143.2 133.68 142.56 133.68C141.16 133.68 140.92 133.48 140.92 132.2V122.44H136.08ZM131.32 101.08V108.32H136.44V101.08H131.32ZM116.8 104.92V114.44H121.68V109.44H146V114.44H151.16V104.92H116.8ZM161.24 116.08V120.48H170.48V116.08H161.24ZM168.64 116.08V116.8C168.56 124.56 168.4 127.36 167.92 128C167.6 128.4 167.24 128.48 166.68 128.48C166.04 128.48 164.68 128.48 163.24 128.32C163.96 129.52 164.48 131.4 164.56 132.8C166.44 132.84 168.16 132.84 169.24 132.68C170.4 132.48 171.2 132.12 172 131.12C172.92 129.88 173.12 126.32 173.28 117.84C173.28 117.28 173.32 116.08 173.32 116.08H168.64ZM180.68 103.56C182.92 104.84 185.76 106.8 187.08 108.2L190.16 104.96C188.72 103.64 185.76 101.8 183.56 100.64L180.68 103.56ZM185.4 113.84C182.64 123.12 177.28 130.36 169.6 134.48C170.6 135.44 172.36 137.44 173.08 138.44C181 133.56 186.88 125.44 190.24 115L185.4 113.84ZM161.52 107.04V111.76H192.36V107.04H161.52ZM158.32 107.04V118.76C158.32 124 158.04 131 154.96 135.8C156.08 136.36 158.24 138.12 159.04 139.08C162.68 133.68 163.36 124.8 163.36 118.8V107.04H158.32ZM174.56 101.08C174.68 119.32 177.92 138.32 186.64 138.32C190.4 138.32 192 136.52 192.76 129.08C191.48 128.6 189.76 127.48 188.68 126.36C188.44 131.4 187.96 133.44 187.04 133.44C183 133.44 179.32 117.4 179.6 101.08H174.56ZM217.92 104.24C217.32 109.24 216.12 114.76 209.64 117.84C210.6 118.6 211.84 120.16 212.36 121.24C219.72 117.36 221.48 110.76 222.24 104.24H217.92ZM211 111.08C214.92 112.32 219.68 114.68 222.28 116.56L224.56 112.88C221.88 111.16 217.2 108.96 213.24 107.76L211 111.08ZM227.04 102.6V103.32C226.76 111.72 226.4 114.76 225.76 115.52C225.44 115.92 225.08 116.04 224.56 116C223.96 116 222.76 116 221.4 115.88C222.04 117.04 222.52 118.84 222.56 120.16C224.32 120.2 225.96 120.2 226.92 120.04C228.08 119.88 228.84 119.52 229.6 118.52C230.68 117.24 231.08 113.48 231.48 104.36C231.52 103.8 231.52 102.6 231.52 102.6H227.04ZM215.4 124.16V133C215.4 137 216.16 138.32 219.88 138.32C220.64 138.32 222.48 138.32 223.2 138.32C226.08 138.32 227.24 136.96 227.68 131.68C226.48 131.36 224.6 130.68 223.76 129.96C223.64 133.68 223.48 134.16 222.72 134.16C222.32 134.16 221 134.16 220.64 134.16C219.88 134.16 219.8 134.04 219.8 132.92V124.16H215.4ZM211.32 125.72C210.96 129 210.16 132.32 208.52 134.32L212.04 136.48C213.96 134.12 214.72 130.32 215.08 126.72L211.32 125.72ZM216.28 121.4C218.84 122.88 221.88 125.16 223.28 126.8L226.24 123.68C224.76 122 221.6 119.92 219.04 118.64L216.28 121.4ZM225.12 126.36C227.08 129.44 228.72 133.68 229.16 136.48L233.36 134.76C232.84 131.92 231.08 127.84 229 124.8L225.12 126.36ZM211.52 102.6V106.6H229.08V102.6H211.52ZM197 113.32V116.92H208.72V113.32H197ZM197.12 102.28V105.92H208.6V102.28H197.12ZM197 118.76V122.4H208.72V118.76H197ZM195.16 107.68V111.48H209.8V107.68H195.16ZM199.08 124.32V128.12H204.76V132.68H199.08V136.48H208.76V124.32H199.08ZM196.92 124.32V138.08H200.84V124.32H196.92ZM238.04 104.52V108.04H269.72V104.52H238.04ZM240.08 109.44V112.76H267.84V109.44H240.08ZM236.12 114.16V117.68H271.72V114.16H236.12ZM245.64 124.24V126.72H261.28V124.24H245.64ZM251.44 106.44V115.88H256.4V106.44H251.44ZM251.6 118.4V122H256.16V118.4H251.6ZM243.36 102.24C244.28 103.36 245.2 104.96 245.52 106L249.96 104.36C249.52 103.32 248.56 101.88 247.6 100.88L243.36 102.24ZM260 101C259.56 101.96 258.76 103.44 258.08 104.48L262.2 105.56C263.04 104.72 264.16 103.48 265.28 102L260 101ZM261.76 115.16L258 116.48C260.6 120.68 265 124.24 269.92 125.96C270.6 124.8 271.96 123.12 272.92 122.2C268.28 120.96 263.96 118.28 261.76 115.16ZM255.36 129.2L251.6 130C255.08 135.32 261 137.8 269.52 138.68C270.08 137.4 271.2 135.56 272.16 134.6C264.24 134.28 258.24 132.68 255.36 129.2ZM246.24 120.04V122.96H260.12V128.04H246.24V130.96H264.96V120.04H246.24ZM243.04 120.04V135.6H247.8V120.04H243.04ZM238.8 134.24L239.28 138.36C243.96 137.96 250.36 137.4 256.44 136.84V133.08C250 133.56 243.2 134 238.8 134.24ZM266.52 129.32C264.96 130.72 262.24 132.64 260.24 133.8L262.96 135.52C265.08 134.48 267.76 132.96 270.04 131.32L266.52 129.32ZM245.68 115.28C243.56 118.6 239.36 121.32 234.84 122.92C235.84 123.76 237.44 125.48 238.12 126.4C242.76 124.32 247.44 120.88 250.12 116.56L245.68 115.28Z" fill="#4C4C4C"/>
<path d="M211.182 347.145C210.183 346.513 209.259 345.217 208.186 343.736C205.473 339.988 201.776 334.851 192.773 334.851C183.769 334.851 180.073 339.988 177.36 343.736C176.287 345.217 175.362 346.497 174.379 347.145C165.972 352.56 161.887 358.993 161.887 366.829C161.887 373.894 168.58 380.82 175.407 380.82C182.801 380.82 186.065 378.429 188.45 376.686C189.985 375.56 190.999 374.82 192.788 374.82C194.576 374.82 195.59 375.56 197.125 376.686C199.51 378.429 202.76 380.82 210.168 380.82C216.995 380.82 223.688 373.894 223.688 366.829C223.688 358.993 219.604 352.56 211.197 347.145H211.182Z" fill="#EDDCCE"/>
<path d="M165.39 336.995C163.005 327.801 156.625 321.831 150.886 323.436C147.965 324.253 145.759 326.829 144.686 330.701C143.717 334.218 143.776 338.476 144.864 342.687C145.953 346.899 147.95 350.616 150.499 353.162C152.69 355.367 155.105 356.509 157.46 356.509C158.101 356.509 158.742 356.416 159.368 356.247C165.122 354.658 167.76 346.189 165.375 336.995H165.39Z" fill="#EDDCCE"/>
<path d="M176.599 332.845C183.516 332.845 188.927 324.099 188.927 312.915C188.927 301.731 183.501 293 176.599 293C169.698 293 164.272 301.747 164.272 312.93C164.272 324.114 169.683 332.861 176.599 332.861V332.845Z" fill="#EDDCCE"/>
<path d="M208.961 332.845C215.878 332.845 221.289 324.099 221.289 312.915C221.289 301.731 215.878 293 208.961 293C202.045 293 196.634 301.747 196.634 312.93C196.634 324.114 202.045 332.861 208.961 332.861V332.845Z" fill="#EDDCCE"/>
<path d="M234.674 323.435C231.753 322.618 228.593 323.729 225.805 326.521C223.271 329.066 221.259 332.784 220.171 336.995C219.082 341.206 219.008 345.464 219.992 348.981C221.065 352.853 223.256 355.444 226.193 356.247C226.819 356.416 227.46 356.509 228.086 356.509C233.288 356.509 238.58 350.894 240.696 342.687C243.081 333.493 240.443 325.024 234.689 323.435H234.674Z" fill="#EDDCCE"/>
</svg>
