<svg width="388" height="480" viewBox="0 0 388 480" fill="none" xmlns="http://www.w3.org/2000/svg">
<rect width="388" height="480" rx="20" fill="#F7F5F0"/>
<path d="M66.3023 178.1H62.3223V179.5H64.8623V185.18H66.3023V178.1ZM66.3023 184.58H65.0023C64.0623 185.44 62.9823 186.34 62.1023 186.98L62.8823 188.44C63.8823 187.56 64.8023 186.7 65.6823 185.84C66.9223 187.42 68.7423 188.12 71.3823 188.22C73.6223 188.32 77.9023 188.28 80.1623 188.18C80.2223 187.74 80.4623 187.04 80.6423 186.7C78.2223 186.86 73.6023 186.92 71.3823 186.82C69.0023 186.74 67.2423 186.06 66.3023 184.58ZM62.5023 171.54C63.7223 172.52 65.1023 173.92 65.6623 174.92L66.9023 173.98C66.2823 173 64.8823 171.62 63.6423 170.72L62.5023 171.54ZM67.6423 173.92V175.1H80.4223V173.92H67.6423ZM69.2423 178.96V180.12H75.9623V178.96H69.2423ZM75.8223 180.76V181.9H78.8023V180.76H75.8223ZM73.2623 171.8V178.48H74.6823V171.8H73.2623ZM72.8623 174.46C71.6223 176.14 69.1823 177.76 67.0023 178.5C67.3023 178.76 67.7023 179.24 67.9223 179.58C70.1223 178.68 72.6023 176.84 73.9423 174.9L72.8623 174.46ZM75.0823 174.52L74.0623 174.9C75.3423 176.76 77.6823 178.56 79.8623 179.4C80.0623 179.06 80.4623 178.56 80.7623 178.28C78.6023 177.62 76.2623 176.1 75.0823 174.52ZM78.3823 180.76V180.96C78.2023 183.14 78.0023 184.02 77.6823 184.3C77.5423 184.44 77.3623 184.46 77.0223 184.46C76.6823 184.46 75.7423 184.44 74.7823 184.34C74.9823 184.68 75.1223 185.16 75.1623 185.52C76.1423 185.58 77.1023 185.58 77.6023 185.54C78.1223 185.52 78.5023 185.42 78.8223 185.1C79.2623 184.7 79.5223 183.68 79.7423 181.32C79.7623 181.12 79.8023 180.76 79.8023 180.76H78.3823ZM78.5623 170.54C76.2223 171.08 71.8623 171.42 68.2423 171.56C68.3823 171.86 68.5423 172.34 68.5823 172.64C72.2623 172.52 76.7423 172.18 79.5623 171.56L78.5623 170.54ZM71.7223 179.28C71.4623 181.86 70.7223 183.74 67.6423 184.7C67.9223 184.96 68.3023 185.48 68.4423 185.82C71.8823 184.64 72.8023 182.4 73.1223 179.28H71.7223ZM75.5823 178.96C75.4223 180.08 75.1423 181.44 74.8823 182.4L76.1823 182.58C76.4223 181.6 76.7223 180.18 76.9423 178.96H75.5823ZM86.3023 178.1H82.3223V179.5H84.8623V185.18H86.3023V178.1ZM86.3023 184.58H85.0023C84.0623 185.44 82.9823 186.34 82.1023 186.98L82.8823 188.44C83.8823 187.56 84.8023 186.7 85.6823 185.84C86.9223 187.42 88.7423 188.12 91.3823 188.22C93.6223 188.32 97.9023 188.28 100.162 188.18C100.222 187.74 100.462 187.04 100.642 186.7C98.2223 186.86 93.6023 186.92 91.3823 186.82C89.0023 186.74 87.2423 186.06 86.3023 184.58ZM82.5023 171.54C83.7223 172.52 85.1023 173.92 85.6623 174.92L86.9023 173.98C86.2823 173 84.8823 171.62 83.6423 170.72L82.5023 171.54ZM88.2423 177.1V185.78H89.5823V178.3H99.0623V177.1H88.2423ZM93.0823 173.72V177.6H94.2223V174.78H97.2823V173.72H93.0823ZM89.8023 170.9V177.5H91.1423V172.08H96.6823V177.5H98.0423V170.9H89.8023ZM91.9423 179.58V180.66H95.3023V182.78H91.9423V183.82H96.4623V179.58H91.9423ZM98.2223 177.1V184.3C98.2223 184.5 98.1423 184.56 97.9223 184.58C97.7023 184.58 96.9423 184.58 96.1023 184.56C96.2823 184.9 96.4623 185.42 96.5223 185.78C97.7023 185.78 98.4823 185.78 98.9623 185.56C99.4823 185.36 99.6023 184.98 99.6023 184.3V177.1H98.2223ZM91.2623 179.58V184.62H92.4223V179.58H91.2623ZM102.282 178.38V180.02H120.582V178.38H102.282ZM123.682 181.3V182.54H139.202V181.3H123.682ZM122.522 171.5V172.6H131.762V171.5H122.522ZM131.442 184.08V185.26H137.882V184.08H131.442ZM122.342 186.9V188.16H140.502V186.9H122.342ZM130.622 181.76V187.52H132.122V181.76H130.622ZM126.482 170.2V180.76H127.822V170.2H126.482ZM125.622 183.44V187.58H127.062V183.44H125.622ZM124.342 174.64H130.002V176.28H124.342V174.64ZM123.122 173.62V177.3H131.282V173.62H123.122ZM127.802 177.24L127.062 177.9C127.922 178.36 129.922 179.5 130.682 180.04L131.422 179.04C130.802 178.7 128.502 177.54 127.802 177.24ZM134.242 170.22C133.662 172.24 132.602 174.1 131.202 175.32C131.502 175.56 132.022 176.08 132.222 176.34C133.682 174.96 134.902 172.82 135.602 170.52L134.242 170.22ZM133.862 172.44L133.262 173.68H140.422V172.44H133.862ZM137.862 173C137.042 176.56 134.682 178.62 131.102 179.72C131.402 179.96 131.842 180.54 132.002 180.84C135.722 179.46 138.262 177.2 139.282 173.16L137.862 173ZM134.022 173.18L133.042 173.84C133.962 176.46 136.122 179.5 139.902 180.9C140.102 180.54 140.482 179.98 140.762 179.72C137.002 178.54 134.882 175.7 134.022 173.18ZM126.362 176.78C125.422 177.94 123.622 179.2 122.182 179.82C122.482 180.04 122.882 180.46 123.082 180.78C124.502 180.02 126.342 178.54 127.322 177.2L126.362 176.78ZM152.222 178.56L150.762 178.88C152.142 183.96 154.802 187.26 159.662 188.64C159.902 188.22 160.342 187.58 160.702 187.24C156.022 186.1 153.382 183.04 152.222 178.56ZM143.202 177.98V179.5H159.662V177.98H143.202ZM142.582 171.76V173.28H160.182V171.76H142.582ZM150.462 172.18V176.84C150.462 180.5 149.682 184.8 142.202 187.34C142.522 187.64 142.962 188.28 143.122 188.66C151.142 185.88 152.042 181.06 152.042 176.84V172.18H150.462ZM174.482 171.46V172.8H178.182V171.46H174.482ZM169.862 172.44V173.72H174.082V172.44H169.862ZM174.682 175.16V176.42H178.142V175.16H174.682ZM174.642 178.9V180.16H178.042V178.9H174.642ZM164.782 175.16V176.42H168.182V175.16H164.782ZM164.862 178.88V180.16H168.202V178.88H164.862ZM163.982 171.6L164.382 183.22H165.742L165.382 172.38C165.622 172.34 165.722 172.26 165.762 172.14L163.982 171.6ZM177.362 171.46C177.382 175.14 177.222 180.24 177.002 183.18H178.422C178.622 180.3 178.742 175.22 178.762 171.46H177.362ZM167.662 170.4C166.862 170.94 165.522 171.66 164.362 172.2C164.522 172.5 164.762 172.98 164.842 173.24C166.122 172.76 167.622 172.12 168.842 171.48L167.662 170.4ZM169.202 177.9V183.1H170.442V177.9H169.202ZM169.222 170.38V177.02H173.122V175.8H170.522V170.38H169.222ZM172.382 175.8V183.08H173.682V175.8H172.382ZM162.282 182.58V183.98H180.542V182.58H162.282ZM173.262 185.26C175.402 186.32 177.682 187.68 179.022 188.66L180.422 187.64C178.962 186.64 176.542 185.3 174.322 184.26L173.262 185.26ZM168.022 184.3C166.782 185.4 164.382 186.78 162.442 187.58C162.802 187.86 163.322 188.34 163.582 188.64C165.482 187.8 167.842 186.44 169.422 185.2L168.022 184.3ZM193.062 170.22V173.16H194.582V170.22H193.062ZM188.742 172.52V187.38L190.182 187.04V172.52H188.742ZM189.562 172.52V173.88H197.602V179.56H189.562V180.9H199.082V172.52H189.562ZM189.542 176.08V177.36H198.382V176.08H189.542ZM187.022 186.88L187.322 188.3C189.342 187.94 192.122 187.46 194.782 186.96L194.682 185.64C191.842 186.12 188.922 186.6 187.022 186.88ZM193.982 180.34L192.642 180.66C193.882 184.54 196.262 187.38 199.902 188.64C200.122 188.28 200.562 187.7 200.902 187.4C197.402 186.34 195.062 183.74 193.982 180.34ZM199.202 181.36C198.162 182.26 196.402 183.42 195.162 184.12L196.002 185.06C197.262 184.38 198.962 183.34 200.162 182.34L199.202 181.36ZM183.202 171.46C184.482 172.06 186.022 173.02 186.782 173.74L187.642 172.52C186.882 171.82 185.302 170.92 184.042 170.38L183.202 171.46ZM182.142 176.9C183.442 177.44 185.022 178.34 185.802 179.02L186.662 177.78C185.862 177.12 184.242 176.26 182.962 175.78L182.142 176.9ZM182.742 187.36L184.042 188.32C185.142 186.46 186.462 183.92 187.442 181.8L186.302 180.88C185.222 183.16 183.762 185.82 182.742 187.36ZM213.062 170.22V173.16H214.582V170.22H213.062ZM208.742 172.52V187.38L210.182 187.04V172.52H208.742ZM209.562 172.52V173.88H217.602V179.56H209.562V180.9H219.082V172.52H209.562ZM209.542 176.08V177.36H218.382V176.08H209.542ZM207.022 186.88L207.322 188.3C209.342 187.94 212.122 187.46 214.782 186.96L214.682 185.64C211.842 186.12 208.922 186.6 207.022 186.88ZM213.982 180.34L212.642 180.66C213.882 184.54 216.262 187.38 219.902 188.64C220.122 188.28 220.562 187.7 220.902 187.4C217.402 186.34 215.062 183.74 213.982 180.34ZM219.202 181.36C218.162 182.26 216.402 183.42 215.162 184.12L216.002 185.06C217.262 184.38 218.962 183.34 220.162 182.34L219.202 181.36ZM203.202 171.46C204.482 172.06 206.022 173.02 206.782 173.74L207.642 172.52C206.882 171.82 205.302 170.92 204.042 170.38L203.202 171.46ZM202.142 176.9C203.442 177.44 205.022 178.34 205.802 179.02L206.662 177.78C205.862 177.12 204.242 176.26 202.962 175.78L202.142 176.9ZM202.742 187.36L204.042 188.32C205.142 186.46 206.462 183.92 207.442 181.8L206.302 180.88C205.222 183.16 203.762 185.82 202.742 187.36ZM228.582 174.38V175.52H232.622V174.38H228.582ZM234.922 174.38V175.52H239.002V174.38H234.922ZM238.522 171.36V186.64C238.522 187.02 238.382 187.14 238.002 187.16C237.602 187.18 236.202 187.18 234.782 187.14C234.982 187.54 235.222 188.2 235.302 188.6C237.202 188.6 238.382 188.58 239.042 188.32C239.722 188.08 239.962 187.62 239.962 186.64V171.36H238.522ZM227.742 171.36V188.56H229.142V171.36H227.742ZM228.662 171.36V172.56H231.942V177.46H228.662V178.66H233.122V171.36H228.662ZM239.242 171.36H234.322V178.66H239.242V177.46H235.562V172.56H239.242V171.36ZM226.042 170.32C225.082 173.4 223.502 176.48 221.742 178.48C222.002 178.86 222.402 179.66 222.542 180.02C224.522 177.68 226.302 174.16 227.442 170.7L226.042 170.32ZM224.442 175.22V188.6H225.862V173.88L225.822 173.84L224.442 175.22ZM244.022 173.42V174.76H248.702V185.14H244.022V186.5H250.102V173.42H244.022ZM243.122 173.42V188.1H244.522V173.42H243.122ZM243.922 178.98V180.32H249.442V178.98H243.922ZM246.182 170.16C246.022 171.2 245.642 172.72 245.302 173.68L246.502 173.98C246.902 173.08 247.402 171.7 247.802 170.46L246.182 170.16ZM252.942 173.36V174.76H259.082V173.36H252.942ZM258.562 173.36V173.68C258.282 182.5 257.962 185.82 257.302 186.54C257.082 186.8 256.842 186.86 256.442 186.86C255.982 186.86 254.782 186.84 253.482 186.74C253.762 187.14 253.942 187.76 253.982 188.2C255.102 188.26 256.282 188.3 256.962 188.22C257.662 188.16 258.122 187.98 258.562 187.4C259.362 186.42 259.642 183.32 259.962 174.14C259.962 173.92 259.962 173.36 259.962 173.36H258.562ZM253.362 170.12C252.722 172.9 251.622 175.66 250.262 177.42C250.622 177.62 251.242 178.04 251.502 178.28C252.882 176.38 254.062 173.44 254.802 170.46L253.362 170.12ZM252.442 178.56C253.542 180.02 254.882 182 255.482 183.22L256.762 182.42C256.122 181.24 254.742 179.3 253.602 177.88L252.442 178.56ZM271.602 176.16V177.54H279.162V176.16H271.602ZM271.622 181V182.38H279.182V181H271.622ZM271.602 185.86V187.24H279.182V185.86H271.602ZM270.862 171.38V188.48H272.302V172.82H278.402V188.42H279.902V171.38H270.862ZM262.422 174.5V175.94H269.982V174.5H262.422ZM265.682 170.2V188.58H267.122V170.2H265.682ZM265.602 175.38C264.982 178.28 263.462 181.72 261.962 183.52C262.222 183.86 262.602 184.46 262.762 184.88C264.342 182.86 265.882 178.96 266.602 175.72L265.602 175.38ZM266.982 177.58L266.222 178.3C266.922 179.12 268.602 181.36 269.162 182.34L270.102 181.1C269.622 180.54 267.562 178.14 266.982 177.58ZM291.102 171.48V172.62H298.802V171.48H291.102ZM287.762 180.72V181.82H291.042V180.72H287.762ZM293.742 180.7V181.86H297.222V180.7H293.742ZM284.682 173.9V175.1H299.162V173.9H284.682ZM290.422 170.22V174.58H291.922V170.22H290.422ZM286.362 176.7L286.442 177.74L296.942 177.04L296.862 176.04L286.362 176.7ZM290.422 174.84V178.02C290.422 179.42 291.002 179.72 293.162 179.72C293.642 179.72 297.242 179.72 297.722 179.72C299.242 179.72 299.702 179.36 299.862 177.8C299.482 177.74 298.942 177.6 298.622 177.4C298.562 178.46 298.382 178.64 297.562 178.64C296.822 178.64 293.802 178.64 293.242 178.64C292.042 178.64 291.842 178.52 291.842 178.02V174.84H290.422ZM283.882 173.9V178.82C283.882 181.44 283.722 185.12 282.122 187.76C282.442 187.9 283.062 188.38 283.302 188.64C285.022 185.86 285.302 181.68 285.302 178.82V173.9H283.882ZM298.682 173.9V174.12C298.402 175.1 297.982 176.28 297.582 177.02L298.842 177.4C299.302 176.58 299.822 175.28 300.222 174.14L299.182 173.84L298.922 173.9H298.682ZM293.102 180.7V182.28C293.102 183.32 292.862 184.56 291.522 185.56C291.782 185.72 292.282 186.18 292.442 186.42C294.002 185.26 294.342 183.64 294.342 182.32V180.7H293.102ZM287.962 179.12C287.342 181.02 286.202 182.76 284.802 183.9C285.082 184.12 285.542 184.56 285.722 184.78C287.162 183.52 288.462 181.54 289.162 179.4L287.962 179.12ZM296.502 180.7V184.16C296.502 185.18 296.582 185.5 296.842 185.74C297.102 185.96 297.522 186.06 297.882 186.06C298.082 186.06 298.562 186.06 298.762 186.06C299.062 186.06 299.422 186 299.622 185.9C299.862 185.78 300.042 185.58 300.142 185.28C300.242 185.02 300.302 184.18 300.342 183.46C300.002 183.36 299.582 183.16 299.342 182.94C299.322 183.66 299.302 184.22 299.262 184.48C299.222 184.72 299.142 184.84 299.062 184.88C299.002 184.94 298.822 184.96 298.682 184.96C298.542 184.96 298.282 184.96 298.162 184.96C298.042 184.96 297.942 184.94 297.882 184.88C297.822 184.82 297.802 184.6 297.802 184.26V180.7H296.502ZM290.662 180.72V180.92C289.902 184.62 287.562 186.76 284.622 187.64C284.882 187.9 285.182 188.38 285.322 188.7C288.562 187.56 291.022 185.28 291.902 180.9L291.142 180.68L290.902 180.72H290.662ZM287.722 181.84L286.722 182.2C288.142 187.42 291.022 188.38 295.442 188.38H300.182C300.262 188.02 300.462 187.42 300.662 187.1C299.822 187.12 296.142 187.12 295.522 187.12C291.702 187.12 288.922 186.36 287.722 181.84ZM304.542 189.14C306.642 188.42 308.002 186.78 308.002 184.62C308.002 183.22 307.402 182.3 306.282 182.3C305.482 182.3 304.762 182.8 304.762 183.74C304.762 184.7 305.442 185.18 306.262 185.18C306.642 185.18 307.042 185.08 307.322 184.72L306.242 183.2L306.622 184.9C306.622 186.4 305.722 187.42 304.082 188.1L304.542 189.14ZM126.1 225.38V226.84H131.54V225.38H126.1ZM115.06 214V215.46H122.74V214H115.06ZM125.42 212.7V228.3H126.88V214.14H130.74V228.16H132.26V212.7H125.42ZM122.34 214V214.36C122.2 222.92 122.02 225.88 121.56 226.5C121.38 226.76 121.2 226.82 120.9 226.8C120.52 226.8 119.66 226.8 118.72 226.72C118.98 227.14 119.14 227.8 119.16 228.24C120.06 228.3 120.98 228.3 121.54 228.22C122.14 228.16 122.5 227.98 122.86 227.46C123.5 226.58 123.64 223.66 123.8 214.76C123.8 214.56 123.8 214 123.8 214H122.34ZM117.9 210.48C117.88 217.48 117.9 224.08 114.56 227.6C114.94 227.82 115.46 228.28 115.72 228.62C119.24 224.8 119.34 217.86 119.36 210.48H117.9ZM140.28 220.38V221.74H152.98V220.38H140.28ZM147.66 212.24V216.18C147.66 217.54 148 217.9 149.46 217.9C149.74 217.9 151.2 217.9 151.5 217.9C152.6 217.9 152.98 217.44 153.12 215.62C152.74 215.52 152.18 215.34 151.88 215.12C151.84 216.48 151.76 216.68 151.34 216.68C151.04 216.68 149.86 216.68 149.64 216.68C149.12 216.68 149.06 216.6 149.06 216.16V212.24H147.66ZM140.56 211.1V214.78H141.9V212.38H151.46V214.44H152.84V211.1H140.56ZM145.74 218.12V228.6H147.2V218.12H145.74ZM144.34 212.26C144.18 215.28 143.58 216.72 140.26 217.52C140.52 217.78 140.9 218.3 141.02 218.64C144.76 217.64 145.56 215.82 145.76 212.26H144.34ZM147.8 221.02L146.7 221.42C147.9 223.88 150.1 226.38 152.22 227.62C152.46 227.22 152.94 226.68 153.3 226.4C151.16 225.38 148.92 223.16 147.8 221.02ZM145.28 220.9C144.06 223.28 141.68 225.56 139.3 226.62C139.62 226.9 140.04 227.42 140.26 227.76C142.72 226.5 145.14 224.02 146.46 221.3L145.28 220.9ZM135.7 211.52C136.98 212.14 138.48 213.12 139.22 213.86L140.12 212.64C139.36 211.94 137.82 211 136.58 210.44L135.7 211.52ZM134.78 217.02C136.06 217.5 137.64 218.28 138.42 218.94L139.22 217.62C138.42 217 136.82 216.26 135.54 215.86L134.78 217.02ZM135.3 227.46L136.6 228.38C137.66 226.54 138.88 224.08 139.82 222L138.66 221.12C137.64 223.34 136.26 225.94 135.3 227.46ZM159.22 214.6C158.12 216.66 156.34 218.72 154.62 220.04C154.88 220.4 155.32 221.18 155.46 221.5C157.3 219.94 159.28 217.5 160.56 215.12L159.22 214.6ZM158.84 210.26C158.02 211.66 156.36 213.34 154.84 214.38C155.08 214.66 155.46 215.26 155.64 215.6C157.34 214.4 159.16 212.54 160.28 210.8L158.84 210.26ZM157.42 218.34V228.6H158.88V216.98L158.84 216.94L157.42 218.34ZM162.32 213.16V214.56H171.6V213.16H162.32ZM171.16 213.16V213.38C170.88 214.62 170.46 216.16 170.1 217.1L171.42 217.42C171.84 216.4 172.34 214.78 172.72 213.36L171.64 213.1L171.4 213.16H171.16ZM166.14 210.22V218.82H167.6V210.22H166.14ZM161.52 213.16V218.42C161.52 221.16 161.34 224.9 159.4 227.54C159.7 227.7 160.3 228.2 160.52 228.48C162.64 225.66 162.96 221.4 162.96 218.44V213.16H161.52ZM162.46 218.06V219.4H170.58V218.06H162.46ZM170.32 218.06V218.32C169.14 223.02 165.7 226.1 161.82 227.38C162.12 227.66 162.5 228.24 162.66 228.58C166.86 227.04 170.42 223.86 171.8 218.36L170.86 218L170.58 218.06H170.32ZM164.38 218.84L163.1 219.18C164.64 223.8 167.6 227.12 172.12 228.56C172.32 228.16 172.76 227.58 173.08 227.28C168.7 226.06 165.76 222.98 164.38 218.84ZM180.76 216.38V217.84H184.6V216.38H180.76ZM180.22 210.22V226.44L181.76 226.24V210.22H180.22ZM176.5 214.26V227L177.96 226.8V214.26H176.5ZM174.88 226.74L175.14 228.34C177.66 227.86 181.3 227.2 184.72 226.56L184.6 225.06C181.06 225.7 177.3 226.36 174.88 226.74ZM191.48 214.58C190.22 215.74 188.02 217.14 186.04 218.14C186.24 218.46 186.52 218.98 186.62 219.3C188.72 218.3 191.06 217.04 192.72 215.78L191.48 214.58ZM185.6 210.22V225.22C185.6 227.38 186.12 227.96 187.98 227.96C188.36 227.96 190.62 227.96 191.02 227.96C192.82 227.96 193.22 226.84 193.4 223.6C192.98 223.5 192.36 223.24 191.96 222.94C191.86 225.78 191.74 226.5 190.9 226.5C190.42 226.5 188.56 226.5 188.16 226.5C187.32 226.5 187.18 226.3 187.18 225.26V210.22H185.6ZM196.62 213.42V214.76H201.3V225.14H196.62V226.5H202.7V213.42H196.62ZM195.72 213.42V228.1H197.12V213.42H195.72ZM196.52 218.98V220.32H202.04V218.98H196.52ZM198.78 210.16C198.62 211.2 198.24 212.72 197.9 213.68L199.1 213.98C199.5 213.08 200 211.7 200.4 210.46L198.78 210.16ZM205.54 213.36V214.76H211.68V213.36H205.54ZM211.16 213.36V213.68C210.88 222.5 210.56 225.82 209.9 226.54C209.68 226.8 209.44 226.86 209.04 226.86C208.58 226.86 207.38 226.84 206.08 226.74C206.36 227.14 206.54 227.76 206.58 228.2C207.7 228.26 208.88 228.3 209.56 228.22C210.26 228.16 210.72 227.98 211.16 227.4C211.96 226.42 212.24 223.32 212.56 214.14C212.56 213.92 212.56 213.36 212.56 213.36H211.16ZM205.96 210.12C205.32 212.9 204.22 215.66 202.86 217.42C203.22 217.62 203.84 218.04 204.1 218.28C205.48 216.38 206.66 213.44 207.4 210.46L205.96 210.12ZM205.04 218.56C206.14 220.02 207.48 222 208.08 223.22L209.36 222.42C208.72 221.24 207.34 219.3 206.2 217.88L205.04 218.56ZM223.24 217.02V226.64C223.24 227 223.1 227.12 222.66 227.14C222.2 227.16 220.66 227.16 219 227.1C219.24 227.54 219.52 228.18 219.62 228.62C221.64 228.62 222.98 228.6 223.76 228.36C224.54 228.14 224.8 227.68 224.8 226.68V217.02H223.24ZM215.96 211.78V213.24H230.4V211.78H215.96ZM229.86 211.78V212.14C228.6 213.8 225.96 216.1 223.68 217.36C224 217.58 224.48 218.08 224.7 218.4C227.18 217 230 214.64 231.78 212.52L230.62 211.68L230.26 211.78H229.86ZM236.76 215.28V216.46H242.54V215.28H236.76ZM236.76 218.68V219.82H242.54V218.68H236.76ZM236.76 222.16V223.34H242.54V222.16H236.76ZM245.28 219.68V220.98H252.9V219.68H245.28ZM237.8 212V213.18H241.12V212H237.8ZM244 211.22V212.5H251.82V211.22H244ZM243.76 223.42V224.76H253.24V223.42H243.76ZM247.98 217.62V228.52H249.42V217.62H247.98ZM239.24 215.86V222.66H240.32V215.86H239.24ZM251.34 211.22V211.42C251.2 214.56 251.04 215.72 250.78 216.02C250.66 216.18 250.48 216.22 250.2 216.2C249.92 216.2 249.2 216.2 248.4 216.12C248.58 216.46 248.72 216.98 248.74 217.38C249.58 217.42 250.42 217.42 250.82 217.38C251.34 217.34 251.64 217.22 251.92 216.88C252.34 216.42 252.54 215.12 252.68 211.78C252.7 211.6 252.7 211.22 252.7 211.22H251.34ZM245.36 217.8C245.02 219.5 244.4 221.18 243.54 222.3C243.86 222.46 244.46 222.76 244.72 222.94C245.56 221.74 246.26 219.92 246.66 218.06L245.36 217.8ZM237.76 210.2C237.16 212.66 236.04 215.04 234.62 216.58C234.94 216.78 235.52 217.24 235.76 217.48C237.18 215.78 238.4 213.2 239.14 210.5L237.76 210.2ZM236.18 215.28V220.6C236.18 222.86 236.04 225.84 234.68 227.96C234.98 228.1 235.54 228.44 235.76 228.64C237.18 226.42 237.42 223.04 237.42 220.6V215.28H236.18ZM242.14 215.28V226.96C242.14 227.22 242.02 227.3 241.76 227.32C241.48 227.34 240.58 227.34 239.56 227.3C239.74 227.66 239.96 228.24 240.02 228.58C241.4 228.58 242.22 228.56 242.72 228.34C243.24 228.12 243.4 227.7 243.4 226.96V215.28H242.14ZM246.84 211.64C246.56 213.9 245.84 215.88 243.38 216.92C243.68 217.14 244.04 217.62 244.22 217.94C247.02 216.68 247.88 214.4 248.22 211.64H246.84ZM240.76 212V212.24C240.46 213.24 239.9 214.68 239.4 215.58C239.68 215.7 240.12 215.96 240.36 216.16C240.96 215.22 241.72 213.74 242.14 212.5L241.26 211.92L241.06 212H240.76ZM257.88 222.14C256.2 222.14 254.82 223.5 254.82 225.18C254.82 226.86 256.2 228.22 257.88 228.22C259.56 228.22 260.92 226.86 260.92 225.18C260.92 223.5 259.56 222.14 257.88 222.14ZM257.88 227.2C256.76 227.2 255.84 226.3 255.84 225.18C255.84 224.06 256.76 223.16 257.88 223.16C259 223.16 259.9 224.06 259.9 225.18C259.9 226.3 259 227.2 257.88 227.2Z" fill="#4C4C4C"/>
<path d="M127.28 100.88C126.52 102.84 125.04 105.52 123.76 107.36L127.8 108.16C129.16 106.52 130.88 104.08 132.36 101.56L127.28 100.88ZM136.68 103.32C139.68 105.44 143.32 108.64 145.04 110.68L148.88 108.8C146.96 106.68 143.16 103.64 140.24 101.64L136.68 103.32ZM124.92 112.76C125.92 114.48 126.88 116.84 127.2 118.32L130.72 117.28C130.36 115.76 129.28 113.52 128.28 111.8L124.92 112.76ZM118.6 105.8L118.84 109.64C125.32 109.4 134.96 108.96 144 108.48L144.16 104.92C134.92 105.28 125 105.64 118.6 105.8ZM120.88 109.96C120.28 111.92 119.08 114.72 118.04 116.56L121.12 117.52C122.32 115.88 123.8 113.32 125.2 110.96L120.88 109.96ZM115.76 115.56L116.16 119C119.4 118.68 123.44 118.24 127.48 117.8L127.4 114.64C123.08 115.04 118.8 115.4 115.76 115.56ZM145.28 112.96C146.84 114.96 148.4 117.64 149 119.4L152.56 117.88C151.88 116.08 150.24 113.48 148.64 111.6L145.28 112.96ZM140.48 109.76C140.04 111.72 139.08 114.4 138.24 116.24L141.4 117.2C142.44 115.6 143.68 113.04 144.88 110.76L140.48 109.76ZM137.64 115.24L138.16 118.64C141.52 118.32 145.64 117.88 149.76 117.44L149.72 114.6C145.2 114.88 140.76 115.12 137.64 115.24ZM134.72 119.52C132 121.36 126.84 123.12 122.92 124C123.84 124.8 124.88 126.04 125.48 126.88C129.64 125.68 134.76 123.68 138.12 121.24L134.72 119.52ZM138.96 123.16C135.36 126 128.36 128.08 122.2 129.08C123.12 130.04 124.08 131.48 124.6 132.48C131.2 131.08 138.2 128.6 142.56 124.96L138.96 123.16ZM143.32 127.16C138.88 131.68 129.84 133.88 120.2 134.76C121.08 135.84 121.96 137.48 122.36 138.64C132.68 137.28 141.92 134.6 147.24 129L143.32 127.16ZM133.8 115.6C137.48 120.2 144.6 124.2 150.84 126.16C151.44 125.04 152.28 123.56 153.2 122.52C146.72 121 140.08 117.4 135.72 112H131.52C128.36 116.44 122 120.88 114.92 123C115.68 123.92 116.64 125.44 117.04 126.44C123.8 124.12 130.48 119.92 133.8 115.6ZM180.16 103.36V107.52H187.56V103.36H180.16ZM171.12 105.08V109H179.36V105.08H171.12ZM180.64 110.72V114.64H187.4V110.72H180.64ZM180.6 118.08V122H187.32V118.08H180.6ZM160.96 110.72V114.64H167.68V110.72H160.96ZM161 118.04V121.96H167.68V118.04H161ZM158.64 103.68L159.36 127.24H163.64L163 105.72C163.64 105.6 163.92 105.44 164 105.12L158.64 103.68ZM184.8 103.36C184.88 111.04 184.56 121 184.08 127.08H188.56C189 121.12 189.2 111.2 189.2 103.36H184.8ZM166.08 101.44C164.52 102.6 162 104.12 159.76 105.2C160.28 106.12 160.96 107.64 161.2 108.52C163.8 107.56 166.96 106.24 169.68 104.88L166.08 101.44ZM169.08 116.8V126.76H172.88V116.8H169.08ZM169.16 101.52V115.48H177.48V111.76H173.24V101.52H169.16ZM175.12 111.76V126.88H179.2V111.76H175.12ZM155.56 125.28V129.72H192.56V125.28H155.56ZM176.68 132.36C180.72 134.28 185.2 136.92 187.68 138.68L192.48 135.4C189.6 133.68 184.6 131.12 180.28 129.16L176.68 132.36ZM166.88 129.24C164.32 131.24 159.52 133.88 155.68 135.32C156.88 136.2 158.52 137.68 159.4 138.64C163.08 137.08 167.88 134.52 171.12 132.28L166.88 129.24ZM209.68 122.36V138.56H214.04V126.72H226.08V138.4H230.64V122.36H209.68ZM227.48 101.04C223.04 102.8 215.52 104.12 208.72 104.8C209.24 105.88 209.88 107.76 210.08 108.92C217.16 108.28 225.28 107.04 231.16 104.8L227.48 101.04ZM217.88 105.52V124.88H222.44V105.52H217.88ZM207.16 112.68V117.28H232.68V112.68H207.16ZM212.8 132.6V136.92H227.96V132.6H212.8ZM197.32 105C199.6 106.32 203 108.24 204.6 109.44L207.44 105.56C205.72 104.44 202.24 102.68 200 101.56L197.32 105ZM195.36 116.08C197.76 117.36 201.24 119.28 202.88 120.4L205.56 116.44C203.8 115.32 200.24 113.6 197.96 112.52L195.36 116.08ZM195.96 134.88L200.04 138.12C202.44 134.24 205 129.68 207.12 125.44L203.6 122.28C201.2 126.88 198.12 131.88 195.96 134.88ZM236.32 126.92V130.32H255V126.92H236.32ZM235.4 107.88V111.36H255.4V107.88H235.4ZM243.36 105.04V133.72H247.68V105.04H243.36ZM235.2 133.28L235.76 137.28C240.96 136.8 248.24 136.08 255.04 135.36L255 131.72C247.8 132.36 240.16 132.92 235.2 133.28ZM240.28 120.52H250.84V122.36H240.28V120.52ZM240.28 115.92H250.84V117.72H240.28V115.92ZM236.44 112.92V125.36H254.8V112.92H236.44ZM252.84 101.24C248.44 102.2 241.48 102.92 235.52 103.2C235.96 104.12 236.4 105.64 236.56 106.6C242.56 106.48 249.84 105.88 254.96 104.84L252.84 101.24ZM255.4 110.08V114.48H269.24V110.08H255.4ZM267.32 110.08V111.12C267 126.6 266.68 132.24 265.76 133.44C265.4 134 265 134.12 264.4 134.12C263.6 134.12 262.08 134.12 260.36 133.96C261.12 135.24 261.64 137.2 261.76 138.52C263.64 138.6 265.52 138.6 266.76 138.36C268.08 138.12 269 137.68 269.88 136.32C271.2 134.52 271.52 128.68 271.88 112.2C271.88 111.64 271.92 110.08 271.92 110.08H267.32ZM259.24 101.72C259.2 117.68 259.64 128.88 251.2 135.32C252.28 136.12 253.84 137.76 254.52 138.92C263.76 131.64 263.8 118.8 263.84 101.72H259.24Z" fill="#4C4C4C"/>
<path d="M207.147 284.407L194.847 278.212C193.331 277.477 191.638 278.737 191.638 280.732V293.121C191.638 295.011 193.331 296.376 194.847 295.641L207.147 289.447C209.019 288.397 209.019 285.352 207.147 284.407Z" fill="#EDDCCE"/>
<path d="M238.791 354.755C236.919 354.545 235.315 356.225 235.136 358.43L198.591 302.256C197.521 300.576 195.827 299.526 194.045 299.526C192.262 299.526 190.568 300.471 189.499 302.151L152.864 358.325C152.685 356.225 151.081 354.545 149.209 354.65C147.337 354.86 146 356.855 146 359.06V381.635C146 382.37 146.535 383 147.159 383H151.705C152.329 383 152.864 382.37 152.864 381.635V371.555L159.727 361.055V381.635C159.727 382.37 160.262 383 160.886 383H178.089C178.446 383 178.891 382.79 179.07 382.37C185.577 370.4 190.747 353.18 192.886 345.306C193.242 344.046 194.669 344.046 195.025 345.306C197.164 353.075 202.334 370.4 208.841 382.37C209.02 382.79 209.465 383 209.822 383H227.114C227.738 383 228.273 382.37 228.273 381.635V361.055L235.136 371.555V381.635C235.136 382.37 235.671 383 236.295 383H240.841C241.465 383 242 382.37 242 381.635V359.06C242 356.855 240.663 354.86 238.791 354.755Z" fill="#EDDCCE"/>
</svg>
