<svg width="388" height="480" viewBox="0 0 388 480" fill="none" xmlns="http://www.w3.org/2000/svg">
<g clip-path="url(#clip0_1164_35608)">
<rect width="388" height="480" rx="20" fill="#8BBC8B"/>
<path d="M163.197 197.182C163.027 195.742 162.336 194.625 161.124 193.83C159.911 193.034 158.425 192.636 156.663 192.636C155.375 192.636 154.249 192.845 153.283 193.261C152.326 193.678 151.578 194.251 151.038 194.98C150.508 195.709 150.243 196.538 150.243 197.466C150.243 198.242 150.428 198.91 150.797 199.469C151.176 200.018 151.659 200.477 152.246 200.847C152.833 201.206 153.448 201.505 154.092 201.741C154.736 201.969 155.328 202.153 155.868 202.295L158.822 203.091C159.58 203.29 160.423 203.564 161.351 203.915C162.288 204.265 163.183 204.743 164.036 205.349C164.897 205.946 165.607 206.713 166.166 207.651C166.725 208.588 167.004 209.739 167.004 211.102C167.004 212.674 166.592 214.095 165.768 215.364C164.954 216.633 163.761 217.641 162.189 218.389C160.626 219.137 158.728 219.511 156.493 219.511C154.41 219.511 152.606 219.175 151.081 218.503C149.566 217.83 148.373 216.893 147.501 215.69C146.64 214.488 146.152 213.091 146.038 211.5H149.675C149.769 212.598 150.139 213.508 150.783 214.227C151.436 214.937 152.26 215.468 153.254 215.818C154.258 216.159 155.338 216.33 156.493 216.33C157.838 216.33 159.045 216.112 160.115 215.676C161.185 215.231 162.033 214.616 162.658 213.83C163.283 213.034 163.595 212.106 163.595 211.045C163.595 210.08 163.325 209.294 162.786 208.688C162.246 208.081 161.536 207.589 160.655 207.21C159.774 206.831 158.822 206.5 157.8 206.216L154.22 205.193C151.947 204.54 150.148 203.607 148.822 202.395C147.497 201.183 146.834 199.597 146.834 197.636C146.834 196.008 147.274 194.587 148.155 193.375C149.045 192.153 150.238 191.206 151.734 190.534C153.24 189.852 154.921 189.511 156.777 189.511C158.652 189.511 160.319 189.848 161.777 190.52C163.235 191.183 164.391 192.092 165.243 193.247C166.105 194.402 166.559 195.714 166.607 197.182H163.197ZM171.205 193.034V189.909H193.023V193.034H183.876V219H180.353V193.034H171.205ZM198.46 219V189.909H216.017V193.034H201.983V202.864H215.108V205.989H201.983V215.875H216.244V219H198.46ZM222.366 219V189.909H232.196C234.478 189.909 236.344 190.321 237.793 191.145C239.251 191.959 240.33 193.062 241.031 194.455C241.732 195.847 242.082 197.4 242.082 199.114C242.082 200.828 241.732 202.385 241.031 203.787C240.34 205.188 239.27 206.306 237.821 207.139C236.372 207.963 234.516 208.375 232.253 208.375H225.207V205.25H232.139C233.702 205.25 234.956 204.98 235.903 204.44C236.85 203.901 237.537 203.171 237.963 202.253C238.399 201.325 238.616 200.278 238.616 199.114C238.616 197.949 238.399 196.907 237.963 195.989C237.537 195.07 236.846 194.35 235.889 193.83C234.933 193.299 233.664 193.034 232.082 193.034H225.889V219H222.366Z" fill="white"/>
<path d="M168.379 164.193C162.555 164.193 157.555 162.403 153.379 158.824C149.202 155.244 145.992 150.116 143.748 143.44C141.532 136.736 140.424 128.71 140.424 119.364C140.424 110.045 141.546 102.034 143.79 95.3295C146.035 88.625 149.231 83.483 153.379 79.9034C157.555 76.3239 162.555 74.5341 168.379 74.5341C174.202 74.5341 179.188 76.3239 183.336 79.9034C187.512 83.483 190.722 88.625 192.967 95.3295C195.211 102.034 196.333 110.045 196.333 119.364C196.333 128.71 195.211 136.736 192.967 143.44C190.751 150.116 187.555 155.244 183.379 158.824C179.202 162.403 174.202 164.193 168.379 164.193ZM168.379 159.25C175.452 159.25 181.006 155.741 185.04 148.724C189.075 141.679 191.092 131.892 191.092 119.364C191.092 111.011 190.168 103.852 188.322 97.8864C186.504 91.9205 183.904 87.3608 180.523 84.2074C177.143 81.0256 173.094 79.4347 168.379 79.4347C161.305 79.4347 155.751 82.9574 151.717 90.0028C147.683 97.0483 145.665 106.835 145.665 119.364C145.665 127.716 146.575 134.875 148.393 140.841C150.211 146.778 152.81 151.338 156.191 154.52C159.6 157.673 163.663 159.25 168.379 159.25ZM238.126 75.7273V163H232.8V81.3523H232.288L212.686 94.3494V88.6392L232.118 75.7273H238.126Z" fill="white"/>
<path d="M263.674 571.411C248.471 545.358 240.869 512.523 229.466 488.136C226.853 482.544 226.497 475.763 223.171 470.41C219.37 464.224 215.332 465.889 208.562 465.77C203.929 465.77 199.416 465.889 194.783 465.532C190.151 465.175 185.519 465.413 180.886 465.056C176.848 464.818 172.81 464.818 168.771 464.818C166.277 464.818 163.664 464.343 161.169 464.462C154.993 464.818 148.46 463.51 142.403 464.818L130.762 469.458C130.525 470.767 129.337 472.194 128.624 473.384C127.555 475.406 126.486 477.429 125.061 479.213C123.279 481.355 122.21 483.853 120.666 486.113C119.122 488.374 117.578 490.753 116.509 493.37C113.54 500.508 110.333 507.408 108.195 514.903C107.363 517.996 105.938 521.208 104.513 524.182C103.206 527.037 101.543 529.417 100.118 532.153C99.1676 533.937 97.9798 535.246 96.9108 536.792C95.8418 538.339 95.0104 540.004 94.1789 541.67C93.4662 543.216 92.8724 544.763 92.2785 546.31C91.8034 547.38 91.447 548.451 90.9719 549.522C90.4968 550.711 90.4968 551.901 90.0217 553.091C88.7152 556.422 86.9335 559.634 85.5082 562.846C84.3204 565.582 84.6767 568.794 83.7265 571.649C83.3702 572.72 82.4199 573.791 83.3702 574.742C83.9641 575.456 85.9833 575.932 86.8147 576.17C88.5964 576.646 90.378 576.884 92.1597 577.478C95.1291 578.311 98.2173 579.025 101.187 579.977C107.244 581.761 113.302 582.832 119.36 584.378C124.824 585.806 130.287 586.639 135.87 587.353C142.403 588.304 149.292 589.732 154.637 594.015C159.269 580.571 164.97 567.485 171.622 554.994C172.928 559.753 174.948 564.273 177.442 568.556C178.986 571.173 180.886 573.791 182.193 576.527C184.925 582.475 185.4 589.494 189.32 594.728C189.795 595.323 190.389 596.037 191.22 596.037C191.695 596.037 192.17 595.799 192.645 595.561C197.159 593.301 202.504 592.944 206.661 590.684C210.462 588.78 214.382 586.52 218.42 584.973C221.983 583.665 225.784 582.475 229.466 581.523C235.049 580.215 239.8 577.122 245.026 575.337C247.046 574.623 263.08 570.816 263.674 572.006C263.912 571.768 263.793 571.53 263.674 571.411Z" fill="#5080C7"/>
<path d="M373.423 290.296C373.423 289.226 373.304 288.036 372.71 286.965C371.997 285.538 371.285 283.991 370.572 282.564C368.553 278.638 364.871 274.95 360.595 278.638C358.576 280.303 357.863 281.85 356.913 278.519C356.556 277.448 356.081 276.377 355.012 276.139C354.3 277.567 352.399 278.281 351.805 279.827C351.568 280.422 351.568 281.017 351.449 281.612C351.093 286.014 352.28 293.032 348.598 296.007C344.441 299.457 327.1 311.234 322.705 313.97C321.042 315.041 319.498 316.35 317.597 317.301C315.341 318.491 313.44 320.275 311.065 321.346C307.383 322.893 303.938 325.034 300.137 326.462C295.742 328.008 291.229 330.744 287.428 333.481L274.719 351.325C275.907 353.229 277.807 354.418 279.114 356.084C280.301 357.512 281.133 359.296 282.321 360.724C283.271 362.032 284.34 363.341 285.29 364.649C285.884 365.363 287.547 369.051 288.259 369.289C289.447 368.218 290.516 366.91 291.704 365.72C293.129 364.293 294.911 363.222 296.574 361.913C299.068 360.01 301.325 357.868 303.819 355.965C306.076 354.299 308.214 352.634 310.471 350.968C322.586 341.927 334.82 331.934 346.342 321.822C352.518 316.35 358.101 310.163 363.921 304.453C367.246 301.241 373.185 295.65 373.423 290.296Z" fill="#FFB698"/>
<path d="M78.0238 310.401C76.0046 309.093 74.1041 307.546 72.0849 306.237C68.1652 303.62 65.5521 299.813 62.4639 296.363C61.1574 294.817 59.1382 293.865 57.7128 292.437C56.2875 290.891 55.3373 289.225 53.7932 287.917C52.2491 286.489 51.6552 284.824 50.705 282.92C49.8735 281.136 48.4482 278.875 47.1416 277.329C44.6473 274.355 43.4595 271.024 43.6971 266.979C43.9346 263.767 44.8849 260.912 44.8849 257.581C44.8849 255.32 42.0342 248.896 39.0648 249.729C37.9958 249.967 35.9766 252.227 35.3827 253.06C34.4325 254.488 33.0071 256.51 32.2945 258.057C32.8883 256.391 29.6814 253.893 28.6124 253.06C26.9495 251.751 25.5241 251.038 23.5049 252.465C21.6045 253.774 19.2289 255.796 18.0412 257.7C16.7346 259.841 17.3285 262.101 16.8534 264.362C16.4971 266.384 14.3591 269.12 15.1905 271.262C15.5468 272.094 16.4971 272.57 16.8534 273.403C17.3285 274.355 17.4473 275.544 18.0412 276.496C19.1102 278.4 20.4167 280.66 22.0796 282.088C24.0988 283.872 25.049 286.251 26.5931 288.512C30.0377 293.865 34.1949 298.624 37.6394 303.858C38.2333 305.167 38.946 306.356 39.5399 307.665C40.1338 308.26 40.7277 308.974 41.3215 309.568C42.2718 310.877 42.5093 312.424 43.6971 313.613C44.8849 314.922 46.429 315.874 47.6167 317.182C48.9233 318.61 49.9923 320.156 51.0613 321.703C54.8622 326.818 58.4255 332.172 62.5827 336.93C64.1268 338.596 65.5521 340.142 67.3338 341.689C68.6404 342.76 69.5906 343.949 70.8971 345.02C72.0849 345.972 73.3915 346.686 74.3417 347.994L80.3993 313.018C80.6369 313.018 80.8744 312.899 80.9932 312.899C81.112 311.948 78.7364 310.996 78.0238 310.401Z" fill="#FFB698"/>
<path d="M192.168 361.318C192.168 358.939 190.98 356.917 190.505 354.775C190.149 352.991 190.267 351.325 189.911 349.66C189.436 347.399 189.317 344.544 188.367 342.522C187.298 340.142 185.16 340.38 182.784 340.38C179.102 340.38 175.658 339.905 171.976 339.429C167.225 338.715 162.474 338.12 157.841 337.406L156.535 341.213C158.435 346.804 158.91 352.277 159.86 358.106C160.098 359.534 159.623 362.032 160.811 362.984C162.236 364.054 165.087 363.46 166.75 363.341C167.937 363.222 168.888 363.579 170.075 363.698C171.144 363.698 172.095 363.341 173.045 363.341C175.064 363.341 177.321 363.935 179.459 364.173C181.478 364.411 183.497 364.768 185.398 365.006C186.704 365.244 189.674 366.196 190.861 365.72C191.93 365.006 192.168 362.508 192.168 361.318Z" fill="#FFB698"/>
<path d="M291.349 248.064C290.874 245.565 290.161 243.781 287.904 242.472C285.885 241.283 283.866 241.045 281.609 240.688C277.095 240.093 271.75 240.331 267.356 241.639C255.953 245.089 247.757 252.822 238.611 259.96C236.949 261.269 235.998 262.815 234.573 264.362C233.86 265.195 232.91 265.908 232.435 266.86C231.841 268.05 232.435 270.905 231.485 271.857C230.535 272.808 228.278 272.095 227.09 271.857C224.833 271.5 223.764 272.095 221.626 272.451C220.439 272.57 219.488 272.451 218.182 272.808C216.994 273.165 215.687 273.998 214.5 274.474C211.53 275.663 208.68 277.448 205.948 279.113C202.028 281.374 197.99 285.181 195.733 289.225C194.189 292.081 193.12 295.055 191.694 297.91C190.625 300.051 189.2 301.36 189.319 303.858C186.825 301.479 183.974 299.575 180.529 299.1C177.441 298.624 174.472 297.553 171.383 297.434C166.157 297.077 161.762 301.241 158.674 305.048C157.13 306.951 155.23 307.665 153.329 309.093C151.073 310.758 150.597 312.067 149.528 314.684C147.866 319.205 146.084 325.986 147.39 330.863C148.222 333.837 150.241 336.217 150.835 339.191C151.191 340.975 151.31 342.76 152.26 344.425C153.686 346.686 155.705 348.589 157.843 350.017C158.318 350.374 158.912 350.73 159.506 350.968C164.257 353.586 170.671 354.775 176.135 354.894C181.955 355.013 187.181 351.682 191.694 348.232C194.901 345.734 199.771 342.284 200.603 337.882C201.197 334.313 201.909 330.744 201.909 327.175C201.909 323.606 201.197 319.918 199.296 316.825C204.76 316.825 208.917 313.97 213.906 312.186C215.925 311.472 217.588 310.758 219.488 309.806C221.864 308.617 224.239 306.951 226.853 306C228.872 305.286 229.941 303.858 231.722 302.787C232.791 302.193 233.979 301.598 235.048 301.003C236.355 300.17 237.424 299.219 238.73 298.386C239.918 297.672 241.106 297.315 242.175 296.244C243.244 295.293 243.838 293.984 244.669 292.794C245.263 291.962 246.332 291.129 246.807 290.177C247.163 289.344 246.926 288.512 247.639 287.798C248.351 287.084 249.301 287.441 250.252 287.084C251.202 286.727 252.033 286.132 252.865 285.775C257.022 283.991 261.417 282.92 265.574 280.898C270.325 278.519 274.839 275.426 278.639 271.738C281.015 269.358 283.391 266.979 285.647 264.481C287.073 262.934 289.211 260.912 290.042 259.008C291.23 256.51 291.943 250.8 291.349 248.064Z" fill="#846353"/>
<path d="M262.605 400.815C257.141 404.86 251.915 409.5 250.609 414.02C248.352 422.11 251.44 436.267 251.559 444.832C251.678 455.301 252.153 465.889 254.528 476.12C255.241 479.213 254.885 482.425 256.072 485.399C256.548 486.351 256.904 487.422 257.141 488.493C257.26 489.325 257.379 490.277 257.379 491.11C257.498 491.824 258.092 492.656 257.973 493.251C256.785 494.084 255.122 494.322 253.816 494.917C252.39 495.511 250.846 495.868 249.302 496.225C247.758 496.582 246.095 496.344 244.67 496.701C241.582 497.415 238.968 497.534 235.761 497.534C227.566 497.534 219.251 497.772 211.175 498.605C204.998 499.199 199.178 499.794 192.883 499.794C183.499 499.675 174.116 500.389 164.614 500.27C157.725 500.151 150.836 500.627 143.946 500.627C129.931 500.746 117.697 498.248 104.156 495.036C108.432 473.741 112.708 452.327 114.252 430.675C115.677 410.689 108.313 403.789 95.1289 391.179C89.3088 385.707 85.6267 378.569 80.8756 372.264C76.5997 366.553 70.7796 363.341 66.266 358.107C63.4153 354.776 60.5647 351.683 57.3577 348.828C54.8634 346.567 50.3498 343.355 50.4686 339.548C50.4686 338.478 50.9437 337.645 51.5376 336.693C52.6066 335.147 54.2695 333.957 55.576 332.648C57.5953 330.507 59.2581 328.009 61.3961 325.986C66.6223 321.228 71.9673 316.707 76.0058 310.759C77.1935 308.974 78.5001 307.19 79.4503 305.167C79.6879 304.573 79.8066 304.097 80.2818 303.74C81.8259 307.309 85.6267 309.331 88.2398 311.948C91.0905 314.804 94.6538 317.183 97.8608 319.562C100.474 321.585 103.325 323.012 105.7 325.391C109.382 328.96 113.421 331.816 117.34 335.028C123.754 340.143 130.525 345.853 138.008 349.66C146.084 353.705 153.924 355.49 162.595 357.631C166.989 358.702 171.74 358.94 176.135 360.248C177.323 360.605 178.511 361.2 179.698 361.438C180.53 361.676 181.361 361.676 182.193 361.676C186.588 361.795 190.864 361.676 195.258 362.271C198.347 362.746 201.435 363.103 204.523 363.579C212.006 364.65 219.37 360.248 225.665 356.917C227.328 355.965 228.754 355.014 230.535 354.419C232.317 353.943 233.98 353.348 235.643 352.515C237.424 351.683 239.444 351.445 241.225 350.612C243.007 349.779 244.67 349.065 246.57 348.59C250.371 347.638 253.459 344.902 257.023 343.474C261.061 341.809 265.099 340.262 269.019 338.359C270.207 337.764 271.395 337.288 272.582 336.693C273.533 336.217 274.245 335.265 275.196 334.79C276.265 334.195 277.571 334.076 278.759 333.6C279.828 333.124 280.897 332.41 281.966 331.816C283.035 331.221 284.104 330.507 285.292 329.912C286.361 329.436 287.548 329.198 288.499 328.603C289.33 328.128 291.468 326.343 292.418 326.462C292.775 327.414 293.25 327.89 293.844 328.722C294.556 329.674 294.913 330.864 295.744 331.578C298.238 333.838 300.376 336.098 302.633 338.597C304.177 340.381 305.246 341.928 306.315 344.069C307.859 347.281 315.58 356.679 313.679 360.248C313.204 361.081 312.254 361.438 311.423 361.795C297.051 367.624 285.41 382.495 273.651 392.488C270.92 394.986 266.762 397.841 262.605 400.815Z" fill="#FF6C54"/>
<path d="M176.135 312.066C179.817 312.304 183.262 313.494 186.825 313.851C190.27 314.208 193.596 313.256 197.04 312.661C200.247 312.066 203.217 311.234 206.305 309.925C207.849 309.211 209.393 308.497 210.7 307.546C211.887 306.594 213.075 305.523 214.5 304.928C216.282 304.215 215.451 301.36 213.669 302.073C210.937 303.144 208.918 305.404 206.186 306.713C203.098 308.259 200.01 309.092 196.684 309.687C193.239 310.282 189.913 311.353 186.469 310.758C183.024 310.163 179.699 309.211 176.135 308.973C174.235 308.973 174.235 311.947 176.135 312.066Z" fill="#5E4F47"/>
<path d="M234.215 277.924C237.54 279.947 241.341 280.185 245.023 279.709C246.924 279.471 248.706 279.114 250.487 278.638C252.269 278.162 254.169 277.805 255.951 277.092C259.395 275.783 262.484 272.809 264.74 269.954C265.928 268.407 266.997 266.742 268.185 265.195C269.373 263.649 270.204 262.102 270.442 260.199C270.561 258.295 267.591 258.295 267.472 260.199C267.354 261.745 266.166 263.054 265.216 264.243C264.147 265.671 263.196 267.336 262.009 268.645C259.989 270.905 257.257 273.642 254.288 274.474C248.587 276.14 241.223 278.757 235.759 275.307C234.096 274.355 232.552 276.854 234.215 277.924Z" fill="#5E4F47"/>
<path d="M166.986 350.849C169.006 353.942 173.4 351.682 175.895 350.373C179.22 348.47 182.19 346.209 185.04 343.592C186.228 342.521 187.06 341.451 187.654 339.904C188.247 338.477 188.485 337.049 188.723 335.621C189.198 333.718 186.347 333.004 185.872 334.789C185.516 336.216 185.397 337.644 184.803 338.952C184.209 340.261 183.14 341.213 182.071 342.164C180.646 343.473 179.102 344.663 177.558 345.733C175.895 346.804 174.232 347.875 172.45 348.708C172.094 348.827 171.737 348.946 171.381 349.064C171.144 349.064 171.025 349.183 170.787 349.183C170.787 349.183 170.193 349.302 170.431 349.302C170.193 349.302 170.075 349.302 169.837 349.302C169.362 349.302 170.075 349.302 169.718 349.302L169.481 349.183C169.481 349.183 169.599 349.421 169.481 349.183C168.53 347.756 165.917 349.302 166.986 350.849Z" fill="#5E4F47"/>
<path d="M157.129 347.638C159.149 347.519 161.168 347.043 163.187 346.448C165.206 345.853 167.226 345.258 169.126 344.426C170.67 343.712 172.095 342.76 173.521 341.927C174.946 341.095 176.49 340.738 177.678 339.31C178.866 337.883 176.846 335.741 175.54 337.169C174.59 338.358 173.164 338.596 171.858 339.31C170.551 340.024 169.364 340.976 167.938 341.57C166.275 342.284 164.494 342.76 162.712 343.236C160.93 343.831 159.03 344.307 157.129 344.426C155.229 344.783 155.229 347.757 157.129 347.638Z" fill="#5E4F47"/>
<path d="M16.4983 265.075C16.6171 265.313 16.8546 265.551 16.9734 265.67C17.0922 265.789 17.0922 265.908 17.211 266.027C17.3297 266.146 17.211 266.027 17.211 265.908L17.3297 266.027C17.6861 266.503 18.0424 266.86 18.28 267.335C18.9926 268.287 19.7053 269.239 20.5367 270.072C21.0118 270.666 22.0808 270.666 22.6747 270.072C23.2686 269.477 23.2686 268.644 22.6747 267.93C22.3184 267.573 21.9621 267.097 21.6057 266.741C21.4869 266.622 21.4869 266.503 21.3682 266.384L21.2494 266.265C21.1306 266.146 21.3682 266.503 21.2494 266.384C21.1306 266.146 20.8931 265.908 20.7743 265.67C20.0616 264.718 19.349 263.766 18.6363 262.815C18.3987 262.577 17.9236 262.339 17.5673 262.339C17.211 262.339 16.7358 262.458 16.4983 262.815C15.9044 263.647 16.0232 264.48 16.4983 265.075Z" fill="#FF6D53"/>
<path d="M22.1962 251.514C22.0774 253.774 21.721 256.154 22.3149 258.414C23.0276 260.555 24.4529 262.34 25.7595 264.005C26.2346 264.6 27.3036 264.481 27.8975 264.005C28.4914 263.411 28.3726 262.578 27.8975 261.864C26.8285 260.555 25.6407 259.009 25.1656 257.343C24.6905 255.44 25.0468 253.299 25.1656 251.395C25.1656 250.562 24.4529 249.968 23.7403 249.968C22.9088 249.968 22.3149 250.681 22.1962 251.514Z" fill="#FF6D53"/>
<path d="M362.377 285.537C362.614 285.418 362.733 285.3 362.971 285.3C363.089 285.3 363.089 285.3 363.208 285.181C363.208 285.181 363.446 285.062 363.208 285.181C362.971 285.3 363.208 285.181 363.208 285.181C363.208 285.181 363.327 285.181 363.327 285.062C363.921 284.824 364.515 284.586 364.99 284.348C365.94 283.872 366.89 283.396 367.722 282.682C368.197 282.087 368.315 281.136 367.722 280.541C367.128 280.065 366.178 279.946 365.584 280.541C365.465 280.66 365.465 280.66 365.346 280.779L365.227 280.898C364.99 281.017 365.346 280.898 365.346 280.779C365.346 280.898 365.109 280.898 365.109 281.017C364.99 281.136 364.871 281.136 364.752 281.255C364.277 281.493 363.921 281.731 363.446 281.85H363.327C363.802 281.612 363.446 281.731 363.446 281.85C363.327 281.85 363.208 281.969 363.089 281.969C362.852 282.087 362.614 282.087 362.495 282.206C362.02 282.444 361.426 282.682 360.951 282.92C360.239 283.277 360.001 284.348 360.476 284.943C360.833 285.775 361.664 285.894 362.377 285.537Z" fill="#FF6D53"/>
<path d="M368.91 291.247C369.029 291.128 369.029 291.128 369.147 291.009C369.029 291.128 368.91 291.128 368.91 291.247C369.385 290.89 369.86 290.652 370.454 290.414C370.335 290.414 370.216 290.533 370.098 290.533C370.929 290.176 371.879 289.819 372.592 289.225C373.423 288.392 373.78 287.321 373.898 286.132C373.898 285.299 373.186 284.585 372.473 284.704C371.642 284.704 371.048 285.299 371.048 286.132C371.048 286.25 371.048 286.369 371.048 286.607C371.048 286.488 371.048 286.369 371.048 286.25C371.048 286.488 370.929 286.845 370.81 287.083C370.81 286.964 370.929 286.845 370.929 286.726C370.81 286.964 370.691 287.083 370.573 287.321C370.691 287.202 370.691 287.083 370.81 286.964C370.691 287.083 370.573 287.321 370.335 287.44C370.454 287.321 370.573 287.321 370.691 287.202C370.335 287.559 369.86 287.678 369.385 287.916C369.504 287.916 369.623 287.797 369.741 287.797C368.791 288.154 367.841 288.63 367.009 289.344C366.415 289.819 366.415 290.89 367.009 291.485C367.366 291.842 368.316 291.842 368.91 291.247Z" fill="#FF6D53"/>
<path d="M240.036 377.379C240.986 378.449 241.223 379.758 241.699 381.067C242.174 382.375 243.005 383.565 243.599 384.873C244.787 387.61 245.618 390.465 246.212 393.439C246.806 396.532 247.162 399.744 247.756 402.837C248.113 404.384 248.706 405.811 248.944 407.358C249.063 408.666 249.182 409.856 249.894 410.927C251.082 412.473 253.576 410.927 252.507 409.38C251.795 408.31 251.913 406.882 251.676 405.692C251.319 404.146 250.844 402.48 250.488 400.934C249.894 397.722 249.657 394.391 248.825 391.179C248.113 388.442 247.281 385.587 245.975 382.97C245.381 381.661 244.668 380.353 244.193 378.925C243.718 377.617 243.124 376.427 242.174 375.356C240.867 373.81 238.729 375.951 240.036 377.379Z" fill="#F55942"/>
<path d="M117.457 418.898C118.05 415.21 119.713 411.879 120.07 408.072C120.426 404.027 121.139 400.101 121.851 396.056C122.564 392.131 123.039 388.443 123.039 384.517C123.039 382.494 123.514 380.591 123.871 378.569C124.227 376.546 124.227 374.524 124.227 372.501C124.346 370.598 121.376 370.598 121.257 372.501C121.139 374.643 121.139 376.665 120.782 378.806C120.426 380.472 120.07 382.137 120.07 383.922C120.07 385.944 120.07 387.848 119.832 389.87C119.595 391.893 119.238 393.796 118.882 395.818C118.169 399.625 117.457 403.432 117.219 407.239C116.981 411.046 115.319 414.377 114.725 418.065C114.25 419.968 117.1 420.801 117.457 418.898Z" fill="#F55942"/>
<path d="M159.859 438.644C159.74 440.904 160.691 442.927 161.76 444.83C162.947 446.972 164.135 449.113 165.442 451.135C168.055 455.061 170.43 459.106 173.756 462.556C180.289 469.456 189.554 473.62 198.699 475.761C204.282 477.189 210.221 478.259 216.041 478.378C217.941 478.378 217.941 475.404 216.041 475.404C211.171 475.285 206.301 474.333 201.55 473.382C197.155 472.43 192.761 471.121 188.603 469.099C184.684 467.315 180.883 465.054 177.676 462.08C174.469 459.106 171.974 455.656 169.718 451.968C168.292 449.708 166.748 447.566 165.561 445.306C164.492 443.165 162.829 440.904 162.947 438.525C162.947 436.741 159.978 436.741 159.859 438.644Z" fill="#F55942"/>
</g>
<defs>
<clipPath id="clip0_1164_35608">
<rect width="388" height="480" rx="20" fill="white"/>
</clipPath>
</defs>
</svg>
