<svg width="388" height="480" viewBox="0 0 388 480" fill="none" xmlns="http://www.w3.org/2000/svg">
<rect width="388" height="480" rx="20" fill="#F7F5F0"/>
<path d="M108 171.34V172.68H118.78V171.34H108ZM108.54 181.6V182.94H118.28V181.6H108.54ZM107.26 186.7V188.04H119.04V186.7H107.26ZM112.6 182.12V187.52H114.1V182.12H112.6ZM109.92 173.3C109.46 174.26 108.6 175.76 107.8 176.98C108.84 178.38 109.76 179.92 110.18 180.96L111.42 180.44C111 179.54 110.12 178.12 109.26 176.96C109.9 175.94 110.7 174.66 111.22 173.64L109.92 173.3ZM113.38 173.3C112.92 174.26 112.02 175.76 111.16 176.98C112.28 178.36 113.26 179.92 113.74 180.96L114.94 180.42C114.5 179.52 113.56 178.12 112.64 176.96C113.32 175.94 114.14 174.66 114.7 173.64L113.38 173.3ZM116.84 173.3C116.36 174.26 115.42 175.76 114.56 176.98C115.72 178.36 116.78 179.92 117.28 180.96L118.5 180.38C118 179.48 117 178.08 116.04 176.96C116.74 175.94 117.56 174.68 118.14 173.66L116.84 173.3ZM103.74 170.22C103.22 171.54 102.28 173.5 101.56 174.66L102.58 175.1C103.36 174 104.3 172.2 105.06 170.72L103.74 170.22ZM105.98 172.5C104.88 174.6 103 177.58 101.5 179.36L102.42 179.88C103.92 178.14 105.86 175.3 107.24 173.08L105.98 172.5ZM100.54 174.38C101.6 175.4 102.8 176.82 103.3 177.78L104.16 176.66C103.64 175.74 102.42 174.4 101.34 173.42L100.54 174.38ZM105.2 177.08C106 178.4 106.78 180.18 107.04 181.3L108.22 180.76C107.94 179.66 107.12 177.94 106.28 176.62L105.2 177.08ZM100.38 179.06L100.54 180.4C102.36 180.28 104.76 180.14 107.14 179.98V178.72C104.62 178.86 102.12 178.98 100.38 179.06ZM105.72 181.92C106.2 183.08 106.62 184.6 106.74 185.58L107.9 185.22C107.76 184.24 107.34 182.74 106.82 181.58L105.72 181.92ZM101.58 181.64C101.36 183.38 100.98 185.18 100.34 186.4C100.64 186.54 101.24 186.8 101.48 186.96C102.12 185.68 102.58 183.76 102.84 181.86L101.58 181.64ZM103.7 179.64V188.6H105.02V179.64H103.7ZM138.741 172.455V187H137.036L129.11 175.58H128.968V187H127.207V172.455H128.911L136.866 183.903H137.008V172.455H138.741ZM143.26 187.114C142.909 187.114 142.609 186.988 142.358 186.737C142.107 186.486 141.981 186.186 141.981 185.835C141.981 185.485 142.107 185.184 142.358 184.933C142.609 184.682 142.909 184.557 143.26 184.557C143.61 184.557 143.911 184.682 144.162 184.933C144.413 185.184 144.538 185.485 144.538 185.835C144.538 186.067 144.479 186.28 144.36 186.474C144.247 186.669 144.093 186.825 143.899 186.943C143.709 187.057 143.496 187.114 143.26 187.114ZM148.37 187H146.523L151.864 172.455H153.682L159.023 187H157.176L152.83 174.756H152.716L148.37 187ZM149.051 181.318H156.495V182.881H149.051V181.318ZM162.283 187.114C161.933 187.114 161.632 186.988 161.381 186.737C161.13 186.486 161.005 186.186 161.005 185.835C161.005 185.485 161.13 185.184 161.381 184.933C161.632 184.682 161.933 184.557 162.283 184.557C162.633 184.557 162.934 184.682 163.185 184.933C163.436 185.184 163.561 185.485 163.561 185.835C163.561 186.067 163.502 186.28 163.384 186.474C163.27 186.669 163.116 186.825 162.922 186.943C162.733 187.057 162.52 187.114 162.283 187.114ZM166.797 187V172.455H171.711C172.852 172.455 173.785 172.661 174.51 173.072C175.239 173.48 175.779 174.031 176.129 174.727C176.479 175.423 176.654 176.2 176.654 177.057C176.654 177.914 176.479 178.693 176.129 179.393C175.783 180.094 175.248 180.653 174.524 181.07C173.799 181.482 172.871 181.688 171.74 181.688H168.217V180.125H171.683C172.464 180.125 173.092 179.99 173.565 179.72C174.038 179.45 174.382 179.086 174.595 178.626C174.813 178.162 174.922 177.639 174.922 177.057C174.922 176.474 174.813 175.954 174.595 175.494C174.382 175.035 174.036 174.675 173.558 174.415C173.08 174.15 172.445 174.017 171.654 174.017H168.558V187H166.797ZM179.803 187.114C179.452 187.114 179.152 186.988 178.901 186.737C178.65 186.486 178.524 186.186 178.524 185.835C178.524 185.485 178.65 185.184 178.901 184.933C179.152 184.682 179.452 184.557 179.803 184.557C180.153 184.557 180.454 184.682 180.705 184.933C180.955 185.184 181.081 185.485 181.081 185.835C181.081 186.067 181.022 186.28 180.903 186.474C180.79 186.669 180.636 186.825 180.442 186.943C180.252 187.057 180.039 187.114 179.803 187.114ZM192.92 177.2V178.22H199.48V177.2H192.92ZM201.38 178.64V179.86H207.08V178.64H201.38ZM193.96 181.64V182.52H198.38V181.64H193.96ZM193.96 183.78V184.68H198.38V183.78H193.96ZM192.34 179.38V180.44H199.92V179.38H192.34ZM195.46 177.6V179.76H196.76V177.6H195.46ZM193.32 179.64V186.74H194.56V179.64H193.32ZM197.72 179.68V188.6H198.98V179.68H197.72ZM191.74 186.38L191.94 187.54C193.72 187.38 196.14 187.16 198.5 186.92L198.48 185.86C195.94 186.08 193.44 186.26 191.74 186.38ZM201.56 176.68C201.12 178.8 200.32 180.8 199.16 182.1C199.44 182.32 199.98 182.78 200.16 183C201.4 181.56 202.34 179.3 202.86 176.92L201.56 176.68ZM204.98 179.16C204.3 183.32 202.5 186.04 199.2 187.6C199.5 187.84 199.96 188.38 200.12 188.66C203.56 186.84 205.52 183.92 206.34 179.32L204.98 179.16ZM201.76 180.08L200.64 180.34C201.68 184.1 203.66 187.2 206.6 188.66C206.82 188.3 207.22 187.76 207.56 187.48C204.7 186.28 202.7 183.42 201.76 180.08ZM191.2 175.08V176.34H207V175.08H191.2ZM190.48 175.08V179.56C190.48 182 190.3 185.36 188.78 187.78C189.1 187.94 189.7 188.38 189.94 188.66C191.58 186.06 191.86 182.24 191.86 179.58V175.08H190.48ZM192.82 171.96H196.28V173.36H192.82V171.96ZM191.48 171.06V174.28H197.68V171.06H191.48ZM200.74 171.96H204.26V173.36H200.74V171.96ZM199.4 171.06V174.28H205.68V171.06H199.4ZM219.24 172.36V173.68H224.88V172.36H219.24ZM217.42 181.28V188.62H218.82V182.58H224.4V188.56H225.84V181.28H217.42ZM218.02 186.42V187.74H225.16V186.42H218.02ZM219.82 170.18C218.88 172.6 217.26 174.88 215.42 176.32C215.76 176.54 216.36 177.06 216.6 177.32C218.42 175.74 220.18 173.24 221.26 170.58L219.82 170.18ZM224.46 172.36V172.62C223 176.86 219 179.94 214.98 181.2C215.28 181.48 215.66 182.04 215.84 182.42C220.1 180.88 224.22 177.7 225.94 172.74L225 172.3L224.74 172.36H224.46ZM219.12 173.4L218.02 174.1C219.38 177.08 222.32 180.4 226.78 181.96C226.98 181.6 227.4 181 227.7 180.72C223.3 179.38 220.36 176.24 219.12 173.4ZM209.2 174.5V175.92H216.24V174.5H209.2ZM212.22 170.2V188.58H213.64V170.2H212.22ZM212.16 175.38C211.56 178.26 210.14 181.72 208.72 183.52C209 183.86 209.36 184.44 209.52 184.84C211.02 182.82 212.44 178.92 213.1 175.7L212.16 175.38ZM213.54 176.72L212.8 177.38C213.36 178.1 214.8 180.16 215.28 181.04L216.18 179.88C215.78 179.34 214.02 177.2 213.54 176.72ZM236.28 171.26V185.24C236.28 187.54 237 188.1 239.38 188.1C239.92 188.1 244 188.1 244.58 188.1C246.8 188.1 247.32 187.12 247.58 184.3C247.12 184.2 246.48 183.94 246.12 183.7C245.96 186.08 245.76 186.68 244.52 186.68C243.68 186.68 240.14 186.68 239.46 186.68C238.06 186.68 237.8 186.42 237.8 185.26V171.26H236.28ZM237 171.26V172.72H244.9V181.84H246.46V171.26H237ZM236.94 179.08V180.52H245.5V179.08H236.94ZM240.64 171.78V179.58H242.04V171.78H240.64ZM228.88 180.82L229.3 182.26C231.06 181.74 233.36 181.06 235.52 180.4L235.34 179C232.96 179.68 230.52 180.4 228.88 180.82ZM229.2 174.24V175.66H235.16V174.24H229.2ZM231.6 170.22V186.88C231.6 187.14 231.5 187.22 231.28 187.22C231.06 187.24 230.34 187.24 229.58 187.22C229.76 187.6 229.96 188.22 230.02 188.58C231.2 188.6 231.92 188.56 232.42 188.32C232.9 188.08 233.08 187.7 233.08 186.88V170.22H231.6ZM256.16 180.68C256.68 181.38 257.16 182.3 257.32 182.92L258.18 182.58C258.02 181.98 257.52 181.08 257 180.4L256.16 180.68ZM252.9 178.94C253.7 179.54 254.58 180.4 254.98 181.02L255.6 180.32C255.18 179.72 254.3 178.9 253.5 178.34L252.9 178.94ZM255.28 177.02C254.94 177.6 254.3 178.5 253.82 179.08L254.56 179.42C255.06 178.9 255.7 178.14 256.24 177.42L255.28 177.02ZM256.72 178.42C256 179.42 254.68 180.94 253.68 181.84L254.34 182.2C255.36 181.34 256.64 179.96 257.6 178.82L256.72 178.42ZM258.76 182.92V188.24H259.88V182.92H258.76ZM252.64 181.7L252.78 182.64C254.12 182.56 255.74 182.46 257.44 182.32V181.44C255.62 181.56 253.9 181.64 252.64 181.7ZM261.56 180.58C262.14 181.32 262.68 182.32 262.88 183L263.76 182.66C263.56 181.98 262.98 181 262.42 180.3L261.56 180.58ZM257.76 178.92C258.58 179.52 259.5 180.42 259.9 181.06L260.56 180.38C260.16 179.76 259.22 178.9 258.42 178.32L257.76 178.92ZM260.28 176.98C259.9 177.6 259.2 178.6 258.68 179.2L259.42 179.54C259.98 178.98 260.66 178.16 261.24 177.38L260.28 176.98ZM261.7 178.46C260.94 179.48 259.54 180.98 258.5 181.86L259.16 182.22C260.24 181.38 261.6 180.02 262.6 178.9L261.7 178.46ZM258.02 181.7L258.24 182.64C259.6 182.54 261.28 182.44 262.96 182.3V181.42C261.06 181.54 259.32 181.64 258.02 181.7ZM253.44 183.22V186.04H256.9V185.1H254.46V183.22H253.44ZM261.82 183.22V185.1H259.56V186.04H262.86V183.22H261.82ZM256.36 182.92V184.7C256.36 185.8 256.08 186.92 253.86 187.6C254.12 187.8 254.46 188.22 254.6 188.48C257.1 187.6 257.46 186.22 257.46 184.72V182.92H256.36ZM250.7 173.66V174.68H256.32V173.66H250.7ZM259.9 173.66V174.68H265.66V173.66H259.9ZM265.1 171.06V186.72C265.1 186.98 265.02 187.08 264.76 187.08C264.48 187.1 263.64 187.1 262.76 187.06C262.96 187.46 263.16 188.16 263.22 188.56C264.46 188.56 265.32 188.54 265.86 188.28C266.4 188.02 266.56 187.56 266.56 186.72V171.06H265.1ZM250.82 171.06V172.16H255.84V176.12H250.82V177.22H257.26V171.06H250.82ZM265.82 171.06H259.04V177.22H265.82V176.12H260.46V172.16H265.82V171.06ZM249.92 171.06V188.62H251.36V171.06H249.92ZM271.32 189.14C273.42 188.42 274.78 186.78 274.78 184.62C274.78 183.22 274.18 182.3 273.06 182.3C272.26 182.3 271.54 182.8 271.54 183.74C271.54 184.7 272.22 185.18 273.04 185.18C273.42 185.18 273.82 185.08 274.1 184.72L273.02 183.2L273.4 184.9C273.4 186.4 272.5 187.42 270.86 188.1L271.32 189.14ZM84.42 219.88V221.04H92.24V219.88H84.42ZM84.42 223.16V224.34H92.24V223.16H84.42ZM84.44 226.46V227.74H93.18V226.46H84.44ZM82.16 212.26V215.68H83.46V213.56H91.74V215.68H93.08V212.26H82.16ZM87.68 217.5V227.14H89.08V217.5H87.68ZM84.96 216.54H84.84L83.54 217.9V228.6H84.96V217.84H92.58V216.54H84.96ZM86.84 210.2C85.86 213.88 84.02 216.98 81.38 218.9C81.7 219.16 82.24 219.72 82.46 220C85.16 217.86 87.14 214.54 88.28 210.48L86.84 210.2ZM88.92 214.16C88.68 215.04 88.16 216.3 87.74 217.1L88.9 217.44C89.32 216.68 89.86 215.56 90.34 214.52L88.92 214.16ZM75.04 211.56V212.94H82.1V211.56H75.04ZM77.06 217.4V218.74H80.26V224.84H77.06V226.16H81.58V217.4H77.06ZM77.4 212.22C76.92 215.98 76.06 219.52 74.46 221.78C74.74 222.12 75.16 222.86 75.32 223.2C77.18 220.58 78.22 216.64 78.84 212.44L77.4 212.22ZM76.44 217.4V227.72H77.7V217.4H76.44ZM106.4 211.6C106.06 214.34 105.24 217.26 101.98 218.76C102.3 219 102.72 219.5 102.88 219.82C106.38 218.08 107.36 214.84 107.78 211.6H106.4ZM102.72 214.46C104.8 215.16 107.3 216.48 108.64 217.46L109.36 216.28C108.04 215.36 105.54 214.12 103.46 213.42L102.72 214.46ZM111.12 211.06V211.32C110.96 215.84 110.76 217.44 110.4 217.86C110.26 218.02 110.08 218.08 109.76 218.06C109.44 218.06 108.6 218.06 107.68 217.98C107.9 218.34 108.04 218.92 108.06 219.34C109 219.38 109.94 219.4 110.42 219.36C110.96 219.3 111.3 219.16 111.62 218.78C112.12 218.2 112.32 216.42 112.52 211.7C112.54 211.5 112.54 211.06 112.54 211.06H111.12ZM104.98 221.72V226.56C104.98 228.04 105.32 228.46 106.84 228.46C107.16 228.46 108.74 228.46 109.06 228.46C110.32 228.46 110.7 227.84 110.86 225.4C110.46 225.28 109.86 225.08 109.58 224.84C109.52 226.84 109.44 227.12 108.9 227.12C108.58 227.12 107.28 227.12 107.02 227.12C106.46 227.12 106.38 227.04 106.38 226.54V221.72H104.98ZM103.08 222.4C102.88 224.06 102.44 225.82 101.48 226.8L102.6 227.54C103.66 226.42 104.08 224.48 104.3 222.7L103.08 222.4ZM105.32 219.88C106.62 220.64 108.14 221.8 108.86 222.64L109.8 221.62C109.06 220.78 107.52 219.7 106.2 219L105.32 219.88ZM109.98 222.54C111.02 224 111.9 226.02 112.16 227.38L113.5 226.82C113.2 225.46 112.3 223.5 111.22 222.04L109.98 222.54ZM102.9 211.06V212.36H111.74V211.06H102.9ZM95.66 216.26V217.46H101.34V216.26H95.66ZM95.74 210.92V212.12H101.26V210.92H95.74ZM95.66 218.94V220.14H101.34V218.94H95.66ZM94.76 213.54V214.78H101.9V213.54H94.76ZM96.32 221.64V222.88H100.04V226.22H96.32V227.48H101.34V221.64H96.32ZM95.64 221.64V228.4H96.92V221.64H95.64ZM123.36 210.22C122.68 212.14 121.5 213.96 120.14 215.14C120.48 215.36 121.04 215.84 121.26 216.1C122.66 214.74 123.96 212.7 124.74 210.56L123.36 210.22ZM123.28 215.26C122.74 216.66 121.84 218.06 120.8 219.02C121.14 219.2 121.74 219.58 122.02 219.8C123.02 218.76 124.06 217.2 124.68 215.62L123.28 215.26ZM123.16 212.18L122.64 213.5H131.84V212.18H123.16ZM126.1 213.08V220.04C126.1 220.26 126.04 220.32 125.78 220.34C125.52 220.36 124.68 220.36 123.74 220.32C123.96 220.7 124.16 221.26 124.24 221.66C125.5 221.66 126.32 221.64 126.84 221.42C127.4 221.2 127.54 220.8 127.54 220.04V213.08H126.1ZM128.64 215.7C129.58 217 130.56 218.82 130.96 220L132.26 219.38C131.84 218.22 130.86 216.46 129.88 215.16L128.64 215.7ZM131.42 212.18V212.4C131.04 213.52 130.5 214.9 130.04 215.74L131.34 216C131.82 215.12 132.44 213.66 132.94 212.4L131.9 212.14L131.66 212.18H131.42ZM119.98 222.64V226.26C119.98 227.84 120.52 228.26 122.6 228.26C123.04 228.26 126.02 228.26 126.48 228.26C128.2 228.26 128.66 227.66 128.84 225.24C128.42 225.14 127.82 224.92 127.5 224.66C127.4 226.64 127.26 226.9 126.38 226.9C125.72 226.9 123.22 226.9 122.72 226.9C121.66 226.9 121.46 226.8 121.46 226.26V222.64H119.98ZM121.7 222.04C123 222.68 124.48 223.76 125.16 224.56L126.24 223.58C125.52 222.78 123.98 221.76 122.7 221.14L121.7 222.04ZM128.28 223.26C129.78 224.54 131.26 226.42 131.84 227.74L133.18 226.98C132.56 225.62 131 223.82 129.52 222.56L128.28 223.26ZM117.54 222.88C117.12 224.56 116.26 226.16 114.78 227.1L116.02 227.96C117.6 226.9 118.38 225.12 118.88 223.32L117.54 222.88ZM119.46 210.2C118.32 212.4 116.44 214.6 114.56 216.02C114.86 216.28 115.36 216.88 115.54 217.18C117.48 215.6 119.5 213.14 120.8 210.66L119.46 210.2ZM117.62 213.96V221.64H119.06V212.56L119.04 212.54L117.62 213.96ZM135.16 219.02V220.38H152.86V219.02H135.16ZM144.06 222.6V223.92H151.54V222.6H144.06ZM143.4 219.62V227.2H144.92V219.62H143.4ZM139.48 222.88L138.24 223.34C139.8 227.38 142.52 228.22 147.2 228.22H152.7C152.78 227.78 153.02 227.12 153.24 226.78C152.2 226.8 148.02 226.8 147.26 226.8C143.34 226.78 140.7 226.16 139.48 222.88ZM138.62 221.02C138.1 223.96 136.82 226.2 134.7 227.58C135.04 227.82 135.62 228.36 135.84 228.64C138.04 227.04 139.48 224.56 140.12 221.24L138.62 221.02ZM138.72 214.88H149.14V216.52H138.72V214.88ZM138.72 212.18H149.14V213.8H138.72V212.18ZM137.26 211.04V217.66H150.66V211.04H137.26ZM158.36 226.3V227.64H169.66V226.3H158.36ZM157.52 221.06V228.6H159.06V222.38H169V228.56H170.62V221.06H157.52ZM155.32 211.34V212.76H172.68V211.34H155.32ZM164.92 211.9C162.68 214.76 158.66 217.04 154.7 218.32C155.02 218.64 155.54 219.34 155.76 219.68C159.72 218.16 163.86 215.74 166.38 212.56L164.92 211.9ZM165.58 215.72C167.88 216.66 170.64 218.28 172.1 219.44L173.18 218.3C171.68 217.22 168.94 215.64 166.64 214.7L165.58 215.72ZM163.2 214.8V220.46H164.74V213.32L164.72 213.3L163.2 214.8ZM180.74 218.36V219.74H192.86V218.36H180.74ZM179.2 216.02C178.16 218.2 176.5 220.36 174.82 221.8C175.14 222.08 175.66 222.72 175.86 223.02C177.62 221.42 179.44 218.94 180.62 216.48L179.2 216.02ZM188.66 216.18V226.68C188.66 227.02 188.56 227.12 188.16 227.12C187.78 227.14 186.46 227.16 185.02 227.12C185.24 227.52 185.48 228.16 185.54 228.56C187.36 228.56 188.54 228.54 189.22 228.32C189.9 228.08 190.12 227.64 190.12 226.7V216.18H188.66ZM177.34 212.12V213.4H183.48V212.12H177.34ZM185.02 212.12V213.4H192.68V212.12H185.02ZM177.64 210.14C177.02 212.16 175.96 214.14 174.7 215.44C175.06 215.64 175.7 216.06 175.98 216.28C177.18 214.86 178.36 212.68 179.08 210.5L177.64 210.14ZM185.5 210.14C184.9 212.16 183.82 214.06 182.48 215.28C182.84 215.5 183.46 215.92 183.74 216.14C185.04 214.78 186.24 212.7 186.94 210.48L185.5 210.14ZM178.74 213.14C179.22 214.08 179.82 215.38 180.12 216.12L181.46 215.64C181.14 214.92 180.5 213.66 180.02 212.76L178.74 213.14ZM186.9 213.14C187.48 213.98 188.22 215.14 188.56 215.84L189.88 215.3C189.5 214.6 188.74 213.48 188.14 212.66L186.9 213.14ZM181.9 221.48C182.78 222.76 183.9 224.48 184.42 225.48L185.68 224.72C185.12 223.74 183.98 222.08 183.1 220.84L181.9 221.48ZM177.8 219.32V228.6H179.24V217.92V217.9L177.8 219.32ZM198.96 216.74V218.08H209.06V216.74H198.96ZM198.6 226.46V227.8H209.32V226.46H198.6ZM197.92 220.6V228.62H199.38V221.96H208.64V228.62H210.16V220.6H197.92ZM203.94 211.74C205.82 214.3 209.34 217.12 212.48 218.76C212.74 218.32 213.1 217.8 213.48 217.44C210.28 216.02 206.78 213.24 204.62 210.26H203.1C201.52 212.84 198.18 215.9 194.66 217.68C195 218 195.4 218.54 195.6 218.88C199.02 217.02 202.3 214.18 203.94 211.74ZM215.18 218.56V219.9H221.88V218.56H215.18ZM216.72 215.34V216.64H221.7V215.34H216.72ZM217.32 219.26V228.58H218.68V219.26H217.32ZM221.2 218.56V224.48C221.2 224.66 221.16 224.72 220.96 224.74C220.74 224.76 220.12 224.76 219.32 224.74C219.5 225.1 219.66 225.64 219.68 226.04C220.76 226.04 221.48 226.02 221.96 225.8C222.44 225.56 222.54 225.16 222.54 224.5V218.56H221.2ZM222.92 211.14V212.44H233.02V211.14H222.92ZM225.08 218.58H230.94V220.54H225.08V218.58ZM225.08 221.64H230.94V223.62H225.08V221.64ZM225.08 215.52H230.94V217.46H225.08V215.52ZM223.68 214.36V224.8H232.4V214.36H223.68ZM227.22 211.78C227.1 212.7 226.82 214.08 226.58 214.98L227.9 215.24C228.22 214.4 228.58 213.14 228.92 211.98L227.22 211.78ZM225.68 225.16C224.82 226.04 223.02 227.08 221.42 227.66C221.72 227.92 222.2 228.38 222.42 228.68C224.02 228.08 225.9 227 227 225.94L225.68 225.16ZM228.78 226.02C230.02 226.78 231.56 227.92 232.3 228.66L233.5 227.8C232.68 227.04 231.14 225.96 229.92 225.26L228.78 226.02ZM218.34 210.22C217.64 211.96 216.32 214.2 214.4 215.86C214.68 216.08 215.08 216.62 215.28 216.94C217.44 214.98 218.8 212.64 219.62 210.94V210.54H219.16V210.22H218.34ZM218.52 210.22V211.34H218.82C220.14 212.44 221.7 214.32 222.46 215.44L223.44 214.18C222.66 213.06 221 211.36 219.66 210.22H218.52ZM236.24 212.26V213.44H251.7V212.26H236.24ZM237.34 214.58V215.7H250.6V214.58H237.34ZM235.12 216.86V218.02H252.84V216.86H235.12ZM239.68 221.72V222.64H248.08V221.72H239.68ZM243.2 212.82V217.44H244.74V212.82H243.2ZM243.24 218.52V220.3H244.68V218.52H243.24ZM238.96 210.64C239.52 211.28 240.1 212.18 240.32 212.78L241.72 212.2C241.44 211.62 240.86 210.76 240.26 210.16L238.96 210.64ZM247.52 210.18C247.22 210.76 246.7 211.68 246.26 212.26L247.52 212.66C248 212.14 248.58 211.36 249.1 210.58L247.52 210.18ZM247.42 217.18L246.22 217.62C247.52 219.64 249.92 221.44 252.32 222.26C252.54 221.9 252.98 221.38 253.28 221.08C250.92 220.42 248.58 218.9 247.42 217.18ZM244.18 224.1L243 224.42C244.74 226.8 248.1 228.14 252.1 228.64C252.28 228.24 252.64 227.66 252.94 227.36C249.08 227.04 245.74 225.98 244.18 224.1ZM239.84 219.64V220.66H247.64V223.74H239.84V224.76H249.14V219.64H239.84ZM238.86 219.64V227.5H240.34V219.64H238.86ZM236.54 227.1L236.72 228.44C239.04 228.22 242.34 227.92 245.5 227.62V226.4C242.18 226.68 238.74 226.94 236.54 227.1ZM250.4 224.36C249.48 224.98 247.88 225.84 246.72 226.34L247.58 226.96C248.8 226.5 250.34 225.8 251.52 225.06L250.4 224.36ZM240.5 217.18C239.26 219 236.98 220.5 234.62 221.42C234.96 221.7 235.48 222.24 235.68 222.52C238.02 221.44 240.48 219.72 241.88 217.6L240.5 217.18ZM255.92 211.68C257.32 212.12 259.18 212.84 260.12 213.36L260.78 212.2C259.82 211.7 257.96 211.02 256.58 210.66L255.92 211.68ZM254.92 215.9L255.5 217.22C257.02 216.76 258.9 216.14 260.72 215.56L260.56 214.38C258.48 214.96 256.36 215.56 254.92 215.9ZM263.5 211.68L262.62 212.82H271.54V211.68H263.5ZM271.14 211.68V211.9C270.74 212.74 270.06 213.74 269.42 214.36L270.62 214.78C271.34 214.08 272.08 212.96 272.64 211.92L271.64 211.62L271.38 211.68H271.14ZM265.98 212.08C265.64 214.36 264.56 215.6 260.86 216.22C261.12 216.48 261.44 216.98 261.58 217.3C265.66 216.48 266.94 214.92 267.36 212.08H265.98ZM267.3 212.44L266.08 212.56C266.6 214.66 267.6 216.82 272.34 217.64C272.5 217.26 272.84 216.72 273.12 216.42C268.68 215.78 267.7 214.14 267.3 212.44ZM263.82 210.2C263.3 211.4 262.28 212.78 260.78 213.8C261.14 213.96 261.66 214.28 261.92 214.56C263.48 213.36 264.5 211.88 265.18 210.42L263.82 210.2ZM259.06 220.66H269.14V222.02H259.06V220.66ZM259.06 223H269.14V224.4H259.06V223ZM259.06 218.32H269.14V219.68H259.06V218.32ZM257.6 217.32V225.4H270.64V217.32H257.6ZM265.66 226.42C267.84 227.14 270.02 228 271.28 228.66L272.94 227.9C271.5 227.22 269.08 226.34 266.88 225.66L265.66 226.42ZM260.96 225.62C259.52 226.4 257.12 227.1 255.06 227.54C255.4 227.8 255.92 228.38 256.16 228.68C258.16 228.12 260.7 227.2 262.32 226.24L260.96 225.62ZM285.06 212.36V213.68H290.7V212.36H285.06ZM283.24 221.28V228.62H284.64V222.58H290.22V228.56H291.66V221.28H283.24ZM283.84 226.42V227.74H290.98V226.42H283.84ZM285.64 210.18C284.7 212.6 283.08 214.88 281.24 216.32C281.58 216.54 282.18 217.06 282.42 217.32C284.24 215.74 286 213.24 287.08 210.58L285.64 210.18ZM290.28 212.36V212.62C288.82 216.86 284.82 219.94 280.8 221.2C281.1 221.48 281.48 222.04 281.66 222.42C285.92 220.88 290.04 217.7 291.76 212.74L290.82 212.3L290.56 212.36H290.28ZM284.94 213.4L283.84 214.1C285.2 217.08 288.14 220.4 292.6 221.96C292.8 221.6 293.22 221 293.52 220.72C289.12 219.38 286.18 216.24 284.94 213.4ZM275.02 214.5V215.92H282.06V214.5H275.02ZM278.04 210.2V228.58H279.46V210.2H278.04ZM277.98 215.38C277.38 218.26 275.96 221.72 274.54 223.52C274.82 223.86 275.18 224.44 275.34 224.84C276.84 222.82 278.26 218.92 278.92 215.7L277.98 215.38ZM279.36 216.72L278.62 217.38C279.18 218.1 280.62 220.16 281.1 221.04L282 219.88C281.6 219.34 279.84 217.2 279.36 216.72ZM297.88 222.14C296.2 222.14 294.82 223.5 294.82 225.18C294.82 226.86 296.2 228.22 297.88 228.22C299.56 228.22 300.92 226.86 300.92 225.18C300.92 223.5 299.56 222.14 297.88 222.14ZM297.88 227.2C296.76 227.2 295.84 226.3 295.84 225.18C295.84 224.06 296.76 223.16 297.88 223.16C299 223.16 299.9 224.06 299.9 225.18C299.9 226.3 299 227.2 297.88 227.2Z" fill="#4C4C4C"/>
<path d="M131.44 110.6V121.28H136.4V110.6H131.44ZM119.76 112.52V116.48H148.6V112.52H119.76ZM115.72 118.76V122.84H152.32V118.76H115.72ZM117.2 125.2V129.28H151.12V125.2H117.2ZM139.36 122.28V133.52C139.36 134.04 139.16 134.16 138.48 134.16C137.8 134.2 135.44 134.2 133.4 134.12C134.08 135.32 134.88 137.24 135.12 138.6C138.12 138.6 140.4 138.52 142.08 137.88C143.8 137.16 144.32 135.96 144.32 133.64V122.28H139.36ZM120.8 103.92V107.84H133.56V103.92H120.8ZM136.68 103.92V107.84H152.08V103.92H136.68ZM121.12 100.72C119.72 104.12 117.32 107.56 114.68 109.76C115.8 110.36 117.76 111.64 118.68 112.44C121.28 109.92 124 105.92 125.68 101.96L121.12 100.72ZM137.28 100.72C136.16 103.96 134 107.2 131.52 109.2C132.6 109.8 134.56 111.08 135.48 111.88C137.96 109.52 140.44 105.72 141.88 101.84L137.28 100.72ZM122.32 106.96C123.28 108.56 124.32 110.72 124.68 112.04L128.8 110.36C128.36 109 127.2 106.96 126.2 105.44L122.32 106.96ZM139.76 107.04C140.96 108.6 142.32 110.76 142.88 112.08L146.96 110.4C146.32 109 144.84 106.96 143.64 105.48L139.76 107.04ZM122.52 130.92C124.8 132.64 127.44 135.12 128.56 136.96L132.28 133.96C131.04 132.16 128.28 129.8 126 128.2L122.52 130.92ZM169.32 105.6V109.92H190.96V105.6H169.32ZM167.48 120.96V125.32H192.52V120.96H167.48ZM167.08 113.44V117.8H192.84V113.44H167.08ZM177.52 101.2V115.68H182.32V101.2H177.52ZM183 117.04V133.48C183 134 182.8 134.16 182.2 134.16C181.56 134.2 179.36 134.2 177.4 134.08C178 135.36 178.68 137.28 178.88 138.6C181.92 138.6 184.12 138.56 185.76 137.84C187.36 137.12 187.8 135.92 187.8 133.56V117.04H183ZM169.68 127.6C171.44 129.76 173.4 132.76 174.12 134.68L178.32 132.4C177.48 130.44 175.4 127.6 173.64 125.56L169.68 127.6ZM164.36 109.88C162.08 113.76 158.2 117.72 154.72 120.2C155.44 121.36 156.64 124.08 156.96 125.16C161.08 121.84 165.68 116.56 168.52 111.64L164.36 109.88ZM163.4 101.08C161.72 103.76 158.2 107.04 155.16 108.96C155.84 109.96 157 111.92 157.48 113C161.2 110.56 165.24 106.64 167.84 102.92L163.4 101.08ZM160.6 118.8V138.6H165.2V114.48L165 114.36L160.6 118.8ZM211.6 111.32V123.72H216.12V111.32H211.6ZM211.6 125.96V136H216.12V125.96H211.6ZM201.04 124.12V138.52H205.56V127.4H222.48V138.4H227.2V124.12H201.04ZM196.2 116V119.92H231.8V116H196.2ZM203.72 129.32V132.16H224.64V129.32H203.72ZM203.72 134.16V137.48H224.64V134.16H203.72ZM223.04 108.4C217.92 109.24 209.44 109.76 202.2 109.92C202.6 110.8 203.04 112.24 203.16 113.16C210.48 113.12 219.32 112.6 225.52 111.64L223.04 108.4ZM209.4 116.8C206.28 120.04 200.24 123.12 194.8 124.64C195.8 125.56 197.2 127.28 197.84 128.4C203.36 126.44 209.48 122.64 213.08 118.52L209.4 116.8ZM218.16 116.68L214.72 118.2C218.36 122.32 224.4 125.88 230.12 127.6C230.8 126.44 232.12 124.72 233.12 123.8C227.36 122.56 221.28 119.8 218.16 116.68ZM201.48 113.36C202.2 114.56 202.84 116.24 203.04 117.32L207.36 116.36C207.12 115.24 206.4 113.68 205.6 112.56L201.48 113.36ZM222.12 112.04C221.72 113.32 220.92 115.16 220.24 116.44L224 117.6C224.84 116.48 225.88 114.92 227 113.24L222.12 112.04ZM211.6 101.08V106.56H216.4V101.08H211.6ZM196.68 103.8V111.76H201.12V107.84H226.56V111.76H231.24V103.8H196.68ZM249.64 106.8V111.16H272.56V106.8H249.64ZM258.8 101.24V109.08H263.52V101.24H258.8ZM261.48 130.8C264.16 133.2 267.6 136.64 269.2 138.72L273.08 135.76C271.32 133.64 267.68 130.4 265.12 128.2L261.48 130.8ZM249.96 117.36C252.84 119.4 256.56 122.44 258.24 124.48L261.16 120.72C259.36 118.76 255.48 115.92 252.68 114.08L249.96 117.36ZM258.24 108.92C257.08 111.44 254.92 114.88 253.2 117.04L256.64 118.84C258.48 116.88 260.84 113.8 262.96 111.04L258.24 108.92ZM268.36 120.88C264.4 127.68 256.88 132.24 248.12 134.68C249.2 135.76 250.36 137.4 250.96 138.6C260.36 135.52 268 130.48 272.68 122.68L268.36 120.88ZM265.32 113.04C262.04 119.08 255.88 124.04 249.2 126.8C250.24 127.72 251.52 129.24 252.12 130.32C259.36 126.84 265.56 121.52 269.48 114.72L265.32 113.04ZM235.76 109.28V113.76H249.4V109.28H235.76ZM240.88 101.04V138.6H245.32V101.04H240.88ZM240.8 112.36C239.8 117.48 237.44 123.72 234.84 127.2C235.56 128.36 236.6 130.24 237.04 131.56C239.96 127.44 242.36 119.72 243.52 113.32L240.8 112.36ZM245.12 115.56L243.04 117.56C244.2 119.6 246.72 124.28 247.72 126.76L250.32 123.16C249.56 121.96 246.08 116.68 245.12 115.56Z" fill="#4C4C4C"/>
<path d="M188.71 370.4C188.109 369.875 187.268 369.875 186.787 370.4C185.825 371.24 184.503 372.395 183.902 372.92C183.661 373.13 183.541 373.34 183.541 373.655L182.82 381.635C182.699 382.37 183.541 383 184.383 383L193.158 382.16C193.519 382.16 193.76 382.055 194 381.845L196.885 379.325C197.486 378.8 197.486 378.065 196.885 377.54L188.71 370.4ZM226.459 351.5L218.404 344.465C217.803 343.94 216.962 343.94 216.361 344.465L193.76 364.205C193.158 364.73 193.158 365.465 193.76 365.99L201.814 373.025C202.415 373.55 203.257 373.55 203.858 373.025L226.459 353.285C227.06 352.76 227.06 351.92 226.459 351.5ZM220.448 301.205C220.448 298.475 217.923 296.27 214.798 296.27H211.792C211.071 296.27 210.35 296.795 210.35 297.53V304.88C210.35 305.51 209.749 306.14 208.907 306.14H161.18C160.459 306.14 159.738 305.615 159.738 304.88V297.53C159.738 296.9 159.137 296.27 158.295 296.27H155.65C152.525 296.27 150 298.475 150 301.205V365.15C150 367.88 152.525 370.085 155.65 370.085H177.53C177.891 369.56 178.372 369.035 178.852 368.51C179.814 367.565 182.699 365.15 182.699 365.15L220.448 332.18V301.205V301.205ZM187.989 336.59H168.273C166.35 336.59 164.787 335.225 164.787 333.545C164.787 331.865 166.35 330.5 168.273 330.5H187.989C189.913 330.5 191.475 331.865 191.475 333.545C191.475 335.225 189.913 336.59 187.989 336.59ZM202.055 324.305H168.273C166.35 324.305 164.787 322.94 164.787 321.26C164.787 319.58 166.35 318.215 168.273 318.215H202.055C203.978 318.215 205.541 319.58 205.541 321.26C205.661 322.94 204.098 324.305 202.055 324.305Z" fill="#EDDCCE"/>
<path d="M195.804 288.29C193.76 287.66 192.197 285.98 192.197 284.09C192.197 280.73 189.192 278 185.345 278H185.104C181.377 278 178.011 280.625 178.252 283.88C178.372 285.875 176.929 287.765 174.645 288.395C170.197 289.76 166.951 290.915 166.951 295.22V298.895C166.951 299.525 167.552 300.155 168.394 300.155H202.175C202.897 300.155 203.618 299.63 203.618 298.895V295.22C203.498 290.81 200.252 289.55 195.804 288.29ZM237.64 341.735L229.585 334.7C228.984 334.175 228.142 334.175 227.541 334.7L223.334 338.375C222.733 338.9 222.733 339.635 223.334 340.16L231.388 347.195C231.989 347.72 232.831 347.72 233.432 347.195L237.64 343.52C238.121 342.995 238.121 342.26 237.64 341.735Z" fill="#EDDCCE"/>
</svg>
