<svg width="388" height="480" viewBox="0 0 388 480" fill="none" xmlns="http://www.w3.org/2000/svg">
<rect width="388" height="480" rx="20" fill="#FF7F62"/>
<path d="M163.197 197.182C163.027 195.742 162.336 194.625 161.124 193.83C159.911 193.034 158.425 192.636 156.663 192.636C155.375 192.636 154.249 192.845 153.283 193.261C152.326 193.678 151.578 194.251 151.038 194.98C150.508 195.709 150.243 196.538 150.243 197.466C150.243 198.242 150.428 198.91 150.797 199.469C151.176 200.018 151.659 200.477 152.246 200.847C152.833 201.206 153.448 201.505 154.092 201.741C154.736 201.969 155.328 202.153 155.868 202.295L158.822 203.091C159.58 203.29 160.423 203.564 161.351 203.915C162.288 204.265 163.183 204.743 164.036 205.349C164.897 205.946 165.607 206.713 166.166 207.651C166.725 208.588 167.004 209.739 167.004 211.102C167.004 212.674 166.592 214.095 165.768 215.364C164.954 216.633 163.761 217.641 162.189 218.389C160.626 219.137 158.728 219.511 156.493 219.511C154.41 219.511 152.606 219.175 151.081 218.503C149.566 217.83 148.373 216.893 147.501 215.69C146.64 214.488 146.152 213.091 146.038 211.5H149.675C149.769 212.598 150.139 213.508 150.783 214.227C151.436 214.937 152.26 215.468 153.254 215.818C154.258 216.159 155.338 216.33 156.493 216.33C157.838 216.33 159.045 216.112 160.115 215.676C161.185 215.231 162.033 214.616 162.658 213.83C163.283 213.034 163.595 212.106 163.595 211.045C163.595 210.08 163.325 209.294 162.786 208.688C162.246 208.081 161.536 207.589 160.655 207.21C159.774 206.831 158.822 206.5 157.8 206.216L154.22 205.193C151.947 204.54 150.148 203.607 148.822 202.395C147.497 201.183 146.834 199.597 146.834 197.636C146.834 196.008 147.274 194.587 148.155 193.375C149.045 192.153 150.238 191.206 151.734 190.534C153.24 189.852 154.921 189.511 156.777 189.511C158.652 189.511 160.319 189.848 161.777 190.52C163.235 191.183 164.391 192.092 165.243 193.247C166.105 194.402 166.559 195.714 166.607 197.182H163.197ZM171.205 193.034V189.909H193.023V193.034H183.876V219H180.353V193.034H171.205ZM198.46 219V189.909H216.017V193.034H201.983V202.864H215.108V205.989H201.983V215.875H216.244V219H198.46ZM222.366 219V189.909H232.196C234.478 189.909 236.344 190.321 237.793 191.145C239.251 191.959 240.33 193.062 241.031 194.455C241.732 195.847 242.082 197.4 242.082 199.114C242.082 200.828 241.732 202.385 241.031 203.787C240.34 205.188 239.27 206.306 237.821 207.139C236.372 207.963 234.516 208.375 232.253 208.375H225.207V205.25H232.139C233.702 205.25 234.956 204.98 235.903 204.44C236.85 203.901 237.537 203.171 237.963 202.253C238.399 201.325 238.616 200.278 238.616 199.114C238.616 197.949 238.399 196.907 237.963 195.989C237.537 195.07 236.846 194.35 235.889 193.83C234.933 193.299 233.664 193.034 232.082 193.034H225.889V219H222.366Z" fill="white"/>
<path d="M157.363 164.193C151.539 164.193 146.539 162.403 142.363 158.824C138.187 155.244 134.977 150.116 132.732 143.44C130.516 136.736 129.408 128.71 129.408 119.364C129.408 110.045 130.531 102.034 132.775 95.3295C135.019 88.625 138.215 83.483 142.363 79.9034C146.539 76.3239 151.539 74.5341 157.363 74.5341C163.187 74.5341 168.173 76.3239 172.32 79.9034C176.496 83.483 179.707 88.625 181.951 95.3295C184.195 102.034 185.317 110.045 185.317 119.364C185.317 128.71 184.195 136.736 181.951 143.44C179.735 150.116 176.539 155.244 172.363 158.824C168.187 162.403 163.187 164.193 157.363 164.193ZM157.363 159.25C164.437 159.25 169.991 155.741 174.025 148.724C178.059 141.679 180.076 131.892 180.076 119.364C180.076 111.011 179.153 103.852 177.306 97.8864C175.488 91.9205 172.888 87.3608 169.508 84.2074C166.127 81.0256 162.079 79.4347 157.363 79.4347C150.289 79.4347 144.735 82.9574 140.701 90.0028C136.667 97.0483 134.65 106.835 134.65 119.364C134.65 127.716 135.559 134.875 137.377 140.841C139.195 146.778 141.795 151.338 145.175 154.52C148.585 157.673 152.647 159.25 157.363 159.25ZM201.756 143.398V139.136L241.259 75.7273H244.497V83.9517H241.727L208.19 137.986V138.455H258.602V143.398H201.756ZM242.153 163V141.949V140.031V75.7273H247.352V163H242.153Z" fill="white"/>
<path d="M290.561 281.266C291.498 288.772 281.193 292.526 275.666 294.965C275.104 293.933 275.197 292.619 274.542 291.681C273.792 290.555 272.293 290.086 271.825 288.866C271.263 287.365 272.387 285.77 272.293 284.175C272.2 282.674 270.982 281.548 270.607 280.14C270.232 278.921 270.326 277.607 270.888 276.481C273.792 275.637 276.696 275.167 279.694 275.074C283.535 274.604 289.905 276.293 290.561 281.266Z" fill="#EDEAE6"/>
<path d="M263.861 328.931C268.264 336.156 292.246 364.304 288.593 387.385C284.471 413.563 260.676 431.766 258.803 430.265C257.866 429.514 253.463 427.45 252.995 426.418C251.121 421.539 250.559 416.097 251.589 412.813C257.772 408.966 262.456 402.867 265.548 396.205C268.171 390.576 269.857 384.289 269.388 378.097C269.014 372.748 267.046 367.588 264.705 362.803C260.489 354.171 254.868 346.289 250.278 337.845C245.688 329.4 242.034 320.017 242.502 310.447C242.877 301.064 247.28 291.963 254.212 285.583C258.896 281.173 264.704 278.076 270.887 276.387C270.419 277.607 270.232 278.921 270.606 280.047C271.075 281.454 272.199 282.674 272.293 284.081C272.386 285.676 271.168 287.271 271.824 288.773C272.293 289.992 273.791 290.555 274.541 291.588C275.197 292.526 275.103 293.839 275.665 294.871C274.916 295.153 274.26 295.528 273.698 295.81C269.295 298.155 264.798 300.689 262.081 304.817C257.491 311.948 259.458 321.612 263.861 328.931Z" fill="#715947"/>
<path d="M199.219 446.685C203.06 449.969 205.402 454.941 205.402 460.008C204.184 459.914 202.873 459.914 201.655 460.008C199.687 460.196 197.814 460.665 195.847 460.759C193.879 460.853 191.818 460.383 190.413 459.07C189.195 457.85 188.633 456.067 188.633 454.379C188.727 452.69 189.383 451.001 190.226 449.593C191.444 447.529 193.224 445.746 195.285 444.527C196.783 444.902 198.095 445.746 199.219 446.685Z" fill="#7A5F4C"/>
<path d="M144.697 445.089C147.788 446.309 150.599 448.373 152.566 451C151.536 452.314 150.505 453.533 149.194 454.566C145.259 457.662 139.076 458.506 135.329 455.222C134.392 454.378 133.643 453.346 133.362 452.126C132.706 449.405 134.486 446.778 135.61 444.151C138.702 443.588 141.793 443.963 144.697 445.089Z" fill="#EDEAE6"/>
<path d="M199.688 406.808C198.282 410.842 197.533 415.065 197.439 419.381C197.252 422.665 197.439 425.949 198.282 429.139C199.219 432.423 200.531 435.519 201.936 438.615C202.311 439.46 202.779 440.304 203.247 441.055C201.467 441.43 199.688 442.087 198.001 442.744C197.533 442.931 196.971 443.213 196.409 443.588C193.13 441.618 188.821 434.675 189.102 433.267C189.008 433.361 187.416 437.489 185.448 442.181C190.132 430.452 193.317 417.973 197.533 406.057L199.688 406.808Z" fill="#EDEAE6"/>
<path d="M197.72 406.151C193.504 418.067 190.319 430.452 185.635 442.275C184.136 445.652 182.45 449.312 181.045 451.845C180.483 452.783 180.014 453.722 179.546 454.754C177.391 452.314 174.581 450.531 171.489 449.687C168.585 448.936 165.4 448.936 162.496 449.875C163.152 448.655 163.339 447.247 163.527 445.84C164.182 440.586 164.089 435.331 164.182 430.077C164.463 428.857 164.463 427.544 164.276 426.324C164.37 424.447 164.463 422.477 164.651 420.6C164.37 421.726 163.995 422.852 163.714 423.978C163.433 423.228 163.152 422.571 162.777 422.008C160.623 418.349 156.594 416.003 154.627 412.25C152.473 407.934 153.503 402.867 153.503 397.988C153.503 391.983 151.817 385.978 148.351 381.099C146.664 378.753 144.51 376.595 142.73 374.25C144.51 367.213 146.664 360.175 147.882 352.951C149.381 344.412 149.662 335.311 146.758 327.148C145.165 323.207 142.449 319.548 139.919 315.607C141.325 315.701 142.824 315.701 144.322 315.607C157.063 314.481 168.866 306.225 174.3 294.684C175.237 292.713 175.986 290.649 177.298 289.054C178.609 287.365 180.764 286.146 182.918 286.521C184.698 286.896 186.01 288.21 186.947 289.805C187.79 291.4 188.258 293.089 188.914 294.778C192.193 303.128 199.968 308.852 207.743 313.262C210.835 315.044 213.926 316.733 217.392 317.39C219.079 317.765 220.952 317.765 222.639 317.484C222.545 317.578 222.545 317.578 222.451 317.672C221.514 318.798 220.484 319.83 220.109 321.237C219.547 329.212 221.889 337.188 225.355 344.506C227.041 348.166 229.009 351.637 231.07 355.109C230.601 357.454 229.758 359.706 228.634 361.771C226.573 365.711 223.763 369.183 221.514 372.936C219.36 376.595 217.674 380.63 218.048 384.852C217.58 385.134 217.205 385.415 216.737 385.697C214.957 386.916 213.271 388.136 211.678 389.637C207.837 393.109 204.558 397.237 201.935 401.741C201.092 403.43 200.343 405.213 199.687 406.995L197.72 406.151Z" fill="#EDEAE6"/>
<path d="M171.395 449.593C174.486 450.438 177.39 452.22 179.451 454.66C178.233 457.006 176.922 459.257 174.674 460.665C172.613 461.978 170.083 462.354 167.648 462.448C165.493 462.541 163.151 462.26 161.465 461.04C159.31 459.445 158.561 456.349 159.685 453.909C160.341 452.502 161.558 451.376 162.308 450.062C162.308 449.968 162.402 449.875 162.402 449.875C165.306 448.936 168.491 448.843 171.395 449.593Z" fill="#7A5F4C"/>
<path d="M196.223 444.339C198.472 442.837 201.095 442.368 203.718 441.618C203.905 441.524 203.905 441.242 203.718 441.148C203.718 441.055 203.718 441.055 203.624 440.961C203.156 440.116 202.781 439.272 202.406 438.427C201.001 435.05 199.783 431.484 198.94 427.825C198.378 425.104 198.284 422.289 198.378 419.287C198.472 414.408 199.502 409.81 201.469 405.119C202.125 403.524 203.624 400.896 204.936 399.208C206.997 396.205 208.964 393.672 211.587 390.951C211.587 398.457 213.835 406.057 219.55 410.842C222.266 413.094 225.732 414.689 227.606 417.785C229.105 420.319 229.386 423.415 230.885 425.855C232.477 428.388 235.288 429.983 238.004 431.297C241.845 433.173 245.967 434.674 250.183 435.237C252.618 435.519 255.148 435.519 257.49 435.05C257.302 435.519 257.115 436.082 256.928 436.551C253.649 444.808 246.81 451.376 238.848 455.223C230.885 459.07 221.798 460.383 212.992 459.82C210.369 460.195 207.84 459.914 205.31 459.82C205.31 454.753 203.062 449.781 199.127 446.497C198.003 445.558 196.598 444.714 195.193 444.339C195.38 444.245 195.568 444.057 195.755 443.963C195.942 444.339 196.13 444.432 196.223 444.339Z" fill="#EDEAE6"/>
<path d="M162.683 421.914C163.057 422.57 163.338 423.227 163.62 423.884C161.746 430.077 159.591 436.082 157.156 441.993C155.938 445.089 154.439 448.185 152.472 450.906C150.411 448.279 147.694 446.215 144.603 444.995C141.698 443.869 138.607 443.494 135.516 443.963C135.516 443.869 135.609 443.775 135.609 443.775C137.764 438.896 137.67 433.361 137.577 428.012C137.296 411.311 137.951 394.516 141.698 378.19C141.98 376.783 142.354 375.469 142.635 374.062C144.415 376.407 146.57 378.471 148.256 380.911C151.722 385.79 153.408 391.795 153.408 397.8C153.408 402.585 152.378 407.746 154.533 412.062C156.5 415.909 160.528 418.254 162.683 421.914Z" fill="#7A5F4C"/>
<path d="M258.332 413.188C259.831 420.507 259.925 428.201 257.489 435.144C255.053 435.613 252.618 435.613 250.182 435.332C245.873 434.769 241.844 433.174 238.004 431.391C235.287 430.077 232.476 428.576 230.884 425.949C229.291 423.416 229.104 420.319 227.605 417.88C225.732 414.877 222.265 413.282 219.549 410.936C213.928 406.151 211.68 398.551 211.586 391.045C211.867 390.764 212.148 390.388 212.523 390.107C215.614 387.104 218.799 384.759 222.546 382.694C223.39 382.225 224.045 381.944 224.982 381.662C225.076 381.662 225.169 381.475 225.169 381.381C225.169 381.287 224.982 381.193 224.888 381.193C222.453 381.944 220.204 383.257 218.144 384.665C217.862 380.536 219.455 376.408 221.61 372.749C223.858 368.996 226.668 365.524 228.729 361.583C229.853 359.519 230.697 357.267 231.165 354.921C233.226 358.393 235.381 361.771 237.348 365.242C242.126 373.499 246.435 382.038 250.369 390.67C253.554 397.988 256.74 405.401 258.332 413.188Z" fill="#7A5F4C"/>
<path d="M229.007 304.723C229.1 306.131 229.1 307.632 228.632 308.946C228.257 310.165 227.414 311.291 226.665 312.323C225.353 314.106 224.042 315.795 222.543 317.39C220.856 317.672 218.983 317.672 217.297 317.296C213.83 316.639 210.645 314.951 207.648 313.168C199.872 308.664 192.19 303.034 188.912 294.684C188.256 292.995 187.788 291.306 186.944 289.711C186.101 288.21 184.696 286.802 182.916 286.427C180.762 286.052 178.701 287.271 177.295 288.96C175.984 290.649 175.141 292.713 174.298 294.59C168.864 306.131 156.967 314.388 144.32 315.513C142.915 315.607 141.416 315.701 139.917 315.513C137.013 311.104 134.484 306.412 134.203 301.064C133.922 296.466 135.514 291.963 137.294 287.741C139.917 281.36 143.009 275.168 146.475 269.163C148.536 263.158 150.597 257.34 153.032 251.617C155.655 245.612 158.841 239.513 164.274 235.948C164.742 235.666 165.211 235.385 165.679 235.385C167.272 235.197 168.302 236.98 168.864 238.481C171.206 244.486 173.455 250.585 175.797 256.59C182.635 256.402 191.628 257.81 198.373 260.061C203.432 251.992 213.362 242.703 215.798 242.985C221.981 243.642 224.229 267.286 222.262 279.202C225.259 288.491 228.632 295.622 229.007 304.723Z" fill="#7A5F4C"/>
<path d="M224.792 381.192C222.356 381.943 220.108 383.257 218.047 384.664C217.578 384.945 217.204 385.227 216.735 385.508C214.955 386.728 213.269 387.948 211.677 389.449C207.836 392.921 204.557 397.049 201.934 401.553C201.091 403.242 200.341 405.025 199.686 406.807C198.28 410.842 197.531 415.064 197.437 419.38C197.25 422.664 197.437 425.948 198.28 429.138C199.217 432.422 200.529 435.519 201.934 438.615C202.309 439.459 202.777 440.304 203.245 441.054C201.465 441.43 199.686 442.086 197.999 442.743C197.531 442.931 196.969 443.212 196.407 443.588C196.5 443.682 196.5 443.682 196.594 443.682C196.313 443.775 196.032 443.963 195.751 444.057C195.751 444.245 195.938 444.338 196.126 444.245C198.374 442.743 200.997 442.274 203.62 441.524C203.807 441.43 203.807 441.148 203.62 441.054C203.62 440.961 203.62 440.961 203.526 440.867C203.058 440.022 202.683 439.178 202.309 438.333C200.903 434.956 199.686 431.39 198.842 427.731C198.28 425.01 198.187 422.195 198.28 419.193C198.374 414.314 199.404 409.716 201.372 405.025C202.028 403.43 203.526 400.802 204.838 399.113C206.899 396.111 208.866 393.578 211.489 390.857C211.77 390.575 212.051 390.2 212.426 389.918C215.517 386.916 218.702 384.57 222.45 382.506C223.293 382.037 223.949 381.755 224.885 381.474C224.979 381.474 225.073 381.286 225.073 381.192C225.073 381.286 224.885 381.192 224.792 381.192Z" fill="#493E37"/>
<path d="M196.503 443.588C196.597 443.682 196.597 443.682 196.691 443.682C196.41 443.776 196.129 443.963 195.848 444.057V443.963C196.035 443.963 196.222 443.776 196.503 443.588Z" fill="black"/>
<path d="M206.435 387.29C195.193 408.214 192.383 432.609 180.86 453.345C180.767 453.533 180.579 453.533 180.392 453.439C180.205 453.345 180.205 453.157 180.298 452.97C188.261 437.019 191.821 419.473 198.191 402.959C200.346 397.424 202.781 391.982 205.873 386.915C205.967 386.727 206.154 386.727 206.341 386.821C206.435 386.915 206.435 387.103 206.435 387.29Z" fill="#493E37"/>
<path d="M139.546 450.251C138.235 452.033 137.579 453.91 137.673 456.162C137.673 456.537 137.204 456.631 137.017 456.35C136.455 455.224 136.361 453.816 136.736 452.596C137.111 451.377 137.954 450.251 139.078 449.688C139.453 449.594 139.734 450.063 139.546 450.251Z" fill="#493E37"/>
<path d="M143.198 450.907C142.262 452.783 141.699 455.035 141.887 457.006C142.074 457.287 141.887 457.662 141.512 457.569C141.044 457.381 140.95 456.912 140.856 456.63C140.201 454.472 140.856 451.939 142.636 450.532C142.917 450.25 143.292 450.625 143.198 450.907Z" fill="#493E37"/>
<path d="M165.687 455.033C164.563 457.097 163.532 459.537 164.188 461.789C164.375 462.07 163.907 462.446 163.626 462.164C162.408 461.132 162.502 459.349 162.783 457.942C163.157 456.534 163.907 455.221 165.125 454.47C165.499 454.376 165.874 454.752 165.687 455.033Z" fill="#493E37"/>
<path d="M170.648 455.693C170.086 457.382 169.712 459.071 170.086 460.76C170.274 461.323 170.461 461.792 170.836 462.073C171.117 462.261 170.93 462.73 170.648 462.73C168.962 462.448 168.494 460.478 168.588 459.164C168.588 457.757 169.15 456.35 170.086 455.411C170.367 455.036 170.836 455.318 170.648 455.693Z" fill="#493E37"/>
<path d="M192.758 454.472C191.821 455.598 191.447 456.912 191.072 458.319C190.978 458.788 190.791 459.164 190.884 459.445C191.072 459.727 190.697 460.102 190.416 459.914C189.854 459.539 189.854 458.694 189.854 458.131C189.948 457.006 190.229 455.88 190.978 454.941C191.259 454.566 192.571 453.44 192.852 454.191C192.852 454.191 192.758 454.378 192.758 454.472Z" fill="#493E37"/>
<path d="M196.88 455.599C195.755 457.381 195.287 459.258 195.474 461.416C195.568 461.791 195.006 461.979 194.819 461.697C194.069 460.665 193.976 459.352 194.257 458.132C194.538 456.912 195.287 455.786 196.411 455.223C196.786 454.942 197.067 455.317 196.88 455.599Z" fill="#493E37"/>
<path d="M162.874 290.179C162.874 288.678 163.998 287.364 165.403 287.364C166.809 287.364 167.933 288.584 167.933 290.179C167.933 291.68 166.809 292.994 165.403 292.994C163.998 292.994 162.874 291.68 162.874 290.179Z" fill="#37291D"/>
<path d="M195.007 292.149C195.007 290.648 196.131 289.334 197.537 289.334C198.942 289.334 200.066 290.554 200.066 292.149C200.066 293.651 198.942 294.964 197.537 294.964C196.131 294.87 195.007 293.651 195.007 292.149Z" fill="#37291D"/>
<path d="M173.462 301.813C173.369 301.907 174.118 301.907 174.024 301.625V301.532C174.024 301.532 174.024 301.438 174.024 301.532C174.961 303.127 177.116 304.722 178.896 303.502C179.645 302.939 180.207 301.907 180.488 300.875C180.769 299.843 180.863 298.717 180.957 297.497C180.957 297.122 181.612 297.122 181.612 297.497C182.643 301.063 180.301 307.255 175.711 304.816C174.586 304.159 173.65 303.033 173.369 301.719C173.369 301.719 173.369 301.719 173.369 301.625C173.275 301.344 174.118 301.344 173.931 301.438C174.212 301.625 173.743 302.095 173.462 301.813Z" fill="#302317"/>
<path d="M181.705 298.061C181.799 299.374 181.893 300.782 182.267 302.001C183.86 305.098 186.951 303.972 188.825 301.72C189.106 301.438 189.574 301.814 189.387 302.095C187.888 305.191 183.766 306.599 181.518 303.315C180.581 301.72 180.769 299.656 181.05 297.873C181.143 297.591 181.705 297.685 181.705 298.061Z" fill="#302317"/>
<path d="M152.851 266.253C152.945 264.189 153.226 263.813 153.975 261.843C154.35 260.905 154.725 259.873 155.568 259.216C155.755 259.028 156.036 258.934 156.317 259.028C156.598 259.122 156.692 259.404 156.692 259.685C157.067 260.999 157.254 262.406 157.254 263.813C157.348 262.5 157.723 261.186 158.285 259.967C158.378 259.685 158.659 259.404 158.94 259.497C159.128 259.591 159.221 259.779 159.221 259.967C159.409 260.717 159.502 261.562 159.502 262.312C159.69 261.092 160.252 259.967 160.908 258.934C161.095 258.653 161.376 258.465 161.657 258.559C161.751 258.653 161.844 258.747 161.844 258.934C162.032 259.591 162.032 260.248 161.938 260.811C163.718 259.779 165.685 258.841 167.653 258.184C166.716 253.962 165.685 249.833 165.123 245.517C164.936 244.297 164.842 243.171 164.468 242.045C164.374 241.764 164.186 241.389 163.999 241.295C163.531 241.013 162.875 241.295 162.407 241.576C159.877 243.078 152.664 250.959 152.851 266.253Z" fill="#E6B0B2"/>
<path d="M216.927 272.727C216.74 270.85 216.646 268.129 214.96 267.754C214.023 267.566 213.367 269.255 212.711 270.475C213.18 269.255 213.742 266.722 212.524 266.347C212.056 266.253 210.369 267.942 210.088 268.598C210.463 267.379 210.557 266.159 210.276 264.939C210.182 264.658 210.088 264.282 209.714 264.282C209.62 264.282 209.433 264.376 209.339 264.47C208.871 264.939 208.59 265.502 208.402 266.159C207.278 264.376 205.311 263.344 203.625 262.03C206.248 258.09 213.742 248.988 214.585 248.238C214.772 248.05 215.053 247.769 215.428 247.769C215.99 247.675 216.459 248.238 216.74 248.707C218.332 251.428 220.674 261.092 216.927 272.727Z" fill="#E6B0B2"/>
<path d="M157.252 370.307C158.002 376.687 159.22 383.068 161.281 389.166C162.311 392.169 163.716 395.171 164.653 398.268C165.59 401.458 165.965 404.742 165.965 408.026C165.777 417.033 165.028 428.105 164.559 437.206L163.997 446.87C163.997 447.058 163.81 447.152 163.623 447.152C163.435 447.152 163.342 446.964 163.342 446.776L163.623 437.018C163.81 432.139 164.091 422.475 164.278 417.596C164.466 411.216 165.215 404.648 163.342 398.549C162.498 395.453 161.093 392.544 160.063 389.448C158.002 383.255 156.971 376.781 156.503 370.307C156.503 370.119 156.597 369.932 156.784 369.932C157.065 370.025 157.159 370.119 157.252 370.307Z" fill="#493E37"/>
<path d="M181.518 298.342C182.829 298.155 184.047 296.654 184.328 296.091C184.422 295.903 184.515 295.621 184.515 295.34C184.422 294.871 183.86 294.12 182.642 294.777C182.08 295.059 181.705 295.152 181.143 295.152C180.768 295.152 180.487 294.965 180.112 294.871C179.738 294.777 179.269 294.402 178.707 294.777C178.52 294.965 178.333 295.34 178.333 295.621C178.333 296.747 179.269 297.31 179.738 297.592C180.112 297.873 180.956 298.342 181.518 298.342Z" fill="#E6B0B2"/>
<path d="M159.689 298.438C151.82 299.094 144.044 300.314 136.269 302.003C128.494 303.692 120.624 305.756 113.224 308.852C112.849 309.04 113.036 309.509 113.411 309.415C120.906 307.07 128.4 304.724 136.082 302.941C143.857 301.159 151.726 299.845 159.689 299.094C160.157 299.001 160.157 298.344 159.689 298.438Z" fill="#FFFEEF"/>
<path d="M161.281 303.409C153.412 305.286 145.637 307.819 138.049 310.916C130.648 314.012 123.341 317.484 116.69 321.987C116.315 322.175 116.69 322.738 117.065 322.55C124.091 318.516 131.21 314.669 138.705 311.572C146.105 308.476 153.693 306.037 161.469 304.16C162.031 304.066 161.843 303.316 161.281 303.409Z" fill="#FFFEEF"/>
<path d="M238.568 309.978C235.851 308.102 232.479 307.07 229.387 305.944C226.015 304.724 222.549 303.692 219.083 302.754C212.338 300.971 205.499 299.657 198.567 298.907C198.379 298.907 198.379 299.188 198.567 299.188C205.499 299.939 212.338 301.252 218.989 303.129C222.268 304.067 225.453 305.006 228.638 306.225C231.917 307.445 235.289 308.665 238.287 310.541C238.568 310.635 238.849 310.166 238.568 309.978Z" fill="#FFFEEF"/>
<path d="M239.223 320.018C235.851 317.954 232.291 316.265 228.731 314.389C225.265 312.606 221.893 310.823 218.427 309.04C211.963 305.663 205.405 302.566 198.473 300.502C198.192 300.408 198.098 300.877 198.379 300.971C205.405 303.129 212.056 306.413 218.614 309.791C221.986 311.48 225.359 313.263 228.731 315.045C232.198 316.828 235.57 318.705 239.13 320.3C239.317 320.206 239.317 320.112 239.223 320.018Z" fill="#FFFEEF"/>
<path d="M159.314 335.593C159.033 336.344 158.752 337.094 158.471 337.845C158.19 338.595 157.909 339.346 157.628 340.097C157.534 340.566 158.096 340.66 158.283 340.284C158.564 339.534 158.845 338.783 159.033 337.939C159.314 337.188 159.501 336.437 159.782 335.593C160.063 335.405 159.501 335.311 159.314 335.593Z" fill="#5E4838"/>
<path d="M161.187 339.064C160.812 339.909 160.437 340.753 160.063 341.598C159.875 341.973 159.688 342.442 159.501 342.817C159.313 343.286 159.126 343.756 159.032 344.225C159.032 344.412 159.22 344.694 159.407 344.694C159.688 344.788 159.875 344.6 159.969 344.412C160.25 344.037 160.437 343.568 160.531 343.099C160.718 342.723 160.812 342.254 160.999 341.879C161.281 341.035 161.562 340.19 161.843 339.346C162.124 338.97 161.374 338.689 161.187 339.064Z" fill="#5E4838"/>
<path d="M162.497 343.005C162.216 342.818 161.841 342.912 161.654 343.193C161.279 343.756 161.092 344.507 160.998 345.163C160.904 345.539 160.904 345.914 160.904 346.289C160.904 346.477 160.904 346.665 160.998 346.852C161.092 347.04 161.092 347.228 161.185 347.415C161.279 347.603 161.56 347.697 161.747 347.603C161.935 347.509 162.122 347.321 162.122 347.134C162.122 347.04 162.122 346.946 162.122 346.852C162.122 346.758 162.122 346.758 162.122 346.852V346.758C162.122 346.571 162.122 346.383 162.122 346.195C162.122 346.008 162.122 345.914 162.122 345.726C162.122 345.633 162.122 345.633 162.122 345.539V345.445C162.122 345.539 162.122 345.539 162.122 345.445C162.122 345.163 162.216 344.882 162.309 344.6C162.309 344.507 162.403 344.319 162.497 344.225C162.497 344.225 162.497 344.131 162.591 344.131C162.591 344.037 162.684 343.944 162.684 343.944C162.872 343.568 162.778 343.193 162.497 343.005Z" fill="#5E4838"/>
<path d="M214.959 322.174C214.772 322.174 214.585 322.362 214.585 322.55L214.304 325.271C214.304 325.458 214.304 325.552 214.304 325.74C214.304 325.927 214.304 326.021 214.397 326.209C214.491 326.397 214.772 326.49 214.959 326.303C215.053 326.115 215.147 326.021 215.147 325.834C215.147 325.646 215.147 325.552 215.147 325.364C215.147 325.083 215.241 324.708 215.241 324.426C215.334 323.769 215.334 323.206 215.428 322.55C215.334 322.362 215.147 322.174 214.959 322.174Z" fill="#5E4838"/>
<path d="M211.963 324.52C211.963 324.051 211.307 324.051 211.307 324.52C211.307 325.927 211.213 327.335 211.307 328.742C211.307 329.211 212.056 329.211 212.056 328.742C212.056 327.428 212.056 325.927 211.963 324.52Z" fill="#5E4838"/>
<path d="M143.669 433.361C143.669 432.516 143.481 431.672 143.294 430.827C143.2 430.452 142.732 430.17 142.357 430.264C141.982 430.358 141.701 430.827 141.795 431.203C141.982 431.953 142.076 432.61 142.076 433.361C142.076 433.736 142.076 434.111 142.076 434.487C142.076 434.862 142.17 435.331 142.263 435.706C142.263 435.894 142.544 436.082 142.825 436.082C143.107 436.082 143.294 435.894 143.388 435.706C143.481 435.519 143.575 435.331 143.575 435.143C143.669 434.956 143.669 434.674 143.669 434.393C143.762 434.205 143.762 433.83 143.669 433.361Z" fill="#5E4838"/>
<path d="M145.916 433.36C145.916 433.079 145.823 432.797 145.823 432.516C145.729 431.953 145.635 431.39 145.635 430.827C145.635 430.545 145.448 430.264 145.073 430.264C144.792 430.264 144.511 430.452 144.511 430.827L144.605 432.61C144.605 432.891 144.605 433.173 144.699 433.454C144.699 433.642 144.699 433.736 144.699 433.923C144.699 434.017 144.699 434.111 144.699 434.205C144.699 434.392 144.792 434.486 144.886 434.58C145.167 434.861 145.542 434.768 145.729 434.486C146.104 434.017 146.01 433.736 145.916 433.36Z" fill="#5E4838"/>
<path d="M144.04 427.543C143.947 426.887 143.853 426.324 143.759 425.667C143.666 425.292 143.291 425.104 142.916 425.198C142.541 425.292 142.354 425.667 142.448 426.042C142.729 427.262 142.916 428.576 143.384 429.701C143.478 429.889 143.759 429.983 143.853 429.889C144.04 429.795 144.134 429.608 144.228 429.42C144.321 428.857 144.228 428.2 144.04 427.543Z" fill="#5E4838"/>
<path d="M209.435 380.537C209.341 380.068 208.498 380.161 208.498 380.631C208.592 381.569 208.592 382.413 208.311 383.258C208.123 384.102 207.655 384.947 207.374 385.791C207.187 386.166 207.749 386.448 208.03 386.166C208.779 385.416 209.154 384.477 209.341 383.445C209.622 382.507 209.622 381.475 209.435 380.537Z" fill="#5E4838"/>
<path d="M212.898 379.316C212.898 379.034 212.71 378.753 212.336 378.753C212.055 378.753 211.774 379.034 211.774 379.316C211.774 380.16 211.774 381.099 211.586 381.943C211.493 382.412 211.399 382.788 211.305 383.257C211.305 383.444 211.211 383.726 211.118 383.913C211.024 384.195 211.118 384.476 211.118 384.758C211.211 385.133 211.774 385.227 212.055 385.039C212.242 384.852 212.429 384.664 212.523 384.383C212.617 384.195 212.617 383.913 212.71 383.726C212.804 383.257 212.898 382.694 212.898 382.225C212.991 381.192 212.991 380.254 212.898 379.316Z" fill="#5E4838"/>
<path d="M254.213 305.662C254.025 305.568 253.838 305.474 253.65 305.286C253.463 305.192 253.276 305.099 253.088 305.005C252.901 304.911 252.714 304.723 252.526 304.63L252.433 304.536C252.339 304.442 252.245 304.442 252.152 304.348C251.964 304.16 251.871 304.067 251.683 303.879C251.589 303.785 251.496 303.691 251.496 303.597C251.496 303.597 251.496 303.504 251.402 303.504L251.308 303.41C251.027 303.034 250.84 302.659 250.653 302.19C250.465 301.815 249.997 301.721 249.716 301.909C249.341 302.096 249.341 302.471 249.435 302.847C249.81 303.785 250.465 304.63 251.215 305.286C251.589 305.662 252.058 305.943 252.526 306.131C252.807 306.225 252.995 306.412 253.276 306.412C253.557 306.506 253.838 306.506 254.119 306.506C254.4 306.694 254.587 305.943 254.213 305.662Z" fill="#5E4838"/>
<path d="M253.743 309.132C253.65 309.132 253.462 309.039 253.369 309.039C253.369 309.039 253.181 308.945 253.275 309.039C253.181 309.039 253.088 308.945 252.994 308.945C252.713 308.851 252.525 308.757 252.244 308.663C252.244 308.663 252.244 308.663 252.151 308.663C252.057 308.663 252.057 308.57 251.963 308.57C251.87 308.476 251.776 308.476 251.682 308.382C251.589 308.288 251.495 308.288 251.308 308.194L251.214 308.1C251.214 308.1 251.214 308.1 251.12 308.007C250.933 307.819 250.746 307.725 250.558 307.537C250.465 307.444 250.371 307.35 250.277 307.256L250.184 307.162L250.09 307.068C249.902 306.881 249.809 306.693 249.715 306.411C249.621 306.318 249.621 306.224 249.528 306.036V305.942C249.528 305.849 249.528 305.849 249.434 305.755C249.34 305.379 248.966 305.098 248.497 305.286C248.123 305.379 247.842 305.849 248.029 306.224C248.404 307.35 249.059 308.382 249.996 309.226C250.465 309.602 250.933 309.977 251.495 310.165C252.151 310.446 252.713 310.54 253.369 310.54C253.65 310.54 253.931 310.352 254.024 309.977C254.212 309.508 254.024 309.226 253.743 309.132Z" fill="#5E4838"/>
<path d="M268.074 340.377C267.793 340.096 267.325 340.096 267.044 340.377C266.762 340.753 266.388 341.034 266.107 341.409C265.919 341.597 265.826 341.785 265.638 341.879C265.545 341.972 265.451 342.066 265.451 342.16C265.451 342.16 265.451 342.254 265.357 342.348C265.264 342.442 265.264 342.535 265.17 342.723C265.076 342.911 265.076 343.192 265.264 343.38C265.451 343.568 265.638 343.568 265.919 343.474C266.013 343.38 266.107 343.38 266.2 343.286C266.388 343.192 266.481 343.098 266.575 343.005L267.044 342.535C267.418 342.16 267.699 341.879 268.074 341.503C268.355 341.128 268.449 340.659 268.074 340.377Z" fill="#5E4838"/>
<path d="M268.358 342.723C268.171 343.004 268.077 343.286 267.89 343.567C267.703 343.849 267.422 344.13 267.14 344.318C267.047 344.412 266.859 344.505 266.766 344.693C266.672 344.787 266.672 344.787 266.578 344.881L266.485 344.975L266.391 345.068L266.297 345.162C266.204 345.256 266.11 345.35 266.016 345.444C265.829 345.631 265.735 345.725 265.548 345.913C265.361 346.1 265.454 346.476 265.642 346.663C265.829 346.851 266.11 346.945 266.297 346.851C266.485 346.757 266.766 346.663 266.953 346.57C267.14 346.476 267.328 346.288 267.422 346.1C267.703 345.819 267.984 345.444 268.171 345.068C268.546 344.412 268.827 343.661 269.014 343.004C269.014 342.629 268.452 342.441 268.358 342.723Z" fill="#5E4838"/>
<path d="M271.915 344.976C271.634 344.788 271.259 344.882 271.072 345.163C270.791 345.539 270.51 345.914 270.229 346.289C270.135 346.477 269.948 346.665 269.854 346.852C269.667 347.04 269.573 347.228 269.479 347.509C269.386 347.791 269.386 348.072 269.667 348.26C269.854 348.447 270.229 348.447 270.416 348.26C270.604 348.072 270.791 347.884 270.978 347.603C271.072 347.415 271.259 347.228 271.353 347.04C271.634 346.665 271.915 346.289 272.196 345.82C272.29 345.633 272.196 345.163 271.915 344.976Z" fill="#5E4838"/>
<path d="M271.448 418.912C271.448 418.818 271.354 418.724 271.354 418.63C271.26 418.537 271.167 418.537 271.073 418.443C270.979 418.349 270.792 418.255 270.698 418.161C270.417 417.974 270.23 417.786 269.949 417.598C269.481 417.129 269.012 416.66 268.544 416.097C268.45 415.909 268.169 416.003 268.075 416.097C267.982 416.191 267.888 416.472 267.982 416.566C268.45 417.129 268.918 417.692 269.387 418.161C269.668 418.443 269.949 418.63 270.23 418.818C270.324 418.912 270.511 419.006 270.605 419.1C270.698 419.193 270.792 419.193 270.886 419.287C270.979 419.287 271.073 419.287 271.167 419.287C271.448 419.287 271.541 419.1 271.448 418.912Z" fill="#5E4838"/>
<path d="M275.006 414.315C273.133 412.72 271.259 411.125 269.573 409.248C269.292 408.967 268.73 408.967 268.449 409.248C268.168 409.53 268.168 409.999 268.449 410.374C270.135 412.251 272.008 414.034 274.069 415.535C274.819 415.91 275.662 414.784 275.006 414.315Z" fill="#5E4838"/>
<path d="M278.475 410.561C278.381 410.467 278.194 410.373 278.1 410.279C277.912 410.185 277.725 410.091 277.444 409.998H277.35C277.257 409.998 277.163 409.904 277.163 409.904C276.976 409.81 276.882 409.716 276.695 409.622C276.507 409.528 276.414 409.435 276.226 409.341C276.226 409.341 275.945 409.153 275.852 409.059C275.852 409.059 275.945 409.153 275.852 409.059L275.758 408.965C275.664 408.872 275.664 408.872 275.57 408.778C275.477 408.684 275.289 408.496 275.196 408.403C274.915 408.121 274.353 408.121 274.072 408.403C273.791 408.684 273.791 409.247 274.072 409.528C274.634 410.091 275.196 410.561 275.852 410.936C276.226 411.124 276.601 411.311 276.976 411.405C277.163 411.499 277.35 411.593 277.538 411.593C277.725 411.593 277.912 411.593 278.194 411.593C278.756 411.78 279.037 410.936 278.475 410.561Z" fill="#5E4838"/>
<path d="M281.191 406.245C281.003 406.151 280.91 406.151 280.816 406.057C280.722 406.057 280.722 406.057 280.629 405.963H280.535H280.441H280.348C280.254 405.963 280.254 405.869 280.16 405.869C280.067 405.775 279.973 405.775 279.785 405.682C279.692 405.588 279.598 405.588 279.504 405.494C279.504 405.494 279.598 405.588 279.504 405.494C279.504 405.494 279.504 405.494 279.411 405.4C279.317 405.4 279.317 405.306 279.317 405.306C279.223 405.213 279.13 405.119 279.036 405.025L278.942 404.931C278.942 404.931 278.755 404.743 278.942 404.837C278.849 404.65 278.755 404.556 278.568 404.556C278.38 404.462 278.099 404.556 277.912 404.65C277.725 404.743 277.631 404.931 277.631 405.119C277.631 405.4 277.725 405.494 277.818 405.682C278.193 406.151 278.661 406.526 279.13 406.808C279.411 406.995 279.692 407.089 279.973 407.183C280.067 407.277 280.254 407.277 280.348 407.277C280.535 407.277 280.722 407.371 280.91 407.371C281.191 407.371 281.472 407.089 281.565 406.808C281.753 406.62 281.565 406.432 281.191 406.245Z" fill="#5E4838"/>
<path d="M252.337 415.065C252.056 414.033 251.681 413.001 251.307 411.969C251.213 411.594 250.838 411.406 250.463 411.5C250.089 411.594 249.901 411.969 249.995 412.344C250.37 413.376 250.651 414.408 250.932 415.44C251.213 416.473 251.307 417.599 251.681 418.537C251.962 419.194 252.805 419.1 252.805 418.349C252.993 417.223 252.618 416.097 252.337 415.065Z" fill="#5E4838"/>
<path d="M249.341 416.379C249.247 415.628 249.06 414.877 248.872 414.221C248.779 413.845 248.31 413.564 247.936 413.658C247.561 413.751 247.28 414.221 247.374 414.596C247.467 414.971 247.561 415.346 247.655 415.722C247.655 415.909 247.748 416.003 247.748 416.191C247.748 416.285 247.748 416.379 247.842 416.472C247.842 416.472 247.842 416.472 247.842 416.566C247.842 416.566 247.842 416.566 247.842 416.66C247.842 417.035 247.936 417.317 247.936 417.692C247.936 417.88 247.936 418.067 248.029 418.255C248.029 418.443 248.123 418.724 248.217 418.912C248.404 419.569 249.341 419.475 249.528 418.912C249.622 418.537 249.716 418.161 249.716 417.692C249.435 417.223 249.435 416.754 249.341 416.379Z" fill="#5E4838"/>
<path d="M249.152 411.03C249.152 410.843 249.058 410.655 249.058 410.467C248.965 410.186 248.871 409.904 248.777 409.529C248.59 408.872 248.309 408.309 248.122 407.652C248.028 407.277 247.653 406.996 247.279 407.183C246.904 407.277 246.623 407.652 246.81 408.028C246.997 408.685 247.279 409.247 247.466 409.904C247.56 410.186 247.653 410.467 247.841 410.843C247.934 411.03 247.934 411.218 248.122 411.406C248.215 411.499 248.309 411.687 248.403 411.781C248.496 411.968 248.777 412.062 248.965 412.062C249.152 411.968 249.339 411.781 249.339 411.593C249.152 411.312 249.152 411.124 249.152 411.03Z" fill="#5E4838"/>
</svg>
