<svg width="388" height="480" viewBox="0 0 388 480" fill="none" xmlns="http://www.w3.org/2000/svg">
<rect width="388" height="480" rx="20" fill="#F7F5F0"/>
<path d="M114.802 177.7V179.1H119.782V177.7H114.802ZM119.182 177.7V177.96C119.122 182.28 119.022 183.78 118.722 184.14C118.582 184.32 118.382 184.34 118.102 184.34C117.762 184.34 116.882 184.34 115.982 184.26C116.202 184.64 116.362 185.22 116.402 185.66C117.382 185.7 118.282 185.72 118.802 185.66C119.362 185.6 119.682 185.46 120.002 185.1C120.422 184.54 120.542 182.86 120.642 178.34C120.642 178.14 120.642 177.7 120.642 177.7H119.182ZM124.822 171.22C126.082 171.88 127.622 172.9 128.382 173.6L129.322 172.58C128.542 171.88 126.962 170.92 125.722 170.28L124.822 171.22ZM127.682 176.64C126.182 181.46 123.362 185.12 119.302 187.28C119.622 187.58 120.182 188.2 120.402 188.5C124.502 186.08 127.482 182.22 129.182 177L127.682 176.64ZM114.922 173.6V175.08H130.402V173.6H114.922ZM113.962 173.6V179.22C113.962 181.84 113.782 185.28 112.122 187.74C112.482 187.92 113.122 188.44 113.382 188.74C115.202 186.12 115.522 182.08 115.522 179.24V173.6H113.962ZM122.262 170.24C122.342 179.82 124.142 188.46 128.222 188.46C129.742 188.46 130.302 187.48 130.582 184.06C130.182 183.92 129.622 183.58 129.282 183.24C129.162 185.9 128.902 186.94 128.342 186.94C125.742 186.94 123.782 179.44 123.822 170.24H122.262ZM135.602 180.86V182.18H149.222V180.86H135.602ZM133.022 173.64V175.02H146.102V173.64H133.022ZM138.662 177.24V178.58H147.822V177.24H138.662ZM148.582 180.86V181.1C148.262 185.08 147.882 186.66 147.422 187.12C147.242 187.28 147.042 187.32 146.662 187.32C146.282 187.32 145.322 187.32 144.322 187.2C144.562 187.6 144.722 188.18 144.742 188.6C145.782 188.64 146.782 188.66 147.282 188.62C147.882 188.58 148.262 188.44 148.642 188.06C149.282 187.4 149.662 185.74 150.022 181.52C150.062 181.3 150.082 180.86 150.082 180.86H148.582ZM144.142 183.26C144.742 184.1 145.362 185.26 145.622 185.98L146.722 185.52C146.462 184.8 145.842 183.68 145.202 182.86L144.142 183.26ZM135.502 170.8C136.282 171.64 137.122 172.82 137.462 173.6L138.862 172.96C138.462 172.2 137.582 171.06 136.802 170.26L135.502 170.8ZM138.222 183.76C138.562 185.06 138.782 186.7 138.742 187.78L140.062 187.6C140.062 186.52 139.842 184.86 139.442 183.6L138.222 183.76ZM141.162 183.58C141.662 184.68 142.142 186.14 142.282 187.1L143.522 186.76C143.362 185.82 142.862 184.4 142.342 183.3L141.162 183.58ZM135.662 183.3C135.262 184.84 134.502 186.62 133.382 187.68L134.542 188.5C135.762 187.28 136.462 185.38 136.922 183.72L135.662 183.3ZM141.562 170.2C140.042 175.38 136.962 180.5 132.002 183.32C132.262 183.64 132.642 184.24 132.822 184.6C138.122 181.46 141.262 176.18 143.082 170.58L141.562 170.2ZM145.762 173.64C145.542 174.92 145.202 176.52 144.922 177.58L146.242 177.76C146.542 176.68 146.902 175.02 147.182 173.64H145.762ZM147.262 177.24C147.062 178.52 146.722 180.14 146.422 181.22L147.782 181.38C148.062 180.3 148.402 178.62 148.682 177.24H147.262ZM165.462 171.52C166.642 172.56 168.002 174 168.602 174.96L169.842 174.08C169.182 173.16 167.782 171.74 166.602 170.74L165.462 171.52ZM152.502 176.12V177.56H170.322V176.12H152.502ZM152.202 182L152.642 183.5C155.162 182.94 158.702 182.12 161.982 181.36L161.862 180C158.342 180.76 154.582 181.56 152.202 182ZM156.802 172.24V186.66C156.802 187.02 156.682 187.12 156.322 187.12C155.962 187.14 154.782 187.16 153.502 187.1C153.722 187.54 153.982 188.22 154.062 188.62C155.722 188.64 156.782 188.58 157.422 188.34C158.062 188.1 158.302 187.66 158.302 186.68V172.24H156.802ZM160.602 170.44C158.682 171.16 155.442 171.84 152.622 172.28C152.822 172.62 153.002 173.18 153.082 173.52C155.942 173.12 159.342 172.5 161.662 171.7L160.602 170.44ZM162.602 170.38C162.682 179.9 164.462 188.68 168.382 188.68C169.882 188.68 170.422 187.7 170.702 184.38C170.282 184.22 169.742 183.88 169.422 183.54C169.302 186.12 169.062 187.16 168.522 187.16C166.082 187.16 164.122 179.56 164.162 170.38H162.602ZM168.022 178.48C166.242 181.86 162.942 184.94 159.382 186.66C159.762 187 160.182 187.48 160.422 187.86C164.102 185.92 167.402 182.7 169.362 179.04L168.022 178.48ZM178.582 174.38V175.52H182.622V174.38H178.582ZM184.922 174.38V175.52H189.002V174.38H184.922ZM188.522 171.36V186.64C188.522 187.02 188.382 187.14 188.002 187.16C187.602 187.18 186.202 187.18 184.782 187.14C184.982 187.54 185.222 188.2 185.302 188.6C187.202 188.6 188.382 188.58 189.042 188.32C189.722 188.08 189.962 187.62 189.962 186.64V171.36H188.522ZM177.742 171.36V188.56H179.142V171.36H177.742ZM178.662 171.36V172.56H181.942V177.46H178.662V178.66H183.122V171.36H178.662ZM189.242 171.36H184.322V178.66H189.242V177.46H185.562V172.56H189.242V171.36ZM176.042 170.32C175.082 173.4 173.502 176.48 171.742 178.48C172.002 178.86 172.402 179.66 172.542 180.02C174.522 177.68 176.302 174.16 177.442 170.7L176.042 170.32ZM174.442 175.22V188.6H175.862V173.88L175.822 173.84L174.442 175.22ZM194.022 173.42V174.76H198.702V185.14H194.022V186.5H200.102V173.42H194.022ZM193.122 173.42V188.1H194.522V173.42H193.122ZM193.922 178.98V180.32H199.442V178.98H193.922ZM196.182 170.16C196.022 171.2 195.642 172.72 195.302 173.68L196.502 173.98C196.902 173.08 197.402 171.7 197.802 170.46L196.182 170.16ZM202.942 173.36V174.76H209.082V173.36H202.942ZM208.562 173.36V173.68C208.282 182.5 207.962 185.82 207.302 186.54C207.082 186.8 206.842 186.86 206.442 186.86C205.982 186.86 204.782 186.84 203.482 186.74C203.762 187.14 203.942 187.76 203.982 188.2C205.102 188.26 206.282 188.3 206.962 188.22C207.662 188.16 208.122 187.98 208.562 187.4C209.362 186.42 209.642 183.32 209.962 174.14C209.962 173.92 209.962 173.36 209.962 173.36H208.562ZM203.362 170.12C202.722 172.9 201.622 175.66 200.262 177.42C200.622 177.62 201.242 178.04 201.502 178.28C202.882 176.38 204.062 173.44 204.802 170.46L203.362 170.12ZM202.442 178.56C203.542 180.02 204.882 182 205.482 183.22L206.762 182.42C206.122 181.24 204.742 179.3 203.602 177.88L202.442 178.56ZM212.282 178.38V180.02H230.582V178.38H212.282ZM239.062 178.2V179.58H247.482V178.2H239.062ZM241.482 170.76V172.12H246.402V170.76H241.482ZM245.282 170.76V171.54H245.642C246.282 174.66 247.782 177.5 249.782 179.12C250.042 178.76 250.562 178.16 250.902 177.9C248.982 176.52 247.522 173.78 246.942 170.76H245.282ZM246.862 178.2V178.5C246.722 184.24 246.542 186.28 246.162 186.74C246.002 186.94 245.842 186.98 245.522 186.98C245.202 186.98 244.382 186.98 243.522 186.9C243.742 187.3 243.902 187.94 243.942 188.4C244.842 188.44 245.722 188.44 246.222 188.4C246.802 188.34 247.162 188.18 247.502 187.72C248.022 187.04 248.182 184.94 248.362 178.9C248.382 178.68 248.382 178.2 248.382 178.2H246.862ZM241.882 178.82C241.662 182.26 240.962 185.64 237.522 187.48C237.842 187.74 238.262 188.28 238.442 188.6C242.122 186.48 243.082 182.8 243.362 178.82H241.882ZM240.242 172.42C239.622 174.46 238.262 176.94 236.642 178.46C236.942 178.7 237.422 179.16 237.622 179.46C239.402 177.76 240.862 175.1 241.702 172.8L240.242 172.42ZM236.682 170.28C235.562 173.32 233.682 176.32 231.702 178.26C231.982 178.6 232.402 179.4 232.562 179.74C234.722 177.5 236.782 174.12 238.102 170.72L236.682 170.28ZM234.602 175.44V188.58H236.042V174.04L236.002 174.02L234.602 175.44ZM252.342 179.14V180.64H270.502V179.14H252.342ZM260.662 175.92V186.66C260.662 187.02 260.522 187.12 260.102 187.14C259.662 187.16 258.182 187.16 256.562 187.1C256.822 187.54 257.102 188.22 257.222 188.66C259.142 188.66 260.442 188.62 261.182 188.38C261.942 188.14 262.222 187.68 262.222 186.68V175.92H260.662ZM254.402 171.6V173.08H267.462V171.6H254.402ZM266.942 171.6V171.94C265.682 173.36 263.022 175.26 260.842 176.3C261.142 176.56 261.602 177.04 261.822 177.38C264.162 176.18 267.002 174.2 268.822 172.36L267.682 171.52L267.342 171.6H266.942ZM72.8168 214.22V215.7H89.6568V214.22H72.8168ZM72.2768 226.2V227.74H90.1568V226.2H72.2768ZM78.2968 215.2V227H79.7768V215.2H78.2968ZM82.5368 215.2V227.02H84.0368V215.2H82.5368ZM87.2168 217.42C86.7368 219.42 85.7968 222.24 84.9968 223.96L86.3368 224.34C87.1568 222.66 88.0968 220.02 88.8168 217.82L87.2168 217.42ZM85.5768 210.22C85.1168 211.34 84.2368 212.92 83.5368 213.92L84.8768 214.4C85.5968 213.44 86.4768 212 87.1968 210.7L85.5768 210.22ZM73.7568 217.98C74.6968 219.98 75.4768 222.6 75.6768 224.32L77.1168 223.96C76.8968 222.22 76.0968 219.62 75.0968 217.62L73.7568 217.98ZM75.4768 210.78C76.2768 211.82 77.1168 213.3 77.4368 214.28L78.8368 213.66C78.4768 212.72 77.6368 211.3 76.7968 210.24L75.4768 210.78ZM98.4168 210.16C97.9768 211.08 97.1168 212.4 96.4368 213.26L97.6768 213.58C98.3768 212.76 99.2568 211.58 99.9768 210.46L98.4168 210.16ZM102.877 211.36C104.517 212.36 106.477 213.9 107.417 214.92L108.597 214.24C107.597 213.2 105.597 211.72 103.977 210.74L102.877 211.36ZM96.9168 216C97.4968 216.74 98.0968 217.76 98.3168 218.42L99.4568 218C99.1968 217.34 98.5768 216.36 98.0168 215.64L96.9168 216ZM93.5168 212.82L93.5968 214.08C96.8368 213.98 101.697 213.8 106.277 213.58L106.337 212.42C101.637 212.6 96.6768 212.76 93.5168 212.82ZM95.2768 214.44C94.9168 215.42 94.2368 216.84 93.6568 217.74L94.6768 218.08C95.2768 217.24 95.9968 215.94 96.6368 214.8L95.2768 214.44ZM92.2768 217.42L92.3968 218.6C94.0568 218.46 96.1768 218.28 98.3368 218.08L98.3168 217.02C96.0568 217.2 93.8368 217.36 92.2768 217.42ZM106.937 215.92C107.817 216.84 108.757 218.1 109.157 218.96L110.297 218.42C109.877 217.54 108.917 216.32 108.017 215.44L106.937 215.92ZM104.857 214.38C104.557 215.34 103.957 216.7 103.477 217.6L104.497 217.94C105.037 217.12 105.677 215.84 106.237 214.74L104.857 214.38ZM103.057 217.28L103.337 218.44C104.957 218.3 107.017 218.12 109.017 217.94V216.96C106.777 217.1 104.597 217.22 103.057 217.28ZM101.757 219.2C100.297 220.32 97.6168 221.38 95.4768 221.96C95.7768 222.22 96.1168 222.62 96.3368 222.9C98.5368 222.24 101.217 221.06 102.877 219.76L101.757 219.2ZM103.937 221.14C102.097 222.64 98.6568 223.84 95.5968 224.46C95.8968 224.76 96.2168 225.24 96.3968 225.56C99.5768 224.8 103.037 223.46 105.097 221.72L103.937 221.14ZM106.297 223.16C104.077 225.46 99.5768 226.8 94.6968 227.38C94.9768 227.72 95.2768 228.26 95.4168 228.62C100.477 227.9 105.077 226.4 107.557 223.76L106.297 223.16ZM101.097 216.76C103.097 219.12 106.657 221.18 109.817 222.2C109.997 221.86 110.277 221.36 110.577 221.04C107.397 220.18 103.857 218.2 101.697 215.58H100.357C98.7368 217.86 95.4368 220.12 91.8968 221.28C92.1568 221.58 92.4568 222.06 92.5968 222.38C96.0368 221.12 99.3768 218.94 101.097 216.76ZM123.317 225.38V226.84H128.757V225.38H123.317ZM112.277 214V215.46H119.957V214H112.277ZM122.637 212.7V228.3H124.097V214.14H127.957V228.16H129.477V212.7H122.637ZM119.557 214V214.36C119.417 222.92 119.237 225.88 118.777 226.5C118.597 226.76 118.417 226.82 118.117 226.8C117.737 226.8 116.877 226.8 115.937 226.72C116.197 227.14 116.357 227.8 116.377 228.24C117.277 228.3 118.197 228.3 118.757 228.22C119.357 228.16 119.717 227.98 120.077 227.46C120.717 226.58 120.857 223.66 121.017 214.76C121.017 214.56 121.017 214 121.017 214H119.557ZM115.117 210.48C115.097 217.48 115.117 224.08 111.777 227.6C112.157 227.82 112.677 228.28 112.937 228.62C116.457 224.8 116.557 217.86 116.577 210.48H115.117ZM136.037 226.42V227.76H146.497V226.42H136.037ZM138.697 210.04C137.277 212.5 134.837 214.76 132.317 216.16C132.657 216.4 133.217 216.96 133.457 217.24C135.957 215.7 138.497 213.26 140.117 210.54L138.697 210.04ZM145.997 212.3V212.54C143.477 216.58 137.117 219.54 131.777 220.62C132.057 220.94 132.397 221.56 132.517 221.98C138.137 220.66 144.657 217.62 147.617 212.92L146.577 212.22L146.317 212.3H145.997ZM137.137 213.22L135.897 213.82C138.857 217.74 144.097 220.66 149.617 221.9C149.837 221.48 150.237 220.86 150.597 220.52C145.097 219.46 139.817 216.68 137.137 213.22ZM135.257 221.44V228.7H136.757V222.82H145.557V228.62H147.117V221.44H135.257ZM137.917 212.3L137.017 213.64H146.377V212.3H137.917ZM165.397 211.2C166.437 211.92 167.657 213 168.257 213.72L169.317 212.78C168.697 212.08 167.437 211.04 166.397 210.34L165.397 211.2ZM152.317 213.94V215.4H170.137V213.94H152.317ZM152.997 218.4V219.86H161.837V218.4H152.997ZM156.597 219.18V226.32H158.097V219.18H156.597ZM152.397 226.52L152.857 228.02C155.437 227.44 159.097 226.6 162.517 225.8L162.397 224.46C158.697 225.26 154.777 226.06 152.397 226.52ZM162.497 210.3C162.577 219.98 164.197 228.64 168.177 228.64C169.717 228.64 170.297 227.62 170.557 224.12C170.137 223.98 169.557 223.64 169.217 223.3C169.097 225.98 168.857 227.08 168.297 227.08C165.837 227.08 164.037 219.58 164.097 210.3H162.497ZM179.057 220.82V228.6H180.437V222.2H187.597V228.5H189.037V220.82H179.057ZM188.297 210.28C186.077 211.08 182.017 211.7 178.537 212.08C178.717 212.42 178.917 213 178.977 213.36C182.557 213.02 186.737 212.4 189.477 211.46L188.297 210.28ZM183.377 212.02V221.62H184.817V212.02H183.377ZM177.597 216.08V217.52H190.337V216.08H177.597ZM179.997 226.36V227.74H188.257V226.36H179.997ZM173.017 211.52C174.257 212.18 175.917 213.16 176.757 213.76L177.637 212.54C176.777 211.96 175.077 211.06 173.857 210.46L173.017 211.52ZM172.037 217.04C173.257 217.68 174.917 218.64 175.737 219.2L176.577 217.98C175.737 217.4 174.057 216.52 172.877 215.94L172.037 217.04ZM172.517 227.32L173.777 228.34C174.957 226.48 176.357 223.98 177.417 221.86L176.337 220.88C175.177 223.16 173.597 225.8 172.517 227.32ZM192.597 223.28V224.42H201.717V223.28H192.597ZM192.057 213.64V214.8H202.037V213.64H192.057ZM196.397 211.82V226.54H197.777V211.82H196.397ZM192.037 226.58L192.257 227.88C194.797 227.62 198.417 227.2 201.817 226.8L201.797 225.62C198.217 226 194.477 226.36 192.037 226.58ZM193.897 219.54H200.377V221.02H193.897V219.54ZM193.897 217.1H200.377V218.54H193.897V217.1ZM192.637 216.06V222.06H201.657V216.06H192.637ZM200.937 210.4C198.877 210.88 195.237 211.24 192.257 211.4C192.417 211.7 192.557 212.2 192.617 212.52C195.617 212.42 199.337 212.08 201.697 211.56L200.937 210.4ZM201.897 214.88V216.28H209.117V214.88H201.897ZM208.537 214.88V215.24C208.317 223.34 208.097 226.22 207.597 226.84C207.417 227.1 207.217 227.16 206.897 227.16C206.497 227.16 205.617 227.14 204.637 227.06C204.877 227.46 205.037 228.08 205.077 228.5C205.997 228.56 206.957 228.56 207.517 228.5C208.117 228.44 208.517 228.26 208.877 227.74C209.537 226.88 209.737 224.08 209.957 215.64C209.957 215.44 209.977 214.88 209.977 214.88H208.537ZM204.317 210.46C204.297 218.02 204.397 224.36 199.817 227.64C200.177 227.88 200.697 228.36 200.937 228.72C205.717 225.14 205.737 218.42 205.757 210.46H204.317ZM217.957 212.98L216.637 213.28C218.497 221.22 221.997 226.56 229.597 228.58C229.837 228.16 230.297 227.5 230.637 227.18C223.217 225.42 219.637 220.28 217.957 212.98ZM212.997 211.28V212.74H224.197V211.28H212.997ZM227.897 216.12V216.4C226.417 222.6 221.837 226.02 216.557 227.3C216.877 227.62 217.237 228.24 217.417 228.62C223.037 227.04 227.777 223.52 229.477 216.46L228.457 216.06L228.177 216.12H227.897ZM223.857 211.28V211.46C223.517 213.06 222.797 216.14 222.137 218.36L223.697 218.58C224.317 216.38 225.017 213.48 225.457 211.42L224.317 211.2L224.037 211.28H223.857ZM223.577 216.12L223.257 217.54H228.237V216.12H223.577ZM216.537 211.74V214.44C216.537 218 216.217 223 211.917 226.98C212.257 227.26 212.777 227.86 212.997 228.24C217.657 223.88 218.057 218.42 218.057 214.42V211.74H216.537ZM242.877 210.22V213.16H244.397V210.22H242.877ZM238.557 212.52V227.38L239.997 227.04V212.52H238.557ZM239.377 212.52V213.88H247.417V219.56H239.377V220.9H248.897V212.52H239.377ZM239.357 216.08V217.36H248.197V216.08H239.357ZM236.837 226.88L237.137 228.3C239.157 227.94 241.937 227.46 244.597 226.96L244.497 225.64C241.657 226.12 238.737 226.6 236.837 226.88ZM243.797 220.34L242.457 220.66C243.697 224.54 246.077 227.38 249.717 228.64C249.937 228.28 250.377 227.7 250.717 227.4C247.217 226.34 244.877 223.74 243.797 220.34ZM249.017 221.36C247.977 222.26 246.217 223.42 244.977 224.12L245.817 225.06C247.077 224.38 248.777 223.34 249.977 222.34L249.017 221.36ZM233.017 211.46C234.297 212.06 235.837 213.02 236.597 213.74L237.457 212.52C236.697 211.82 235.117 210.92 233.857 210.38L233.017 211.46ZM231.957 216.9C233.257 217.44 234.837 218.34 235.617 219.02L236.477 217.78C235.677 217.12 234.057 216.26 232.777 215.78L231.957 216.9ZM232.557 227.36L233.857 228.32C234.957 226.46 236.277 223.92 237.257 221.8L236.117 220.88C235.037 223.16 233.577 225.82 232.557 227.36ZM262.877 210.22V213.16H264.397V210.22H262.877ZM258.557 212.52V227.38L259.997 227.04V212.52H258.557ZM259.377 212.52V213.88H267.417V219.56H259.377V220.9H268.897V212.52H259.377ZM259.357 216.08V217.36H268.197V216.08H259.357ZM256.837 226.88L257.137 228.3C259.157 227.94 261.937 227.46 264.597 226.96L264.497 225.64C261.657 226.12 258.737 226.6 256.837 226.88ZM263.797 220.34L262.457 220.66C263.697 224.54 266.077 227.38 269.717 228.64C269.937 228.28 270.377 227.7 270.717 227.4C267.217 226.34 264.877 223.74 263.797 220.34ZM269.017 221.36C267.977 222.26 266.217 223.42 264.977 224.12L265.817 225.06C267.077 224.38 268.777 223.34 269.977 222.34L269.017 221.36ZM253.017 211.46C254.297 212.06 255.837 213.02 256.597 213.74L257.457 212.52C256.697 211.82 255.117 210.92 253.857 210.38L253.017 211.46ZM251.957 216.9C253.257 217.44 254.837 218.34 255.617 219.02L256.477 217.78C255.677 217.12 254.057 216.26 252.777 215.78L251.957 216.9ZM252.557 227.36L253.857 228.32C254.957 226.46 256.277 223.92 257.257 221.8L256.117 220.88C255.037 223.16 253.577 225.82 252.557 227.36ZM271.997 214.34V215.74H278.037V214.34H271.997ZM274.737 210.22C274.137 213.96 273.057 219.26 272.257 222.28L273.457 223.02C274.317 219.68 275.457 214.32 276.177 210.36L274.737 210.22ZM272.937 221.58C274.897 223 277.177 225.08 278.217 226.54L279.117 225.36C278.057 223.96 275.717 221.96 273.757 220.58L272.937 221.58ZM277.517 214.34V214.64C277.117 221.38 275.237 225.62 272.157 227.4C272.477 227.7 272.877 228.24 273.077 228.6C276.517 226.38 278.437 222.12 278.897 214.44L278.017 214.3L277.777 214.34H277.517ZM278.637 212.4V213.7H290.337V212.4H278.637ZM278.797 221.5V222.8H290.337V221.5H278.797ZM281.477 215.48V216.66H287.477V215.48H281.477ZM280.737 210.2V219.72H288.317V210.2H286.897V218.48H282.137V210.2H280.737ZM283.757 219.52V228.6H285.217V219.52H283.757ZM283.297 222.1C282.217 224.08 280.097 226.02 278.017 226.94C278.337 227.22 278.817 227.76 279.057 228.12C281.157 227 283.297 224.82 284.477 222.54L283.297 222.1ZM285.657 222.16L284.577 222.6C285.697 224.68 287.777 226.88 289.577 228.02C289.817 227.64 290.297 227.1 290.637 226.84C288.817 225.9 286.757 223.98 285.657 222.16ZM296.177 216.74V218.08H306.277V216.74H296.177ZM295.817 226.46V227.8H306.537V226.46H295.817ZM295.137 220.6V228.62H296.597V221.96H305.857V228.62H307.377V220.6H295.137ZM301.157 211.74C303.037 214.3 306.557 217.12 309.697 218.76C309.957 218.32 310.317 217.8 310.697 217.44C307.497 216.02 303.997 213.24 301.837 210.26H300.317C298.737 212.84 295.397 215.9 291.877 217.68C292.217 218 292.617 218.54 292.817 218.88C296.237 217.02 299.517 214.18 301.157 211.74ZM314.967 212.455L314.825 222.909H313.177L313.035 212.455H314.967ZM314.001 227.114C313.651 227.114 313.35 226.988 313.099 226.737C312.848 226.486 312.722 226.186 312.722 225.835C312.722 225.485 312.848 225.184 313.099 224.933C313.35 224.682 313.651 224.557 314.001 224.557C314.351 224.557 314.652 224.682 314.903 224.933C315.154 225.184 315.279 225.485 315.279 225.835C315.279 226.067 315.22 226.28 315.102 226.474C314.988 226.669 314.834 226.825 314.64 226.943C314.451 227.057 314.238 227.114 314.001 227.114Z" fill="#4C4C4C"/>
<path d="M138.48 130.36V135H148.76V130.36H138.48ZM115.96 108.2V112.92H130.64V108.2H115.96ZM136.36 105.6V137.8H140.96V110.24H146.08V137.48H150.92V105.6H136.36ZM129.44 108.2V109.28C129.16 125.44 128.84 131.2 128 132.4C127.6 132.96 127.24 133.16 126.64 133.12C125.88 133.12 124.44 133.12 122.84 132.96C123.64 134.32 124.16 136.4 124.24 137.8C126.08 137.88 127.88 137.88 129.08 137.6C130.4 137.36 131.24 136.88 132.16 135.56C133.44 133.68 133.72 127.52 134.08 110.4C134.08 109.8 134.08 108.2 134.08 108.2H129.44ZM120.72 101.6C120.68 116.24 121 128.04 114.76 135.08C115.96 135.84 117.56 137.44 118.32 138.6C125.24 130.64 125.4 117.36 125.44 101.6H120.72ZM163.16 103.28V108.16H174.48V103.28H163.16ZM172.12 103.28C172.12 111.44 173.88 129.32 189.12 138.48C189.96 137.28 191.88 135.16 193 134.28C178.16 125.6 177.08 110.88 177.08 103.28H172.12ZM170.4 112.04C168.24 122.64 163.44 130.4 155.08 134.64C156.32 135.52 158.56 137.52 159.44 138.56C167.8 133.52 173.12 124.92 175.92 113.04L170.4 112.04ZM204.04 115.6H223.8V120.64H204.04V115.6ZM200.04 112.64V123.6H228.04V112.64H200.04ZM206.92 108.08V111.2H221.04V108.08H206.92ZM211.84 113.6V122.04H215.72V113.6H211.84ZM213.76 104.76C217.64 108.36 224.72 112.08 230.28 113.96C231 112.72 232.04 111.08 233.08 110C226.88 108.44 220.4 105.28 215.84 101.04H211.28C208 104.6 201.44 108.36 194.88 110.32C195.72 111.32 196.84 113.04 197.36 114.12C203.68 111.92 210.2 108.2 213.76 104.76ZM205.44 116.48C206.12 117.88 206.68 119.72 206.84 120.92L210.36 119.88C210.12 118.68 209.48 116.92 208.76 115.56L205.44 116.48ZM218.68 115.4C218.36 116.72 217.6 118.68 217.04 120L220.32 120.88C220.96 119.76 221.76 118.08 222.64 116.36L218.68 115.4ZM202.24 124.88V138.6H206.96V128H221V138.48H225.92V124.88H202.24ZM204.96 129.6V132.76H223.04V129.6H204.96ZM204.96 134.4V137.52H223.04V134.4H204.96ZM245.92 106.04H262.16V108.6H245.92V106.04ZM241.12 102.32V112.36H267.28V102.32H241.12ZM244.08 121.88H263.72V123.56H244.08V121.88ZM244.08 126.64H263.72V128.36H244.08V126.64ZM244.08 117.12H263.72V118.8H244.08V117.12ZM239.28 113.84V131.6H268.72V113.84H239.28ZM247.04 130.8C244.52 132.36 239.4 134.24 235.2 135.16C236.36 136.08 237.96 137.6 238.84 138.6C242.92 137.64 248.12 135.68 251.32 133.8L247.04 130.8ZM255.84 134.04C260.12 135.24 265.64 137.24 268.76 138.68L272.96 135.28C269.64 134 264.28 132.12 260.04 131L255.84 134.04Z" fill="#4C4C4C"/>
<path d="M204.912 341.067C219.404 335.063 226.259 318.512 220.223 304.098C214.186 289.685 197.544 282.867 183.051 288.871C168.558 294.874 161.703 311.426 167.74 325.84C173.777 340.253 190.419 347.071 204.912 341.067Z" fill="#EDDCCE"/>
<path d="M193.972 353.582C174.508 353.582 157.733 361.35 151.074 372.175C148.129 376.887 151.587 383 157.221 383H230.851C236.357 383 239.814 376.887 236.997 372.175C230.082 361.35 213.436 353.582 193.972 353.582Z" fill="#EDDCCE"/>
</svg>
