<svg width="388" height="480" viewBox="0 0 388 480" fill="none" xmlns="http://www.w3.org/2000/svg">
<g clip-path="url(#clip0_1164_35660)">
<rect width="388" height="480" rx="20" fill="#F5C362"/>
<path d="M163.197 197.182C163.027 195.742 162.336 194.625 161.124 193.83C159.911 193.034 158.425 192.636 156.663 192.636C155.375 192.636 154.249 192.845 153.283 193.261C152.326 193.678 151.578 194.251 151.038 194.98C150.508 195.709 150.243 196.538 150.243 197.466C150.243 198.242 150.428 198.91 150.797 199.469C151.176 200.018 151.659 200.477 152.246 200.847C152.833 201.206 153.448 201.505 154.092 201.741C154.736 201.969 155.328 202.153 155.868 202.295L158.822 203.091C159.58 203.29 160.423 203.564 161.351 203.915C162.288 204.265 163.183 204.743 164.036 205.349C164.897 205.946 165.607 206.713 166.166 207.651C166.725 208.588 167.004 209.739 167.004 211.102C167.004 212.674 166.592 214.095 165.768 215.364C164.954 216.633 163.761 217.641 162.189 218.389C160.626 219.137 158.728 219.511 156.493 219.511C154.41 219.511 152.606 219.175 151.081 218.503C149.566 217.83 148.373 216.893 147.501 215.69C146.64 214.488 146.152 213.091 146.038 211.5H149.675C149.769 212.598 150.139 213.508 150.783 214.227C151.436 214.937 152.26 215.468 153.254 215.818C154.258 216.159 155.338 216.33 156.493 216.33C157.838 216.33 159.045 216.112 160.115 215.676C161.185 215.231 162.033 214.616 162.658 213.83C163.283 213.034 163.595 212.106 163.595 211.045C163.595 210.08 163.325 209.294 162.786 208.688C162.246 208.081 161.536 207.589 160.655 207.21C159.774 206.831 158.822 206.5 157.8 206.216L154.22 205.193C151.947 204.54 150.148 203.607 148.822 202.395C147.497 201.183 146.834 199.597 146.834 197.636C146.834 196.008 147.274 194.587 148.155 193.375C149.045 192.153 150.238 191.206 151.734 190.534C153.24 189.852 154.921 189.511 156.777 189.511C158.652 189.511 160.319 189.848 161.777 190.52C163.235 191.183 164.391 192.092 165.243 193.247C166.105 194.402 166.559 195.714 166.607 197.182H163.197ZM171.205 193.034V189.909H193.023V193.034H183.876V219H180.353V193.034H171.205ZM198.46 219V189.909H216.017V193.034H201.983V202.864H215.108V205.989H201.983V215.875H216.244V219H198.46ZM222.366 219V189.909H232.196C234.478 189.909 236.344 190.321 237.793 191.145C239.251 191.959 240.33 193.062 241.031 194.455C241.732 195.847 242.082 197.4 242.082 199.114C242.082 200.828 241.732 202.385 241.031 203.787C240.34 205.188 239.27 206.306 237.821 207.139C236.372 207.963 234.516 208.375 232.253 208.375H225.207V205.25H232.139C233.702 205.25 234.956 204.98 235.903 204.44C236.85 203.901 237.537 203.171 237.963 202.253C238.399 201.325 238.616 200.278 238.616 199.114C238.616 197.949 238.399 196.907 237.963 195.989C237.537 195.07 236.846 194.35 235.889 193.83C234.933 193.299 233.664 193.034 232.082 193.034H225.889V219H222.366Z" fill="white"/>
<path d="M157.07 164.193C151.246 164.193 146.246 162.403 142.07 158.824C137.894 155.244 134.684 150.116 132.439 143.44C130.223 136.736 129.115 128.71 129.115 119.364C129.115 110.045 130.238 102.034 132.482 95.3295C134.726 88.625 137.922 83.483 142.07 79.9034C146.246 76.3239 151.246 74.5341 157.07 74.5341C162.894 74.5341 167.88 76.3239 172.027 79.9034C176.203 83.483 179.414 88.625 181.658 95.3295C183.902 102.034 185.025 110.045 185.025 119.364C185.025 128.71 183.902 136.736 181.658 143.44C179.442 150.116 176.246 155.244 172.07 158.824C167.894 162.403 162.894 164.193 157.07 164.193ZM157.07 159.25C164.144 159.25 169.698 155.741 173.732 148.724C177.766 141.679 179.783 131.892 179.783 119.364C179.783 111.011 178.86 103.852 177.013 97.8864C175.195 91.9205 172.596 87.3608 169.215 84.2074C165.834 81.0256 161.786 79.4347 157.07 79.4347C149.996 79.4347 144.442 82.9574 140.408 90.0028C136.374 97.0483 134.357 106.835 134.357 119.364C134.357 127.716 135.266 134.875 137.084 140.841C138.902 146.778 141.502 151.338 144.882 154.52C148.292 157.673 152.354 159.25 157.07 159.25ZM203.636 163V158.952L231.889 126.395C235.923 121.736 239.119 117.787 241.477 114.548C243.835 111.31 245.525 108.384 246.548 105.77C247.571 103.156 248.082 100.429 248.082 97.5881C248.082 94.0369 247.244 90.8977 245.568 88.1705C243.92 85.4148 241.662 83.2699 238.792 81.7358C235.951 80.2017 232.713 79.4347 229.076 79.4347C225.27 79.4347 221.931 80.2727 219.062 81.9489C216.193 83.625 213.949 85.8977 212.329 88.767C210.738 91.6364 209.943 94.8608 209.943 98.4403H204.787C204.787 93.9233 205.838 89.8608 207.94 86.2528C210.042 82.6449 212.926 79.7898 216.591 77.6875C220.284 75.5852 224.488 74.5341 229.204 74.5341C233.835 74.5341 237.954 75.5426 241.562 77.5597C245.17 79.5767 248.011 82.3324 250.085 85.8267C252.159 89.2926 253.196 93.2131 253.196 97.5881C253.196 100.798 252.642 103.895 251.534 106.878C250.454 109.832 248.593 113.142 245.951 116.807C243.309 120.443 239.659 124.932 235 130.273L211.306 157.588V158.057H257.116V163H203.636Z" fill="white"/>
<path d="M116.81 259.602C127.923 265.529 138.781 290.62 148.584 311.35C152.292 319.187 158.98 327.446 158.98 327.446C158.98 327.446 168.843 336.921 171.982 340.848C181.531 352.803 202.406 371.688 202.406 371.688L195.155 377.152C195.155 377.152 153.512 354.648 141.784 340.581C122.42 317.36 105.33 269.594 105.33 269.594C105.33 269.594 109.85 255.888 116.81 259.602Z" fill="#FFA680"/>
<path d="M97.3923 246.829C118.196 255.527 127.253 263.566 140.024 290.786C145.681 302.842 153.447 314.838 163.067 324.349C165.573 326.829 168.517 329.433 169.684 332.874C170.987 336.707 171.253 339.923 174.654 342.747C167.705 346.74 163.31 351.622 158.82 358.267C151.007 352.518 136.441 353.723 128.367 346.918C121.513 341.139 120.625 331.255 114.879 324.633C110.075 319.098 103.92 311.634 101.515 304.604C96.8177 290.899 97.3923 246.829 97.3923 246.829Z" fill="#BE95DE"/>
<path d="M109.198 261.246C109.198 261.246 118.528 291.908 114.387 309.036C110.253 326.165 101.51 353.248 101.51 353.248L95.8999 332.507L109.198 261.246Z" fill="#BE95DE"/>
<path d="M-22.6376 418.083C-22.6376 418.083 0.0733863 422.409 29.5136 418.641C58.9538 414.874 83.9039 423.773 83.9039 423.773C83.9039 423.773 99.2875 457.354 72.2759 457.929C45.2644 458.51 3.86447 438.766 -32.3523 428.721C-37.8849 427.19 -22.6376 418.083 -22.6376 418.083Z" fill="#FF8F61"/>
<path d="M30.3555 397.419C30.3555 397.419 53.4456 399.692 82.5245 393.332C111.597 386.971 135.997 392.982 135.997 392.982C135.997 392.982 164.679 418.855 137.916 423.447C111.153 428.039 47.6109 417.989 21.6182 408.846C16.1922 406.936 30.3555 397.419 30.3555 397.419Z" fill="#FF8F61"/>
<path d="M4.564 402.978C8.56242 400.226 11.4117 398.541 14.2017 395.93C16.8554 393.444 17.9691 390.727 21.4521 389.267C28.0273 386.515 32.5292 397.835 32.5292 397.835L32.3989 409.083C32.3989 409.083 13.2539 411.961 1.03947 416.001C-4.63532 417.876 -5.20991 409.712 4.564 402.978Z" fill="#FF8F61"/>
<path d="M170.027 413.225C151.504 374.839 113.457 360.066 104.82 354.898C103.754 354.257 102.972 353.249 102.617 352.056L91.6168 320.173L53.7769 295.314L31.6346 292.098L29.7805 336.731C29.7805 336.731 10.2445 357.188 9.35597 381.917C8.56813 403.916 30.7283 415.758 30.7283 415.758C30.7283 415.758 22.7847 419.81 23.2586 431.219C23.6614 440.943 22.8558 450.846 22.8558 450.846C25.4148 451.13 36.7762 452.614 51.834 458.891C60.0381 462.314 74.6279 464.782 85.3378 463.524C99.7795 461.827 119.333 455.064 133.526 451.19C148.779 447.031 157.167 445.85 157.884 445.678C163.695 444.302 168.238 441.448 169.938 439.241C174.624 433.136 175.773 425.138 170.027 413.225Z" fill="#825756"/>
<path d="M84.0044 369.001C83.7437 369.001 83.4949 368.847 83.3883 368.586C83.2521 368.247 83.412 367.862 83.7556 367.719C87.0254 366.39 90.1471 364.688 93.0319 362.659C94.9156 361.33 97.208 359.49 98.2387 356.987C98.3809 356.649 98.7659 356.488 99.1036 356.625C99.4412 356.767 99.6012 357.153 99.4649 357.491C98.3039 360.309 95.8278 362.309 93.7961 363.738C90.8283 365.827 87.6178 367.583 84.2591 368.948C84.1702 368.983 84.0873 369.001 84.0044 369.001Z" fill="black"/>
<path d="M118.196 446.811C118.137 446.811 118.078 446.805 118.019 446.787C117.669 446.692 117.462 446.325 117.556 445.969C121.259 432.602 115.205 416.951 108.902 407.606C103.127 399.045 94.182 392.003 85.5336 385.186C83.3833 383.489 81.3515 381.893 79.3612 380.267C79.0769 380.036 79.0354 379.62 79.2664 379.336C79.4974 379.051 79.9121 379.009 80.1964 379.241C82.1749 380.86 84.2008 382.456 86.351 384.147C95.0765 391.024 104.104 398.131 109.998 406.865C116.461 416.44 122.657 432.525 118.836 446.325C118.753 446.621 118.486 446.811 118.196 446.811Z" fill="black"/>
<path d="M75.2148 439.905C74.9957 439.905 74.7824 439.798 74.658 439.602C72.8691 436.826 70.0021 434.856 67.4549 433.23C57.142 426.645 45.7213 421.697 34.6738 416.915C34.3362 416.766 34.1822 416.381 34.3303 416.043C34.4783 415.704 34.8634 415.55 35.201 415.699C46.2959 420.504 57.764 425.476 68.1658 432.115C70.8314 433.818 73.8346 435.882 75.7657 438.884C75.9612 439.193 75.8783 439.602 75.5702 439.798C75.4577 439.869 75.3333 439.905 75.2148 439.905Z" fill="black"/>
<path d="M158.416 444.028C158.375 444.028 158.333 444.022 158.292 444.017L127.661 438.048C127.3 437.977 127.069 437.633 127.14 437.271C127.211 436.909 127.554 436.678 127.916 436.749L158.547 442.717C158.908 442.788 159.139 443.133 159.068 443.494C159.003 443.809 158.73 444.028 158.416 444.028Z" fill="black"/>
<path d="M75.0132 244.041L65.7902 241.395L52.2904 279.918L43.3872 333.64C43.3872 333.64 71.5894 341.14 81.8846 340.078C100.473 338.161 101.107 335.076 101.107 335.076C101.107 335.076 110.187 306.266 110.442 291.22C110.999 258.577 97.3925 246.836 97.3925 246.836L75.0132 244.041Z" fill="white"/>
<path d="M62.7105 269.571C77.4898 271.867 92.6305 271.089 107.007 267.031C109.205 266.408 108.269 262.973 106.059 263.596C92.3343 267.47 77.7682 268.325 63.6523 266.135C61.4191 265.791 60.4536 269.221 62.7105 269.571Z" fill="#E2D8E6"/>
<path d="M59.802 281.478C68.7111 281.763 77.5431 282.149 86.4107 280.986C94.4017 279.942 102.47 278.945 110.389 277.468C112.634 277.046 111.687 273.617 109.442 274.032C101.492 275.516 93.3354 276.572 85.303 277.568C76.8205 278.619 68.3201 278.191 59.802 277.918C57.5155 277.847 57.5214 281.407 59.802 281.478Z" fill="#E2D8E6"/>
<path d="M60.1741 293.54C64.137 294.608 68.7515 293.884 72.8269 293.884C77.5302 293.884 82.2632 293.914 86.9606 293.498C91.7468 293.077 96.4916 292.157 101.284 291.73C105.104 291.386 108.89 291.214 112.645 290.443C114.884 289.98 113.937 286.551 111.697 287.008C107.924 287.785 104.092 287.856 100.277 288.271C95.8341 288.758 91.4151 289.547 86.9665 289.944C82.6423 290.33 78.2825 290.33 73.9465 290.33C71.9087 290.33 69.8651 290.318 67.8274 290.336C65.6001 290.354 63.3077 290.704 61.1278 290.116C58.9065 289.511 57.9646 292.941 60.1741 293.54Z" fill="#E2D8E6"/>
<path d="M67.4029 303.768C75.1509 304.023 82.8871 304.379 90.6292 303.863C97.8501 303.382 104.68 301.816 111.788 300.606C114.039 300.22 113.086 296.791 110.84 297.17C103.685 298.393 96.8016 299.935 89.5274 300.374C82.1526 300.819 74.7718 300.451 67.3969 300.208C65.1164 300.131 65.1223 303.691 67.4029 303.768Z" fill="#E2D8E6"/>
<path d="M59.5237 313.8C69.2147 314.275 78.805 314.548 88.4959 313.96C96.8541 313.45 105.272 312.679 113.203 309.79C115.336 309.012 114.418 305.571 112.255 306.354C104.247 309.267 95.7701 309.985 87.329 310.466C78.029 310.994 68.8119 310.691 59.5237 310.24C57.2372 310.128 57.2431 313.693 59.5237 313.8Z" fill="#E2D8E6"/>
<path d="M58.3989 322.926C67.4146 323.661 76.6198 324.516 85.6533 323.697C94.1477 322.926 102.719 322.421 110.953 320.042C113.145 319.407 112.215 315.972 110.005 316.607C101.748 318.992 93.1111 319.508 84.593 320.226C75.9267 320.956 67.0414 320.066 58.3989 319.36C56.1183 319.182 56.1301 322.742 58.3989 322.926Z" fill="#E2D8E6"/>
<path d="M56.6563 329.452C60.2342 331.149 64.5525 331.303 68.4502 331.451C73.4971 331.635 78.5854 331.795 83.6323 331.683C88.0276 331.582 92.3518 331.202 96.6642 330.33C98.8678 329.885 101.142 329.654 103.281 328.924C104.537 328.497 106.343 328.212 107.439 327.482C109.335 326.219 107.558 323.133 105.644 324.409C104.649 325.073 102.742 325.4 101.563 325.756C99.8392 326.278 97.997 326.45 96.2318 326.794C92.0379 327.607 87.9091 328.034 83.6442 328.129C79.5273 328.224 75.4163 328.04 71.2994 327.963C67.224 327.892 62.2304 328.17 58.463 326.391C56.3898 325.406 54.589 328.473 56.6563 329.452Z" fill="#E2D8E6"/>
<path d="M116.549 226.135C113.102 216.577 118.036 206.717 118.036 206.717L93.4413 195.254C93.4413 195.254 90.7994 199.627 87.9087 205.732C86.7417 199.449 85.5866 194.875 85.5866 194.875L65.867 196.381C65.867 196.381 64.6527 204.741 58.0301 210.561C54.3398 213.801 52.2369 219.069 53.2794 223.27C57.2245 239.194 88.4181 242.658 90.5861 242.914C114.956 245.791 119.209 233.486 116.549 226.135Z" fill="#B3875D"/>
<path d="M96.7586 231.053C96.7586 231.053 90.5507 241.478 97.3924 246.829C97.3924 246.829 95.8997 263.305 85.6874 262.486C69.1547 261.157 65.7842 241.395 65.7842 241.395C65.7842 241.395 76.3282 237.882 79.207 219.579L96.7586 231.053Z" fill="#FFA680"/>
<path d="M105.867 189.843C108.729 196.873 117.418 203.115 113.302 215.936C111.951 220.136 111.335 223.886 109.57 226.87C106.969 231.261 101.253 236.084 97.0472 236.648C90.549 237.52 84.2937 234.358 79.4364 228.187C77.2269 225.381 75.1773 221.05 74.8693 216.648C74.348 209.066 74.8041 209.962 72.2155 199.098C68.0453 181.59 102.846 182.427 105.867 189.843Z" fill="#FFA680"/>
<path d="M113.936 213.569C113.936 213.569 114.457 203.732 104.002 200.617C89.4481 196.286 86.9187 186.283 86.9187 186.283L85.1357 177.906C85.1357 177.906 88.7432 174.24 92.1374 174.275C99.145 174.346 108.25 179.87 115.927 188.212C124.131 197.141 118.414 207.345 113.936 213.569Z" fill="#B3875D"/>
<path d="M68.2352 189.149C72.8674 179.905 80.029 175.746 87.1196 178.369C87.6823 178.576 88.8374 180.611 89.0447 181.175C89.1987 181.596 89.2224 188.194 89.2106 188.639C89.0269 195.289 87.6941 199.585 81.0479 204.106C73.3413 209.351 74.4727 214.874 74.4727 214.874C66.9794 208.265 62.6374 200.321 68.2352 189.149Z" fill="#B3875D"/>
<path d="M76.5399 215.171C76.9605 218.808 78.7198 220.772 75.8172 221.342C72.9147 221.911 67.6723 218.547 66.9674 214.952C66.2625 211.362 67.4591 208.657 70.4149 208.449C73.4182 208.236 76.1075 211.457 76.5399 215.171Z" fill="#FFA680"/>
<path d="M101.597 220.072C101.099 222.593 102.74 225.037 105.258 225.536C107.775 226.034 110.216 224.391 110.713 221.869C111.211 219.348 109.57 216.903 107.058 216.405C104.535 215.913 102.094 217.55 101.597 220.072Z" fill="#FF8861"/>
<path d="M78.5895 218.997C78.08 221.596 79.7623 224.112 82.3569 224.628C84.9514 225.138 87.463 223.453 87.9783 220.854C88.4878 218.256 86.8055 215.74 84.2109 215.224C81.6164 214.714 79.0989 216.405 78.5895 218.997Z" fill="#FF8861"/>
<path d="M96.4206 219.556C96.3377 219.556 96.2488 219.538 96.1659 219.502C95.8283 219.36 95.6683 218.974 95.8105 218.636C96.2607 217.556 96.2548 216.269 95.7868 215.195C95.6387 214.857 95.7927 214.471 96.1304 214.323C96.4621 214.174 96.8531 214.329 97.0011 214.667C97.6172 216.085 97.629 217.722 97.0308 219.152C96.9241 219.401 96.6813 219.556 96.4206 219.556Z" fill="#4D312A"/>
<path d="M103.41 213.652C103.315 214.767 103.896 215.734 104.707 215.8C105.519 215.871 106.259 215.022 106.354 213.901C106.449 212.786 105.868 211.819 105.057 211.753C104.245 211.688 103.505 212.536 103.41 213.652Z" fill="#593A2D"/>
<path d="M107.994 209.137C107.804 209.137 107.615 209.054 107.484 208.9C106.382 207.577 104.641 206.847 102.917 206.971C102.55 207.013 102.236 206.728 102.206 206.36C102.177 205.992 102.449 205.678 102.816 205.648C104.949 205.482 107.129 206.402 108.503 208.051C108.74 208.33 108.699 208.751 108.42 208.983C108.29 209.089 108.142 209.137 107.994 209.137Z" fill="#4D312A"/>
<path d="M85.5729 212.151C85.5492 213.272 86.1949 214.192 87.0123 214.21C87.8298 214.228 88.5051 213.332 88.5288 212.21C88.5525 211.089 87.9068 210.169 87.0893 210.152C86.2719 210.134 85.5907 211.03 85.5729 212.151Z" fill="#593A2D"/>
<path d="M85.0276 207.007C84.8203 207.007 84.613 206.906 84.4826 206.723C84.2753 206.42 84.3523 206.011 84.6544 205.803C86.4197 204.587 88.7654 204.29 90.7794 205.02C91.123 205.144 91.3007 205.524 91.1763 205.868C91.0519 206.212 90.6728 206.39 90.3292 206.266C88.7121 205.672 86.8284 205.916 85.4126 206.895C85.2882 206.972 85.1579 207.007 85.0276 207.007Z" fill="#4D312A"/>
<path d="M94.8552 229.766C93.8897 229.766 93.0012 229.428 92.2726 228.775C91.3189 227.927 90.1875 226.106 90.1993 222.249C90.1993 222.065 90.2763 221.887 90.4126 221.763C90.5488 221.638 90.7324 221.573 90.9161 221.591L99.5586 222.356C99.9199 222.386 100.192 222.706 100.157 223.074C99.8548 226.634 97.8467 229.434 95.3824 229.731C95.2047 229.754 95.0329 229.766 94.8552 229.766ZM91.5321 222.979C91.6447 225.839 92.4562 227.168 93.1493 227.785C93.8719 228.425 94.6716 228.479 95.2225 228.413C96.8989 228.212 98.3502 226.194 98.7589 223.614L91.5321 222.979Z" fill="#4D312A"/>
<path d="M65.7835 241.395C65.7835 241.395 44.3579 251.582 34.0746 266.046C28.3938 274.038 25.8467 288.918 22.9856 313.059C20.8827 330.792 18.2764 346.283 18.2764 346.283C18.2764 346.283 31.8888 349.404 40.1462 351.581C46.0402 353.136 58.5982 353.26 58.5982 353.26C58.5982 353.26 67.2585 334.904 70.5994 294.649C72.8444 267.601 65.7835 241.395 65.7835 241.395Z" fill="#BE95DE"/>
<path d="M-7.45459 350.52C-7.45459 350.52 2.0883 363.4 60.5896 376.061L63.7528 368.995C63.7528 368.995 40.4376 357.989 34.1112 352.389C27.7019 346.711 11.8267 333.522 11.8267 333.522L-7.45459 350.52Z" fill="#FFA680"/>
<path d="M65.7843 241.395C65.7843 241.395 54.4584 242.38 40.4788 247.453C29.2358 251.534 16.3402 259.431 6.93351 277.58C-2.95887 296.672 -30.0415 327.09 -17.0866 344.575C-12.9875 350.11 -4.61155 358.671 0.749292 359.757C7.19415 361.062 12.3595 362.819 12.3595 362.819C12.3595 362.819 16.198 355.313 17.9632 352.661C20.4334 348.953 26.6709 344.871 26.6709 344.871L21.4048 335.48C21.4048 335.48 48.6237 273.279 51.9172 271.333C55.2166 269.387 65.7843 241.395 65.7843 241.395Z" fill="#BE95DE"/>
<path d="M24.7744 343.032C24.5256 343.032 24.2887 342.89 24.182 342.653L18.8627 331.012C18.5428 330.306 18.448 329.529 18.5902 328.77C19.4787 324.071 22.5116 320.386 25.4438 316.815C27.1201 314.774 28.8557 312.662 30.2182 310.348C32.1315 307.102 33.4288 303.418 34.6845 299.852C36.5209 294.643 38.4164 289.262 42.2786 285.091C42.5214 284.83 42.9361 284.812 43.1967 285.056C43.4633 285.299 43.4751 285.714 43.2323 285.975C39.5478 289.95 37.7826 294.97 35.9107 300.285C34.6372 303.905 33.3162 307.648 31.3377 311.006C29.922 313.403 28.1568 315.557 26.4448 317.633C23.4831 321.235 20.6871 324.634 19.8637 329.001C19.769 329.493 19.8341 329.998 20.0415 330.454L25.3608 342.095C25.5089 342.421 25.3668 342.813 25.041 342.961C24.9521 343.009 24.8633 343.032 24.7744 343.032Z" fill="black"/>
<path d="M8.38603 358.785C8.32087 358.785 8.25571 358.773 8.19055 358.755C7.84698 358.648 7.65743 358.28 7.76405 357.936C8.64074 355.148 9.54705 352.264 11.1642 349.689C12.6747 347.287 16.993 342.582 20.2095 341.745C20.559 341.656 20.9144 341.864 21.0033 342.214C21.0921 342.564 20.8848 342.92 20.5353 343.009C17.9289 343.685 13.8298 347.898 12.266 350.384C10.7377 352.81 9.85508 355.616 9.00801 358.322C8.92508 358.607 8.66444 358.785 8.38603 358.785Z" fill="black"/>
<path d="M63.4024 369.012C63.4024 369.012 78.389 370.988 82.8317 373.254C85.2485 374.488 89.9578 378.985 92.73 381.744C93.6837 382.694 93.2039 384.426 91.9007 384.734C88.8797 385.452 81.5759 386.33 78.7267 386.336C74.1892 386.342 72.7498 385.595 68.5263 383.139C64.3028 380.688 59.7061 375.829 59.7061 375.829L63.4024 369.012Z" fill="#FFA680"/>
<path d="M201.925 378.742C202.944 378.368 204.057 378.451 205.141 378.528C211.409 378.973 217.699 379.074 223.978 378.825C224.624 378.801 225.388 378.7 225.684 378.125C225.821 377.858 225.821 377.538 225.803 377.235C225.518 372.756 222.314 369.896 218.15 368.247C213.979 366.597 209.122 366.455 204.685 367.09C200.48 367.689 196.742 367.161 194.514 366.295C191.488 365.12 189.728 367.452 189.545 370.371C189.349 373.408 191.055 374.304 193.128 376.12C196.262 378.861 198.098 384.135 202.032 385.802C207.268 388.027 201.238 378.991 201.925 378.742Z" fill="#FFA680"/>
<path d="M112.438 318.706C112.343 318.706 112.248 318.683 112.153 318.641C111.828 318.487 111.691 318.095 111.851 317.769C119.303 302.29 116.738 283.809 113.747 267.707C113.682 267.351 113.913 267.013 114.268 266.947C114.623 266.882 114.961 267.113 115.026 267.469C118.278 284.977 120.286 303.257 113.024 318.338C112.912 318.57 112.681 318.706 112.438 318.706Z" fill="black"/>
<path d="M155.965 353.462C155.894 353.462 155.822 353.45 155.751 353.427C155.414 353.308 155.23 352.934 155.354 352.596C157.351 346.883 162.22 341.4 166.923 339.567C167.261 339.437 167.634 339.603 167.764 339.941C167.895 340.279 167.729 340.653 167.391 340.783C163.079 342.462 158.429 347.731 156.581 353.029C156.486 353.296 156.237 353.462 155.965 353.462Z" fill="black"/>
<path d="M343.836 437.611C336.746 436.389 329.649 435.167 322.559 433.95C319.082 433.351 315.427 432.764 312.092 433.921C308.757 435.078 305.961 438.608 306.903 442.013C307.264 443.307 308.105 444.422 309.083 445.347C314.467 450.444 323.412 450.094 328.796 455.19C329.43 455.789 330.034 456.531 330.082 457.403C330.129 458.216 329.685 458.97 329.229 459.646C324.745 466.231 317.216 470.408 309.361 471.696C301.506 472.983 293.373 471.565 285.975 468.628C281.171 466.718 276.598 464.173 271.61 462.814C253.502 457.884 235.008 469.423 216.242 469.548C207.937 469.601 199.68 467.406 191.393 468.059C180.411 468.925 169.351 474.739 158.884 471.31C155.04 470.052 151.687 467.626 147.955 466.071C138.969 462.339 128.71 463.971 119.297 466.457C115.565 467.442 111.721 468.563 107.9 467.988C104.079 467.412 100.282 464.576 100.016 460.72C99.7136 456.329 103.813 452.971 107.74 451.002C123.088 443.283 141.499 444.185 157.267 437.374C163.214 434.805 168.658 431.191 174.546 428.492C192.844 420.121 213.808 421.194 233.853 419.486C247.282 418.341 260.592 415.879 273.541 412.141C280.152 410.23 286.804 407.97 293.687 407.946C303.9 407.911 313.49 412.782 323.625 414.039C334.714 415.416 346.958 412.36 356.987 418.667C362.531 422.156 368.686 431.108 361.53 436.27C356.519 439.871 349.452 438.578 343.836 437.611Z" fill="#F0DBD1"/>
<path d="M167.799 449.685C167.793 449.685 167.793 449.685 167.787 449.685C167.805 449.673 167.823 449.655 167.84 449.638C167.834 449.65 167.823 449.667 167.799 449.685Z" fill="#F73DE1"/>
<path d="M173.225 455.625C173.231 455.619 173.231 455.613 173.237 455.607C173.231 455.613 173.225 455.619 173.225 455.625Z" fill="#F73DE1"/>
<path d="M160.721 449.341C160.762 449.341 160.804 449.335 160.845 449.335C160.863 449.353 160.845 449.371 160.733 449.371C160.727 449.359 160.721 449.353 160.721 449.341Z" fill="#F73DE1"/>
<path d="M104.742 451.904C105.062 451.987 105.382 452.053 105.702 452.106C105.808 452.551 106.087 452.972 106.454 453.227C106.395 453.328 106.336 453.429 106.282 453.53C105.678 454.681 106.306 455.82 107.556 456.028C108.592 456.2 109.611 456.194 110.595 456.034C110.95 456.431 111.489 456.674 112.076 456.591C114.587 456.212 116.891 455.351 119.095 454.147C121.79 454.829 124.278 453.779 126.037 451.768C127.939 452.337 129.888 451.578 131.576 450.433C132.115 450.973 132.832 451.335 133.596 451.37C135.047 451.436 136.273 450.587 137.304 449.662C137.932 449.104 138.542 448.528 139.158 447.953C139.916 448.511 140.929 448.778 141.871 448.57C143.251 448.267 144.371 447.253 145.408 446.345C145.994 445.829 146.557 445.295 147.102 444.737C147.362 444.868 147.641 444.963 147.943 445.016C149.714 445.342 150.863 444.097 151.775 442.768C152.806 441.272 154.731 440.97 156.064 439.801C156.568 439.356 157 438.816 157.308 438.223C157.373 438.253 157.438 438.282 157.503 438.306C157.723 438.395 157.966 438.413 158.202 438.377C158.202 438.733 158.244 439.101 158.345 439.469C158.54 440.199 158.955 440.833 159.5 441.332C159.209 442.073 159.156 442.904 159.446 443.723C159.523 443.948 159.63 444.156 159.743 444.346C159.275 444.648 158.896 445.087 158.688 445.621C158.546 445.983 158.487 446.357 158.499 446.713C157.971 447.158 157.586 447.787 157.415 448.576C156.976 450.605 158.386 452.581 159.47 454.171C160.548 455.761 161.887 457.185 163.723 457.879C164.108 458.021 164.481 458.116 164.884 458.181C165.346 458.264 166.057 458.098 166.472 458.229C166.969 458.389 167.319 459.036 167.793 459.445C169.025 460.525 170.606 461.183 172.247 461.278C173.083 461.326 173.947 461.231 174.747 460.994C175.126 460.881 175.511 460.733 175.873 460.56C176.412 460.626 176.968 460.56 177.478 460.353C177.608 460.466 177.721 460.572 177.786 460.614C178.135 460.839 178.514 461.029 178.894 461.189C179.652 461.504 180.493 461.682 181.316 461.723C182.489 461.783 183.852 461.563 184.918 460.946C185.931 461.017 186.973 460.768 187.844 460.228C189.355 461.284 191.463 461.106 192.725 459.771C193.235 459.979 193.809 460.038 194.407 459.872C194.905 459.736 195.326 459.469 195.657 459.119C196.309 459.487 197.079 459.629 197.837 459.451C198.684 459.255 199.176 458.828 199.484 458.276C199.697 458.365 199.946 458.395 200.136 458.336C200.704 458.152 201.143 457.861 201.451 457.463C203.115 458.312 205.117 457.481 205.864 455.82C206.391 455.933 206.971 455.891 207.516 455.642C208.387 455.245 208.808 454.509 208.956 453.678C209.436 453.708 209.927 453.601 210.366 453.334C211.171 452.836 211.562 452.159 211.681 451.424C212.107 451.364 212.551 451.175 212.984 450.819C213.89 450.071 214.151 449.187 214.05 448.279C214.95 448.873 216.159 448.962 217.148 448.422C217.521 448.214 217.817 447.965 218.048 447.674C219.517 448.196 221.366 447.828 222.604 446.814C223.581 447.656 224.724 448.285 226.057 448.125C226.833 448.03 227.585 447.68 228.154 447.146C229.629 448.066 231.685 447.994 233.071 446.915C234.421 448.066 236.548 448.107 237.869 446.849C239.042 447.538 240.351 448.024 241.713 447.692C242.371 447.532 242.963 447.194 243.425 446.731C244.136 447.306 245.048 447.585 246.085 447.354C247.062 447.134 247.755 446.523 248.164 445.746C249.118 446.6 250.208 447.146 251.706 446.731C252.494 446.511 253.169 446.031 253.62 445.408C254.692 446.108 255.959 446.41 257.061 445.473C257.316 445.259 257.511 445.01 257.659 444.743C258.613 445.176 259.65 445.366 260.829 445.289C261.504 445.242 262.007 444.797 261.978 444.114C263.044 444.559 264.193 444.803 265.354 444.898C265.97 444.945 266.414 444.512 266.533 443.972C268.221 444.31 269.98 444.251 271.609 443.669C271.722 443.628 271.823 443.58 271.917 443.521C272.149 444.375 272.616 445.117 273.434 445.586C273.837 445.817 274.275 445.912 274.702 445.906C274.915 446.648 275.276 447.33 275.898 447.87C276.514 448.404 277.308 448.712 278.096 448.701C278.522 449.003 279.008 449.157 279.5 449.157C280.074 451.198 282.242 452.587 284.357 452.326C284.76 453.524 285.34 454.675 286.466 455.345C287.271 455.826 288.213 455.915 289.043 455.63C289.99 457.06 292.117 457.517 293.574 456.621C295.002 458.579 297.916 458.97 299.877 457.594C301.47 459.196 303.709 459.671 305.771 458.781C307.044 460.353 309.295 460.744 311.007 459.665C312.073 460.727 313.862 460.988 315.083 460.115C316.522 461.492 319.123 461.272 320.088 459.504C321.214 460.584 322.475 461.771 324.128 461.13C324.626 460.94 324.975 460.543 325.443 460.305C326.243 459.896 326.882 460.145 327.706 460.293C328.825 460.495 329.909 460.234 330.881 459.665C332.391 458.781 334.844 456.609 334.53 454.622C334.524 454.586 334.512 454.556 334.506 454.521C335.033 453.963 335.359 453.198 335.377 452.397C336.413 451.898 337.136 450.819 337.107 449.62C337.083 448.6 336.585 447.793 335.845 447.265C336.076 446.215 335.614 445.064 334.784 444.352C334.927 443.776 334.873 443.135 334.589 442.542C333.914 441.118 332.451 440.845 331.029 440.946C330.733 440.317 330.206 439.807 329.53 439.51C328.523 439.071 327.498 439.232 326.515 439.588C325.461 437.956 323.328 437.268 321.498 437.914C320.396 436.781 318.548 436.443 317.191 437.214C316.877 436.977 316.504 436.787 316.072 436.663C314.804 436.283 313.59 436.835 312.328 436.669C311.138 436.508 310.237 435.393 309.023 435.138C308.324 434.989 307.613 435.019 306.944 435.203C306.653 434.515 306.203 433.91 305.481 433.589C305.09 433.411 304.693 433.34 304.314 433.358C304.278 433.269 304.237 433.186 304.195 433.097C305.042 432.901 305.8 432.32 306.191 431.483C306.813 431.424 307.37 431.133 307.779 430.617C308.039 430.285 308.045 429.964 308.223 429.614C308.472 429.134 309.017 428.819 309.461 428.481C310.125 427.965 311.611 427.087 312.393 426.066C312.684 426.648 313.098 427.164 313.685 427.538C314.425 428.006 315.278 428.167 316.078 427.995C316.919 429.104 318.613 429.478 319.91 428.944C320.597 429.917 321.48 430.753 322.706 430.943C323.571 431.074 324.442 430.872 325.093 430.38C326.041 431.127 327.309 431.359 328.47 431.003C329.53 432.96 332.291 433.435 333.849 431.821C335.572 433.085 338.042 432.966 339.701 431.637C341.253 433.144 343.936 433.239 345.554 431.786C346.715 432.67 348.48 432.545 349.54 431.542C351.009 432.646 353.165 432.634 354.546 431.4C356.145 432.729 358.627 432.533 360.037 431.003C361.488 431.827 363.33 431.418 364.876 430.765C366.559 430.059 368.59 428.896 368.94 426.98C371.019 425.71 371.801 422.94 371.096 420.626C371.57 419.884 371.605 418.953 371.327 418.075C370.883 416.675 369.609 416.069 368.898 414.877C368.229 413.75 368.306 412.266 366.801 411.851C366.736 411.833 366.677 411.821 366.612 411.809C366.47 411.531 366.274 411.264 366.02 411.026C364.734 409.816 363.342 410.486 361.855 410.611C360.896 409.614 359.415 409.3 358.171 409.858C356.382 408.232 353.598 407.912 351.596 409.324C350.363 408.434 348.622 408.41 347.354 409.27C345.174 408.374 342.207 407.473 340.009 408.481C338.937 407.562 337.492 407.223 336.123 407.526C335.898 407.016 335.608 406.547 335.235 406.09C334.915 405.705 334.376 405.693 333.949 405.865C333.926 405.877 333.902 405.882 333.878 405.894C333.256 404.785 332.06 404.079 330.774 404.008C330.093 401.925 328.12 400.412 325.911 400.3C324.43 398.977 322.973 397.553 321.368 396.396C320.42 395.713 319.383 395.28 318.299 395.257C317.896 394.094 316.954 393.162 315.823 392.616C315.959 392.349 316.054 392.059 316.101 391.738C316.297 390.528 315.705 389.531 314.84 388.819C315.361 387.401 314.875 385.817 313.803 384.88C313.827 384.749 313.839 384.619 313.839 384.482C313.839 383.836 313.649 383.296 313.335 382.845C312.986 381.225 312.618 379.606 312.216 377.998C312.245 377.938 312.269 377.879 312.293 377.814C312.618 376.953 312.447 375.915 311.842 375.292C311.89 375.203 311.937 375.114 311.985 375.025C312.53 374.533 313.039 373.993 313.501 373.465C314.218 373.37 314.905 373.044 315.45 372.433C315.947 371.875 316.178 371.157 316.196 370.439C316.759 370.279 317.268 369.947 317.648 369.383C317.766 369.211 317.861 369.033 317.932 368.849C318.512 368.612 318.998 368.137 319.217 367.538C319.324 367.235 319.342 366.867 319.306 366.559C319.288 366.393 319.277 366.227 319.241 366.12C320.242 365.598 321.362 365.289 321.841 364.121C322.096 363.509 322.043 362.892 321.913 362.258C321.859 361.991 321.61 361.474 321.699 361.207C321.841 360.78 322.481 360.721 322.831 360.59C324.134 360.11 325.194 359.267 325.893 358.051C326.598 356.823 326.9 355.304 326.563 353.916C326.462 353.501 326.231 353.133 326.237 352.7C326.237 352.255 326.491 351.863 326.598 351.43C326.752 350.813 326.782 350.172 326.705 349.543C326.533 348.161 325.828 346.844 324.732 345.972C324.122 345.485 323.37 345.343 322.742 344.922C322.019 344.441 321.901 343.367 321.403 342.667C320.544 341.457 319.128 340.721 317.648 340.751C316.635 340.774 315.959 340.994 314.982 340.573C314.36 340.306 313.779 340.128 313.098 340.205C312.405 340.288 311.819 340.632 311.244 341.006C310.006 340.703 308.685 340.929 307.844 341.694C307.518 341.587 307.181 341.528 306.831 341.528C306.73 341.528 306.63 341.534 306.535 341.546C305.972 341.356 305.398 341.202 304.787 341.285C304.391 341.338 304.065 341.486 303.775 341.688C303.709 341.676 303.644 341.67 303.585 341.67C303.65 341.599 303.721 341.528 303.78 341.451C304.183 340.929 304.42 340.306 304.414 339.695C306.262 339.072 307.85 338.033 308.75 336.081C308.928 335.696 308.821 335.15 308.567 334.752C309.479 333.453 309.953 331.905 309.23 330.327C308.59 328.932 306.938 328.167 305.522 328.505C305.261 328.333 304.965 328.191 304.639 328.09C303.585 327.752 302.205 327.443 301.097 327.532C300.06 327.615 299.219 328.262 298.799 329.075C297.863 329.063 296.951 329.259 296.198 329.929C295.653 330.416 295.286 331.027 295.144 331.685C293.693 332.189 292.638 333.518 292.715 335.031C291.643 335.601 290.826 336.633 290.577 337.808C289.99 337.986 289.457 338.342 289.09 338.858C288.681 339.44 288.533 340.074 288.586 340.691C288.041 341.213 287.793 341.961 287.834 342.72C287.331 343.065 286.928 343.545 286.667 344.103C286.14 344.316 285.678 344.655 285.352 345.141C285.317 345.153 285.287 345.165 285.251 345.177C284.085 345.533 282.906 345.734 281.845 346.274C280.359 346.292 278.718 346.939 277.817 348.179C277.61 348.464 277.474 348.891 277.195 349.116C276.81 349.437 276.147 349.419 275.685 349.543C275.039 349.709 274.441 349.959 273.979 350.457C273.493 350.985 273.327 351.649 273.233 352.338C273.191 352.623 273.238 353.026 273.12 353.293C272.907 353.773 272.498 353.845 272.036 354.046C270.679 354.634 270.294 355.441 270.123 356.847C269.992 357.927 269.447 358.063 268.665 358.638C267.919 359.184 267.801 359.712 267.635 360.555C267.404 361.735 266.42 362.442 266.628 363.723C266.699 364.144 266.865 364.554 266.865 364.987C266.865 365.847 266.219 366.541 265.715 367.235C265.585 367.413 265.461 367.597 265.402 367.811C265.295 368.173 265.384 368.558 265.407 368.932C265.52 370.498 264.667 371.092 263.79 372.136C263.589 372.373 262.173 375.619 263.02 375.565C261.67 375.648 260.58 377.096 260.87 378.419C260.852 378.33 259.229 379.291 258.969 379.285C258.655 379.273 258.352 379.161 258.05 379.077C256.789 378.727 255.391 378.882 254.236 379.505C254.111 379.57 253.987 379.641 253.851 379.647C253.744 379.647 253.637 379.606 253.537 379.564C252.873 379.315 252.05 379.238 251.369 379.445C251.215 379.493 249.793 380.401 249.894 380.442C248.567 379.908 247.027 379.92 245.723 380.579C244.485 379.973 243.028 380.098 241.843 380.816C240.268 380.294 238.597 380.234 236.951 380.59C236.927 380.596 236.903 380.608 236.879 380.614C236.814 380.596 236.755 380.578 236.696 380.567C235.499 380.312 233.527 380.175 232.615 381.178C231.394 380.887 230.127 380.81 228.871 380.988C228.504 381.041 228.136 381.148 227.793 381.308C226.027 380.513 223.972 380.11 222.219 380.756C221.697 380.946 221.259 381.243 220.921 381.605C218.931 380.543 216.568 380.074 214.536 380.958C214.168 381.118 213.837 381.326 213.552 381.575C211.787 380.887 209.773 380.911 207.984 381.854C205.68 381.29 203.269 381.285 200.911 381.884C200.473 381.996 200.088 382.263 199.833 382.631C198.406 382.436 196.943 382.489 195.48 382.815C195.029 382.916 194.644 383.207 194.39 383.581C193.554 383.575 192.713 383.64 191.878 383.77C191.505 383.83 191.209 384.002 190.989 384.239C189.769 384.174 188.531 384.287 187.311 384.571C186.742 384.702 186.339 385.111 186.156 385.627C185.522 385.384 184.894 385.123 184.284 385.04C183.123 384.886 181.843 385.117 181.026 386.025C180.86 386.209 180.724 386.411 180.611 386.612C179.32 386.511 177.981 386.921 176.968 387.846C176.962 387.852 176.962 387.852 176.957 387.858C175.665 387.656 174.368 387.817 173.296 388.742C172.769 389.193 172.378 389.763 172.141 390.38C171.068 390.303 170.02 390.659 169.321 391.691C168.954 392.231 168.77 392.836 168.752 393.429C167.704 393.69 166.756 394.242 166.152 395.215C165.779 395.814 165.601 396.443 165.589 397.066C164.635 397.41 163.818 398.122 163.445 399.101C163.143 399.878 163.143 400.656 163.356 401.362C162.639 401.931 162.118 402.768 161.946 403.675C160.37 404.322 159.612 406.173 160.086 407.787C159.221 408.665 158.807 410 159.008 411.222C157.758 412.26 157.349 414.171 157.906 415.737C156.822 416.858 156.354 418.484 156.775 419.991C156.562 420.216 156.384 420.472 156.254 420.75C153.979 421.106 151.793 421.919 149.821 423.189C149.773 423.219 149.732 423.254 149.684 423.29C145.899 423.64 142.232 424.874 139.016 426.956C138.566 427.247 138.193 427.686 138.062 428.196C133.892 429.051 129.983 430.919 126.565 433.494C126.547 433.506 126.529 433.524 126.511 433.542C123.366 433.809 120.339 435.203 118.1 437.475C117.952 437.624 117.833 437.802 117.738 437.997C115.168 438.276 112.567 439.172 110.76 440.851C109.7 441.836 109.493 443.284 110.05 444.506C107.805 445.556 105.767 447.027 104.067 448.855C103.214 449.768 103.326 451.531 104.742 451.904ZM193.821 384.666C193.815 384.654 193.815 384.654 193.821 384.666V384.666ZM315.426 367.746C315.361 367.716 315.385 367.722 315.426 367.746V367.746ZM364.533 412.765C364.509 412.812 364.479 412.83 364.533 412.765V412.765Z" fill="#CF7E3B"/>
<path d="M316.332 345.563C315.491 346.856 317.126 347.621 318.05 348.025C319.341 348.588 321.083 349.561 322.534 349.407C324.115 349.241 324.281 347.687 324.595 346.411C324.655 346.162 324.702 345.901 324.714 345.652C324.998 344.815 325.045 343.943 324.228 343.373C323.144 342.62 321.444 343.267 320.336 343.611C319.554 343.854 318.79 344.145 318.056 344.495C317.54 344.726 316.67 345.046 316.332 345.563Z" fill="black"/>
<path d="M289.066 384.56C289.066 384.56 292.993 385.153 295.25 385.402C297.513 385.657 300.362 385.77 302.631 385.829C304.977 385.888 307.37 385.972 309.71 385.705C310.172 385.651 310.604 385.42 310.871 385.105C311.019 385.111 311.161 385.141 311.303 385.206C311.747 385.349 312.286 385.099 312.423 384.637C312.428 384.613 312.434 384.595 312.44 384.571C313.045 384.732 313.684 384.239 313.53 383.587C313.335 382.744 313.187 381.896 312.956 381.065C312.92 380.929 312.837 379.819 312.369 380.027C311.777 380.294 311.048 380.472 310.409 380.579C309.71 380.697 309.159 380.495 308.483 380.513C307.725 380.531 307.032 380.816 306.345 381.101C305.065 381.641 304.556 381.498 303.288 381.083C302.578 380.851 301.92 380.804 301.191 380.964C300.445 381.13 299.782 381.557 298.976 381.19C298.721 381.071 298.544 380.822 298.289 380.709C297.454 380.335 296.583 380.703 295.73 380.727C294.557 380.762 293.372 380.264 292.253 379.961C291.714 379.813 291.186 379.647 290.647 379.505C290.251 379.398 289.172 379.344 288.912 379.143C288.402 378.751 287.852 379.517 288.225 379.961C289.078 381 286.975 382.347 286.56 383.177C286.874 383.373 286.234 383.954 286.56 384.287C287.046 384.803 288.515 385.01 289.066 384.56Z" fill="#E34040"/>
<path d="M259.869 378.602C259.94 378.395 260.094 378.187 260.189 378.027C260.526 377.463 260.876 376.9 261.231 376.348C261.409 376.069 261.67 375.434 261.948 375.262C262.161 375.126 262.606 375.244 262.825 375.339C263.162 375.488 263.5 375.636 263.844 375.767C264.513 376.016 265.2 376.217 265.893 376.372C266.355 376.478 266.296 377.279 266.142 377.629C265.982 377.991 265.633 378.235 265.425 378.573C265.2 378.935 265.159 379.374 265.076 379.789C265.016 380.086 264.892 380.637 264.59 380.798C264.27 380.964 263.553 380.626 263.21 380.531C262.398 380.299 261.581 380.068 260.846 379.641C260.603 379.498 260.118 379.314 259.934 379.107C259.804 378.958 259.81 378.78 259.869 378.602Z" fill="#E34040"/>
<path d="M307.655 388.98C308.01 390.629 309.242 391.756 310.403 391.507C311.564 391.252 312.216 389.715 311.86 388.066C311.505 386.416 310.273 385.289 309.112 385.538C307.951 385.794 307.299 387.33 307.655 388.98Z" fill="#FFC642"/>
<path d="M298.616 353.346C298.616 354.182 297.644 354.859 296.442 354.859C295.24 354.859 294.268 354.182 294.268 353.346C294.268 352.509 295.24 351.833 296.442 351.833C297.644 351.833 298.616 352.509 298.616 353.346Z" fill="black"/>
<path d="M215.094 446.042C215.058 446.042 215.029 446.042 214.993 446.036C214.614 445.983 214.353 445.633 214.407 445.247C214.975 441.266 214.365 435.736 212.961 432.094C212.043 429.72 211.048 427.994 209.828 426.653C208.175 424.844 203.957 421.035 199.823 419.54C199.461 419.409 199.278 419.011 199.408 418.65C199.538 418.288 199.935 418.104 200.297 418.228C204.686 419.812 209.123 423.817 210.852 425.71C212.197 427.181 213.275 429.044 214.259 431.583C215.763 435.481 216.391 441.177 215.787 445.431C215.728 445.793 215.431 446.042 215.094 446.042Z" fill="black"/>
<path d="M174.132 457.178C174.031 457.178 173.93 457.154 173.836 457.107C168.113 454.36 163.149 449.851 159.874 444.404C159.678 444.078 159.779 443.651 160.111 443.449C160.436 443.253 160.863 443.354 161.064 443.686C164.21 448.901 168.96 453.221 174.44 455.855C174.783 456.021 174.931 456.436 174.766 456.78C174.635 457.035 174.392 457.178 174.132 457.178Z" fill="black"/>
<path d="M268.678 442.133C268.47 442.133 268.269 442.038 268.127 441.866C265.455 438.419 263.133 434.687 261.226 430.771C261.06 430.427 261.202 430.012 261.546 429.84C261.889 429.673 262.304 429.816 262.476 430.16C264.348 433.993 266.616 437.641 269.229 441.011C269.466 441.314 269.406 441.753 269.104 441.984C268.98 442.085 268.826 442.133 268.678 442.133Z" fill="black"/>
<path d="M303.385 433.938C303.308 433.938 303.231 433.926 303.154 433.896C300.648 433.007 299.144 430.728 297.693 428.278C296.869 426.878 295.738 424.837 294.642 422.867C293.552 420.903 292.421 418.868 291.603 417.48C291.408 417.148 291.52 416.727 291.846 416.531C292.178 416.335 292.598 416.448 292.794 416.774C293.623 418.18 294.754 420.221 295.85 422.191C296.94 424.155 298.066 426.184 298.883 427.566C300.192 429.791 301.543 431.85 303.61 432.585C303.972 432.716 304.161 433.113 304.031 433.475C303.936 433.76 303.669 433.938 303.385 433.938Z" fill="black"/>
<path d="M336.011 449.715C335.923 449.715 335.834 449.697 335.751 449.661C333.879 448.89 331.918 448.356 329.916 448.077C329.537 448.024 329.27 447.674 329.324 447.294C329.377 446.914 329.726 446.647 330.106 446.701C332.22 446.997 334.3 447.561 336.278 448.38C336.633 448.528 336.799 448.931 336.657 449.287C336.545 449.554 336.284 449.715 336.011 449.715Z" fill="black"/>
<path d="M334.086 455.298C333.944 455.298 333.796 455.25 333.671 455.161C332.409 454.218 330.828 453.708 329.264 453.725C328.861 453.731 328.565 453.423 328.565 453.037C328.559 452.652 328.867 452.337 329.252 452.337C331.124 452.319 332.996 452.924 334.5 454.046C334.808 454.277 334.874 454.71 334.643 455.019C334.506 455.203 334.299 455.298 334.086 455.298Z" fill="black"/>
<path d="M369.812 417.872C369.587 417.872 369.368 417.765 369.232 417.564C369.084 417.344 368.681 417.249 367.988 417.249C366.667 417.267 365.334 417.374 364.025 417.564C363.646 417.623 363.296 417.356 363.237 416.976C363.184 416.597 363.444 416.247 363.823 416.187C365.192 415.992 366.584 415.879 367.964 415.861C368.456 415.849 369.747 415.837 370.387 416.793C370.6 417.113 370.511 417.546 370.191 417.754C370.079 417.837 369.942 417.872 369.812 417.872Z" fill="black"/>
<path d="M370.444 423.995C370.367 423.995 370.29 423.983 370.207 423.954C368.412 423.307 366.416 423.259 364.592 423.823C364.225 423.936 363.839 423.728 363.727 423.36C363.614 422.992 363.822 422.607 364.189 422.494C366.298 421.847 368.602 421.901 370.675 422.648C371.037 422.779 371.22 423.176 371.096 423.538C370.995 423.817 370.729 423.995 370.444 423.995Z" fill="black"/>
<path d="M313.915 424.802C313.82 424.802 313.726 424.784 313.637 424.743C313.287 424.588 313.127 424.179 313.287 423.829C317.303 414.775 318.156 404.499 315.692 394.906C315.597 394.532 315.823 394.158 316.19 394.057C316.557 393.962 316.936 394.188 317.037 394.556C319.578 404.452 318.696 415.048 314.555 424.387C314.431 424.648 314.176 424.802 313.915 424.802Z" fill="black"/>
<path d="M272.754 392.005C272.659 392.005 272.564 392.005 272.47 392.005C270.817 391.981 268.43 391.637 266.434 390.112C264.55 388.676 263.49 386.457 263.667 384.322C263.952 380.916 265.427 377.706 266.854 374.603C267.061 374.158 267.263 373.719 267.458 373.28C268.086 371.886 268.649 370.421 269.241 368.86C270.189 366.368 271.172 363.794 272.458 361.563C272.647 361.231 273.074 361.118 273.406 361.308C273.737 361.497 273.85 361.925 273.66 362.257C272.428 364.393 271.469 366.914 270.539 369.353C269.964 370.86 269.372 372.42 268.726 373.85C268.525 374.289 268.323 374.734 268.116 375.185C266.742 378.175 265.314 381.272 265.047 384.434C264.911 386.078 265.782 387.869 267.269 389.003C268.963 390.296 271.042 390.593 272.482 390.61C278.067 390.67 282.86 388.208 285.97 383.627C288.132 380.435 287.924 373.547 287.735 367.472C287.652 364.784 287.575 362.251 287.705 360.174C287.729 359.795 288.049 359.498 288.44 359.522C288.819 359.546 289.115 359.872 289.091 360.258C288.967 362.269 289.044 364.772 289.127 367.424C289.316 373.713 289.536 380.839 287.119 384.405C283.801 389.317 278.707 392.005 272.754 392.005Z" fill="black"/>
<path d="M288.747 344.548C288.421 344.548 288.131 344.316 288.066 343.984C287.994 343.61 288.237 343.242 288.616 343.171C293.018 342.317 297.52 341.7 301.992 341.338C302.371 341.32 302.709 341.593 302.738 341.973C302.768 342.353 302.484 342.691 302.104 342.72C297.68 343.082 293.231 343.687 288.877 344.536C288.836 344.542 288.794 344.548 288.747 344.548Z" fill="black"/>
<path d="M318.608 361.723C315.611 361.723 312.667 360.513 310.535 358.407C310.262 358.14 310.256 357.695 310.529 357.422C310.801 357.149 311.239 357.149 311.512 357.416C313.39 359.273 315.978 360.335 318.614 360.335C318.626 360.335 318.632 360.329 318.644 360.335C319.023 360.335 319.337 360.643 319.337 361.029C319.337 361.415 319.029 361.723 318.644 361.723C318.632 361.723 318.62 361.723 318.608 361.723Z" fill="black"/>
</g>
<defs>
<clipPath id="clip0_1164_35660">
<rect width="388" height="480" rx="20" fill="white"/>
</clipPath>
</defs>
</svg>
