<svg width="450" height="383" viewBox="0 0 450 383" fill="none" xmlns="http://www.w3.org/2000/svg">
<path d="M0 87C0 75.9543 8.95431 67 20 67H430C441.046 67 450 75.9543 450 87V363C450 374.046 441.046 383 430 383H20C8.9543 383 0 374.046 0 363V87Z" fill="#F7F5F0"/>
<path d="M153.723 203.073C153.723 222.403 138.053 238.073 118.723 238.073C99.3934 238.073 83.7234 222.403 83.7234 203.073C83.7234 183.743 99.3934 168.073 118.723 168.073C138.053 168.073 153.723 183.743 153.723 203.073Z" fill="#FAC844" stroke="white" stroke-width="10"/>
<path d="M6.3833 265.557C6.3833 335.208 77.9786 310.69 80 307.208" stroke="#8A7171" stroke-width="6" stroke-linecap="round"/>
<path d="M31.531 282.267C31.5033 282.315 31.4712 282.362 31.4352 282.405L30.4826 283.543C20.1372 295.902 -1.52588e-05 288.586 -1.52588e-05 272.469L-1.52588e-05 250.999C-1.52588e-05 250.693 0.154427 250.407 0.410713 250.24C20.3242 237.21 44.3122 259.715 32.5783 280.419L31.531 282.267Z" fill="#B18042"/>
<path d="M432 75.1154C432 76.7085 430.709 78 429.115 78L343 78V6.42308C343 4.53257 344.533 3 346.423 3H359.885C399.713 3 432 35.2872 432 75.1154Z" fill="#F7F5F0"/>
<path d="M414 73.3846C414 74.8291 412.829 76 411.385 76L343 76V10.7308C343 9.2226 344.223 8 345.731 8H348.615C384.726 8 414 37.2737 414 73.3846Z" fill="#FAC844"/>
</svg>
