<svg width="450" height="380" viewBox="0 0 450 380" fill="none" xmlns="http://www.w3.org/2000/svg">
<path d="M0 84C0 72.9543 8.95431 64 20 64H430C441.046 64 450 72.9543 450 84V360C450 371.046 441.046 380 430 380H20C8.9543 380 0 371.046 0 360V84Z" fill="#E0E0E0"/>
<path d="M153.723 200.073C153.723 219.403 138.053 235.073 118.723 235.073C99.3934 235.073 83.7234 219.403 83.7234 200.073C83.7234 180.743 99.3934 165.073 118.723 165.073C138.053 165.073 153.723 180.743 153.723 200.073Z" fill="#DC8441" stroke="white" stroke-width="10"/>
<path d="M6.3833 262.557C6.3833 332.208 77.9786 307.69 80 304.208" stroke="#8A7171" stroke-width="6" stroke-linecap="round"/>
<path d="M31.531 279.267C31.5033 279.316 31.4712 279.362 31.4352 279.405L30.4826 280.543C20.1372 292.902 -1.52588e-05 285.587 -1.52588e-05 269.469L-1.52588e-05 248C-1.52588e-05 247.693 0.154428 247.408 0.410713 247.24V247.24C20.3242 234.211 44.3122 256.716 32.5783 277.419L31.531 279.267Z" fill="#B18042"/>
<path d="M432 72.1154C432 73.7085 430.709 75 429.115 75L343 75V3.42308C343 1.53257 344.533 0 346.423 0H359.885C399.713 0 432 32.2872 432 72.1154V72.1154Z" fill="#E0E0E0"/>
<path d="M414 70.3846C414 71.8291 412.829 73 411.385 73L343 73V7.73077C343 6.2226 344.223 5 345.731 5H348.615C384.726 5 414 34.2737 414 70.3846V70.3846Z" fill="#6F6F6F"/>
</svg>
