<svg width="50" height="42" viewBox="0 0 50 42" fill="none" xmlns="http://www.w3.org/2000/svg">
<path d="M24.9948 16.6641C21.3281 16.6641 18.3281 19.6641 18.3281 23.3307C18.3281 26.9974 21.3281 29.9974 24.9948 29.9974C28.6615 29.9974 31.6615 26.9974 31.6615 23.3307C31.6615 19.6641 28.6615 16.6641 24.9948 16.6641Z" fill="#ECECEC"/>
<path d="M45 8.33333H38.25C37.5825 8.33333 37 8 36.7492 7.33333L34.5825 2.75C33.7492 1.08333 31.9992 0 30.0825 0H19.9167C18 0 16.25 1.08333 15.4167 2.75L13.25 7.33333C13 7.91667 12.4167 8.33333 11.75 8.33333H5C2.25 8.33333 0 10.5833 0 13.3333V36.6667C0 39.4167 2.25 41.6667 5 41.6667H45C47.75 41.6667 50 39.4167 50 36.6667V13.3333C50 10.5833 47.75 8.33333 45 8.33333ZM25 35.1667C18.5833 35.1667 13.3333 29.9167 13.3333 23.5C13.3333 17.0833 18.5833 11.8333 25 11.8333C31.4167 11.8333 36.6667 17.0833 36.6667 23.5C36.6667 29.9167 31.4167 35.1667 25 35.1667Z" fill="#ECECEC"/>
</svg>
