<svg width="450" height="380" viewBox="0 0 450 380" fill="none" xmlns="http://www.w3.org/2000/svg">
<g clip-path="url(#clip0_1550_35238)">
<rect y="64" width="450" height="316" rx="20" fill="#E0E0E0"/>
<path d="M405 65.465C405 64.6559 405.656 64 406.465 64H430.82C441.338 64 449.864 72.5265 449.864 83.0445V100.363C449.864 101.316 449.092 102.089 448.139 102.089H441.624C421.397 102.089 405 85.6918 405 65.465V65.465Z" fill="#DD5941"/>
<path d="M0 84C0 72.9543 8.95431 64 20 64H121.889C128.601 64 134.043 69.4414 134.043 76.1537V251.11C134.043 322.292 76.3378 379.997 5.15549 379.997V379.997C2.30819 379.997 0 377.689 0 374.842V84Z" fill="#6F6F6F"/>
<path d="M205.32 166.844C205.32 180.618 194.135 191.798 180.32 191.798C166.506 191.798 155.32 180.618 155.32 166.844C155.32 153.069 166.506 141.889 180.32 141.889C194.135 141.889 205.32 153.069 205.32 166.844Z" fill="#DC8441" stroke="white" stroke-width="10"/>
</g>
<defs>
<clipPath id="clip0_1550_35238">
<rect y="64" width="450" height="316" rx="20" fill="white"/>
</clipPath>
</defs>
</svg>
