<svg width="40" height="40" viewBox="0 0 40 40" fill="none" xmlns="http://www.w3.org/2000/svg">
<g clip-path="url(#clip0_570_40568)">
<path d="M10.769 14.9209L18.2118 25.7286C19.1869 27.144 20.7989 27.144 21.774 25.7286L29.2168 14.9376C30.1919 13.5221 29.3959 12.3564 27.4456 12.3564H25.1571V4.34638C25.177 1.93172 22.8685 0 20.0029 0C17.1571 0 14.8287 1.93172 14.8287 4.32972V12.3397H12.5402C10.5899 12.3397 9.774 13.5054 10.769 14.9209Z" fill="#7C8C38"/>
<path d="M36.8756 32.7578H3.12438C1.39883 32.7578 0 33.9284 0 35.3723V37.3873C0 38.8312 1.39883 40.0018 3.12438 40.0018H36.8756C38.6012 40.0018 40 38.8312 40 37.3873V35.3723C40 33.9284 38.6012 32.7578 36.8756 32.7578Z" fill="#7C8C38"/>
<path d="M8.65625 37.52L8.65625 23.9979C8.65625 22.9679 7.65836 22.1328 6.4274 22.1328H2.22839C0.997427 22.1328 -0.000463486 22.9679 -0.000463486 23.9979L-0.000463486 37.52C-0.000463486 38.5501 0.997427 39.3851 2.22839 39.3851H6.4274C7.65836 39.3851 8.65625 38.5501 8.65625 37.52Z" fill="#7C8C38"/>
<path d="M40 37.52V23.9979C40 22.9679 39.0021 22.1328 37.7711 22.1328H33.5721C32.3412 22.1328 31.3433 22.9679 31.3433 23.9979V37.52C31.3433 38.5501 32.3412 39.3851 33.5721 39.3851H37.7711C39.0021 39.3851 40 38.5501 40 37.52Z" fill="#7C8C38"/>
</g>
<defs>
<clipPath id="clip0_570_40568">
<rect width="40" height="40" fill="white"/>
</clipPath>
</defs>
</svg>
