<svg width="40" height="42" viewBox="0 0 40 42" fill="none" xmlns="http://www.w3.org/2000/svg">
<g clip-path="url(#clip0_570_40526)">
<path d="M8.4375 12.3765C9.6134 11.1716 10.7266 10.048 11.8711 8.85938C12.2161 9.18504 24.2886 21.6905 29.9487 27.5849C30.3406 27.992 30.7483 28.4154 31.0462 28.8876C31.689 29.946 31.5949 31.0207 30.7639 31.9325C29.933 32.8281 28.9139 32.9746 27.8477 32.3559C27.5028 32.1605 27.1735 31.8674 26.8913 31.5743C20.8864 25.3541 8.60997 12.6045 8.4375 12.3765Z" fill="#7C8C38"/>
<path d="M13.531 3.06296C13.531 3.06296 6.50691 10.3578 2.99488 13.9889C2.25798 13.1259 1.34862 12.2629 0.705793 11.2208C-0.454429 9.33195 -0.156534 7.03603 1.39566 5.26117C2.41477 4.08879 3.51228 2.99782 4.59411 1.90686C7.00862 -0.519326 9.83079 -0.665874 12.261 1.72774C12.7313 2.19995 13.5466 3.06296 13.5466 3.06296H13.531Z" fill="#7C8C38"/>
<path d="M4.9375 15.9272C4.9375 15.9272 6.05069 14.6734 6.58376 14.0547C7.0698 14.5432 7.39905 14.9177 7.75966 15.2759C13.4353 21.1704 19.0953 27.0486 24.771 32.9431C25.1003 33.285 25.6804 33.7898 25.7901 34.1969C25.9156 34.6691 25.8372 35.1739 25.4923 35.5321C25.2571 35.7763 24.771 35.9229 24.3164 35.8415C24.0185 35.7926 23.5795 35.3041 23.3286 35.0436C17.3707 28.856 11.4128 22.6684 5.4549 16.4809C5.31379 16.3343 4.9375 15.9435 4.9375 15.9435V15.9272Z" fill="#7C8C38"/>
<path d="M13.4531 7.08349C13.4531 7.08349 14.5663 5.8297 15.0994 5.21094C15.5854 5.69943 15.9147 6.07394 16.2753 6.43217C21.951 12.3267 27.611 18.2049 33.2867 24.0993C33.6159 24.4413 34.196 24.9461 34.3058 25.3531C34.4312 25.8253 34.3528 26.3301 34.0079 26.6883C33.7727 26.9326 33.2867 27.0791 32.832 26.9977C32.5341 26.9489 32.0951 26.4604 31.8442 26.1999C25.8863 20.0123 19.9284 13.8247 13.9705 7.63712C13.8294 7.49057 13.4531 7.09978 13.4531 7.09978V7.08349Z" fill="#7C8C38"/>
<path d="M27.4531 37.5977C27.8608 35.9205 28.6133 35.2529 30.1812 35.0738C32.2038 34.8296 33.3483 33.2664 33.8187 30.6774C33.9441 29.9283 34.4301 29.3096 35.0886 29.0002C35.4022 28.8537 35.7471 28.6908 36.1234 28.5117C37.0955 32.5174 38.0362 36.4253 39.0397 40.6101C35.073 39.5842 31.2787 38.6072 27.4688 37.614L27.4531 37.5977Z" fill="#7C8C38"/>
</g>
<defs>
<clipPath id="clip0_570_40526">
<rect width="40" height="41.5919" fill="white"/>
</clipPath>
</defs>
</svg>
