<svg width="16" height="16" viewBox="0 0 16 16" fill="none" xmlns="http://www.w3.org/2000/svg">
<g clip-path="url(#clip0_573_31049)">
<path d="M14.6667 9.33464H1.33333C0.586667 9.33464 0 8.74797 0 8.0013C0 7.25464 0.586667 6.66797 1.33333 6.66797H14.6667C15.4133 6.66797 16 7.25464 16 8.0013C16 8.74797 15.4133 9.33464 14.6667 9.33464Z" fill="#B18042"/>
<path d="M7.9974 16C7.25073 16 6.66406 15.4133 6.66406 14.6667V1.33333C6.66406 0.586667 7.25073 0 7.9974 0C8.74406 0 9.33073 0.586667 9.33073 1.33333V14.6667C9.33073 15.4133 8.74406 16 7.9974 16Z" fill="#B18042"/>
</g>
<defs>
<clipPath id="clip0_573_31049">
<rect width="16" height="16" fill="white"/>
</clipPath>
</defs>
</svg>
