<svg width="28" height="28" viewBox="0 0 28 28" fill="none" xmlns="http://www.w3.org/2000/svg">
<path d="M27.1754 22.6565C28.269 23.7235 28.269 25.452 27.1754 26.519C26.6329 27.0525 25.9155 27.3171 25.198 27.3171C24.4806 27.3171 23.7649 27.0503 23.2189 26.5168L13.9989 17.5264L4.77975 26.5147C4.23292 27.0525 3.51635 27.3171 2.79978 27.3171C2.08321 27.3171 1.36752 27.0525 0.820248 26.5147C-0.273416 25.4477 -0.273416 23.7192 0.820248 22.6522L10.042 13.6553L0.820248 4.66275C-0.273416 3.59576 -0.273416 1.86723 0.820248 0.800242C1.91391 -0.266747 3.68565 -0.266747 4.77931 0.800242L13.9989 9.80137L23.2207 0.804511C24.3144 -0.262479 26.0861 -0.262479 27.1798 0.804511C28.2734 1.8715 28.2734 3.60002 27.1798 4.66701L17.958 13.6639L27.1754 22.6565Z" fill="#7C8C38"/>
</svg>
