<svg width="200" height="200" viewBox="0 0 200 200" fill="none" xmlns="http://www.w3.org/2000/svg">
<rect width="200" height="200" fill="#ECECEC"/>
<path d="M115.823 108.137C114.874 107.54 113.996 106.316 112.977 104.917C110.4 101.377 106.888 96.5256 98.3345 96.5256C89.7813 96.5256 86.2694 101.377 83.6922 104.917C82.6726 106.316 81.7946 107.525 80.86 108.137C72.8732 113.251 68.9932 119.326 68.9932 126.727C68.9932 133.4 75.3514 139.941 81.8371 139.941C88.8609 139.941 91.9621 137.683 94.2278 136.037C95.6864 134.973 96.6494 134.274 98.3487 134.274C100.048 134.274 101.011 134.973 102.469 136.037C104.735 137.683 107.822 139.941 114.86 139.941C121.346 139.941 127.704 133.4 127.704 126.727C127.704 119.326 123.824 113.251 115.837 108.137H115.823Z" fill="#CCCCCC"/>
<path d="M72.3208 98.5508C70.055 89.8676 63.9942 84.2294 58.5422 85.7446C55.7667 86.5168 53.6709 88.9498 52.6513 92.6066C51.7308 95.9283 51.7875 99.9494 52.8212 103.927C53.855 107.904 55.7525 111.415 58.174 113.819C60.2557 115.902 62.5498 116.981 64.7872 116.981C65.3961 116.981 66.005 116.893 66.5998 116.733C72.0659 115.232 74.5723 107.234 72.3066 98.5508H72.3208Z" fill="#CCCCCC"/>
<path d="M82.9698 94.6318C89.5405 94.6318 94.6809 86.3711 94.6809 75.8086C94.6809 65.2461 89.5263 57 82.9698 57C76.4133 57 71.2588 65.2606 71.2588 75.8232C71.2588 86.3857 76.3992 94.6463 82.9698 94.6463V94.6318Z" fill="#CCCCCC"/>
<path d="M113.713 94.6318C120.284 94.6318 125.424 86.3711 125.424 75.8086C125.424 65.2461 120.284 57 113.713 57C107.142 57 102.002 65.2606 102.002 75.8232C102.002 86.3857 107.142 94.6463 113.713 94.6463V94.6318Z" fill="#CCCCCC"/>
<path d="M138.141 85.7446C135.365 84.9725 132.363 86.0215 129.715 88.6584C127.307 91.0623 125.396 94.5735 124.362 98.5508C123.328 102.528 123.257 106.549 124.192 109.871C125.212 113.528 127.293 115.975 130.083 116.733C130.678 116.893 131.287 116.981 131.881 116.981C136.824 116.981 141.851 111.677 143.862 103.927C146.127 95.2436 143.621 87.2452 138.155 85.7446H138.141Z" fill="#CCCCCC"/>
</svg>
