<svg width="48" height="24" viewBox="0 0 48 24" fill="none" xmlns="http://www.w3.org/2000/svg">
<g clip-path="url(#clip0_1605_35157)">
<path d="M16.6528 12.5623C19.4602 9.78692 23.3572 9.237 23.4367 3.78075C23.4447 2.90431 21.5837 3.2652 20.1601 3.2652C18.7365 3.2652 16.9868 2.48328 15.5075 1.00536C14.0282 -0.472554 9.63814 -0.146038 6.92614 0.90225C4.21414 1.95054 -0.0487077 7.62161 0.64321 8.8933C1.33513 10.165 5.89224 13.0263 6.56825 13.1466C7.24426 13.2669 8.69172 11.093 7.8646 8.88471C7.18859 7.06309 7.06134 6.21243 7.22836 5.34459C7.26017 5.18133 7.40332 5.06103 7.55443 5.07822C7.70554 5.0954 7.83279 5.23288 7.83279 5.40473C7.8487 6.17806 7.99981 7.11465 8.43722 8.17153C9.70176 11.2391 7.82484 14.6589 7.17269 14.5214C6.67164 14.4183 5.14465 13.5762 4.44478 13.181C4.3573 13.1294 4.26186 13.1294 4.17438 13.181C4.08689 13.2239 4.02327 13.3099 4.00736 13.413C3.76082 14.6073 2.97346 18.1217 1.74869 21.1806C4.42887 22.5296 11.3003 25.2363 17.8219 21.636C16.8198 18.895 15.5314 16.8242 15.5632 15.269C15.5632 15.2518 15.5632 15.2346 15.5632 15.2174C15.7541 14.0059 16.1199 13.1036 16.6607 12.5709L16.6528 12.5623ZM14.4179 5.6711C13.9169 5.69688 13.4954 5.28444 13.4715 4.7517C13.4477 4.21897 13.8294 3.75497 14.3225 3.72919C14.8156 3.70341 15.2451 4.11586 15.2689 4.64859C15.2928 5.18133 14.911 5.64533 14.4179 5.6711Z" fill="#7C8C38"/>
</g>
<path d="M35.364 5.042C35.004 5.744 34.5 6.464 33.942 7.166C33.42 6.464 32.772 5.762 31.944 5.078L31.008 5.816C31.908 6.572 32.574 7.364 33.096 8.174C32.358 8.966 31.548 9.704 30.738 10.298C31.026 10.514 31.458 10.91 31.656 11.18C32.358 10.64 33.06 10.01 33.708 9.344C34.05 10.1 34.248 10.892 34.374 11.72C33.564 13.376 32.106 15.14 30.81 16.058C31.134 16.31 31.512 16.742 31.728 17.084C32.7 16.292 33.726 15.05 34.554 13.754C34.572 14.042 34.572 14.33 34.572 14.6C34.572 16.994 34.392 19.1 33.924 19.73C33.78 19.928 33.6 20.018 33.312 20.054C32.88 20.108 32.16 20.108 31.26 20.054C31.494 20.432 31.638 20.918 31.638 21.368C32.448 21.404 33.222 21.404 33.87 21.278C34.302 21.206 34.662 20.99 34.914 20.666C35.67 19.658 35.868 17.264 35.868 14.618C35.868 12.44 35.688 10.316 34.644 8.336C35.382 7.472 36.048 6.572 36.57 5.672L35.364 5.042ZM41.97 12.188V15.824H39.198V12.188H41.97ZM43.176 16.994V11.018H37.974V18.308H39.198V16.994H43.176ZM39.54 7.598C39.864 6.842 40.152 6.05 40.386 5.258L39.108 4.952C38.424 7.346 37.272 9.74 35.886 11.27C36.192 11.468 36.714 11.846 36.948 12.08C37.686 11.198 38.388 10.082 39 8.84H45.354C45.138 16.4 44.85 19.154 44.346 19.766C44.148 20.018 43.95 20.072 43.662 20.054C43.266 20.054 42.348 20.054 41.358 19.982C41.592 20.342 41.718 20.918 41.754 21.314C42.672 21.368 43.626 21.386 44.184 21.332C44.778 21.26 45.156 21.098 45.534 20.576C46.2 19.712 46.416 16.85 46.668 8.318C46.668 8.12 46.686 7.598 46.686 7.598H39.54Z" fill="#7C8C38"/>
<defs>
<clipPath id="clip0_1605_35157">
<rect width="24" height="24" fill="white"/>
</clipPath>
</defs>
</svg>
