<svg width="48" height="24" viewBox="0 0 48 24" fill="none" xmlns="http://www.w3.org/2000/svg">
<path d="M23.6667 11.1521C22.9982 10.7907 22.1387 10.373 21.5396 10.0357C21.392 9.95539 21.2965 9.83492 21.2618 9.67429C20.3415 5.61034 18.8048 4.74293 15.6273 3.4097C15.6273 3.4097 15.6099 3.40167 15.5926 3.39364C15.28 3.24907 15.1672 2.95191 15.1845 2.68687L15.28 0.944026C15.3234 0.197094 15.0456 -0.0358199 14.4032 0.00433774C14.3858 0.00433774 14.3597 0.00433774 14.3424 0.00433774C4.45378 1.61064 5.29592 10.0598 2.63928 15.216C1.98814 16.477 1.08523 17.4408 0 18.1716C4.19332 21.7939 10.123 24.4121 16.9296 23.9463C17.1987 21.7216 17.1292 19.4727 16.6604 17.248C16.6257 17.0793 16.6604 16.9268 16.782 16.7982C16.8948 16.6697 17.0511 16.5975 17.2334 16.5975C20.2808 16.5573 23.0676 14.8225 23.9532 12.156C23.9532 12.14 23.9618 12.1239 23.9705 12.1078C24.0834 11.6099 23.849 11.2726 23.658 11.1681L23.6667 11.1521ZM16.973 11.0959C16.2263 11.0637 15.662 10.4774 15.6967 9.78673C15.7315 9.10405 16.3652 8.57397 17.1119 8.6061C17.8498 8.63822 18.4228 9.22452 18.3881 9.91523C18.3534 10.5979 17.7196 11.128 16.973 11.0959V11.0959Z" fill="#CCCCCC"/>
<path d="M39.54 10.694H40.782V8.408H41.934V7.148H40.782V5.114H39.54V7.148H37.542V8.408H39.54V10.694ZM36.048 5.06C34.878 5.852 32.718 6.716 30.81 7.148C31.044 7.4 31.296 7.814 31.458 8.102C33.384 7.616 35.508 6.824 36.768 5.87L36.048 5.06ZM33.942 7.832C34.338 8.408 34.734 9.182 34.95 9.74C34.536 10.046 34.104 10.316 33.654 10.586C33.384 9.956 32.826 9.074 32.34 8.426L31.44 8.876C31.908 9.56 32.448 10.478 32.718 11.126C32.124 11.45 31.548 11.738 30.972 11.972C31.188 12.188 31.458 12.602 31.62 12.872C32.556 12.44 33.474 11.972 34.356 11.432C34.572 11.792 34.788 12.134 34.968 12.53C33.96 13.502 32.232 14.564 30.9 15.104C31.116 15.356 31.404 15.788 31.548 16.076C32.754 15.464 34.266 14.438 35.364 13.484C35.49 13.934 35.616 14.438 35.706 14.906C34.518 16.328 32.376 17.84 30.666 18.578C30.918 18.812 31.188 19.244 31.332 19.55C32.826 18.794 34.572 17.48 35.868 16.202C35.958 17.858 35.67 19.262 35.238 19.694C34.932 20.018 34.644 20.072 34.248 20.072C33.942 20.072 33.402 20.036 32.862 19.982C33.042 20.342 33.132 20.828 33.168 21.17C33.636 21.206 34.176 21.224 34.5 21.224C35.22 21.206 35.67 21.026 36.156 20.522C37.398 19.316 37.56 14.006 35.238 10.874C36.156 10.262 36.966 9.56 37.596 8.84L36.822 8.084C36.534 8.426 36.192 8.75 35.814 9.074C35.562 8.552 35.184 7.868 34.824 7.382L33.942 7.832ZM41.664 12.566V15.176H39.27V12.566H41.664ZM45.156 15.176H42.852V12.566H45.156V15.176ZM42.852 19.082V16.328H45.156V19.082H42.852ZM39.27 19.082V16.328H41.664V19.082H39.27ZM38.046 21.35H39.27V20.252H45.156V21.206H46.434V11.378H38.046V21.35ZM45.03 7.166V5.114H43.77V7.166H42.582V8.408H43.77V10.694H45.03V8.408H47.226V7.166H45.03Z" fill="#CCCCCC"/>
</svg>
