<svg width="40" height="40" viewBox="0 0 40 40" fill="none" xmlns="http://www.w3.org/2000/svg">
<g clip-path="url(#clip0_30_455)">
<path d="M40 18.369C40 20.6611 39.6243 22.7606 38.873 24.6483C38.1216 26.5552 37.0539 28.0384 35.6896 29.117C34.3253 30.1957 32.7237 30.735 30.9046 30.735C29.6985 30.735 28.6307 30.4461 27.7014 29.8875C26.7721 29.3289 26.0999 28.5777 25.6846 27.6531H25.2892C23.5294 29.7142 21.2753 30.735 18.5467 30.735C15.6599 30.735 13.3861 29.8875 11.7054 28.1925C10.0445 26.4974 9.21404 24.186 9.21404 21.239C9.21404 17.8874 10.3015 15.1715 12.4963 13.1298C14.6911 11.0687 17.5383 10.0479 21.0776 10.0479C22.4815 10.0479 24.0237 10.1827 25.7242 10.4331C27.4048 10.7028 28.8087 11.011 29.8962 11.3769L29.3426 23.0496C29.3426 25.2647 29.9555 26.3626 31.2012 26.3626C32.2491 26.3626 33.0796 25.6114 33.6925 24.1282C34.3055 22.6451 34.6219 20.6996 34.6219 18.2919C34.6219 15.7301 34.0682 13.4765 32.9807 11.5118C31.8932 9.54706 30.351 8.04464 28.3539 7.0045C26.3767 5.96436 24.1028 5.4443 21.5522 5.4443C18.2501 5.4443 15.3831 6.0992 12.9511 7.42826C10.519 8.75732 8.66041 10.645 7.35541 13.149C6.05042 15.6338 5.39792 18.5231 5.39792 21.7783C5.39792 26.17 6.60405 29.5408 9.01631 31.8907C11.4286 34.2407 14.9086 35.4156 19.4958 35.4156C21.2358 35.4156 23.134 35.223 25.2101 34.8571C27.2862 34.4911 29.3228 33.9325 31.3396 33.2198V37.8041C27.8398 39.2487 23.9644 39.9807 19.7133 39.9807C13.5047 39.9807 8.66041 38.382 5.2002 35.2038C1.72022 32.0256 0 27.5954 0 21.9324C0 18.003 0.889768 14.4396 2.64953 11.2228C4.42907 8.02538 6.94019 5.50208 10.2224 3.69147C13.5047 1.8616 17.2615 0.956299 21.5324 0.956299C25.131 0.956299 28.3342 1.66899 31.1616 3.09436C33.9891 4.51973 36.1641 6.56148 37.7064 9.20035C39.2486 11.8392 40 14.8826 40 18.3304V18.369ZM14.9086 21.3545C14.9086 24.7061 16.3124 26.3819 19.1201 26.3819C20.5833 26.3819 21.7103 25.8811 22.4815 24.8602C23.2526 23.8586 23.7074 22.2021 23.8853 19.9292L24.2017 14.6514C23.3712 14.4781 22.4221 14.3818 21.3742 14.3818C19.3376 14.3818 17.736 14.9981 16.609 16.2502C15.482 17.4829 14.9086 19.178 14.9086 21.3353V21.3545Z" fill="#7C8C38"/>
</g>
<defs>
<clipPath id="clip0_30_455">
<rect width="40" height="40" fill="white"/>
</clipPath>
</defs>
</svg>
