<svg width="112" height="40" viewBox="0 0 112 40" fill="none" xmlns="http://www.w3.org/2000/svg">
<path d="M61.4 16.68V18.18H69.62V16.68H61.4ZM53.02 26.16V27.66H70.98V26.16H53.02ZM60.54 10.5V26.96H62.12V10.5H60.54ZM72.88 18.38V20.02H91.18V18.38H72.88ZM97.08 18.62H107.18V20.46H97.08V18.62ZM97.08 21.62H107.18V23.46H97.08V21.62ZM97.08 15.66H107.18V17.46H97.08V15.66ZM95.52 14.46V24.66H108.78V14.46H95.52ZM103.48 25.98C105.82 26.78 108.2 27.84 109.62 28.62L111.02 27.6C109.46 26.82 106.9 25.78 104.54 25L103.48 25.98ZM93.62 11.24V12.62H110.32V11.24H93.62ZM101.24 11.82C101.12 12.74 100.82 14.08 100.54 14.96L101.96 15.22C102.28 14.4 102.66 13.18 103 12.04L101.24 11.82ZM99.18 24.9C97.8 25.82 95.06 26.86 92.9 27.44C93.24 27.76 93.7 28.28 93.94 28.6C96.08 28 98.8 26.94 100.54 25.88L99.18 24.9Z" fill="#4C4C4C"/>
<path d="M20 40C31.0457 40 40 31.0457 40 20C40 8.9543 31.0457 0 20 0C8.9543 0 0 8.9543 0 20C0 31.0457 8.9543 40 20 40Z" fill="#7C8C38"/>
<path d="M8.33075 18.6072C8.33075 18.6072 8.28695 18.6598 8.26943 18.6861C8.24315 18.7123 8.22562 18.7474 8.19934 18.7824C8.18182 18.8175 8.15554 18.8525 8.13802 18.8788C8.1205 18.9051 8.10298 18.9314 8.08546 18.9664C8.06794 19.0014 8.05042 19.0365 8.0329 19.0715C8.01538 19.0978 8.00661 19.1328 7.98909 19.1591C7.97157 19.1942 7.96281 19.2292 7.95405 19.2642C7.94529 19.2993 7.92777 19.3256 7.91901 19.3606C7.91025 19.3957 7.90149 19.4307 7.89273 19.4657C7.89273 19.5008 7.87521 19.5358 7.86645 19.5621C7.86645 19.6059 7.84893 19.6497 7.84893 19.6935C7.84893 19.7198 7.84017 19.7461 7.84017 19.7724C7.82265 19.9213 7.82265 20.0614 7.84017 20.2104C7.84017 20.2367 7.84017 20.2629 7.84893 20.2892C7.84893 20.333 7.85769 20.3768 7.86645 20.4206C7.86645 20.4557 7.88397 20.4907 7.89273 20.517C7.90149 20.552 7.91025 20.5871 7.91901 20.6221C7.92777 20.6572 7.94529 20.6834 7.95405 20.7185C7.96281 20.7535 7.98033 20.7886 7.98909 20.8236C7.99785 20.8586 8.01538 20.8849 8.0329 20.9112C8.05042 20.9462 8.06794 20.9813 8.08546 21.0163C8.10298 21.0426 8.1205 21.0689 8.13802 21.1039C8.15554 21.139 8.17306 21.174 8.19934 21.2003C8.21686 21.2353 8.24315 21.2616 8.26943 21.2967C8.28695 21.3229 8.30447 21.3492 8.33075 21.3755C8.37455 21.4281 8.42711 21.4894 8.47968 21.5332L15.4792 28.5328C16.3378 29.3913 17.7307 29.3913 18.5892 28.5328C19.4477 27.6742 19.4477 26.2813 18.5892 25.4228L15.3478 22.1815H29.9689C31.1866 22.1815 32.1678 21.1915 32.1678 19.9826C32.1678 18.7737 31.1779 17.7837 29.9689 17.7837H15.3478L18.5892 14.5424C19.4477 13.6839 19.4477 12.291 18.5892 11.4324C18.1599 11.0032 17.5993 10.7842 17.0298 10.7842C16.4604 10.7842 15.8997 11.0032 15.4705 11.4324L8.47092 18.432C8.41835 18.4846 8.37455 18.5371 8.32199 18.5897L8.33075 18.6072Z" fill="white"/>
</svg>
