<svg width="112" height="40" viewBox="0 0 112 40" fill="none" xmlns="http://www.w3.org/2000/svg">
<path d="M1.1 11.68V13.2H18.9V11.68H1.1ZM8.8 12.88V28.58H10.38V12.88H8.8ZM9.68 17.62C12.1 18.86 15.22 20.76 16.76 22L17.82 20.64C16.22 19.44 13.06 17.62 10.66 16.46L9.68 17.62ZM20.88 18.38V20.02H39.18V18.38H20.88ZM45.08 18.62H55.18V20.46H45.08V18.62ZM45.08 21.62H55.18V23.46H45.08V21.62ZM45.08 15.66H55.18V17.46H45.08V15.66ZM43.52 14.46V24.66H56.78V14.46H43.52ZM51.48 25.98C53.82 26.78 56.2 27.84 57.62 28.62L59.02 27.6C57.46 26.82 54.9 25.78 52.54 25L51.48 25.98ZM41.62 11.24V12.62H58.32V11.24H41.62ZM49.24 11.82C49.12 12.74 48.82 14.08 48.54 14.96L49.96 15.22C50.28 14.4 50.66 13.18 51 12.04L49.24 11.82ZM47.18 24.9C45.8 25.82 43.06 26.86 40.9 27.44C41.24 27.76 41.7 28.28 41.94 28.6C44.08 28 46.8 26.94 48.54 25.88L47.18 24.9Z" fill="#4C4C4C"/>
<path d="M92 40C80.9543 40 72 31.0457 72 20C72 8.9543 80.9543 0 92 0C103.046 0 112 8.9543 112 20C112 31.0457 103.046 40 92 40Z" fill="#7C8C38"/>
<path d="M103.669 18.6072C103.669 18.6072 103.713 18.6598 103.73 18.6861C103.757 18.7123 103.774 18.7474 103.801 18.7824C103.818 18.8175 103.844 18.8525 103.862 18.8788C103.879 18.9051 103.897 18.9314 103.914 18.9664C103.932 19.0014 103.949 19.0365 103.967 19.0715C103.985 19.0978 103.993 19.1328 104.011 19.1591C104.028 19.1942 104.037 19.2292 104.046 19.2642C104.055 19.2993 104.072 19.3256 104.081 19.3606C104.09 19.3957 104.098 19.4307 104.107 19.4657C104.107 19.5008 104.125 19.5358 104.133 19.5621C104.133 19.6059 104.151 19.6497 104.151 19.6935C104.151 19.7198 104.16 19.7461 104.16 19.7724C104.177 19.9213 104.177 20.0614 104.16 20.2104C104.16 20.2367 104.16 20.2629 104.151 20.2892C104.151 20.333 104.142 20.3768 104.133 20.4206C104.133 20.4557 104.116 20.4907 104.107 20.517C104.098 20.552 104.09 20.5871 104.081 20.6221C104.072 20.6572 104.055 20.6834 104.046 20.7185C104.037 20.7535 104.02 20.7886 104.011 20.8236C104.002 20.8586 103.985 20.8849 103.967 20.9112C103.949 20.9462 103.932 20.9813 103.914 21.0163C103.897 21.0426 103.879 21.0689 103.862 21.1039C103.844 21.139 103.827 21.174 103.801 21.2003C103.783 21.2353 103.757 21.2616 103.73 21.2967C103.713 21.3229 103.695 21.3492 103.669 21.3755C103.625 21.4281 103.573 21.4894 103.52 21.5332L96.5206 28.5328C95.6621 29.3913 94.2692 29.3913 93.4107 28.5328C92.5522 27.6742 92.5522 26.2813 93.4107 25.4228L96.652 22.1815H82.0309C80.8132 22.1815 79.8321 21.1915 79.8321 19.9826C79.8321 18.7737 80.822 17.7837 82.0309 17.7837H96.652L93.4107 14.5424C92.5522 13.6839 92.5522 12.291 93.4107 11.4324C93.84 11.0032 94.4006 10.7842 94.97 10.7842C95.5395 10.7842 96.1001 11.0032 96.5294 11.4324L103.529 18.432C103.582 18.4846 103.625 18.5371 103.678 18.5897L103.669 18.6072Z" fill="white"/>
</svg>
