<svg width="40" height="40" viewBox="0 0 40 40" fill="none" xmlns="http://www.w3.org/2000/svg">
<g clip-path="url(#clip0_30_473)">
<path d="M38.9451 19.9773H1.05492C0.472304 19.9773 0 20.4219 0 20.9704C0 21.5189 0.472304 21.9635 1.05492 21.9635H38.9451C39.5277 21.9635 40 21.5189 40 20.9704C40 20.4219 39.5277 19.9773 38.9451 19.9773Z" fill="#7C8C38"/>
<path d="M38.1568 0H1.84321C0.825234 0 0 0.777804 0 1.73727C0 2.69674 0.825234 3.47455 1.84321 3.47455H38.1568C39.1748 3.47455 40 2.69674 40 1.73727C40 0.777804 39.1748 0 38.1568 0Z" fill="#7C8C38"/>
<path d="M38.4118 36.0259H1.58818C0.71105 36.0259 0 36.6971 0 37.5251V37.5306C0 38.3586 0.71105 39.0299 1.58818 39.0299H38.4118C39.2889 39.0299 40 38.3586 40 37.5306V37.5251C40 36.6971 39.2889 36.0259 38.4118 36.0259Z" fill="#7C8C38"/>
<path d="M7.55835 37.0546L7.55835 22.2153C7.55835 21.5414 6.97965 20.9951 6.26578 20.9951H5.66877C4.9549 20.9951 4.3762 21.5414 4.3762 22.2153V37.0546C4.3762 37.7285 4.9549 38.2748 5.66877 38.2748H6.26578C6.97965 38.2748 7.55835 37.7285 7.55835 37.0546Z" fill="#7C8C38"/>
<path d="M14.5776 37.0603L14.5776 22.2209C14.5776 21.547 13.9989 21.0007 13.2851 21.0007H12.6881C11.9742 21.0007 11.3955 21.547 11.3955 22.2209V37.0603C11.3955 37.7342 11.9742 38.2805 12.6881 38.2805H13.2851C13.9989 38.2805 14.5776 37.7342 14.5776 37.0603Z" fill="#7C8C38"/>
<path d="M21.5911 37.0603V22.2209C21.5911 21.547 21.0124 21.0007 20.2985 21.0007H19.7015C18.9876 21.0007 18.4089 21.547 18.4089 22.2209V37.0603C18.4089 37.7342 18.9876 38.2805 19.7015 38.2805H20.2985C21.0124 38.2805 21.5911 37.7342 21.5911 37.0603Z" fill="#7C8C38"/>
<path d="M28.6046 37.0546V22.2153C28.6046 21.5414 28.0259 20.9951 27.312 20.9951H26.715C26.0012 20.9951 25.4225 21.5414 25.4225 22.2153V37.0546C25.4225 37.7285 26.0012 38.2748 26.715 38.2748H27.312C28.0259 38.2748 28.6046 37.7285 28.6046 37.0546Z" fill="#7C8C38"/>
<path d="M35.618 37.0546V22.2153C35.618 21.5414 35.0393 20.9951 34.3255 20.9951H33.7285C33.0146 20.9951 32.4359 21.5414 32.4359 22.2153V37.0546C32.4359 37.7285 33.0146 38.2748 33.7285 38.2748H34.3255C35.0393 38.2748 35.618 37.7285 35.618 37.0546Z" fill="#7C8C38"/>
<path d="M35.5137 20.3549H33.9371V4.31173C33.9371 2.88908 32.7605 1.73455 31.3114 1.73455H9.38417C7.93511 1.73455 6.75847 2.88908 6.75847 4.31173V20.3549H5.18188V4.31173C5.18188 2.0738 7.06567 0.251709 9.38417 0.251709H31.3172C33.6299 0.251709 35.5137 2.0738 35.5137 4.31173V20.3549Z" fill="#7C8C38"/>
</g>
<defs>
<clipPath id="clip0_30_473">
<rect width="40" height="40" fill="white"/>
</clipPath>
</defs>
</svg>
