<svg width="40" height="40" viewBox="0 0 40 40" fill="none" xmlns="http://www.w3.org/2000/svg">
<g clip-path="url(#clip0_30_452)">
<path d="M40 29.0904C40 29.0626 40 29.0349 40 29.0071V26.363H39.9908C39.9083 24.2466 38.8588 22.4302 37.3602 21.5637L34.0926 12.5427C34.0788 12.4983 34.0605 12.4594 34.0422 12.4205V5.55478C34.0422 2.48854 31.9844 0 29.4592 0H10.5454C8.01558 0 5.96242 2.4941 5.96242 5.55478V12.4205C5.94409 12.4594 5.92576 12.4983 5.91201 12.5371L2.62603 21.5692C1.13657 22.4469 0.091659 24.2522 0.0091659 26.363H0V40H1.83318V33.362H38.1622V40H39.9954V29.146C39.9954 29.146 39.9954 29.1126 39.9954 29.0904H40ZM7.7956 5.55478C7.7956 3.71615 9.02841 2.22191 10.5454 2.22191H29.45C30.967 2.22191 32.1998 3.71615 32.1998 5.55478V11.8761H27.2502C27.2548 11.7817 27.264 11.6873 27.264 11.5928V7.31565C27.264 5.4548 26.0128 3.93834 24.4775 3.93834H15.9349C14.3996 3.93834 13.1485 5.4548 13.1485 7.31565V11.5928C13.1485 11.6873 13.1531 11.7817 13.1622 11.8761H7.79102V5.55478H7.7956ZM1.83318 31.1401V26.6296C1.83318 24.7577 3.08891 23.2301 4.63795 23.2301H35.3575C36.9019 23.2301 38.1622 24.7521 38.1622 26.6296V31.1401H1.83318Z" fill="#7C8C38"/>
</g>
<defs>
<clipPath id="clip0_30_452">
<rect width="40" height="40" fill="white"/>
</clipPath>
</defs>
</svg>
