<svg width="40" height="40" viewBox="0 0 40 40" fill="none" xmlns="http://www.w3.org/2000/svg">
<g clip-path="url(#clip0_30_466)">
<path d="M15.0043 36.4531V36.9222C15.0043 38.627 17.0644 40 19.6223 40H20.3948C22.9528 40 25.0129 38.627 25.0129 36.9222V36.4531H15.0043V36.4531Z" fill="#7C8C38"/>
<path d="M39.691 26.9336C36.6524 24.1076 35.0043 20.7094 35.0043 17.2197V14.2334C35.0043 9.43936 30.1116 5.20595 23.3305 4.15332V2.04805C23.3305 0.915332 21.9571 0 20.2575 0H19.7425C18.0429 0 16.6695 0.915332 16.6695 2.04805V4.14188C9.99142 5.14874 4.99571 9.13044 4.99571 13.8787V17.2082C4.99571 20.6979 3.34764 24.0961 0.309013 26.9222C0.103004 27.1053 0 27.3227 0 27.5515V32.7574C0 33.3753 0.738197 33.8673 1.66524 33.8673H38.3348C39.2618 33.8673 40 33.3753 40 32.7574V27.5515C40 27.3227 39.8798 27.1053 39.691 26.9222V26.9336Z" fill="#7C8C38"/>
</g>
<defs>
<clipPath id="clip0_30_466">
<rect width="40" height="40" fill="white"/>
</clipPath>
</defs>
</svg>
