<svg width="14" height="40" viewBox="0 0 14 40" fill="none" xmlns="http://www.w3.org/2000/svg">
<g clip-path="url(#clip0_30_560)">
<path d="M13.3762 27.7301C13.8162 25.8069 13.9952 23.1223 14 20.5943C11.9737 20.9816 9.5171 20.9815 6.74611 20.0548C3.96546 19.1236 1.38791 20.2854 0 21.1382C0.0290155 23.5008 0.212781 25.9418 0.623834 27.7301C1.12677 29.9491 1.238 30.6453 0.904318 32.0202C0.575475 33.3908 -0.00967184 35.0051 0.560967 37.446C1.09292 39.726 3.02729 40.0001 3.02729 40.0001H10.9775C10.9775 40.0001 12.9071 39.726 13.439 37.446C14 35.0051 13.4197 33.3908 13.0908 32.0202C12.762 30.6453 12.8732 29.9491 13.3762 27.7301V27.7301Z" fill="#7C8C38"/>
<path d="M7.46661 18.3099C9.98129 19.1496 12.1961 19.08 13.9758 18.671C13.9274 17.2613 13.8259 15.9864 13.6904 15.0422C13.2504 12.0791 11.6739 10.2212 10.9195 8.82452C9.66696 6.51845 9.65245 3.66414 9.65245 3.66414H10.3488V2.56766L10.0925 2.39797V0.174571C10.0925 0.174571 8.95608 -0.0473341 6.99753 0.00922988C5.04381 -0.0473341 3.90737 0.174571 3.90737 0.174571V2.39362L3.65107 2.56331V3.65979H4.34744C4.34744 3.65979 4.33777 6.51409 3.08526 8.82017C2.33086 10.2212 0.749512 12.0791 0.314278 15.0379C0.169201 16.043 0.0628104 17.4222 0.0192871 18.9408C1.85694 18.0575 4.52153 17.3265 7.46661 18.3099V18.3099Z" fill="#7C8C38"/>
</g>
<defs>
<clipPath id="clip0_30_560">
<rect width="14" height="40" fill="white"/>
</clipPath>
</defs>
</svg>
