<svg width="32" height="40" viewBox="0 0 32 40" fill="none" xmlns="http://www.w3.org/2000/svg">
<g clip-path="url(#clip0_31_4)">
<path d="M31.7941 1.50294C31.6625 1.39484 31.4909 1.33822 31.3136 1.35881L26.4569 1.75516C26.3769 1.02424 25.7019 0.452881 24.8724 0.452881C23.4022 0.452881 22.201 1.52868 22.201 2.85669V12.3175C22.201 12.3175 22.201 12.3535 22.201 12.369C22.3955 14.2581 22.8702 15.8898 23.6654 17.3465C21.9836 22.7512 21.3086 29.3501 21.6118 37.5086C21.6632 38.9087 22.916 39.9999 24.472 39.9999C25.2557 39.9999 26.0165 39.7014 26.5542 39.1866C27.0919 38.6719 27.3722 37.9667 27.3207 37.2615C26.7716 29.5714 26.4684 23.2247 27.9614 17.4134C27.9957 17.2795 27.9729 17.1406 27.9042 17.017C26.9718 15.4522 26.5027 13.908 26.4741 12.3072V12.0241L31.3136 12.4205C31.3136 12.4205 31.3536 12.4205 31.3708 12.4205C31.5252 12.4205 31.6797 12.369 31.7941 12.2712C31.9257 12.1631 32 12.0138 32 11.8542V1.91987C32 1.76031 31.9257 1.61103 31.7941 1.50294V1.50294ZM26.4741 10.8968V2.88757L30.7415 2.53755V3.86557L27.807 4.06632C27.4637 4.09205 27.2006 4.35971 27.2292 4.6737C27.2521 4.97225 27.5267 5.19358 27.8527 5.19358C27.8699 5.19358 27.887 5.19358 27.8985 5.19358L30.7415 4.99798V11.2469L26.4741 10.8968Z" fill="#7C8C38"/>
<path d="M14.793 35.7071H14.0036C15.2621 27.6772 15.7598 18.8238 15.4223 10.0373C15.4223 10.027 15.4166 10.0167 15.4166 10.0064C15.4166 9.95492 15.3994 9.90859 15.3765 9.85712C15.3708 9.84168 15.3651 9.82624 15.3594 9.8108C15.3308 9.75417 15.2907 9.7027 15.2392 9.65638L11.9614 6.70695C12.0415 6.52164 12.0816 6.31575 12.0472 6.115L11.2349 0.715441C11.2006 0.473516 10.9947 0.277917 10.7258 0.236738C8.82093 -0.0721021 6.83023 -0.0772494 4.81664 0.236738C4.54778 0.277917 4.33612 0.473516 4.3018 0.715441L3.4895 6.115C3.4609 6.3209 3.4895 6.52164 3.57531 6.70695L0.286071 9.65638C0.234587 9.7027 0.200265 9.75417 0.165943 9.8108C0.160222 9.82624 0.154502 9.84168 0.148781 9.85712C0.13162 9.90345 0.114459 9.95492 0.108738 10.0012C0.108738 10.0115 0.103018 10.0218 0.103018 10.0321C-0.228766 18.6025 0.26319 27.461 1.52168 35.7019H0.726543C0.377598 35.7019 0.0972975 35.9541 0.0972975 36.2681V38.9808C0.0972975 39.2948 0.377598 39.547 0.726543 39.547H14.793C15.142 39.547 15.4223 39.2948 15.4223 38.9808V36.2681C15.4223 35.9541 15.142 35.7019 14.793 35.7019V35.7071ZM5.47449 1.28165C7.03044 1.0809 8.56923 1.0809 10.0508 1.28165L10.8059 6.26428C10.8059 6.26428 10.8059 6.29001 10.7888 6.3106C10.7716 6.33119 10.7487 6.33119 10.743 6.33119H6.72726L7.33362 2.39862C7.37938 2.08978 7.13913 1.80668 6.7959 1.76035C6.45268 1.71917 6.13806 1.93536 6.08657 2.2442L5.45733 6.33119H4.78232C4.78232 6.33119 4.75371 6.33119 4.73655 6.3106C4.71939 6.29001 4.71939 6.27457 4.71939 6.26942L5.46877 1.2868L5.47449 1.28165ZM4.50774 7.45846H11.0176L13.2771 9.49166H2.24245L4.50202 7.45846H4.50774ZM12.4706 18.8238C12.3504 18.9319 12.1903 18.9885 12.0244 18.9885C11.8585 18.9885 11.704 18.9319 11.5782 18.8238C9.47306 16.9296 6.04653 16.9296 3.94142 18.8238C3.69544 19.0451 3.30073 19.0451 3.05475 18.8238C2.80877 18.6025 2.80877 18.2473 3.05475 18.026C5.65182 15.6891 9.87349 15.6891 12.4648 18.026C12.7108 18.2473 12.7108 18.6025 12.4648 18.8238H12.4706ZM12.4706 26.4933C11.172 27.6618 9.46734 28.2434 7.76265 28.2434C6.05797 28.2434 4.35329 27.6618 3.05475 26.4933C2.80877 26.272 2.80877 25.9168 3.05475 25.6955C3.30073 25.4742 3.69544 25.4742 3.94142 25.6955C6.04653 27.5897 9.47306 27.5897 11.5782 25.6955C11.8241 25.4742 12.2189 25.4742 12.4648 25.6955C12.7108 25.9168 12.7108 26.272 12.4648 26.4933H12.4706ZM14.1695 38.4197H1.35579V36.8395H14.1638V38.4197H14.1695Z" fill="#7C8C38"/>
</g>
<defs>
<clipPath id="clip0_31_4">
<rect width="32" height="40" fill="white"/>
</clipPath>
</defs>
</svg>
