<svg width="40" height="36" viewBox="0 0 40 36" fill="none" xmlns="http://www.w3.org/2000/svg">
<g clip-path="url(#clip0_30_460)">
<path d="M33.449 5.07567H31.1224L27.7959 0.568318C27.5306 0.215569 27.102 0 26.6531 0H13.3469C12.898 0 12.4694 0.215569 12.2041 0.568318L8.87755 5.07567H6.55102C2.93878 5.07567 0 7.91726 0 11.3664V29.6897C0 33.1584 2.95918 35.9804 6.55102 35.9804H33.449C37.0612 35.9804 40 33.1388 40 29.6897V11.3664C40 7.89766 37.0408 5.07567 33.449 5.07567ZM20 29.6701C14.6531 29.6701 10.3265 25.5155 10.3265 20.3811C10.3265 15.2466 14.6531 11.092 20 11.092C25.3469 11.092 29.6735 15.2466 29.6735 20.3811C29.6735 25.5155 25.3469 29.6701 20 29.6701Z" fill="#7C8C38"/>
<path d="M20.0001 14.2471C16.4694 14.2471 13.6123 16.9907 13.6123 20.381C13.6123 23.7713 16.4694 26.5149 20.0001 26.5149C23.5307 26.5149 26.3878 23.7713 26.3878 20.381C26.3878 16.9907 23.5307 14.2471 20.0001 14.2471V14.2471Z" fill="#7C8C38"/>
</g>
<defs>
<clipPath id="clip0_30_460">
<rect width="40" height="36" fill="white"/>
</clipPath>
</defs>
</svg>
