<svg width="40" height="34" viewBox="0 0 40 34" fill="none" xmlns="http://www.w3.org/2000/svg">
<g clip-path="url(#clip0_30_490)">
<path d="M36.3315 0H3.66863C2.72006 0 1.95435 0.746885 1.95435 1.67213C1.95435 2.59738 2.72006 3.34426 3.66863 3.34426H36.3315C37.2801 3.34426 38.0458 2.59738 38.0458 1.67213C38.0458 0.746885 37.2801 0 36.3315 0Z" fill="#7C8C38"/>
<path d="M37.7143 6.1311H2.28571C1.02857 6.1311 0 7.13438 0 8.36061V31.7704C0 32.9967 1.02857 34 2.28571 34H37.7143C38.9714 34 40 32.9967 40 31.7704V8.36061C40 7.13438 38.9714 6.1311 37.7143 6.1311ZM9.14286 10.5901C11.04 10.5901 12.5714 12.0839 12.5714 13.9344C12.5714 15.7849 11.04 17.2786 9.14286 17.2786C7.24571 17.2786 5.71429 15.7849 5.71429 13.9344C5.71429 12.0839 7.24571 10.5901 9.14286 10.5901ZM12 29.2623H7.42857C6.64 29.2623 6 28.638 6 27.8688C6 27.0996 6.64 26.4754 7.42857 26.4754H12C12.7886 26.4754 13.4286 27.0996 13.4286 27.8688C13.4286 28.638 12.7886 29.2623 12 29.2623ZM22.2857 29.2623H17.7143C16.9257 29.2623 16.2857 28.638 16.2857 27.8688C16.2857 27.0996 16.9257 26.4754 17.7143 26.4754H22.2857C23.0743 26.4754 23.7143 27.0996 23.7143 27.8688C23.7143 28.638 23.0743 29.2623 22.2857 29.2623ZM32.5714 29.2623H28C27.2114 29.2623 26.5714 28.638 26.5714 27.8688C26.5714 27.0996 27.2114 26.4754 28 26.4754H32.5714C33.36 26.4754 34 27.0996 34 27.8688C34 28.638 33.36 29.2623 32.5714 29.2623ZM32.5714 15.8852H17.7143C16.9257 15.8852 16.2857 15.2609 16.2857 14.4918C16.2857 13.7226 16.9257 13.0983 17.7143 13.0983H32.5714C33.36 13.0983 34 13.7226 34 14.4918C34 15.2609 33.36 15.8852 32.5714 15.8852Z" fill="#7C8C38"/>
</g>
<defs>
<clipPath id="clip0_30_490">
<rect width="40" height="34" fill="white"/>
</clipPath>
</defs>
</svg>
