<svg width="40" height="40" viewBox="0 0 40 40" fill="none" xmlns="http://www.w3.org/2000/svg">
<g clip-path="url(#clip0_30_489)">
<path d="M14.609 33.7363C12.9197 33.7363 11.5491 35.1416 11.5491 36.8627C11.5491 38.5838 12.9197 39.9891 14.609 39.9891C16.2983 39.9891 17.6689 38.5838 17.6689 36.8627C17.6689 35.1416 16.2983 33.7363 14.609 33.7363V33.7363ZM30.0147 33.7363C28.3254 33.7363 26.9548 35.1416 26.9548 36.8627C26.9548 38.5838 28.3254 39.9891 30.0147 39.9891C31.7041 39.9891 33.0746 38.5838 33.0746 36.8627C33.0746 35.1416 31.7041 33.7363 30.0147 33.7363V33.7363Z" fill="#7C8C38"/>
<path d="M36.8888 5.95861H10.0084L9.11596 2.44009C8.86097 1.03486 7.64976 0 6.2473 0H1.85932C0.828724 0 0 0.849673 0 1.90632C0 2.96296 0.828724 3.81264 1.85932 3.81264H5.63107L10.6565 23.6601L8.6591 28.3769C8.41473 28.9651 8.46786 29.6405 8.80785 30.1852C9.14784 30.719 9.73219 31.0458 10.359 31.0458H33.7333C34.7639 31.0458 35.5926 30.1961 35.5926 29.1394C35.5926 28.0828 34.7639 27.2331 33.7333 27.2331H13.1958L14.322 24.5752C14.322 24.5752 14.3327 24.5098 14.3433 24.4771H33.6483C34.6364 24.4771 35.4864 23.78 35.7201 22.7996L38.9713 8.63834C39.29 7.26579 38.27 5.95861 36.8995 5.95861H36.8888ZM18.8375 18.0174C18.8375 18.7691 18.2425 19.3791 17.5094 19.3791C16.7763 19.3791 16.1814 18.7691 16.1814 18.0174V12.4183C16.1814 11.6667 16.7763 11.0566 17.5094 11.0566C18.2425 11.0566 18.8375 11.6667 18.8375 12.4183V18.0174ZM25.2123 18.0174C25.2123 18.7691 24.6173 19.3791 23.8842 19.3791C23.1511 19.3791 22.5562 18.7691 22.5562 18.0174V12.4183C22.5562 11.6667 23.1511 11.0566 23.8842 11.0566C24.6173 11.0566 25.2123 11.6667 25.2123 12.4183V18.0174ZM31.5871 18.0174C31.5871 18.7691 30.9921 19.3791 30.259 19.3791C29.5259 19.3791 28.931 18.7691 28.931 18.0174V12.4183C28.931 11.6667 29.5259 11.0566 30.259 11.0566C30.9921 11.0566 31.5871 11.6667 31.5871 12.4183V18.0174Z" fill="#7C8C38"/>
</g>
<defs>
<clipPath id="clip0_30_489">
<rect width="40" height="40" fill="white"/>
</clipPath>
</defs>
</svg>
