<svg width="40" height="40" viewBox="0 0 40 40" fill="none" xmlns="http://www.w3.org/2000/svg">
<g clip-path="url(#clip0_30_493)">
<path d="M39.4358 18.141C38.3219 17.5532 36.8897 16.8741 35.8915 16.3256C35.6456 16.195 35.4864 15.9991 35.4286 15.7378C33.8951 9.1293 31.3345 7.71878 26.0398 5.55075C26.0398 5.55075 26.0108 5.53769 25.9819 5.52463C25.4611 5.28955 25.2731 4.80631 25.302 4.37532L25.4611 1.54122C25.5335 0.326606 25.0705 -0.0521446 24 0.0131573C23.9711 0.0131573 23.9277 0.0131573 23.8987 0.0131573C7.42134 2.62523 8.82459 16.3647 4.39783 24.7495C3.31284 26.8 1.80832 28.3672 0 29.5557C6.98734 35.4459 16.868 39.7036 28.2098 38.9461C28.6582 35.3284 28.5425 31.6715 27.7613 28.0538C27.7034 27.7795 27.7613 27.5314 27.9638 27.3224C28.1519 27.1134 28.4123 26.9959 28.7161 26.9959C33.7939 26.9306 38.4376 24.1095 39.9132 19.7735C39.9132 19.7474 39.9277 19.7213 39.9421 19.6951C40.1302 18.8854 39.7396 18.3369 39.4213 18.1671L39.4358 18.141ZM28.2821 18.0495C27.038 17.9973 26.0976 17.0439 26.1555 15.9207C26.2134 14.8106 27.2694 13.9486 28.5136 14.0008C29.7432 14.0531 30.698 15.0065 30.6401 16.1297C30.5823 17.2398 29.5262 18.1018 28.2821 18.0495V18.0495Z" fill="#7C8C38"/>
</g>
<defs>
<clipPath id="clip0_30_493">
<rect width="40" height="40" fill="white"/>
</clipPath>
</defs>
</svg>
