<svg width="40" height="32" viewBox="0 0 40 32" fill="none" xmlns="http://www.w3.org/2000/svg">
<g clip-path="url(#clip0_30_555)">
<path d="M38.9895 30.5912L37.2486 25.8343C37.1519 25.5612 37.181 25.2705 37.326 25.015C38.6316 22.6982 39.1732 19.9674 38.6123 17.0868C37.7419 12.6734 34.1925 9.00004 29.589 7.59058C30.7786 10.2069 31.1364 13.1139 30.5464 15.9945C29.3375 21.8525 24.1924 26.5038 17.732 27.552C16.9002 27.693 16.0492 27.7546 15.2078 27.7723C17.171 29.7015 19.792 31.0669 22.7127 31.5514C25.8559 32.0623 28.8443 31.5866 31.3782 30.415C31.6586 30.2829 31.9778 30.2564 32.2679 30.3445L37.5098 31.939C38.4285 32.2209 39.299 31.4192 38.9992 30.5824L38.9895 30.5912Z" fill="#7C8C38"/>
<path d="M12.1808 1.0013C6.73587 1.92626 2.37411 5.95203 1.39731 10.9204C0.826705 13.801 1.3683 16.5318 2.68359 18.8486C2.82866 19.104 2.85768 19.3947 2.76096 19.6678L1.01046 24.4247C0.700978 25.2616 1.58107 26.0544 2.49984 25.7814L7.74168 24.1869C8.04149 24.0988 8.35097 24.1252 8.63144 24.2574C11.1653 25.429 14.1538 25.9047 17.2969 25.3938C22.7322 24.504 27.152 20.5399 28.1675 15.598C29.9567 6.87699 21.7457 -0.619573 12.1808 1.0013ZM15.6431 17.0427H8.87322C8.2059 17.0427 7.66431 16.5494 7.66431 15.9416C7.66431 15.3337 8.2059 14.8404 8.87322 14.8404H15.6431C16.3105 14.8404 16.852 15.3337 16.852 15.9416C16.852 16.5494 16.3105 17.0427 15.6431 17.0427V17.0427ZM20.4788 12.6381H8.87322C8.2059 12.6381 7.66431 12.1448 7.66431 11.537C7.66431 10.9292 8.2059 10.4359 8.87322 10.4359H20.4788C21.1461 10.4359 21.6877 10.9292 21.6877 11.537C21.6877 12.1448 21.1461 12.6381 20.4788 12.6381Z" fill="#7C8C38"/>
</g>
<defs>
<clipPath id="clip0_30_555">
<rect width="40" height="32" fill="white" transform="translate(0 0.000488281)"/>
</clipPath>
</defs>
</svg>
