<svg width="34" height="34" viewBox="0 0 34 34" fill="none" xmlns="http://www.w3.org/2000/svg">
<path d="M34 30.2222C34 32.3085 32.3085 34 30.2222 34H3.77778C1.6915 34 0 32.3085 0 30.2222V3.77778C0 1.6915 1.6915 0 3.77778 0H30.2222C32.3085 0 34 1.6915 34 3.77778V30.2222Z" fill="#7C8C38"/>
<path d="M27.6532 6.00846C26.5614 5.29918 25.0994 5.6099 24.3873 6.70357L14.1061 22.5504L9.35647 18.1587C8.39881 17.2728 6.9047 17.3323 6.01975 18.2891C5.13481 19.2467 5.19336 20.7408 6.15103 21.6258L12.9595 27.9215C13.4129 28.3417 13.989 28.5495 14.5613 28.5495C15.1969 28.5495 16.0101 28.2832 16.5437 27.4738C16.8573 26.9959 28.3493 9.27435 28.3493 9.27435C29.0585 8.17974 28.7469 6.71774 27.6532 6.00846V6.00846Z" fill="white"/>
</svg>
