<svg width="40" height="40" viewBox="0 0 40 40" fill="none" xmlns="http://www.w3.org/2000/svg">
<g clip-path="url(#clip0_30_454)">
<path d="M9.74725 18.142H8.21207C7.18862 18.142 6.36011 18.9705 6.36011 19.994C6.36011 21.0174 7.18862 21.8459 8.21207 21.8459H9.74725C10.7707 21.8459 11.5992 21.0174 11.5992 19.994C11.5992 18.9705 10.7707 18.142 9.74725 18.142ZM20.0062 11.587C21.0296 11.587 21.8581 10.7585 21.8581 9.73505V8.19986C21.8581 7.17641 21.0296 6.3479 20.0062 6.3479C18.9827 6.3479 18.1542 7.17641 18.1542 8.19986V9.73505C18.1542 10.7585 18.9827 11.587 20.0062 11.587ZM31.8003 18.142H30.2651C29.2416 18.142 28.4131 18.9705 28.4131 19.994C28.4131 21.0174 29.2416 21.8459 30.2651 21.8459H31.8003C32.8237 21.8459 33.6522 21.0174 33.6522 19.994C33.6522 18.9705 32.8237 18.142 31.8003 18.142ZM20.0062 33.64C21.0296 33.64 21.8581 32.8115 21.8581 31.788V30.2529C21.8581 29.2294 21.0296 28.4009 20.0062 28.4009C18.9827 28.4009 18.1542 29.2294 18.1542 30.2529V31.788C18.1542 32.8115 18.9827 33.64 20.0062 33.64Z" fill="#7C8C38"/>
<path d="M40 19.9939C40 8.95522 31.0448 0 19.9939 0C8.94304 0 0 8.95522 0 19.9939C0 31.0326 8.95522 39.9878 19.9939 39.9878C31.0326 39.9878 39.9878 31.0326 39.9878 19.9939H40ZM20.0061 35.5528C11.4286 35.5528 4.44715 28.5714 4.44715 19.9939C4.44715 11.4164 11.4164 4.44715 19.9939 4.44715C28.5714 4.44715 35.5528 11.4286 35.5528 20.0061C35.5528 28.5836 28.5714 35.565 19.9939 35.565L20.0061 35.5528ZM26.488 11.2214L20.2498 17.4596C20.1645 17.4596 20.0792 17.4353 19.9939 17.4353C19.799 17.4353 19.604 17.4596 19.4091 17.4962L14.5964 12.6835C13.8775 11.9647 12.6957 11.9647 11.9768 12.6835C11.258 13.4024 11.258 14.5842 11.9768 15.3031L16.9479 20.2741C16.9479 20.3594 16.9235 20.4447 16.9235 20.53C16.9235 22.2236 18.3003 23.6125 20.0061 23.6125C21.7118 23.6125 23.0886 22.2358 23.0886 20.53C23.0886 20.3351 23.0643 20.1401 23.0277 19.9452L29.1075 13.8654C29.8264 13.1465 29.8264 11.9647 29.1075 11.2458C28.3887 10.527 27.2068 10.527 26.488 11.2458V11.2214Z" fill="#7C8C38"/>
</g>
<defs>
<clipPath id="clip0_30_454">
<rect width="40" height="40" fill="white"/>
</clipPath>
</defs>
</svg>
