<svg width="40" height="32" viewBox="0 0 40 32" fill="none" xmlns="http://www.w3.org/2000/svg">
<g clip-path="url(#clip0_30_448)">
<path d="M37.8959 0H8.42195C7.84347 0 7.36708 0.502269 7.36708 1.12557V2.25113H5.0078C2.24585 2.24508 0 4.6475 0 7.59455C0 13.2103 4.28187 17.7731 9.5392 17.7731H10.3956C11.5752 19.4977 13.0498 20.9743 14.7455 22.112C15.3977 22.5537 15.7834 23.3222 15.7834 24.1452C15.7834 24.4539 16.0216 24.708 16.3108 24.708H29.9957C30.285 24.708 30.5232 24.4539 30.5232 24.1452C30.5232 23.3222 30.9088 22.5537 31.561 22.112C35.996 19.1286 38.9395 13.8638 38.9395 7.86082V1.12557C38.9395 0.502269 38.4687 0 37.8846 0H37.8959ZM3.15894 7.59455C3.15894 6.50529 3.99263 5.61573 5.01347 5.61573H7.37275V7.86082C7.37275 10.1483 7.80377 12.3268 8.58075 14.3177C5.51822 13.8154 3.16461 10.9955 3.16461 7.59455H3.15894ZM35.2077 5.78517C35.2077 10.3238 33.512 14.5477 30.4268 17.6823C30.1716 17.9425 29.8426 18.0696 29.5194 18.0696C29.1734 18.0696 28.8274 17.9244 28.5666 17.6339C28.0675 17.0711 28.0845 16.1815 28.6119 15.649C31.1697 13.0529 32.5762 9.54917 32.5762 5.78517V5.46445C32.5762 4.68986 33.166 4.06051 33.892 4.06051C34.6179 4.06051 35.2077 4.68986 35.2077 5.46445V5.78517V5.78517Z" fill="#7C8C38"/>
<path d="M37.8959 27.5037H8.42194C7.25931 27.5037 6.31787 28.5082 6.31787 29.7487C6.31787 30.9893 7.25931 31.9938 8.42194 31.9938H37.8959C39.0585 31.9938 40 30.9893 40 29.7487C40 28.5082 39.0585 27.5037 37.8959 27.5037Z" fill="#7C8C38"/>
</g>
<defs>
<clipPath id="clip0_30_448">
<rect width="40" height="32" fill="white"/>
</clipPath>
</defs>
</svg>
