<svg width="20" height="16" viewBox="0 0 20 16" fill="none" xmlns="http://www.w3.org/2000/svg">
<g clip-path="url(#clip0_1523_35158)">
<path d="M14.8953 0H4.61686C2.07958 0 0 2.00276 0 4.44633V8.94057C0 11.3841 2.07958 13.3869 4.61686 13.3869H12.2984L13.761 15.2076C14.0695 15.5813 14.6764 15.5142 14.8854 15.083L15.7311 13.3102C17.8804 12.9365 19.5221 11.1158 19.5221 8.94057V4.44633C19.5221 2.00276 17.4426 0 14.9053 0H14.8953ZM4.61686 8.06855C3.9104 8.06855 3.34324 7.52234 3.34324 6.84198C3.34324 6.16161 3.9104 5.6154 4.61686 5.6154C5.32332 5.6154 5.89047 6.16161 5.89047 6.84198C5.89047 7.52234 5.32332 8.06855 4.61686 8.06855ZM9.79092 8.06855C9.08446 8.06855 8.51731 7.52234 8.51731 6.84198C8.51731 6.16161 9.08446 5.6154 9.79092 5.6154C10.4974 5.6154 11.0645 6.16161 11.0645 6.84198C11.0645 7.52234 10.4974 8.06855 9.79092 8.06855ZM14.965 8.06855C14.2585 8.06855 13.6914 7.52234 13.6914 6.84198C13.6914 6.16161 14.2585 5.6154 14.965 5.6154C15.6714 5.6154 16.2386 6.16161 16.2386 6.84198C16.2386 7.52234 15.6714 8.06855 14.965 8.06855V8.06855Z" fill="#B18042"/>
</g>
<defs>
<clipPath id="clip0_1523_35158">
<rect width="20" height="15.8333" fill="white"/>
</clipPath>
</defs>
</svg>
