<svg width="40" height="32" viewBox="0 0 40 32" fill="none" xmlns="http://www.w3.org/2000/svg">
<g clip-path="url(#clip0_30_451)">
<path d="M29.7907 0H9.23371C4.15915 0 0 4.04769 0 8.98626V18.0694C0 23.0079 4.15915 27.0556 9.23371 27.0556H24.5967L27.522 30.7353C28.139 31.4906 29.3529 31.3551 29.7708 30.4836L31.4623 26.9007C35.7607 26.1454 39.0443 22.4657 39.0443 18.0694V8.98626C39.0443 4.04769 34.8851 0 29.8106 0H29.7907ZM9.23371 16.307C7.8208 16.307 6.68648 15.203 6.68648 13.828C6.68648 12.4529 7.8208 11.349 9.23371 11.349C10.6466 11.349 11.7809 12.4529 11.7809 13.828C11.7809 15.203 10.6466 16.307 9.23371 16.307ZM19.5818 16.307C18.1689 16.307 17.0346 15.203 17.0346 13.828C17.0346 12.4529 18.1689 11.349 19.5818 11.349C20.9948 11.349 22.1291 12.4529 22.1291 13.828C22.1291 15.203 20.9948 16.307 19.5818 16.307ZM29.93 16.307C28.5171 16.307 27.3827 15.203 27.3827 13.828C27.3827 12.4529 28.5171 11.349 29.93 11.349C31.3429 11.349 32.4772 12.4529 32.4772 13.828C32.4772 15.203 31.3429 16.307 29.93 16.307V16.307Z" fill="#7C8C38"/>
</g>
<defs>
<clipPath id="clip0_30_451">
<rect width="40" height="32" fill="white"/>
</clipPath>
</defs>
</svg>
