<svg width="40" height="40" viewBox="0 0 40 40" fill="none" xmlns="http://www.w3.org/2000/svg">
<g clip-path="url(#clip0_30_484)">
<path d="M38.0952 0H1.90476C0.857143 0 0 0.986301 0 2.19178V29.589C0 30.7945 0.857143 31.7808 1.90476 31.7808H16.1143L15.4 36.7123H11.9048C11.1143 36.7123 10.4762 37.4466 10.4762 38.3562C10.4762 39.2658 11.1143 40 11.9048 40H28.0952C28.8857 40 29.5238 39.2658 29.5238 38.3562C29.5238 37.4466 28.8857 36.7123 28.0952 36.7123H24.6L23.8857 31.7808H38.0952C39.1429 31.7808 40 30.7945 40 29.589V2.19178C40 0.986301 39.1429 0 38.0952 0ZM20 30.137C19.2095 30.137 18.5714 29.4027 18.5714 28.4932C18.5714 27.5836 19.2095 26.8493 20 26.8493C20.7905 26.8493 21.4286 27.5836 21.4286 28.4932C21.4286 29.4027 20.7905 30.137 20 30.137ZM36.1905 24.1096H3.80952V4.38356H36.1905V24.1096Z" fill="#7C8C38"/>
<path d="M7.38091 9.86302H10.5333C11.1904 9.86302 11.7238 9.24932 11.7238 8.49315C11.7238 7.73699 11.1904 7.12329 10.5333 7.12329H7.38091C6.72376 7.12329 6.19043 7.73699 6.19043 8.49315C6.19043 9.24932 6.72376 9.86302 7.38091 9.86302ZM14.7619 9.86302H22.3809C23.038 9.86302 23.5714 9.24932 23.5714 8.49315C23.5714 7.73699 23.038 7.12329 22.3809 7.12329H14.7619C14.1047 7.12329 13.5714 7.73699 13.5714 8.49315C13.5714 9.24932 14.1047 9.86302 14.7619 9.86302ZM25.238 12.6027H16.8476C16.1904 12.6027 15.6571 13.2164 15.6571 13.9726C15.6571 14.7288 16.1904 15.3425 16.8476 15.3425H25.238C25.8952 15.3425 26.4285 14.7288 26.4285 13.9726C26.4285 13.2164 25.8952 12.6027 25.238 12.6027ZM32.619 12.6027H29.4666C28.8095 12.6027 28.2761 13.2164 28.2761 13.9726C28.2761 14.7288 28.8095 15.3425 29.4666 15.3425H32.619C33.2761 15.3425 33.8095 14.7288 33.8095 13.9726C33.8095 13.2164 33.2761 12.6027 32.619 12.6027ZM26.3142 9.86302H32.619C33.2761 9.86302 33.8095 9.24932 33.8095 8.49315C33.8095 7.73699 33.2761 7.12329 32.619 7.12329H26.3142C25.6571 7.12329 25.1238 7.73699 25.1238 8.49315C25.1238 9.24932 25.6571 9.86302 26.3142 9.86302ZM32.8666 18.0822H24.2952C23.638 18.0822 23.1047 18.6959 23.1047 19.4521C23.1047 20.2082 23.638 20.8219 24.2952 20.8219H32.8666C33.5238 20.8219 34.0571 20.2082 34.0571 19.4521C34.0571 18.6959 33.5238 18.0822 32.8666 18.0822ZM20.1238 18.0822H14.7714C14.1142 18.0822 13.5809 18.6959 13.5809 19.4521C13.5809 20.2082 14.1142 20.8219 14.7714 20.8219H20.1238C20.7809 20.8219 21.3142 20.2082 21.3142 19.4521C21.3142 18.6959 20.7809 18.0822 20.1238 18.0822ZM14.0476 13.9726C14.0476 13.2164 13.5142 12.6027 12.8571 12.6027H7.38091C6.72376 12.6027 6.19043 13.2164 6.19043 13.9726C6.19043 14.7288 6.72376 15.3425 7.38091 15.3425H12.8571C13.5142 15.3425 14.0476 14.7288 14.0476 13.9726V13.9726ZM10.5619 18.0822H7.38091C6.72376 18.0822 6.19043 18.6959 6.19043 19.4521C6.19043 20.2082 6.72376 20.8219 7.38091 20.8219H10.5619C11.219 20.8219 11.7523 20.2082 11.7523 19.4521C11.7523 18.6959 11.219 18.0822 10.5619 18.0822Z" fill="#7C8C38"/>
</g>
<defs>
<clipPath id="clip0_30_484">
<rect width="40" height="40" fill="white"/>
</clipPath>
</defs>
</svg>
