<svg width="240" height="240" viewBox="0 0 240 240" fill="none" xmlns="http://www.w3.org/2000/svg">
<g clip-path="url(#clip0_53_9447)">
<path d="M120.005 240.01C186.282 240.01 240.01 186.282 240.01 120.005C240.01 53.728 186.282 0 120.005 0C53.728 0 0 53.728 0 120.005C0 186.282 53.728 240.01 120.005 240.01Z" fill="#BFBD4A"/>
</g>
<path d="M82.292 56.936V61.544H115.124V56.936H82.292ZM98.1 58.856V103.848C98.1 105 97.716 105.384 96.5 105.384C95.284 105.448 91.252 105.448 86.9 105.256C87.604 106.728 88.436 108.84 88.628 110.184C94.26 110.184 97.908 110.12 100.02 109.288C102.132 108.52 102.9 107.112 102.9 103.848V58.856H98.1ZM59.06 70.632V74.472H79.028V70.632H59.06ZM59.444 53.544V57.384H79.092V53.544H59.444ZM59.06 79.208V83.048H79.028V79.208H59.06ZM56.052 61.928V65.896H81.524V61.928H56.052ZM61.3 87.848V91.816H74.548V102.504H61.3V106.536H78.836V87.848H61.3ZM58.996 87.848V109.48H63.284V87.848H58.996ZM149.428 56.808V60.456H183.22V56.808H149.428ZM147.956 72.104V75.752H184.564V72.104H147.956ZM147.764 95.848V99.56H184.82V95.848H147.764ZM151.092 64.296V67.88H182.132V64.296H151.092ZM157.236 51.304V73.576H161.524V51.304H157.236ZM171.06 51.304V73.576H175.348V51.304H171.06ZM164.02 73.704V97H168.308V73.704H164.02ZM176.564 79.464V105.128C176.564 105.96 176.308 106.152 175.412 106.216C174.58 106.28 171.444 106.28 168.116 106.152C168.692 107.304 169.268 108.968 169.46 110.056C174.068 110.056 177.012 110.12 178.804 109.416C180.468 108.712 180.98 107.496 180.98 105.128V79.464H176.564ZM151.86 79.464V110.184H156.212V83.112H178.484V79.464H151.86ZM154.1 87.72V91.048H178.356V87.72H154.1ZM131.828 95.336C130.612 100.008 128.244 104.552 125.364 107.624C126.388 108.264 128.18 109.544 129.012 110.184C131.956 106.792 134.644 101.608 136.18 96.36L131.828 95.336ZM139.892 96.936C141.876 100.072 144.052 104.36 145.012 107.048L148.852 105.192C147.892 102.568 145.588 98.408 143.476 95.272L139.892 96.936ZM132.852 69.672H142.452V77.928H132.852V69.672ZM132.852 81.64H142.452V90.024H132.852V81.64ZM132.852 57.704H142.452V65.896H132.852V57.704ZM128.628 53.672V93.992H146.74V53.672H128.628ZM68.148 151.864V156.216H102.964V151.864H68.148ZM57.204 163.64V168.184H113.972V163.64H57.204ZM74.036 166.776C72.948 177.208 70.196 184.568 55.796 188.152C56.82 189.112 58.1 191.032 58.612 192.248C74.228 187.896 77.812 179.256 79.156 166.776H74.036ZM90.228 166.392V184.44C90.228 189.56 91.764 191.032 97.652 191.032C98.932 191.032 106.292 191.032 107.572 191.032C112.692 191.032 114.1 188.792 114.612 180.024C113.332 179.64 111.284 178.872 110.26 178.104C110.068 185.464 109.62 186.616 107.188 186.616C105.524 186.616 99.444 186.616 98.164 186.616C95.476 186.616 95.028 186.296 95.028 184.376V166.392H90.228ZM82.932 133.304V143.48H87.988V133.304H82.932ZM58.676 140.152V153.72H63.54V144.696H107.444V153.72H112.5V140.152H58.676ZM134.26 157.24V161.72H150.196V157.24H134.26ZM148.276 157.24V158.072C148.084 171.896 147.764 176.696 146.804 177.848C146.356 178.424 145.716 178.488 144.82 178.488C143.732 178.488 140.916 178.488 138.036 178.232C138.74 179.448 139.252 181.304 139.38 182.712C142.516 182.84 145.396 182.904 147.06 182.712C148.852 182.52 149.876 182.072 150.9 180.92C152.244 179.128 152.628 173.752 152.948 159.288C152.948 158.648 152.948 157.24 152.948 157.24H148.276ZM166.324 136.504C170.356 138.616 175.284 141.88 177.716 144.12L180.724 140.856C178.228 138.616 173.172 135.544 169.204 133.496L166.324 136.504ZM175.476 153.848C170.676 169.272 161.652 180.984 148.66 187.896C149.684 188.856 151.476 190.84 152.18 191.8C165.3 184.056 174.836 171.704 180.276 155L175.476 153.848ZM134.644 144.12V148.856H184.18V144.12H134.644ZM131.572 144.12V162.104C131.572 170.488 130.996 181.496 125.684 189.368C126.836 189.944 128.884 191.608 129.716 192.568C135.54 184.184 136.564 171.256 136.564 162.168V144.12H131.572ZM158.132 133.368C158.388 164.024 164.148 191.672 177.204 191.672C182.068 191.672 183.86 188.536 184.756 177.592C183.476 177.144 181.684 176.056 180.596 174.968C180.212 183.48 179.38 186.808 177.588 186.808C169.268 186.808 162.996 162.808 163.124 133.368H158.132Z" fill="white"/>
<defs>
<clipPath id="clip0_53_9447">
<rect width="240" height="240" fill="white"/>
</clipPath>
</defs>
</svg>
