<svg width="40" height="40" viewBox="0 0 40 40" fill="none" xmlns="http://www.w3.org/2000/svg">
<g clip-path="url(#clip0_30_472)">
<path d="M27.7543 20.9373C32.4334 16.3116 38.9284 15.3951 39.061 6.30133C39.0742 4.8406 35.9725 5.44207 33.5999 5.44207C31.2272 5.44207 28.3111 4.13887 25.8456 1.67568C23.3802 -0.787509 16.0633 -0.243315 11.5433 1.50383C7.02332 3.25098 -0.0814236 12.7028 1.07177 14.8222C2.22497 16.9417 9.82016 21.7106 10.9468 21.9111C12.0735 22.1116 14.486 18.4884 13.1074 14.8079C11.9807 11.7719 11.7687 10.3541 12.047 8.90773C12.1 8.63563 12.3386 8.43514 12.5905 8.46378C12.8423 8.49242 13.0544 8.72155 13.0544 9.00797C13.0809 10.2969 13.3328 11.8578 14.0618 13.6193C16.1694 18.7318 13.0412 24.4316 11.9542 24.2024C11.1192 24.0306 8.57417 22.6271 7.40772 21.9684C7.26192 21.8824 7.10286 21.8824 6.95705 21.9684C6.81124 22.04 6.7052 22.1832 6.67869 22.355C6.26778 24.3456 4.95552 30.2029 2.91424 35.3011C7.38121 37.5495 18.8336 42.0606 29.7028 36.0601C28.0327 31.4918 25.8854 28.0404 25.9384 25.4483C25.9384 25.4197 25.9384 25.3911 25.9384 25.3624C26.2565 23.3432 26.8663 21.8395 27.7676 20.9516L27.7543 20.9373ZM24.0297 9.45192C23.1946 9.49488 22.4921 8.80748 22.4523 7.91959C22.4125 7.03169 23.0488 6.25836 23.8706 6.2154C24.6924 6.17244 25.4082 6.85984 25.448 7.74773C25.4877 8.63563 24.8515 9.40896 24.0297 9.45192Z" fill="#7C8C38"/>
</g>
<defs>
<clipPath id="clip0_30_472">
<rect width="40" height="40" fill="white"/>
</clipPath>
</defs>
</svg>
