<svg width="40" height="40" viewBox="0 0 40 40" fill="none" xmlns="http://www.w3.org/2000/svg">
<g clip-path="url(#clip0_30_553)">
<path d="M10.7661 14.9214L18.2089 25.729C19.184 27.1445 20.7959 27.1445 21.7711 25.729L29.2139 14.938C30.189 13.5226 29.393 12.3569 27.4427 12.3569H25.1542V4.34687C25.1741 1.93221 22.8656 0.000488281 19.9999 0.000488281C17.1542 0.000488281 14.8258 1.93221 14.8258 4.33021V12.3402H12.5372C10.587 12.3402 9.77107 13.5059 10.7661 14.9214V14.9214Z" fill="#7C8C38"/>
<path d="M36.8756 32.7566H3.12438C1.39883 32.7566 0 33.9271 0 35.3711V37.3861C0 38.83 1.39883 40.0006 3.12438 40.0006H36.8756C38.6012 40.0006 40 38.83 40 37.3861V35.3711C40 33.9271 38.6012 32.7566 36.8756 32.7566Z" fill="#7C8C38"/>
<path d="M8.65674 37.5193L8.65674 23.9972C8.65674 22.9671 7.65885 22.1321 6.42788 22.1321H2.22888C0.997916 22.1321 2.47955e-05 22.9671 2.47955e-05 23.9972L2.47955e-05 37.5193C2.47955e-05 38.5493 0.997916 39.3844 2.22888 39.3844H6.42788C7.65885 39.3844 8.65674 38.5493 8.65674 37.5193Z" fill="#7C8C38"/>
<path d="M40 37.5193V23.9972C40 22.9671 39.0021 22.1321 37.7711 22.1321H33.5721C32.3412 22.1321 31.3433 22.9671 31.3433 23.9972V37.5193C31.3433 38.5493 32.3412 39.3844 33.5721 39.3844H37.7711C39.0021 39.3844 40 38.5493 40 37.5193Z" fill="#7C8C38"/>
</g>
<defs>
<clipPath id="clip0_30_553">
<rect width="40" height="40" fill="white" transform="translate(0 0.000488281)"/>
</clipPath>
</defs>
</svg>
