<svg width="40" height="40" viewBox="0 0 40 40" fill="none" xmlns="http://www.w3.org/2000/svg">
<g clip-path="url(#clip0_30_483)">
<path d="M17.5688 34.3713C17.3257 34.1976 16.9162 34.1884 16.6731 34.3713C16.2508 34.6638 15.6622 35.0934 15.3679 35.2945C15.2655 35.3677 15.2015 35.4682 15.1887 35.5779L14.8688 38.5397C14.8432 38.8231 15.1759 39.0608 15.5854 39.0333L19.5649 38.7043C19.7057 38.6951 19.8464 38.6494 19.9488 38.5763L21.254 37.6439C21.5099 37.461 21.5099 37.1777 21.254 36.9948L17.5816 34.3713H17.5688ZM34.7409 27.3507L31.0685 24.7271C30.8125 24.5443 30.4159 24.5443 30.1599 24.7271L19.872 32.0768C19.6161 32.2596 19.6161 32.543 19.872 32.7258L23.5445 35.3494C23.8004 35.5322 24.1971 35.5322 24.453 35.3494L34.7409 27.9997C34.9968 27.8169 34.9968 27.5335 34.7409 27.3507ZM31.977 8.67495C31.977 7.6694 30.8253 6.84668 29.4178 6.84668H28.023C27.6647 6.84668 27.3832 7.04779 27.3832 7.30375V10.0461C27.3832 10.3021 27.1017 10.5032 26.7434 10.5032H5.10557C4.74728 10.5032 4.46577 10.3021 4.46577 10.0461V7.30375C4.46577 7.04779 4.18426 6.84668 3.82598 6.84668H2.55918C1.15163 6.84668 0 7.6694 0 8.67495V32.4424C0 33.448 1.15163 34.2707 2.55918 34.2707H12.5016C12.6679 34.0605 12.8599 33.8593 13.103 33.6857C13.5637 33.3566 14.856 32.4333 14.856 32.4333L31.9898 20.193V8.66581L31.977 8.67495ZM17.2617 21.8202H8.31734C7.43442 21.8202 6.71785 21.3083 6.71785 20.6775C6.71785 20.0468 7.43442 19.5349 8.31734 19.5349H17.2745C18.1574 19.5349 18.874 20.0468 18.874 20.6775C18.874 21.3083 18.1574 21.8202 17.2745 21.8202H17.2617ZM23.6596 17.2495H8.31734C7.43442 17.2495 6.71785 16.7376 6.71785 16.1069C6.71785 15.4761 7.43442 14.9642 8.31734 14.9642H23.6724C24.5553 14.9642 25.2719 15.4761 25.2719 16.1069C25.2719 16.7376 24.5553 17.2495 23.6724 17.2495H23.6596Z" fill="#7C8C38"/>
<path d="M20.8189 3.84864C19.872 3.62011 19.181 2.98935 19.1938 2.27633C19.2194 1.02397 17.8118 0.00927734 16.0588 0.00927734H15.9308C14.2418 0.00927734 12.7319 0.969118 12.7959 2.18492C12.8342 2.94365 12.1689 3.62011 11.1836 3.85778C9.14902 4.35141 7.67749 4.79934 7.67749 6.41736V7.78856C7.67749 8.04452 7.959 8.24563 8.31729 8.24563H23.6852C24.0435 8.24563 24.325 8.04452 24.325 7.78856V6.41736C24.325 4.79934 22.8534 4.35141 20.8317 3.86692L20.8189 3.84864ZM39.808 23.7311L36.1356 21.1075C35.8797 20.9247 35.483 20.9247 35.2271 21.1075L33.2949 22.4878C33.039 22.6707 33.039 22.954 33.2949 23.1369L36.9673 25.7604C37.2232 25.9433 37.6199 25.9433 37.8758 25.7604L39.808 24.3801C40.0639 24.1973 40.0639 23.9139 39.808 23.7311Z" fill="#7C8C38"/>
</g>
<defs>
<clipPath id="clip0_30_483">
<rect width="40" height="40" fill="white"/>
</clipPath>
</defs>
</svg>
