<svg width="40" height="41" viewBox="0 0 40 41" fill="none" xmlns="http://www.w3.org/2000/svg">
<path d="M12.9723 25.2514C13.4511 26.8752 15.1651 28.0767 16.9806 28.0785C21.6957 28.0821 26.4109 28.0785 31.1251 28.0821C31.4437 28.0821 31.7733 28.0803 32.0773 28.1571C33.0267 28.399 33.5696 29.3211 33.4369 30.4021C33.3105 31.4287 32.6229 32.1169 31.6204 32.1285C29.4084 32.1526 27.1955 32.1428 24.9835 32.1437C22.3586 32.1455 19.7337 32.1107 17.1097 32.1517C13.9282 32.2017 11.6246 30.7788 10.0004 28.2142C8.73236 26.2119 8.11894 23.9776 7.67581 21.6834C6.62017 16.2221 5.53981 10.7652 4.45213 5.31009C4.421 5.15298 4.22324 4.96641 4.05935 4.90571C3.16211 4.57453 2.24929 4.28441 1.34655 3.96751C0.459378 3.65329 -0.0634053 2.8365 0.00617712 1.90009C0.0766751 0.935116 0.658054 0.211161 1.54431 0.0254863C1.74208 -0.0155765 1.9728 -0.00664981 2.16689 0.0495883C3.59791 0.463787 5.02252 0.896731 6.44987 1.32253C7.16035 1.53499 7.62087 1.99561 7.85526 2.67493C8.07407 3.30872 8.2993 3.93984 8.49157 4.58167C8.57763 4.87 8.70398 4.96641 9.02625 4.96552C17.5712 4.94677 26.1161 4.93963 34.661 4.93427C35.6525 4.93427 36.645 4.92981 37.6356 4.97623C39.4502 5.06192 40.4043 6.1001 39.8366 8.06129C38.6079 12.3068 37.3042 16.5318 36.0242 20.7631C35.7789 21.5745 35.5564 22.3976 35.2286 23.1786C34.8166 24.1615 34.1574 24.9551 33.012 25.1871C32.7026 25.2496 32.3757 25.2487 32.0571 25.2487C25.8625 25.2523 19.6669 25.2514 13.4722 25.2514H12.9732H12.9723ZM22.625 17.7432C23.9086 17.7521 25.0458 18.1074 26.0685 18.7751C26.5986 19.1206 27.0765 19.541 27.5755 19.932C28.1092 20.3507 28.7803 20.3221 29.2225 19.8579C29.6492 19.4107 29.6748 18.726 29.2052 18.2859C26.9263 16.1516 24.2849 15 21.0649 15.6133C19.1688 15.9739 17.5858 16.9362 16.2152 18.2368C15.7309 18.6966 15.741 19.3785 16.1887 19.8418C16.6126 20.2801 17.291 20.3167 17.8028 19.9213C17.9822 19.7829 18.1425 19.6222 18.3173 19.4785C19.5744 18.4404 20.9862 17.77 22.625 17.7432V17.7432ZM19.481 12.5728C19.4838 11.6587 18.6955 10.8893 17.7616 10.8946C16.8195 10.9009 16.0468 11.6677 16.0577 12.5853C16.0687 13.4896 16.8241 14.2279 17.7515 14.2403C18.6826 14.2537 19.4783 13.486 19.481 12.5719V12.5728ZM29.3086 12.5916C29.3178 11.6623 28.5633 10.9044 27.6194 10.8937C26.702 10.8839 25.9229 11.6239 25.9036 12.5229C25.8844 13.4521 26.6279 14.218 27.5718 14.2421C28.5084 14.2662 29.2985 13.5146 29.3077 12.5916H29.3086Z" fill="#7C8C38"/>
<path d="M33.4498 37.3739C33.4122 39.0905 31.9629 40.4545 30.2215 40.4126C28.5012 40.3715 27.0958 38.9549 27.1187 37.2838C27.1425 35.5761 28.5872 34.2067 30.3369 34.2344C32.103 34.2621 33.4873 35.6582 33.4498 37.3739Z" fill="#7C8C38"/>
<path d="M17.6343 34.2351C19.3995 34.2235 20.8149 35.584 20.8259 37.3024C20.8369 39.0056 19.4086 40.4115 17.6654 40.4133C15.9267 40.4151 14.4902 39.0109 14.4902 37.3104C14.4902 35.6259 15.9002 34.2459 17.6343 34.2343V34.2351Z" fill="#7C8C38"/>
</svg>
