<svg width="40" height="40" viewBox="0 0 40 40" fill="none" xmlns="http://www.w3.org/2000/svg">
<rect x="6" y="7" width="28" height="25" fill="white"/>
<path fill-rule="evenodd" clip-rule="evenodd" d="M20 40C31.0457 40 40 31.0457 40 20C40 8.9543 31.0457 0 20 0C8.9543 0 0 8.9543 0 20C0 31.0457 8.9543 40 20 40ZM32.1213 21.8787L22.1213 11.8787C20.9497 10.7071 19.0503 10.7071 17.8787 11.8787L7.87868 21.8787C6.70711 23.0503 6.70711 24.9497 7.87868 26.1213C9.05025 27.2929 10.9497 27.2929 12.1213 26.1213L20 18.2426L27.8787 26.1213C29.0503 27.2929 30.9497 27.2929 32.1213 26.1213C33.2929 24.9497 33.2929 23.0503 32.1213 21.8787Z" fill="#7C8C38"/>
</svg>
