<svg width="40" height="40" viewBox="0 0 40 40" fill="none" xmlns="http://www.w3.org/2000/svg">
<path fill-rule="evenodd" clip-rule="evenodd" d="M20 40C31.0457 40 40 31.0457 40 20C40 8.9543 31.0457 0 20 0C8.9543 0 0 8.9543 0 20C0 31.0457 8.9543 40 20 40ZM17.8787 30.1213C18.4413 30.6839 19.2044 31 20 31C20.7957 31 21.5587 30.6839 22.1213 30.1213L32.1213 20.1213C33.2929 18.9497 33.2929 17.0503 32.1213 15.8787C30.9497 14.7071 29.0503 14.7071 27.8787 15.8787L20 23.7574L12.1213 15.8787C10.9497 14.7071 9.05026 14.7071 7.87868 15.8787C6.70711 17.0503 6.70711 18.9497 7.87868 20.1213L17.8787 30.1213Z" fill="#7C8C38"/>
</svg>
