<svg width="40" height="40" viewBox="0 0 40 40" fill="none" xmlns="http://www.w3.org/2000/svg">
<g clip-path="url(#clip0_31_5)">
<path d="M40 1.80444C40 0.813333 38.7893 0 37.3089 0H2.69111C1.21065 0 0 0.813333 0 1.80444V11.0489C0 11.9956 1.14839 12.7644 2.55967 12.7644H37.4403C38.8516 12.7644 40 11.9956 40 11.0489V1.80444ZM30.5915 9.91111C30.5915 10.2756 30.1487 10.5733 29.6022 10.5733H10.3978C9.85126 10.5733 9.40851 10.2756 9.40851 9.91111V3.07111C9.40851 2.70667 9.85126 2.40889 10.3978 2.40889H29.5953C30.1418 2.40889 30.5846 2.70667 30.5846 3.07111V9.91111H30.5915Z" fill="#7C8C38"/>
<path d="M38.8585 19.6312L33.0681 15.7512C32.3348 15.2623 31.3594 14.9912 30.3217 14.9912H2.44206C1.09997 14.9912 0 15.729 0 16.6268V38.3601C0 39.2623 1.09997 39.9957 2.44206 39.9957H37.551C38.8931 39.9957 39.9931 39.2579 39.9931 38.3601V21.4712C39.9931 20.7868 39.578 20.1157 38.8585 19.6312ZM31.4493 22.8134C30.0173 22.8134 28.8481 22.0268 28.8481 21.0668V16.0757H30.3286C31.1173 16.0757 31.8575 16.2801 32.4109 16.6534L37.5095 20.5334C38.056 20.9023 38.3743 21.409 38.3743 21.929V22.809H31.4493V22.8134Z" fill="#7C8C38"/>
</g>
<defs>
<clipPath id="clip0_31_5">
<rect width="40" height="40" fill="white"/>
</clipPath>
</defs>
</svg>
