<svg width="40" height="40" viewBox="0 0 40 40" fill="none" xmlns="http://www.w3.org/2000/svg">
<g clip-path="url(#clip0_30_463)">
<path d="M13.3848 0.201567L0.247279 10.9102C0.0463521 11.074 0.185456 11.3386 0.463663 11.3386H12.7202C13.3694 11.3386 13.8949 10.9102 13.8949 10.3811V0.377945C13.8949 0.226764 13.7403 0.125977 13.5858 0.125977C13.5085 0.125977 13.4312 0.151173 13.3694 0.201567H13.3848Z" fill="#7C8C38"/>
<path d="M36.9088 0H17.728C17.7434 0.125984 17.7743 0.251969 17.7743 0.377953V10.3685C17.7743 12.6362 15.5178 14.4756 12.7357 14.4756H0.463679C0.309119 14.4756 0.15456 14.463 0 14.4504V37.4803C0 38.8661 1.39104 40 3.09119 40H36.9088C38.609 40 40 38.8661 40 37.4803V2.51969C40 1.13386 38.609 0 36.9088 0Z" fill="#7C8C38"/>
</g>
<defs>
<clipPath id="clip0_30_463">
<rect width="40" height="40" fill="white"/>
</clipPath>
</defs>
</svg>
