<svg width="40" height="40" viewBox="0 0 40 40" fill="none" xmlns="http://www.w3.org/2000/svg">
<g clip-path="url(#clip0_30_492)">
<path d="M37.6362 10.0075C37.6362 9.26196 37.6362 8.47977 37.6254 7.69758C37.6037 5.94987 36.7905 4.92324 35.2507 4.70325C34.9471 4.66658 34.6218 4.65436 34.3182 4.65436C27.9425 4.65436 21.556 4.64214 15.1803 4.66658C14.4863 4.66658 14.0201 4.43437 13.749 3.74995C12.8599 1.59893 11.4177 0.804514 9.29249 1.00006C7.22147 1.19561 5.15045 1.07339 3.06858 1.03673C1.68067 1.01228 0.628897 1.50115 0 2.97998V38.2153C0.780699 39.7308 2.01681 40.0119 3.48062 39.9996C13.3369 39.9508 23.1933 39.9752 33.0496 39.9752C34.9688 39.9752 35.7278 39.1686 36.064 37.0298C36.9965 31.1633 37.9724 25.2969 38.9374 19.4305C39.2193 17.7072 39.5337 15.9839 39.8265 14.2607C39.8482 14.1384 39.8482 14.0284 40 13.9184V11.9752C39.0675 10.5208 39.0458 10.4841 37.6362 10.0197V10.0075ZM1.60477 4.43437C1.60477 3.18775 1.77826 2.99221 2.85172 2.99221C5.43237 2.99221 8.00217 2.96776 10.5828 3.01665C10.9298 3.01665 11.3527 3.29775 11.5912 3.59107C11.9707 4.0555 12.231 4.65436 12.5454 5.19212C13.1092 6.1943 13.8899 6.62206 14.9634 6.60984C21.4692 6.57318 27.9967 6.59762 34.5026 6.59762C35.8254 6.59762 35.9447 6.70762 35.9447 8.18645V10.1786H34.7628C25.4161 10.1786 16.0802 10.1541 6.73353 10.1541C4.9878 10.1541 4.22879 10.8752 3.92518 12.794C3.23123 17.0717 2.51559 21.337 1.65899 25.6147C1.6373 25.358 1.60477 25.1013 1.60477 24.8569C1.60477 18.0494 1.60477 11.2419 1.60477 4.43437V4.43437Z" fill="#7C8C38"/>
</g>
<defs>
<clipPath id="clip0_30_492">
<rect width="40" height="40" fill="white"/>
</clipPath>
</defs>
</svg>
