<svg width="32" height="40" viewBox="0 0 32 40" fill="none" xmlns="http://www.w3.org/2000/svg">
<g clip-path="url(#clip0_30_447)">
<path d="M28.3841 0H3.61593C1.61891 0 0 1.11232 0 2.48444V10.8133C0 12.1855 1.61891 13.2978 3.61593 13.2978H28.3841C30.3811 13.2978 32 12.1855 32 10.8133V2.48444C32 1.11232 30.3811 0 28.3841 0Z" fill="#7C8C38"/>
<path d="M28.6946 15.1111H3.30544C1.48777 15.1111 0 16.1334 0 17.3778V36.0178C0 37.2711 1.48777 38.2889 3.30544 38.2889H3.63533L4.28219 39.6756C4.28219 39.8534 4.48919 39.9956 4.74793 39.9956H5.98342C6.24217 39.9956 6.44916 39.8534 6.44916 39.6756L7.09602 38.2889H25.3244L25.9713 39.6756C25.9713 39.8534 26.1783 39.9956 26.437 39.9956H27.6725C27.9313 39.9956 28.1383 39.8534 28.1383 39.6756L28.7851 38.28C30.5575 38.2445 32 37.2445 32 36.0178V17.3778C32 16.1289 30.5122 15.1067 28.6946 15.1067V15.1111ZM24.7293 20.4534C25.9066 19.5334 27.4008 20.0934 27.4008 20.8934V29.72C27.4008 30.52 25.9066 31.08 24.7293 30.16V20.4534Z" fill="#7C8C38"/>
</g>
<defs>
<clipPath id="clip0_30_447">
<rect width="32" height="40" fill="white"/>
</clipPath>
</defs>
</svg>
