<svg width="40" height="40" viewBox="0 0 40 40" fill="none" xmlns="http://www.w3.org/2000/svg">
<g clip-path="url(#clip0_30_482)">
<path d="M40 3.76489H37.4963V16.4906H40V3.76489Z" fill="#7C8C38"/>
<path d="M2.12938 2.65747H0V17.5922H2.12938V2.65747Z" fill="#7C8C38"/>
<path d="M29.3596 0H12.2084C7.227 0 3.19409 3.54912 3.19409 7.93299V12.4532C3.19409 14.9063 4.46526 17.1039 6.45268 18.5576L12.2084 40H20.784V20.3861H29.3596C32.4182 20.3861 35.1154 19.0403 36.7479 16.9903V3.3958C35.1154 1.34583 32.4182 0 29.3596 0ZM14.3056 15.9852C10.3114 15.9852 7.07214 13.1346 7.07214 9.61953C7.07214 6.10449 10.3114 3.25951 14.3056 3.25951C18.2998 3.25951 21.539 6.11017 21.539 9.62521C21.539 13.1403 18.2998 15.9909 14.3056 15.9909V15.9852Z" fill="#7C8C38"/>
</g>
<defs>
<clipPath id="clip0_30_482">
<rect width="40" height="40" fill="white"/>
</clipPath>
</defs>
</svg>
