<svg width="40" height="37" viewBox="0 0 40 37" fill="none" xmlns="http://www.w3.org/2000/svg">
<g clip-path="url(#clip0_795_38989)">
<path d="M38.9523 0H1.04768C0.469064 0 0 0.71345 0 1.59353C0 2.47362 0.469064 3.18707 1.04768 3.18707H38.9523C39.5309 3.18707 40 2.47362 40 1.59353C40 0.71345 39.5309 0 38.9523 0Z" fill="#7C8C38"/>
<path d="M38.9523 16.7346H1.04768C0.469064 16.7346 0 17.4481 0 18.3282C0 19.2082 0.469064 19.9217 1.04768 19.9217H38.9523C39.5309 19.9217 40 19.2082 40 18.3282C40 17.4481 39.5309 16.7346 38.9523 16.7346Z" fill="#7C8C38"/>
<path d="M38.9523 33.4796H1.04768C0.469064 33.4796 0 34.1931 0 35.0731C0 35.9532 0.469064 36.6667 1.04768 36.6667H38.9523C39.5309 36.6667 40 35.9532 40 35.0731C40 34.1931 39.5309 33.4796 38.9523 33.4796Z" fill="#7C8C38"/>
</g>
<defs>
<clipPath id="clip0_795_38989">
<rect width="40" height="36.6667" fill="white"/>
</clipPath>
</defs>
</svg>
