<svg width="40" height="40" viewBox="0 0 40 40" fill="none" xmlns="http://www.w3.org/2000/svg">
<path d="M0 14.9141V14.461C0 9.00006 3.94688 4.34225 9.32813 3.44537C12.8203 2.85241 16.5156 4.01334 19.0625 6.56412L20 7.50006L20.8672 6.56412C23.4844 4.01334 27.1094 2.85241 30.6719 3.44537C36.0547 4.34225 40 9.00006 40 14.461V14.9141C40 18.1563 38.6562 21.2579 36.2812 23.4688L22.1641 36.6485C21.5781 37.1954 20.8047 37.5001 20 37.5001C19.1953 37.5001 18.4219 37.1954 17.8359 36.6485L3.71797 23.4688C1.34609 21.2579 2.34375e-05 18.1563 2.34375e-05 14.9141H0Z" fill="#7C8C38"/>
</svg>
