<svg width="40" height="40" viewBox="0 0 40 40" fill="none" xmlns="http://www.w3.org/2000/svg">
<path d="M19.0625 6.56257L19.9297 7.50007L20.8672 6.56413C23.4844 4.01335 27.1094 2.85241 30.6719 3.44538C36.0547 4.34226 40 9.00007 40 14.461V14.9141C40 18.1563 38.6562 21.2579 36.2812 23.4688L22.1641 36.6485C21.5781 37.1954 20.8047 37.5001 20 37.5001C19.1953 37.5001 18.4219 37.1954 17.8359 36.6485L3.71797 23.4688C1.34609 21.2579 0 18.1563 0 14.9141V14.461C0 9.00007 3.94688 4.34226 9.32813 3.44538C12.8203 2.85241 16.5156 4.01335 19.0625 6.56257C19.0625 6.56335 18.9922 6.56257 19.0625 6.56257ZM19.9297 12.8048L16.4141 9.14851C14.7188 7.52194 12.3125 6.75007 9.94531 7.14382C6.37109 7.73991 3.75 10.836 3.75 14.461V14.9141C3.75 17.1173 4.66484 19.2266 6.27656 20.7266L20 33.5391L33.7266 20.7266C35.3359 19.2266 36.25 17.1173 36.25 14.9141V14.461C36.25 10.836 33.625 7.73991 30.0547 7.14382C27.6875 6.75007 25.2812 7.52194 23.5859 9.14851L19.9297 12.8048Z" fill="#7C8C38"/>
</svg>
