<svg width="45" height="43" viewBox="0 0 45 43" fill="none" xmlns="http://www.w3.org/2000/svg">
<g clip-path="url(#clip0_593_27238)">
<path d="M44.0058 18.4097L24.455 0.723199C23.3284 -0.263039 21.6715 -0.263039 20.5449 0.723199L0.927796 18.4097C-0.265135 19.4617 -0.331409 21.3027 0.728974 22.4862C1.32544 23.0779 2.12073 23.4067 2.84974 23.4067C3.57875 23.4067 4.24149 23.1437 4.83796 22.6834L22.4668 6.77213L40.0957 22.6834C41.2886 23.7354 43.1443 23.6697 44.2047 22.4862C45.2651 21.3027 45.1988 19.4617 44.0058 18.4097ZM6.95872 23.4067V41.422C6.95872 42.0795 7.42264 42.5397 7.75401 42.737C8.15165 42.9342 8.5493 43.0657 9.01322 43.0657C18.888 43.0657 26.0456 43.0657 35.9204 43.0657C36.3843 43.0657 36.782 43 37.1796 42.737C37.5773 42.5397 37.9749 42.0795 37.9749 41.422V23.4067L22.4668 9.4021L6.95872 23.4067ZM16.1045 21.9602H28.8291V30.7706H16.1045V21.9602ZM4.04267 2.30118L15.972 2.69568L4.77168 13.3471L4.04267 2.30118Z" fill="#7C8C38"/>
</g>
<defs>
<clipPath id="clip0_593_27238">
<rect width="45" height="43" fill="white"/>
</clipPath>
</defs>
</svg>
