<svg width="38" height="40" viewBox="0 0 38 40" fill="none" xmlns="http://www.w3.org/2000/svg">
<g clip-path="url(#clip0_30_554)">
<path d="M17.6556 17.4161V14.4046L14.7423 12.8961V15.9076L17.6556 17.4161ZM17.6556 11.5891V8.57758L11.9017 5.63142C11.2475 5.23932 11.0295 4.52048 11.3929 3.92689C11.829 3.33875 12.6285 3.1427 13.2886 3.46944L17.6556 5.76211V1.24212C17.6556 0.523282 18.237 0.000488281 19.0365 0.000488281C19.7633 0.000488281 20.3447 0.523282 20.3447 1.24212V5.76211L24.7117 3.46944C25.3658 3.1427 26.238 3.33875 26.6074 3.92689C26.9708 4.51503 26.7528 5.23387 26.0987 5.63142L20.3447 8.57758V11.5891L23.9122 9.68851C24.857 9.23107 25.9533 9.81921 25.9533 10.7995V14.4645L28.8666 12.956V7.07454C28.8666 6.3557 29.448 5.83291 30.2475 5.83291C30.9743 5.83291 31.5558 6.3557 31.5558 7.07454V11.5945L35.9227 9.30186C36.5768 8.97512 37.455 9.17117 37.8185 9.75931C38.1819 10.3475 37.9638 11.0663 37.3097 11.4638L32.9428 13.6912L37.3097 15.9838C37.9638 16.3106 38.1819 17.0294 37.8185 17.623C37.455 18.2111 36.5829 18.4072 35.9227 18.0804L30.2415 15.1343L27.3282 16.6428L30.8956 18.478C31.8404 18.9354 31.7678 20.1172 30.8956 20.5746L27.3282 22.4752L30.2415 23.9837L35.9227 20.9722C36.5768 20.6454 37.455 20.8415 37.8185 21.4296C38.1819 22.0177 37.9638 22.7366 37.3097 23.1341L32.9428 25.3614L37.3097 27.6541C37.9638 27.9809 38.1819 28.6997 37.8185 29.2933C37.455 29.8814 36.5829 30.0775 35.9227 29.7507L31.5558 27.5234V32.0434C31.5558 32.6969 30.9743 33.2197 30.2475 33.2197C29.448 33.2197 28.8666 32.6969 28.8666 32.0434V26.0857L25.9533 24.5773V28.3076C25.9533 29.2225 24.7904 29.8161 23.9122 29.3532L20.3447 27.518V30.4641L26.0987 33.4756C26.7528 33.8024 26.9708 34.5212 26.6074 35.1148C26.244 35.703 25.3718 35.899 24.7117 35.5723L20.3447 33.3449V37.8649C20.3447 38.5184 19.7633 39.0412 19.0365 39.0412C18.237 39.0412 17.6556 38.5184 17.6556 37.8649V33.3449L13.2886 35.5723C12.6345 35.899 11.835 35.703 11.3929 35.1148C11.0295 34.5267 11.2475 33.8078 11.9017 33.4756L17.6556 30.4641V27.518L14.0881 29.3532C13.1433 29.8106 12.047 29.2225 12.047 28.3076V24.5773L9.13372 26.0857V32.0434C9.13372 32.6969 8.55227 33.2197 7.75278 33.2197C7.02597 33.2197 6.44453 32.6969 6.44453 32.0434V27.5234L2.07761 29.7507C1.42349 30.0775 0.545258 29.8814 0.181853 29.2933C-0.181551 28.7051 0.0364916 27.9863 0.69062 27.6541L5.05753 25.3614L0.69062 23.1341C0.0364916 22.742 -0.181551 22.0232 0.181853 21.4296C0.545258 20.8415 1.41743 20.6454 2.07761 20.9722L7.75884 23.9837L10.6721 22.4752L7.10471 20.5746C6.15986 20.1172 6.23254 18.9354 7.10471 18.478L10.6721 16.6428L7.75884 15.1343L2.07761 18.0804C1.42349 18.4072 0.545258 18.2111 0.181853 17.623C-0.181551 17.0349 0.0364916 16.316 0.69062 15.9838L5.05753 13.6912L0.684563 11.4584C0.0304349 11.0663 -0.187608 10.3475 0.175797 9.75386C0.539201 9.16572 1.41137 8.96967 2.07156 9.29642L6.43847 11.5891V7.07454C6.43847 6.3557 7.01992 5.83291 7.74673 5.83291C8.54622 5.83291 9.12766 6.3557 9.12766 7.07454V12.9669L12.041 14.4753V10.8103C12.041 9.8301 13.2039 9.23652 14.0821 9.76476L17.6495 11.6L17.6556 11.5891ZM20.3508 14.4046V17.4161L23.2641 15.9076V12.8961L20.3508 14.4046ZM27.4856 19.5127L24.645 18.0042L21.7317 19.5127L24.645 21.0212L27.4856 19.5127ZM23.2641 26.1239V23.1777L20.3508 21.6692V24.6154L23.2641 26.1239ZM14.7423 26.1239L17.6556 24.6154V21.6692L14.7423 23.1777V26.1239V26.1239ZM10.5207 19.5127L13.3613 21.0212L16.2746 19.5127L13.3613 18.0042L10.5207 19.5127Z" fill="#7C8C38"/>
</g>
<defs>
<clipPath id="clip0_30_554">
<rect width="38" height="40" fill="white" transform="translate(0 0.000488281)"/>
</clipPath>
</defs>
</svg>
