<svg width="40" height="40" viewBox="0 0 40 40" fill="none" xmlns="http://www.w3.org/2000/svg">
<g clip-path="url(#clip0_30_462)">
<path d="M20.0106 32.0475C26.5883 32.0475 31.9486 26.638 31.9486 20.0001C31.9486 13.3621 26.5883 7.95264 20.0106 7.95264C13.4329 7.95264 8.07251 13.3621 8.07251 20.0001C8.07251 26.638 13.4329 32.0475 20.0106 32.0475ZM10.9769 20.0001C10.9769 14.9569 15.0346 10.8621 20.0106 10.8621C24.9866 10.8621 29.0442 14.9569 29.0442 20.0001C29.0442 25.0432 24.9866 29.1164 20.0106 29.1164C15.0346 29.1164 10.9769 25.0216 10.9769 20.0001Z" fill="#7C8C38"/>
<path d="M31.906 40H8.09397C3.63054 40 0 36.3362 0 31.8319V8.1681C0 3.66379 3.63054 0 8.09397 0H31.906C36.3695 0 40 3.66379 40 8.1681V31.8319C40 36.3362 36.3695 40 31.906 40V40ZM8.09397 2.97414C5.2536 2.97414 2.94714 5.30172 2.94714 8.1681V31.8319C2.94714 34.6983 5.2536 37.0259 8.09397 37.0259H31.906C34.7464 37.0259 37.0529 34.6983 37.0529 31.8319V8.1681C37.0529 5.30172 34.7464 2.97414 31.906 2.97414H8.09397Z" fill="#7C8C38"/>
</g>
<defs>
<clipPath id="clip0_30_462">
<rect width="40" height="40" fill="white"/>
</clipPath>
</defs>
</svg>
