<svg width="40" height="40" viewBox="0 0 40 40" fill="none" xmlns="http://www.w3.org/2000/svg">
<g clip-path="url(#clip0_178_4973)">
<path d="M20.0666 16.2C17.9333 16.2 16.2666 17.9333 16.2666 20C16.2666 22.0666 17.9999 23.8 20.0666 23.8C22.1999 23.8 23.8666 22.0666 23.8666 20C23.8666 17.9333 22.1999 16.2 20.0666 16.2Z" fill="#7C8C38"/>
<path d="M24.8666 10.1333H15.1333C12.4 10.1333 10.1333 12.4 10.1333 15.1333V24.8C10.1333 27.5333 12.4 29.8 15.1333 29.8H24.8C27.5333 29.8 29.8 27.5333 29.8 24.8V15.1333C29.8666 12.4 27.6 10.1333 24.8666 10.1333ZM20.0666 26C16.8 26 14.0666 23.3333 14.0666 20C14.0666 16.7333 16.7333 14 20.0666 14C23.3333 14 26.0666 16.6666 26.0666 20C26.0666 23.2666 23.4 26 20.0666 26ZM26.4 15.0666C25.6 15.0666 25 14.4 25 13.6666C25 12.8666 25.6666 12.2666 26.4 12.2666C27.2 12.2666 27.8 12.9333 27.8 13.6666C27.8666 14.4 27.2 15.0666 26.4 15.0666Z" fill="#7C8C38"/>
<path d="M20 0C8.93333 0 0 8.93333 0 20C0 31.0667 8.93333 40 20 40C31.0667 40 40 31.0667 40 20C40 8.93333 31.0667 0 20 0ZM32.1333 24.8667C32.1333 28.8667 28.8667 32.1333 24.8667 32.1333H15.1333C11.1333 32.1333 7.86667 28.8667 7.86667 24.8667V15.1333C7.86667 11.1333 11.1333 7.86667 15.1333 7.86667H24.8C28.8 7.86667 32.0667 11.1333 32.0667 15.1333V24.8667H32.1333Z" fill="#7C8C38"/>
</g>
<defs>
<clipPath id="clip0_178_4973">
<rect width="40" height="40" fill="white"/>
</clipPath>
</defs>
</svg>
