<svg width="40" height="40" viewBox="0 0 40 40" fill="none" xmlns="http://www.w3.org/2000/svg">
<g clip-path="url(#clip0_30_477)">
<path d="M38.75 0H33.75C33.4487 0 33.1585 0.111607 32.9241 0.3125L15.6696 15.4353C14.7768 15.2455 13.3929 15 12.5 15C5.60268 15 0 20.6138 0 27.5C0 34.3862 5.60268 40 12.5 40C19.3973 40 25 34.3862 25 27.5C25 25.4576 24.6094 24.0737 24.1629 22.9353L28.4152 21.4955C28.9286 21.317 29.2746 20.8259 29.2634 20.279L29.1629 15.5357L33.9397 15.2009C34.5759 15.1563 35.0781 14.6317 35.1004 13.9955L35.279 8.29241L39.0179 7.46652C39.5871 7.34375 40 6.83036 40 6.25V1.25C40 0.558036 39.442 0 38.75 0V0ZM11.4955 33.2143C9.16295 33.2143 7.26563 31.3281 7.26563 28.9844C7.26563 26.6406 9.15179 24.7545 11.4955 24.7545C13.8393 24.7545 15.7254 26.6518 15.7254 28.9844C15.7254 31.317 13.8393 33.2143 11.4955 33.2143Z" fill="#7C8C38"/>
</g>
<defs>
<clipPath id="clip0_30_477">
<rect width="40" height="40" fill="white"/>
</clipPath>
</defs>
</svg>
