<svg width="40" height="40" viewBox="0 0 40 40" fill="none" xmlns="http://www.w3.org/2000/svg">
<g clip-path="url(#clip0_30_481)">
<path d="M38.9765 15.6841L37.3078 4.3256C37.0584 2.65811 35.7445 1.36336 34.1045 1.1868L23.6698 0.0293713C22.2312 -0.127568 20.8022 0.382486 19.776 1.43202L1.40032 20.2255C-0.460264 22.1284 -0.460264 25.228 1.40032 27.1309L12.583 38.5679C14.4436 40.4708 17.4743 40.4708 19.3349 38.5679L37.6338 19.8528C38.708 18.7542 39.2067 17.2045 38.9765 15.6743V15.6841ZM30.1339 15.1937C28.7817 16.5767 26.5758 16.5767 25.2235 15.1937C23.8712 13.8106 23.8712 11.5546 25.2235 10.1716C26.5758 8.78857 28.7817 8.78857 30.1339 10.1716C31.4862 11.5546 31.4862 13.8106 30.1339 15.1937V15.1937Z" fill="#7C8C38"/>
</g>
<defs>
<clipPath id="clip0_30_481">
<rect width="40" height="40" fill="white"/>
</clipPath>
</defs>
</svg>
