<svg width="29" height="43" viewBox="0 0 29 43" fill="none" xmlns="http://www.w3.org/2000/svg">
<path d="M21 12.5571C21 12.4571 21 12.3571 20.95 12.2571C20.9392 12.1825 20.9225 12.1089 20.9 12.0371L20.84 11.7971C20.8187 11.735 20.802 11.6715 20.79 11.6071C20.79 11.5071 20.72 11.4171 20.69 11.3271L20.6 11.1071C20.6043 11.0672 20.6043 11.0269 20.6 10.9871L20.42 10.6071L20.35 10.4671C20.3536 10.4405 20.3536 10.4136 20.35 10.3871C20.27 10.2371 20.18 10.0971 20.09 9.94706C20.0851 9.92061 20.0851 9.8935 20.09 9.86706C19.96 9.67706 19.85 9.52706 19.73 9.37706V9.31706C19.6018 9.15638 19.4649 9.00282 19.32 8.85706C18.0604 7.59295 16.3544 6.87463 14.57 6.85706H14.49C12.7303 6.92452 11.0652 7.671 9.84414 8.93981C8.62305 10.2086 7.94092 11.9011 7.94092 13.6621C7.94092 15.423 8.62305 17.1155 9.84414 18.3843C11.0652 19.6531 12.7303 20.3996 14.49 20.4671H14.58C16.3683 20.4543 18.0792 19.7354 19.34 18.4671C19.4922 18.3152 19.6357 18.1549 19.77 17.9871V17.9171C19.8912 17.7732 20.0047 17.623 20.11 17.4671L20.18 17.3471C20.27 17.2071 20.36 17.0571 20.44 16.9071C20.4452 16.884 20.4452 16.8601 20.44 16.8371C20.44 16.8371 20.44 16.7671 20.49 16.7371V16.6771C20.55 16.5571 20.61 16.4371 20.66 16.3171C20.71 16.1971 20.66 16.2371 20.66 16.1971L20.75 15.9771C20.786 15.8857 20.816 15.7922 20.84 15.6971C20.8613 15.635 20.878 15.5715 20.89 15.5071L20.96 15.2571C20.9814 15.1883 20.9981 15.1181 21.01 15.0471C21.01 14.9471 21.01 14.8471 21.06 14.7471V14.5171C21.0648 14.4705 21.0648 14.4236 21.06 14.3771C21.1133 13.9153 21.1133 13.4489 21.06 12.9871C21.0648 12.9405 21.0648 12.8936 21.06 12.8471L21 12.5571Z" fill="#7C8C38"/>
<path d="M26.13 22.527L26.37 22.147C26.3742 22.1306 26.3742 22.1134 26.37 22.097C26.55 21.757 26.83 21.257 26.84 21.237C27.9519 19.0721 28.5248 16.6707 28.51 14.237C28.51 13.967 28.51 13.707 28.51 13.457C28.51 13.207 28.51 13.227 28.51 13.117V12.897C28.5149 12.8271 28.5149 12.7569 28.51 12.687C28.515 12.5971 28.515 12.5069 28.51 12.417V12.217V11.937V11.717V11.527C28.51 11.417 28.51 11.317 28.46 11.207C28.4385 11.1247 28.4218 11.0412 28.41 10.957V10.727C28.3992 10.6492 28.3825 10.5723 28.36 10.497C28.3392 10.3824 28.3125 10.2689 28.28 10.157L28 10.007C28.0028 9.95371 28.0028 9.90031 28 9.84701C28 9.72701 27.93 9.60701 27.9 9.48701L27.85 9.33701C27.85 9.27701 27.85 9.21701 27.85 9.16701C27.85 9.11701 27.77 8.93701 27.72 8.81701L27.67 8.66701L27.61 8.50701C27.56 8.37701 27.51 8.24701 27.45 8.12701L27.3 8.00701L27.25 7.88701C27.1802 7.71566 27.1 7.54869 27.01 7.38701L27 7.24701C26.92 7.07701 26.83 6.91701 26.72 6.72701V6.64701L26.4 6.11701C26.3981 6.1004 26.3981 6.08362 26.4 6.06701L26.05 5.55701C25.92 5.37701 25.8 5.21701 25.67 5.05701L25.24 4.54701L24.6 4.00701C23.2362 2.68195 21.6197 1.64494 19.8467 0.957736C18.0737 0.270535 16.1806 -0.0527939 14.28 0.00701046C5.87 0.00701046 0 5.87701 0 14.287C0.00403157 16.8827 0.664513 19.4352 1.92 21.707L2.13 22.097V22.147L2.49 22.697L2.59 22.847L11.72 38.197L13.83 41.757C13.8878 41.8512 13.9686 41.929 14.0648 41.9833C14.1611 42.0375 14.2695 42.0663 14.38 42.067V42.067C14.4895 42.0627 14.5962 42.0312 14.6905 41.9753C14.7848 41.9194 14.8636 41.841 14.92 41.747L17 38.197L25.91 22.867L26.13 22.527ZM22.27 14.447C22.2749 14.5203 22.2749 14.5938 22.27 14.667V14.857C22.2598 14.9883 22.2397 15.1187 22.21 15.247C22.21 15.337 22.21 15.437 22.14 15.537V15.737C22.14 15.837 22.09 15.927 22.06 16.017C22.03 16.107 21.98 16.247 21.94 16.367L21.87 16.557C21.87 16.627 21.82 16.687 21.79 16.747C21.76 16.807 21.66 17.037 21.59 17.187L21.53 17.307L21.46 17.457C21.36 17.637 21.25 17.807 21.14 17.977L21.06 18.117L20.66 18.657L20.6 18.727C20.4477 18.9198 20.284 19.1035 20.11 19.277C19.3679 20.0321 18.4843 20.6335 17.5097 21.047C16.5352 21.4606 15.4886 21.678 14.43 21.687H14.35C12.2576 21.6134 10.2754 20.7304 8.82117 19.2241C7.36695 17.7177 6.55421 15.7057 6.55421 13.612C6.55421 11.5183 7.36695 9.50628 8.82117 7.99997C10.2754 6.49366 12.2576 5.61066 14.35 5.53701H14.44C16.5346 5.58493 18.5285 6.44559 20 7.93701C20.18 8.12701 20.34 8.29701 20.48 8.46701L20.53 8.53701C20.68 8.72701 20.81 8.90701 20.94 9.08701L21 9.19701C21.13 9.39701 21.24 9.56701 21.34 9.74701L21.41 9.89701V9.95701C21.5 10.147 21.58 10.297 21.64 10.457C21.6727 10.5211 21.6994 10.5881 21.72 10.657L21.79 10.837C21.79 10.957 21.88 11.067 21.91 11.187C21.94 11.307 21.96 11.367 21.99 11.467V11.667C22.0192 11.7656 22.0425 11.8657 22.06 11.967C22.0905 12.0918 22.1106 12.2189 22.12 12.347V12.537C22.1249 12.6103 22.1249 12.6838 22.12 12.757C22.135 13.0301 22.135 13.3039 22.12 13.577C22.1866 13.8639 22.2367 14.1544 22.27 14.447V14.447Z" fill="#7C8C38"/>
</svg>
