<svg width="40" height="40" viewBox="0 0 40 40" fill="none" xmlns="http://www.w3.org/2000/svg">
<g clip-path="url(#clip0_30_475)">
<path d="M23.2534 12.3041V1.82456C23.2534 0.818713 22.5235 0 21.6267 0C18.1648 0 15.3493 3.15789 15.3493 7.04094V12.0702H3.37852C1.50156 12.0702 0 13.7778 0 15.8596C0 17.3099 0.729927 18.5497 1.77268 19.1813C0.709072 19.8129 0 21.0526 0 22.5029C0 23.9532 0.729927 25.1696 1.77268 25.8246C0.709072 26.4561 0 27.6959 0 29.1462C0 30.7602 0.896767 32.117 2.14807 32.6784C0.896767 33.2398 0 34.5965 0 36.2105C0 38.3158 1.52242 40 3.37852 40H21.6893C25.1929 40 28.0292 36.8187 28.0292 32.8889V19.2047C28.0292 15.883 25.9854 13.0994 23.2325 12.3275L23.2534 12.3041Z" fill="#7C8C38"/>
<path d="M37.6434 14.9006H32.8676C31.5661 14.9006 30.511 16.0841 30.511 17.5439V34.4796C30.511 35.9394 31.5661 37.1229 32.8676 37.1229H37.6434C38.9449 37.1229 40 35.9394 40 34.4796V17.5439C40 16.0841 38.9449 14.9006 37.6434 14.9006Z" fill="#7C8C38"/>
</g>
<defs>
<clipPath id="clip0_30_475">
<rect width="40" height="40" fill="white"/>
</clipPath>
</defs>
</svg>
