<svg width="40" height="40" viewBox="0 0 40 40" fill="none" xmlns="http://www.w3.org/2000/svg">
<g clip-path="url(#clip0_30_467)">
<path d="M19.1294 31.7091C17.579 31.9152 15.9571 32.0364 14.2755 32.0364C9.13536 32.0364 4.37686 30.9939 0.870602 29.2121C0.465116 29.0061 0 29.2849 0 29.7455V32.8242C0 32.8242 0 32.8727 0 32.9091C0 32.9455 0 32.9818 0 33.0182C0 36.8727 6.42814 40 14.347 40C16.0286 40 17.6386 39.8545 19.1413 39.5879C19.1413 39.5273 19.1175 39.4545 19.1175 39.3939V31.7091H19.1294ZM14.347 0C6.42814 0 0 3.12727 0 6.98182V14.0606C0 14.2545 0.0834824 14.4364 0.238521 14.5455C3.17233 16.8 8.49135 18.2424 14.2874 18.2424C20.0835 18.2424 25.5933 16.7273 28.4914 14.4242C28.6345 14.303 28.7179 14.1333 28.7179 13.9394V6.98182C28.7179 3.12727 22.2898 0 14.3709 0H14.347ZM14.347 9.98788C10.006 9.98788 6.48778 8.64242 6.48778 6.99394C6.48778 5.34545 10.006 4 14.347 4C18.6881 4 22.2063 5.34545 22.2063 6.99394C22.2063 8.64242 18.6881 9.98788 14.347 9.98788V9.98788ZM0.870602 18.4606C0.465116 18.2545 0 18.5333 0 18.9939V24.8121C0 25.0061 0.0834824 25.1879 0.238521 25.297C3.17233 27.5515 8.49135 28.9939 14.2874 28.9939C15.9571 28.9939 17.5909 28.8606 19.1413 28.6303V28.4848C19.1413 26.6909 20.4293 25.1879 22.1228 24.897V23.9394C22.1228 22.6182 22.4091 21.3697 22.91 20.2303C20.3101 20.897 17.3882 21.2848 14.2993 21.2848C9.15921 21.2848 4.40072 20.2424 0.894454 18.4606H0.870602Z" fill="#7C8C38"/>
<path d="M39.4037 27.8789H37.0185V23.9395C37.0185 20.5941 34.3471 17.8789 31.0555 17.8789C27.7639 17.8789 25.0925 20.5941 25.0925 23.9395V27.8789H22.7073C22.3733 27.8789 22.111 28.1456 22.111 28.485V39.3941C22.111 39.7335 22.3733 40.0001 22.7073 40.0001H39.4037C39.7377 40.0001 40 39.7335 40 39.3941V28.485C40 28.1456 39.7377 27.8789 39.4037 27.8789ZM34.037 27.8789H28.074V23.9395C28.074 22.2668 29.4097 20.9092 31.0555 20.9092C32.7013 20.9092 34.037 22.2668 34.037 23.9395V27.8789Z" fill="#7C8C38"/>
</g>
<defs>
<clipPath id="clip0_30_467">
<rect width="40" height="40" fill="white"/>
</clipPath>
</defs>
</svg>
