<svg width="40" height="40" viewBox="0 0 40 40" fill="none" xmlns="http://www.w3.org/2000/svg">
<g clip-path="url(#clip0_30_486)">
<path d="M14.6705 14.4711C14.6705 12.8505 14.6115 11.2585 14.6312 9.62352C14.6312 7.87379 16.1651 6.4109 18.3873 5.90893C20.6095 5.40696 22.9891 5.99498 24.3657 7.4005C24.9753 8.01721 25.349 8.71997 25.3293 9.4801C25.3293 11.445 25.29 13.3525 25.2506 15.3173C25.2506 15.3603 25.2506 15.389 25.231 15.389H33.3529C33.3529 15.389 33.3332 15.2456 33.3529 15.1596C33.3529 13.3955 33.3725 11.6744 33.3922 9.91036C33.4119 6.76945 31.8386 4.17354 28.5545 2.13697C26.6469 0.960918 24.405 0.315525 21.9075 0.0573682C21.4748 0.0143421 21.0618 0 20.6292 0H19.3706C18.9773 0 18.5643 0 18.171 0.0573682C12.7039 0.717103 9.06577 2.96881 7.21719 6.75511C6.70589 7.78774 6.58789 8.86339 6.58789 9.95339C6.58789 11.7175 6.60756 13.3955 6.62722 15.1596C6.62722 15.2456 6.62722 15.389 6.62722 15.389H14.7295C14.7098 15.2599 14.6705 14.7867 14.6705 14.4568V14.4711Z" fill="#7C8C38"/>
<path d="M33.0383 13.7109H6.96165C3.11684 13.7109 0 15.984 0 18.788V34.9228C0 37.7268 3.11684 39.9999 6.96165 39.9999H33.0383C36.8832 39.9999 40 37.7268 40 34.9228V18.788C40 15.984 36.8832 13.7109 33.0383 13.7109Z" fill="#7C8C38"/>
<path d="M22.8515 28.5982V34.0625C22.8515 35.1812 21.6126 36.0991 20.0983 36.0991C18.5841 36.0991 17.3451 35.1812 17.3451 34.0625V28.5982C15.2409 27.8524 13.7856 26.3178 13.7856 24.5394C13.7856 22.0295 16.5192 19.9929 19.9607 19.9929C23.4022 19.9929 26.2537 22.0295 26.2537 24.5394C26.2537 26.3178 24.7198 27.8524 22.8712 28.5982H22.8515Z" fill="#7C8C38"/>
</g>
<defs>
<clipPath id="clip0_30_486">
<rect width="40" height="40" fill="white"/>
</clipPath>
</defs>
</svg>
