<svg width="40" height="25" viewBox="0 0 40 25" fill="none" xmlns="http://www.w3.org/2000/svg">
<g clip-path="url(#clip0_30_457)">
<path d="M37.0528 0H2.94717C1.31603 0 0 1.25176 0 2.80324V22.1968C0 23.7482 1.31603 25 2.94717 25H37.0528C38.684 25 40 23.7482 40 22.1968V2.80324C40 1.25176 38.684 0 37.0528 0ZM37.6274 3.22638L20.3707 12.359C20.278 12.4118 20.1483 12.4471 20.0371 12.4471H19.9444C19.8332 12.4471 19.722 12.4118 19.6108 12.359L2.37257 3.22638C2.03892 3.05007 1.92771 2.6622 2.11307 2.34485C2.29842 2.0275 2.70621 1.92172 3.03985 2.09803L20 11.0719L36.9787 2.09803C37.3123 1.92172 37.7201 2.04513 37.9055 2.34485C38.0908 2.6622 37.9611 3.05007 37.646 3.22638H37.6274Z" fill="#7C8C38"/>
</g>
<defs>
<clipPath id="clip0_30_457">
<rect width="40" height="25" fill="white"/>
</clipPath>
</defs>
</svg>
