<svg width="40" height="36" viewBox="0 0 40 36" fill="none" xmlns="http://www.w3.org/2000/svg">
<g clip-path="url(#clip0_31_3)">
<path d="M38.0844 10.7934L22.3593 1.51358C20.9199 0.663442 19.0909 0.663442 17.6515 1.51358L1.91558 10.7934C0.714286 11.5001 0 12.719 0 14.0301V32.1595C0 34.2797 1.86147 36.0005 4.16667 36.0005H35.8333C38.1385 36.0005 40 34.2797 40 32.1595V14.0301C40 12.719 39.2749 11.5001 38.0844 10.7934ZM14.881 26.1061L5.14069 33.2759C4.89177 33.4603 4.59957 33.5423 4.30736 33.5423C3.90693 33.5423 3.50649 33.3681 3.23593 33.0506C2.78139 32.4975 2.87879 31.6883 3.47403 31.2582L13.2143 24.0883C13.7987 23.6581 14.6537 23.7503 15.1082 24.3137C15.5628 24.8668 15.4654 25.6759 14.8701 26.1061H14.881ZM18.7121 23.0948L6.37446 14.829C5.01082 13.9174 5.71429 11.9201 7.4026 11.9201H32.5974C34.2857 11.9201 34.9892 13.9072 33.6255 14.829L21.2879 23.0948C20.5195 23.6069 19.4805 23.6069 18.7121 23.0948V23.0948ZM36.7641 33.0506C36.4935 33.3784 36.0931 33.5423 35.6926 33.5423C35.4004 33.5423 35.1082 33.4501 34.8593 33.2759L25.119 26.1061C24.5346 25.6759 24.4264 24.8668 24.881 24.3137C25.3355 23.7606 26.1905 23.6581 26.7749 24.0883L36.5152 31.2582C37.0996 31.6883 37.2078 32.4975 36.7532 33.0506H36.7641Z" fill="#7C8C38"/>
<path d="M24.87 14.3374H16.212C15.3137 14.3374 14.5886 15.0237 14.5886 15.8738C14.5886 16.7239 15.3137 17.4102 16.212 17.4102H24.87C25.7683 17.4102 26.4934 16.7239 26.4934 15.8738C26.4934 15.0237 25.7683 14.3374 24.87 14.3374Z" fill="#7C8C38"/>
</g>
<defs>
<clipPath id="clip0_31_3">
<rect width="40" height="36" fill="white" transform="translate(0 0.000488281)"/>
</clipPath>
</defs>
</svg>
