<svg width="40" height="40" viewBox="0 0 40 40" fill="none" xmlns="http://www.w3.org/2000/svg">
<g clip-path="url(#clip0_31_2)">
<path d="M38.4265 24.2448C37.4747 23.0873 35.7482 22.8836 34.5418 23.7947L26.7059 29.7432C26.3186 30.0433 25.8316 30.2041 25.3446 30.2041H19.7333C18.9697 30.2041 18.3499 29.6146 18.3499 28.8751C18.3499 28.1355 18.9697 27.5353 19.7333 27.5353H24.4371C25.9644 27.5353 27.204 26.3242 27.204 24.8451C27.204 23.366 25.9644 22.1655 24.4371 22.1655H19.2242H15.6715H13.6683H12.9378C11.4547 22.1655 10.0049 22.6478 8.84279 23.5374L5.00233 26.4635C4.75884 26.6457 4.71457 26.9887 4.91379 27.2138L12.3734 36.3563C12.473 36.4849 12.639 36.56 12.805 36.56L21.8362 36.635L24.3374 36.6564C25.8537 36.6671 27.3257 36.1848 28.5099 35.2738L37.9949 28.0176C39.2013 27.0959 39.4005 25.4131 38.4487 24.2448H38.4265Z" fill="#7C8C38"/>
<path d="M2.72243 28.8751C2.53428 28.6393 2.18012 28.6071 1.9477 28.7893L0.210082 30.1184C-0.0334054 30.3006 -0.0666083 30.6436 0.121541 30.8687L7.40403 39.7968C7.59218 40.0326 7.94634 40.0648 8.17876 39.8826L9.91638 38.5535C10.1599 38.3713 10.1931 38.0284 10.0049 37.8033L2.72243 28.8751ZM23.9944 0.000488281C18.6155 0.000488281 14.2438 4.22343 14.2438 9.44315C14.2438 14.6629 18.6044 18.8858 23.9944 18.8858C29.3843 18.8858 33.7449 14.6629 33.7449 9.44315C33.7449 4.22343 29.3732 0.000488281 23.9944 0.000488281ZM23.4521 7.62107L25.6988 8.74647C27.038 9.41099 27.7574 10.7936 27.5139 12.2406C27.3257 13.3767 26.5953 14.2663 25.566 14.7057V14.9951C25.566 15.7347 24.9462 16.3349 24.1825 16.3349C23.4189 16.3349 22.7991 15.7347 22.7991 14.9951V14.7915C21.7144 14.4485 20.8069 13.6768 20.331 12.6157C20.0211 11.9405 20.3531 11.1473 21.0504 10.8579C21.7477 10.5578 22.5667 10.8794 22.8655 11.5546C23.0979 12.0691 23.6402 12.3692 24.2047 12.3263C24.6363 12.262 24.747 12.0262 24.7802 11.8333C24.8023 11.7261 24.8244 11.3403 24.426 11.1366L22.1793 10.0112C20.818 9.33597 20.0986 7.89974 20.3863 6.44207C20.6298 5.16662 21.5595 4.20199 22.7991 3.88045V3.6768C22.7991 2.93725 23.4189 2.33704 24.1825 2.33704C24.9462 2.33704 25.566 2.93725 25.566 3.6768V4.16983C26.4292 4.57712 27.1376 5.25236 27.536 6.14197C27.8459 6.81721 27.5249 7.61035 26.8166 7.91046C26.1083 8.21056 25.3004 7.89974 24.9905 7.21378C24.758 6.69931 24.2157 6.38848 23.6513 6.44207C23.2307 6.48495 23.12 6.77434 23.0868 6.93511C23.0536 7.07444 23.0426 7.43886 23.4299 7.63178L23.4521 7.62107Z" fill="#7C8C38"/>
</g>
<defs>
<clipPath id="clip0_31_2">
<rect width="40" height="40" fill="white" transform="translate(0 0.000488281)"/>
</clipPath>
</defs>
</svg>
