<svg width="40" height="40" viewBox="0 0 40 40" fill="none" xmlns="http://www.w3.org/2000/svg">
<g clip-path="url(#clip0_30_491)">
<path d="M11.3724 17.9958C10.856 17.1896 10.5548 16.265 10.5548 15.2896C10.5548 8.91333 11.9932 3.72094 14.3661 0.608887C6.06731 2.41861 0 8.14095 0 15.284C0 16.9753 1.67819 18.3397 3.51621 18.3397H9.81712C10.3642 18.3397 10.8929 18.2044 11.3724 17.9901V17.9958ZM11.4953 23.814C11.1634 23.0247 10.2044 22.6357 9.34378 22.9345C8.48317 23.2389 8.05901 24.124 8.38482 24.9077L10.4441 29.8126L7.33364 37.4235C7.00784 38.2128 7.44429 39.0923 8.31105 39.3911C9.17781 39.6899 10.1368 39.2896 10.4564 38.4947L13.3825 31.3348H15.5525V28.2791H13.3702L11.4953 23.8083V23.814ZM27.8285 28.2847H21.6751V20.8936H18.3433V38.4722C18.3433 39.3178 19.0871 40 20.0092 40C20.9313 40 21.6751 39.3178 21.6751 38.4722V31.3404H25.5233L28.4494 38.5004C28.7014 39.1149 29.3346 39.4926 30.0108 39.4926C30.2075 39.4926 30.4042 39.4644 30.5947 39.3968C31.4554 39.098 31.8918 38.2185 31.5722 37.4292L27.8346 28.2847H27.8285ZM25.6401 0.608887C28.0129 3.7153 29.4514 8.91333 29.4514 15.2896C29.4514 16.265 29.1501 17.1896 28.6338 17.9958C29.1133 18.21 29.6419 18.3453 30.189 18.3453H36.4838C38.3218 18.3453 40 16.9753 40 15.2896C40 8.14659 33.9327 2.41861 25.6339 0.608887H25.6401Z" fill="#7C8C38"/>
<path d="M20.003 0C16.3208 0 13.3333 6.60183 13.3333 15.284C13.3333 16.9753 15.0114 18.3397 16.8495 18.3397H23.1442C24.9822 18.3397 26.6604 16.9697 26.6604 15.284C26.6604 6.60183 23.6729 0 19.9907 0H20.003Z" fill="#7C8C38"/>
</g>
<defs>
<clipPath id="clip0_30_491">
<rect width="40" height="40" fill="white"/>
</clipPath>
</defs>
</svg>
