<svg width="40" height="36" viewBox="0 0 40 36" fill="none" xmlns="http://www.w3.org/2000/svg">
<g clip-path="url(#clip0_359_16750)">
<path d="M26.8729 21.6582C26.4734 21.4052 26.1038 20.8869 25.6745 20.2945C24.5893 18.7951 23.1106 16.7404 19.5093 16.7404C15.9079 16.7404 14.4292 18.7951 13.3441 20.2945C12.9148 20.8869 12.5451 21.399 12.1516 21.6582C8.78875 23.824 7.15503 26.397 7.15503 29.5316C7.15503 32.3577 9.83218 35.1282 12.563 35.1282C15.5204 35.1282 16.8262 34.1718 17.7802 33.4745C18.3943 33.0241 18.7997 32.7279 19.5152 32.7279C20.2307 32.7279 20.6362 33.0241 21.2503 33.4745C22.2043 34.1718 23.5041 35.1282 26.4675 35.1282C29.1983 35.1282 31.8754 32.3577 31.8754 29.5316C31.8754 26.397 30.2417 23.824 26.8789 21.6582H26.8729Z" fill="#7C8C38"/>
<path d="M8.55618 17.598C7.60219 13.9204 5.05025 11.5325 2.7547 12.1742C1.58605 12.5012 0.703607 13.5317 0.274308 15.0804C-0.113252 16.4873 -0.0894025 18.1903 0.345858 19.8748C0.781119 21.5594 1.58009 23.0464 2.59967 24.0646C3.47616 24.9469 4.44208 25.4035 5.38415 25.4035C5.64053 25.4035 5.89692 25.3665 6.14735 25.2986C8.44886 24.6631 9.50422 21.2755 8.55022 17.598H8.55618Z" fill="#7C8C38"/>
<path d="M13.0399 15.9382C15.8064 15.9382 17.9708 12.4395 17.9708 7.96599C17.9708 3.49245 15.8005 0 13.0399 0C10.2792 0 8.10889 3.49862 8.10889 7.97216C8.10889 12.4457 10.2733 15.9443 13.0399 15.9443V15.9382Z" fill="#7C8C38"/>
<path d="M25.9844 15.9382C28.751 15.9382 30.9154 12.4395 30.9154 7.96599C30.9154 3.49245 28.751 0 25.9844 0C23.2178 0 21.0535 3.49862 21.0535 7.97216C21.0535 12.4457 23.2178 15.9443 25.9844 15.9443V15.9382Z" fill="#7C8C38"/>
<path d="M36.2698 12.1742C35.1012 11.8471 33.8371 12.2914 32.7222 13.4083C31.7085 14.4264 30.9036 15.9134 30.4683 17.598C30.0331 19.2825 30.0033 20.9855 30.3968 22.3924C30.8261 23.9411 31.7026 24.9778 32.8772 25.2986C33.1276 25.3665 33.384 25.4035 33.6344 25.4035C35.7153 25.4035 37.832 23.1575 38.6787 19.8748C39.6327 16.1973 38.5773 12.8097 36.2758 12.1742H36.2698Z" fill="#7C8C38"/>
</g>
<defs>
<clipPath id="clip0_359_16750">
<rect width="40" height="36" fill="white"/>
</clipPath>
</defs>
</svg>
