<svg width="40" height="40" viewBox="0 0 40 40" fill="none" xmlns="http://www.w3.org/2000/svg">
<g clip-path="url(#clip0_30_479)">
<path d="M8.43518 11.9016C9.61108 10.7427 10.7243 9.66221 11.8688 8.51904C12.2137 8.83224 24.2863 20.859 29.9463 26.5279C30.3383 26.9194 30.7459 27.3265 31.0438 27.7807C31.6867 28.7986 31.5926 29.8321 30.7616 30.7091C29.9307 31.5704 28.9115 31.7113 27.8454 31.1162C27.5005 30.9283 27.1712 30.6464 26.889 30.3646C20.8841 24.3825 8.60765 12.1208 8.43518 11.9016Z" fill="#7C8C38"/>
<path d="M13.5308 2.94431C13.5308 2.94431 6.50678 9.95993 2.99476 13.4521C2.25786 12.6221 1.3485 11.7921 0.705671 10.7899C-0.454551 8.97336 -0.156656 6.76532 1.39553 5.05839C2.41465 3.93088 3.51216 2.88167 4.59398 1.83246C7.0085 -0.500859 9.83066 -0.641798 12.2609 1.6602C12.7312 2.11434 13.5465 2.94431 13.5465 2.94431H13.5308Z" fill="#7C8C38"/>
<path d="M4.93884 15.3155C4.93884 15.3155 6.05203 14.1097 6.5851 13.5146C7.07114 13.9844 7.4004 14.3446 7.76101 14.6891C13.4367 20.358 19.0967 26.0112 24.7724 31.6801C25.1016 32.009 25.6817 32.4944 25.7915 32.8859C25.9169 33.34 25.8385 33.8255 25.4936 34.17C25.2584 34.4049 24.7724 34.5459 24.3177 34.4676C24.0198 34.4206 23.5808 33.9508 23.3299 33.7002C17.372 27.7495 11.4141 21.7987 5.45624 15.848C5.31513 15.707 4.93884 15.3312 4.93884 15.3312V15.3155Z" fill="#7C8C38"/>
<path d="M13.4524 6.81212C13.4524 6.81212 14.5656 5.60631 15.0987 5.01123C15.5847 5.48103 15.9139 5.8412 16.2746 6.18572C21.9502 11.8546 27.6102 17.5078 33.2859 23.1767C33.6152 23.5055 34.1953 23.991 34.305 24.3825C34.4305 24.8366 34.3521 25.3221 34.0071 25.6666C33.772 25.9015 33.2859 26.0424 32.8312 25.9641C32.5333 25.9172 32.0943 25.4474 31.8435 25.1968C25.8856 19.2461 19.9277 13.2953 13.9698 7.34455C13.8287 7.20361 13.4524 6.82778 13.4524 6.82778V6.81212Z" fill="#7C8C38"/>
<path d="M27.4534 36.1589C27.861 34.5459 28.6136 33.9038 30.1815 33.7316C32.204 33.4967 33.3486 31.9933 33.8189 29.5034C33.9443 28.7831 34.4304 28.188 35.0889 27.8904C35.4025 27.7495 35.7474 27.5929 36.1237 27.4207C37.0958 31.273 38.0365 35.0314 39.0399 39.0559C35.0732 38.0694 31.279 37.1298 27.469 36.1745L27.4534 36.1589Z" fill="#7C8C38"/>
</g>
<defs>
<clipPath id="clip0_30_479">
<rect width="40" height="40" fill="white"/>
</clipPath>
</defs>
</svg>
