<svg width="40" height="40" viewBox="0 0 40 40" fill="none" xmlns="http://www.w3.org/2000/svg">
<g clip-path="url(#clip0_30_471)">
<path d="M39.9823 18.502C39.7164 8.13451 31.3161 0 20.86 0C10.4038 0 2.21615 7.97501 1.75538 18.1476C1.75538 18.4311 1.73765 18.697 1.73765 18.9805C1.73765 22.3655 2.64149 25.6618 4.34282 28.5505C4.37827 28.6214 4.39599 28.71 4.36055 28.7809L0.975597 38.794C0.92243 38.9358 1.06421 39.0598 1.18826 39.0244L11.6089 35.7103C11.6089 35.7103 11.7507 35.7103 11.8216 35.7281C14.5863 37.199 17.7054 37.9788 20.86 37.9788C31.4047 37.9788 39.9823 29.4544 39.9823 18.9983C39.9823 18.8565 39.9823 18.5197 39.9823 18.5197V18.502ZM7.95816 27.5404C6.2391 25.0061 5.33527 22.0642 5.33527 18.9805C5.33527 18.4843 5.35299 18.0058 5.40616 17.4919C6.18594 9.55229 12.8141 3.57989 20.86 3.57989C28.9059 3.57989 35.7112 9.81813 36.3492 17.7931C36.3846 18.2539 36.4024 18.6438 36.4024 18.9983C36.4024 27.5049 29.4375 34.4166 20.86 34.4166C18.5738 34.4166 16.3408 33.9204 14.3027 32.9634C13.7356 32.6975 12.6546 32.0595 12.3001 31.8469C12.2292 31.8114 12.1406 31.7937 12.0697 31.8292L6.82394 33.495C6.69988 33.5305 6.59355 33.4242 6.62899 33.3001L8.33033 28.3024C8.33033 28.3024 8.33033 28.1252 8.29489 28.0543C8.18855 27.9125 8.02905 27.6822 7.94044 27.5581L7.95816 27.5404Z" fill="#7C8C38"/>
<path d="M29.9693 23.1985C29.8452 23.0035 29.03 22.6137 29.03 22.6137C28.711 22.4542 26.3007 21.2845 25.8577 21.125C25.4678 20.9832 25.0425 20.8237 24.6526 21.4085C24.3513 21.8516 23.4829 22.8618 23.1994 23.1808C23.0044 23.4112 22.8272 23.482 22.3841 23.2517C22.3132 23.2162 20.1688 22.3124 18.6979 21.0009C17.3865 19.849 16.4826 18.4312 16.1636 17.8641C15.9687 17.5274 16.0927 17.3679 16.3408 17.1198C16.5003 16.978 17.1738 16.145 17.227 16.0741C17.3333 15.9146 17.5282 15.5248 17.5282 15.5248C17.7232 15.1349 17.5991 14.7981 17.4928 14.5855C17.4219 14.426 16.1813 11.4664 16.075 11.2005C15.7206 10.3676 15.3484 10.3144 14.994 10.3499C14.8167 10.3499 13.1863 10.3676 12.6723 10.9347L12.5837 11.0233C12.0698 11.555 11.0242 12.6715 11.0242 14.8513C11.0242 15.3475 11.1128 15.8792 11.2723 16.4463C11.5736 17.4919 12.1584 18.6261 12.9382 19.6718C12.9382 19.6895 14.1433 21.3377 14.7458 22.0288C16.6244 24.1909 18.7511 25.7859 20.8955 26.6366C23.6424 27.6999 24.8121 27.948 25.4678 27.948C25.7514 27.948 26.3716 27.8063 26.4957 27.7885C27.3286 27.7177 29.3135 26.672 29.7389 25.5201C30.1288 24.4213 30.1465 23.4643 29.987 23.2162L29.9693 23.1985Z" fill="#7C8C38"/>
</g>
<defs>
<clipPath id="clip0_30_471">
<rect width="40" height="40" fill="white"/>
</clipPath>
</defs>
</svg>
