<svg width="40" height="40" viewBox="0 0 40 40" fill="none" xmlns="http://www.w3.org/2000/svg">
<g clip-path="url(#clip0_30_453)">
<path d="M38.8351 29.5039C38.5826 29.0713 36.8996 28.2061 36.8996 28.2061C36.2264 27.8418 31.3247 25.2463 30.3991 24.882C29.5996 24.586 28.7161 24.2217 27.9166 25.5195C27.3066 26.4985 25.5184 28.7525 24.9504 29.4584C24.5507 29.9593 24.172 30.1186 23.2674 29.6405C23.1201 29.5722 18.7443 27.5458 15.736 24.6543C13.0642 22.1043 11.2129 18.9395 10.5397 17.7101C10.119 16.9587 10.3925 16.5944 10.8974 16.048C11.2129 15.7065 12.6014 13.9078 12.7066 13.7257C12.917 13.3614 13.3167 12.4962 13.3167 12.4962C13.7164 11.6538 13.4639 10.9024 13.2536 10.4243C13.0853 10.0828 10.5818 3.52558 10.3294 2.91084C9.63513 1.04386 8.87779 0.930024 8.14148 0.97556C7.78384 0.998328 4.45993 1.0211 3.38702 2.27334L3.19769 2.47825C2.16685 3.66219 0 6.1439 0 10.948C0 12.0408 0.168299 13.202 0.504898 14.4998C1.11498 16.8221 2.33515 19.3494 3.934 21.6489C3.97607 21.6945 6.39537 25.3601 7.61554 26.8856C11.4654 31.6896 15.8201 35.2187 20.1959 37.0856C25.8129 39.4535 28.1901 40 29.5576 40C30.1466 40 31.4088 39.6812 31.6823 39.6357C33.3864 39.4763 37.4676 37.1767 38.3302 34.6039C39.1506 32.1678 39.1506 30.0276 38.8561 29.4811L38.8351 29.5039Z" fill="#7C8C38"/>
</g>
<defs>
<clipPath id="clip0_30_453">
<rect width="40" height="40" fill="white"/>
</clipPath>
</defs>
</svg>
