<svg width="46" height="46" viewBox="0 0 46 46" fill="none" xmlns="http://www.w3.org/2000/svg">
<path fill-rule="evenodd" clip-rule="evenodd" d="M4.3125 8.625C4.3125 6.24328 6.24328 4.3125 8.625 4.3125H37.375C39.7568 4.3125 41.6875 6.24329 41.6875 8.625V37.375C41.6875 39.7568 39.7568 41.6875 37.375 41.6875H8.625C6.24329 41.6875 4.3125 39.7568 4.3125 37.375V8.625ZM8.625 7.1875C7.83109 7.1875 7.1875 7.83109 7.1875 8.625V37.375C7.1875 38.1689 7.83108 38.8125 8.625 38.8125H37.375C38.169 38.8125 38.8125 38.169 38.8125 37.375V8.625C38.8125 7.83108 38.1689 7.1875 37.375 7.1875H8.625Z" fill="#7C8C38"/>
<path d="M17.2499 22.0417C19.8963 22.0417 22.0416 19.8964 22.0416 17.25C22.0416 14.6037 19.8963 12.4584 17.2499 12.4584C14.6036 12.4584 12.4583 14.6037 12.4583 17.25C12.4583 19.8964 14.6036 22.0417 17.2499 22.0417Z" fill="#7C8C38"/>
<path fill-rule="evenodd" clip-rule="evenodd" d="M11.0208 17.25C11.0208 13.8098 13.8097 11.0209 17.2499 11.0209C20.6902 11.0209 23.4791 13.8098 23.4791 17.25C23.4791 20.6903 20.6902 23.4792 17.2499 23.4792C13.8097 23.4792 11.0208 20.6903 11.0208 17.25ZM17.2499 13.8959C15.3975 13.8959 13.8958 15.3976 13.8958 17.25C13.8958 19.1025 15.3975 20.6042 17.2499 20.6042C19.1024 20.6042 20.6041 19.1025 20.6041 17.25C20.6041 15.3976 19.1024 13.8959 17.2499 13.8959Z" fill="#7C8C38"/>
<path fill-rule="evenodd" clip-rule="evenodd" d="M28.7468 23.8481C29.2955 23.3543 30.1291 23.3564 30.6754 23.853L41.217 33.4363C41.8045 33.9703 41.8478 34.8795 41.3137 35.4669C40.7797 36.0544 39.8706 36.0977 39.2831 35.5636L29.7036 26.8549L21.0867 34.6101C20.5499 35.0933 19.7379 35.1031 19.1896 34.6331L13.3568 29.6335L6.61258 34.6916C5.97746 35.168 5.07643 35.0393 4.60008 34.4041C4.12374 33.769 4.25246 32.868 4.88758 32.3916L12.5543 26.6416C13.0933 26.2374 13.8407 26.2617 14.3523 26.7002L20.1019 31.6285L28.7468 23.8481Z" fill="#7C8C38"/>
</svg>
