<svg width="40" height="40" viewBox="0 0 40 40" fill="none" xmlns="http://www.w3.org/2000/svg">
<g clip-path="url(#clip0_30_458)">
<path d="M24.8577 2.4415L19.8731 0.0833527C19.2613 -0.204497 18.5793 0.288169 18.5793 1.0244V5.7407C18.5793 6.47693 19.2613 6.9696 19.8731 6.68175L24.8577 4.3236C25.6049 3.96932 25.6049 2.79578 24.8577 2.4415V2.4415Z" fill="#7C8C38"/>
<path d="M37.7356 29.2336C36.9684 29.1727 36.3265 29.8038 36.2513 30.6175L21.3726 9.2281C20.9314 8.5749 20.2494 8.19849 19.5122 8.19849C18.775 8.19849 18.093 8.5749 17.6618 9.21149L2.77313 30.6175C2.69791 29.8038 2.06104 29.1727 1.28878 29.2336C0.541587 29.2945 0 30.0529 0 30.8832V39.4855C0 39.7678 0.205603 40.0003 0.466367 40.0003H2.32682C2.58257 40.0003 2.79319 39.7734 2.79319 39.4855V35.6494L5.58136 31.6416V39.4855C5.58136 39.7678 5.78696 40.0003 6.04773 40.0003H13.0733C13.2338 40.0003 13.3842 39.9117 13.4695 39.7678C16.1072 35.2231 18.2084 28.6303 19.0809 25.6632C19.2213 25.1927 19.8231 25.1927 19.9635 25.6632C20.8361 28.6358 22.9372 35.2231 25.575 39.7678C25.6602 39.9173 25.8107 40.0003 25.9711 40.0003H32.9967C33.2525 40.0003 33.4631 39.7734 33.4631 39.4855V31.6416L36.2513 35.6494V39.4855C36.2513 39.7678 36.4569 40.0003 36.7176 40.0003H38.5781C38.8338 40.0003 39.0444 39.7734 39.0444 39.4855V30.8832C39.0444 30.0584 38.5029 29.2945 37.7557 29.2336H37.7356Z" fill="#7C8C38"/>
</g>
<defs>
<clipPath id="clip0_30_458">
<rect width="40" height="40.0003" fill="white"/>
</clipPath>
</defs>
</svg>
