<svg width="38" height="38" viewBox="0 0 38 38" fill="none" xmlns="http://www.w3.org/2000/svg">
<g clip-path="url(#clip0_795_38865)">
<path d="M34.8333 22.1667H3.16667C1.39333 22.1667 0 20.7734 0 19C0 17.2267 1.39333 15.8334 3.16667 15.8334H34.8333C36.6067 15.8334 38 17.2267 38 19C38 20.7734 36.6067 22.1667 34.8333 22.1667Z" fill="#7C8C38"/>
<path d="M18.9999 38C17.2266 38 15.8333 36.6067 15.8333 34.8333V3.16667C15.8333 1.39333 17.2266 0 18.9999 0C20.7733 0 22.1666 1.39333 22.1666 3.16667V34.8333C22.1666 36.6067 20.7733 38 18.9999 38Z" fill="#7C8C38"/>
</g>
<defs>
<clipPath id="clip0_795_38865">
<rect width="38" height="38" fill="white"/>
</clipPath>
</defs>
</svg>
