<svg width="40" height="40" viewBox="0 0 40 40" fill="none" xmlns="http://www.w3.org/2000/svg">
<g clip-path="url(#clip0_30_464)">
<path d="M38.4167 10.3711H34.7334V6.79534C34.7334 3.62851 32.276 1.08068 29.1314 0.975671C29.1259 0.975671 29.1204 0.975671 29.1149 0.975671C28.9885 0.964618 28.873 0.975671 28.7521 1.00331C27.3062 1.05305 25.9538 1.60019 24.9148 2.61712C23.7823 3.72247 23.1611 5.20364 23.1611 6.79534V7.19879H12.6333V6.79534C12.6333 6.07134 12.9192 5.4026 13.4305 4.89966C13.9472 4.39673 14.6234 4.13697 15.3876 4.15355H18.4222C19.2963 4.15355 20 3.4406 20 2.56738C20 1.69415 19.2908 0.975671 18.4222 0.975671H15.4316C13.8538 0.931457 12.3639 1.51177 11.2314 2.61712C10.099 3.72247 9.47773 5.20364 9.47773 6.79534V10.3711H1.57779C0.703683 10.3711 0 11.0841 0 11.9573C0 12.8306 0.709181 13.5435 1.57779 13.5435H9.47224V20.4243C9.47224 21.3031 10.1814 22.0105 11.05 22.0105C11.9186 22.0105 12.6278 21.2975 12.6278 20.4243V17.777H23.1556V20.4243C23.1556 21.3031 23.8648 22.0105 24.7334 22.0105C25.602 22.0105 26.3112 21.2975 26.3112 20.4243V6.79534C26.3112 6.07134 26.597 5.4026 27.1083 4.89966C27.6251 4.39673 28.3013 4.16461 29.0159 4.15355C30.4508 4.19777 31.5723 5.35838 31.5723 6.79534V10.3711H28.939C28.0649 10.3711 27.3612 11.0841 27.3612 11.9573C27.3612 12.8306 28.0704 13.5435 28.939 13.5435H38.4112C39.2853 13.5435 39.989 12.8306 39.989 11.9573C39.989 11.0841 39.2798 10.3711 38.4112 10.3711H38.4167ZM23.1556 14.6046H12.6333V10.3711H23.1611V14.6046H23.1556Z" fill="#7C8C38"/>
<path d="M38.5651 26.3324C33.1996 24.8236 26.6025 23.9338 19.4722 23.9338C12.3419 23.9338 5.75041 24.8236 0.384827 26.3324C0.153931 26.3988 0 26.6088 0 26.8464V39.4695C0 39.7625 0.236394 40.0001 0.527762 40.0001H38.4167C38.7081 40.0001 38.9445 39.7625 38.9445 39.4695V26.8464C38.9445 26.6088 38.7905 26.3988 38.5596 26.3324H38.5651Z" fill="#7C8C38"/>
</g>
<defs>
<clipPath id="clip0_30_464">
<rect width="40" height="40" fill="white"/>
</clipPath>
</defs>
</svg>
