<svg width="40" height="35" viewBox="0 0 40 35" fill="none" xmlns="http://www.w3.org/2000/svg">
<path d="M19.0625 3.26936L19.9297 4.20686L20.8672 3.27092C23.4844 0.720138 27.1094 -0.440799 30.6719 0.15217C36.0547 1.04904 40 5.70686 40 11.1678V11.6209C40 14.8631 38.6562 17.9647 36.2812 20.1756L22.1641 33.3553C21.5781 33.9022 20.8047 34.2069 20 34.2069C19.1953 34.2069 18.4219 33.9022 17.8359 33.3553L3.71797 20.1756C1.34609 17.9647 0 14.8631 0 11.6209V11.1678C0 5.70686 3.94688 1.04904 9.32813 0.15217C12.8203 -0.440799 16.5156 0.720138 19.0625 3.26936C19.0625 3.27014 18.9922 3.26936 19.0625 3.26936ZM19.9297 9.51154L16.4141 5.85529C14.7188 4.22873 12.3125 3.45686 9.94531 3.85061C6.37109 4.4467 3.75 7.54279 3.75 11.1678V11.6209C3.75 13.824 4.66484 15.9334 6.27656 17.4334L20 30.2459L33.7266 17.4334C35.3359 15.9334 36.25 13.824 36.25 11.6209V11.1678C36.25 7.54279 33.625 4.4467 30.0547 3.85061C27.6875 3.45686 25.2812 4.22873 23.5859 5.85529L19.9297 9.51154Z" fill="#F77152"/>
</svg>
