<svg width="40" height="40" viewBox="0 0 40 40" fill="none" xmlns="http://www.w3.org/2000/svg">
<path d="M0 14.914V14.4609C0 8.99994 3.94688 4.34213 9.32813 3.44525C12.8203 2.85228 16.5156 4.01322 19.0625 6.564L20 7.49994L20.8672 6.564C23.4844 4.01322 27.1094 2.85228 30.6719 3.44525C36.0547 4.34213 40 8.99994 40 14.4609V14.914C40 18.1562 38.6562 21.2578 36.2812 23.4687L22.1641 36.6484C21.5781 37.1953 20.8047 37.4999 20 37.4999C19.1953 37.4999 18.4219 37.1953 17.8359 36.6484L3.71797 23.4687C1.34609 21.2578 2.34375e-05 18.1562 2.34375e-05 14.914H0Z" fill="#F77152"/>
</svg>
