<svg width="34" height="40" viewBox="0 0 34 40" fill="none" xmlns="http://www.w3.org/2000/svg">
<path d="M15.0023 0.000283487L15.2965 0.0326617L31.9303 3.36683C32.6106 3.50322 33.124 4.04408 33.2418 4.70953L33.2673 5.00153V34.9987C33.2673 35.6939 32.8389 36.3046 32.211 36.551L31.9303 36.6334L15.2965 39.9676C14.8079 40.0656 14.3011 39.9386 13.9158 39.6222C13.6074 39.3688 13.4028 39.0153 13.3332 38.6283L13.3069 38.3329V1.66737L13.3332 1.37191C13.4028 0.984945 13.6074 0.631464 13.9158 0.378147C14.2241 0.124831 14.61 -0.00696195 15.0023 0.000283487V0.000283487ZM9.9802 3.33445V6.66862H3.32673V33.3316H9.9802V36.6658H1.66337C0.846794 36.6658 0.167641 36.0759 0.0267991 35.2983L0 34.9987V5.00154C0 4.18314 0.588423 3.50247 1.36438 3.36131L1.66337 3.33445H9.9802ZM16.6337 3.70091V36.2993L29.9406 33.632V6.36824L16.6337 3.70091ZM21.6238 18.3329C22.5424 18.3329 23.2871 19.0793 23.2871 20C23.2871 20.9207 22.5424 21.6671 21.6238 21.6671C20.7051 21.6671 19.9604 20.9207 19.9604 20C19.9604 19.0793 20.7051 18.3329 21.6238 18.3329Z" fill="#7C8C38"/>
</svg>
