<svg width="40" height="40" viewBox="0 0 40 40" fill="none" xmlns="http://www.w3.org/2000/svg">
<g clip-path="url(#clip0_30_494)">
<path d="M39.6451 8.51871C39.4701 7.81362 38.5879 7.57469 38.074 8.08847L32.2679 13.8947L26.9676 13.0116L26.0844 7.71132L31.8906 1.9051C32.4076 1.38819 32.1586 0.507422 31.4488 0.330955C27.7493 -0.585736 23.6756 0.40201 20.7842 3.29262C17.689 6.38783 16.8372 10.8745 18.1256 14.7864L1.46347 31.4485C-0.487822 33.3998 -0.487822 36.5636 1.46347 38.5149C3.41475 40.4663 6.57867 40.4663 8.52994 38.5149L25.1779 21.867C29.0914 23.1718 33.5695 22.3104 36.685 19.195C39.5795 16.3004 40.5657 12.2206 39.6451 8.51871ZM4.99749 36.8549C3.96289 36.8549 3.1235 36.0155 3.1235 34.981C3.1235 33.9456 3.96289 33.1069 4.99749 33.1069C6.03208 33.1069 6.87146 33.9456 6.87146 34.981C6.87146 36.0155 6.03208 36.8549 4.99749 36.8549Z" fill="#7C8C38"/>
</g>
<defs>
<clipPath id="clip0_30_494">
<rect width="40" height="40" fill="white"/>
</clipPath>
</defs>
</svg>
