<svg width="40" height="40" viewBox="0 0 40 40" fill="none" xmlns="http://www.w3.org/2000/svg">
<path d="M25.7419 20.2261H3.2062C2.79283 20.2261 2.45772 20.4583 2.45772 20.7447V21.787C2.45772 22.0735 2.79283 22.3057 3.2062 22.3057H25.7419C26.1553 22.3057 26.4904 22.0735 26.4904 21.787V20.7447C26.4904 20.4583 26.1553 20.2261 25.7419 20.2261Z" fill="#7C8C38"/>
<path d="M14.4704 34.7986C13.2254 34.7986 12.2175 35.4969 12.2175 36.3596V38.4392C12.2175 39.3018 13.2254 40.0001 14.4704 40.0001C15.7153 40.0001 16.7232 39.3018 16.7232 38.4392V36.3596C16.7232 35.4969 15.7153 34.7986 14.4704 34.7986ZM5.45903 32.719C4.21404 32.719 3.2062 33.4173 3.2062 34.28V36.3596C3.2062 37.2222 4.21404 37.9205 5.45903 37.9205C6.70402 37.9205 7.71186 37.2222 7.71186 36.3596V34.28C7.71186 33.4173 6.70402 32.719 5.45903 32.719ZM5.45903 24.3955C4.21404 24.3955 3.2062 25.0939 3.2062 25.9565V28.0361C3.2062 28.8987 4.21404 29.5971 5.45903 29.5971C6.70402 29.5971 7.71186 28.8987 7.71186 28.0361V25.9565C7.71186 25.0939 6.70402 24.3955 5.45903 24.3955ZM14.4704 26.4751C13.2254 26.4751 12.2175 27.1734 12.2175 28.0361V30.1157C12.2175 30.9783 13.2254 31.6766 14.4704 31.6766C15.7153 31.6766 16.7232 30.9783 16.7232 30.1157V28.0361C16.7232 27.1734 15.7153 26.4751 14.4704 26.4751ZM23.4817 32.719C22.2367 32.719 21.2289 33.4173 21.2289 34.28V36.3596C21.2289 37.2222 22.2367 37.9205 23.4817 37.9205C24.7267 37.9205 25.7345 37.2222 25.7345 36.3596V34.28C25.7345 33.4173 24.7267 32.719 23.4817 32.719ZM24.7563 0.996289C18.561 1.28384 13.6181 4.41092 12.0174 8.41606C5.97777 9.18628 1.33872 12.7344 0.975598 17.0836C0.953366 17.3763 1.30908 17.6279 1.73148 17.6279H27.2092C27.6391 17.6279 27.9948 17.3814 27.9651 17.0836C27.6316 13.0322 23.578 9.67922 18.146 8.61631C19.5096 6.41349 22.8147 4.91413 26.5645 5.16574C30.8553 5.45328 33.9974 8.12851 33.9974 11.117V38.9578C33.9974 39.2453 34.3309 39.4764 34.7458 39.4764H39.2515C39.6665 39.4764 40 39.2453 40 38.9578V10.8602C40 5.18628 33.0636 0.61118 24.7563 0.996289ZM23.4817 24.3904C22.2367 24.3904 21.2289 25.0887 21.2289 25.9514V28.0309C21.2289 28.8936 22.2367 29.5919 23.4817 29.5919C24.7267 29.5919 25.7345 28.8936 25.7345 28.0309V25.9514C25.7345 25.0887 24.7267 24.3904 23.4817 24.3904Z" fill="#7C8C38"/>
</svg>
