<svg width="6" height="23" viewBox="0 0 6 23" fill="none" xmlns="http://www.w3.org/2000/svg">
<path d="M3 16.4255C4.65696 16.4255 6 17.7139 6 19.3C6 20.8861 4.65696 22.1745 3 22.1745C1.34304 22.1745 0 20.8861 0 19.3C0 17.7139 1.34304 16.4255 3 16.4255ZM3 8.21277C4.65696 8.21277 6 9.50115 6 11.0872C6 12.6733 4.65696 13.9617 3 13.9617C1.34304 13.9617 0 12.6733 0 11.0872C0 9.50115 1.34304 8.21277 3 8.21277ZM3 5.74894C1.34304 5.74894 0 4.46056 0 2.87447C0 1.28684 1.34304 0 3 0C4.65696 0 6 1.28684 6 2.87447C6 4.46056 4.65696 5.74894 3 5.74894Z" fill="#A0A0A0"/>
</svg>
