<svg width="40" height="40" viewBox="0 0 40 40" fill="none" xmlns="http://www.w3.org/2000/svg">
<g clip-path="url(#clip0_30_468)">
<path d="M19.9909 0C8.95333 0 0 8.95333 0 19.9909C0 31.0285 8.95333 39.9819 19.9909 39.9819C31.0285 39.9819 39.9819 31.0285 39.9819 19.9909C39.9819 8.95333 31.0467 0 19.9909 0ZM9.89579 18.4504C9.89579 17.1092 10.9832 16.0036 12.3425 16.0036C13.7019 16.0036 14.7893 17.0911 14.7893 18.4504C14.7893 19.8097 13.7019 20.8971 12.3425 20.8971C10.9832 20.8971 9.89579 19.8097 9.89579 18.4504V18.4504ZM20.0091 30.9198C16.783 30.9198 14.1368 28.5274 13.72 25.4282H26.3163C25.8994 28.5274 23.2352 30.9198 20.0091 30.9198ZM27.6756 20.8971C26.3344 20.8971 25.2288 19.8097 25.2288 18.4504C25.2288 17.0911 26.3163 16.0036 27.6756 16.0036C29.0349 16.0036 30.1223 17.0911 30.1223 18.4504C30.1223 19.8097 29.0349 20.8971 27.6756 20.8971V20.8971Z" fill="#7C8C38"/>
</g>
<defs>
<clipPath id="clip0_30_468">
<rect width="40" height="40" fill="white"/>
</clipPath>
</defs>
</svg>
