<svg width="296" height="57" viewBox="0 0 296 57" fill="none" xmlns="http://www.w3.org/2000/svg">
<path d="M148.869 16.5H273.621" stroke="#E8E7D1" stroke-width="2" stroke-miterlimit="10"/>
<path d="M29.2559 16.5H148.869" stroke="#E8E7D1" stroke-width="2" stroke-miterlimit="10"/>
<path d="M28 30C36.2843 30 43 23.2843 43 15C43 6.71573 36.2843 0 28 0C19.7157 0 13 6.71573 13 15C13 23.2843 19.7157 30 28 30Z" fill="#7C8C38"/>
<path d="M147 30C155.284 30 162 23.2843 162 15C162 6.71573 155.284 0 147 0C138.716 0 132 6.71573 132 15C132 23.2843 138.716 30 147 30Z" fill="#E8E7D1"/>
<path d="M267 30C275.284 30 282 23.2843 282 15C282 6.71573 275.284 0 267 0C258.716 0 252 6.71573 252 15C252 23.2843 258.716 30 267 30Z" fill="#E8E7D1"/>
<path d="M29.4707 19H28.416V12.2793C28.1621 12.5215 27.8281 12.7637 27.4141 13.0059C27.0039 13.248 26.6348 13.4297 26.3066 13.5508V12.5312C26.8965 12.2539 27.4121 11.918 27.8535 11.5234C28.2949 11.1289 28.6074 10.7461 28.791 10.375H29.4707V19Z" fill="white"/>
<path d="M150.041 17.9863V19H144.363C144.355 18.7461 144.396 18.502 144.486 18.2676C144.631 17.8809 144.861 17.5 145.178 17.125C145.498 16.75 145.959 16.3164 146.561 15.8242C147.494 15.0586 148.125 14.4531 148.453 14.0078C148.781 13.5586 148.945 13.1348 148.945 12.7363C148.945 12.3184 148.795 11.9668 148.494 11.6816C148.197 11.3926 147.809 11.248 147.328 11.248C146.82 11.248 146.414 11.4004 146.109 11.7051C145.805 12.0098 145.65 12.4316 145.646 12.9707L144.562 12.8594C144.637 12.0508 144.916 11.4355 145.4 11.0137C145.885 10.5879 146.535 10.375 147.352 10.375C148.176 10.375 148.828 10.6035 149.309 11.0605C149.789 11.5176 150.029 12.084 150.029 12.7598C150.029 13.1035 149.959 13.4414 149.818 13.7734C149.678 14.1055 149.443 14.4551 149.115 14.8223C148.791 15.1895 148.25 15.6934 147.492 16.334C146.859 16.8652 146.453 17.2266 146.273 17.418C146.094 17.6055 145.945 17.7949 145.828 17.9863H150.041Z" fill="white"/>
<path d="M264.504 16.7324L265.559 16.5918C265.68 17.1895 265.885 17.6211 266.174 17.8867C266.467 18.1484 266.822 18.2793 267.24 18.2793C267.736 18.2793 268.154 18.1074 268.494 17.7637C268.838 17.4199 269.01 16.9941 269.01 16.4863C269.01 16.002 268.852 15.6035 268.535 15.291C268.219 14.9746 267.816 14.8164 267.328 14.8164C267.129 14.8164 266.881 14.8555 266.584 14.9336L266.701 14.0078C266.771 14.0156 266.828 14.0195 266.871 14.0195C267.32 14.0195 267.725 13.9023 268.084 13.668C268.443 13.4336 268.623 13.0723 268.623 12.584C268.623 12.1973 268.492 11.877 268.23 11.623C267.969 11.3691 267.631 11.2422 267.217 11.2422C266.807 11.2422 266.465 11.3711 266.191 11.6289C265.918 11.8867 265.742 12.2734 265.664 12.7891L264.609 12.6016C264.738 11.8945 265.031 11.3477 265.488 10.9609C265.945 10.5703 266.514 10.375 267.193 10.375C267.662 10.375 268.094 10.4766 268.488 10.6797C268.883 10.8789 269.184 11.1523 269.391 11.5C269.602 11.8477 269.707 12.2168 269.707 12.6074C269.707 12.9785 269.607 13.3164 269.408 13.6211C269.209 13.9258 268.914 14.168 268.523 14.3477C269.031 14.4648 269.426 14.709 269.707 15.0801C269.988 15.4473 270.129 15.9082 270.129 16.4629C270.129 17.2129 269.855 17.8496 269.309 18.373C268.762 18.8926 268.07 19.1523 267.234 19.1523C266.48 19.1523 265.854 18.9277 265.354 18.4785C264.857 18.0293 264.574 17.4473 264.504 16.7324Z" fill="white"/>
<path d="M7.294 48.016V48.828H12.768V48.016H7.294ZM7.294 50.312V51.138H12.768V50.312H7.294ZM7.308 52.622V53.518H13.426V52.622H7.308ZM5.712 42.682V45.076H6.622V43.592H12.418V45.076H13.356V42.682H5.712ZM9.576 46.35V53.098H10.556V46.35H9.576ZM7.672 45.678H7.588L6.678 46.63V54.12H7.672V46.588H13.006V45.678H7.672ZM8.988 41.24C8.302 43.816 7.014 45.986 5.166 47.33C5.39 47.512 5.768 47.904 5.922 48.1C7.812 46.602 9.198 44.278 9.996 41.436L8.988 41.24ZM10.444 44.012C10.276 44.628 9.912 45.51 9.618 46.07L10.43 46.308C10.724 45.776 11.102 44.992 11.438 44.264L10.444 44.012ZM0.728 42.192V43.158H5.67V42.192H0.728ZM2.142 46.28V47.218H4.382V51.488H2.142V52.412H5.306V46.28H2.142ZM2.38 42.654C2.044 45.286 1.442 47.764 0.322 49.346C0.518 49.584 0.812 50.102 0.924 50.34C2.226 48.506 2.954 45.748 3.388 42.808L2.38 42.654ZM1.708 46.28V53.504H2.59V46.28H1.708ZM22.68 42.22C22.442 44.138 21.868 46.182 19.586 47.232C19.81 47.4 20.104 47.75 20.216 47.974C22.666 46.756 23.352 44.488 23.646 42.22H22.68ZM20.104 44.222C21.56 44.712 23.31 45.636 24.248 46.322L24.752 45.496C23.828 44.852 22.078 43.984 20.622 43.494L20.104 44.222ZM25.984 41.842V42.024C25.872 45.188 25.732 46.308 25.48 46.602C25.382 46.714 25.256 46.756 25.032 46.742C24.808 46.742 24.22 46.742 23.576 46.686C23.73 46.938 23.828 47.344 23.842 47.638C24.5 47.666 25.158 47.68 25.494 47.652C25.872 47.61 26.11 47.512 26.334 47.246C26.684 46.84 26.824 45.594 26.964 42.29C26.978 42.15 26.978 41.842 26.978 41.842H25.984ZM21.686 49.304V52.692C21.686 53.728 21.924 54.022 22.988 54.022C23.212 54.022 24.318 54.022 24.542 54.022C25.424 54.022 25.69 53.588 25.802 51.88C25.522 51.796 25.102 51.656 24.906 51.488C24.864 52.888 24.808 53.084 24.43 53.084C24.206 53.084 23.296 53.084 23.114 53.084C22.722 53.084 22.666 53.028 22.666 52.678V49.304H21.686ZM20.356 49.78C20.216 50.942 19.908 52.174 19.236 52.86L20.02 53.378C20.762 52.594 21.056 51.236 21.21 49.99L20.356 49.78ZM21.924 48.016C22.834 48.548 23.898 49.36 24.402 49.948L25.06 49.234C24.542 48.646 23.464 47.89 22.54 47.4L21.924 48.016ZM25.186 49.878C25.914 50.9 26.53 52.314 26.712 53.266L27.65 52.874C27.44 51.922 26.81 50.55 26.054 49.528L25.186 49.878ZM20.23 41.842V42.752H26.418V41.842H20.23ZM15.162 45.482V46.322H19.138V45.482H15.162ZM15.218 41.744V42.584H19.082V41.744H15.218ZM15.162 47.358V48.198H19.138V47.358H15.162ZM14.532 43.578V44.446H19.53V43.578H14.532ZM15.624 49.248V50.116H18.228V52.454H15.624V53.336H19.138V49.248H15.624ZM15.148 49.248V53.98H16.044V49.248H15.148ZM34.272 42.486V43.494H41.454V42.486H34.272ZM37.73 42.906V52.748C37.73 53 37.646 53.084 37.38 53.084C37.114 53.098 36.232 53.098 35.28 53.056C35.434 53.378 35.616 53.84 35.658 54.134C36.89 54.134 37.688 54.12 38.15 53.938C38.612 53.77 38.78 53.462 38.78 52.748V42.906H37.73ZM29.19 45.482V46.322H33.558V45.482H29.19ZM29.274 41.744V42.584H33.572V41.744H29.274ZM29.19 47.358V48.198H33.558V47.358H29.19ZM28.532 43.578V44.446H34.104V43.578H28.532ZM29.68 49.248V50.116H32.578V52.454H29.68V53.336H33.516V49.248H29.68ZM29.176 49.248V53.98H30.114V49.248H29.176ZM48.412 45.72V54.12H49.49V45.72H48.412ZM45.234 48.086H52.85V49.304H45.234V48.086ZM45.234 46.084H52.85V47.274H45.234V46.084ZM44.212 45.23V50.144H53.914V45.23H44.212ZM42.798 51.222V52.146H55.216V51.222H42.798ZM44.786 42.5H47.474V43.83H44.786V42.5ZM43.834 41.8V44.53H48.454V41.8H43.834ZM50.54 42.5H53.256V43.83H50.54V42.5ZM49.588 41.8V44.53H54.25V41.8H49.588Z" fill="#7C8C38"/>
<path d="M122.346 47.77H119.63V48.75H121.352V52.726H122.346V47.77ZM122.346 52.306H121.45C120.806 52.922 120.064 53.552 119.462 54.014L120.008 55.008C120.68 54.378 121.31 53.776 121.912 53.174C122.794 54.28 124.068 54.784 125.93 54.854C127.526 54.91 130.578 54.882 132.174 54.812C132.216 54.518 132.384 54.042 132.51 53.818C130.788 53.93 127.498 53.972 125.916 53.902C124.25 53.832 123.004 53.356 122.346 52.306ZM119.7 43.108C120.512 43.808 121.422 44.816 121.786 45.516L122.668 44.914C122.276 44.214 121.338 43.248 120.512 42.576L119.7 43.108ZM123.382 48.162V48.974H131.88V48.162H123.382ZM122.934 50.318V51.144H132.314V50.318H122.934ZM125.454 47.154V50.724H126.462V47.154H125.454ZM128.758 47.154V50.724H129.752V47.154H128.758ZM123.732 44.438V45.18H127.12V42.8H123.2V43.528H126.196V44.438H123.732ZM123.438 44.438V45.908C123.438 46.748 123.718 46.958 124.754 46.958C124.964 46.958 126.294 46.958 126.518 46.958C127.232 46.958 127.498 46.72 127.596 45.81C127.344 45.768 126.994 45.656 126.826 45.516C126.784 46.132 126.714 46.216 126.378 46.216C126.112 46.216 125.048 46.216 124.852 46.216C124.404 46.216 124.334 46.16 124.334 45.894V44.438H123.438ZM128.352 44.438V45.18H131.684V42.8H127.792V43.528H130.774V44.438H128.352ZM128.044 44.438V45.894C128.044 46.748 128.338 46.958 129.402 46.958C129.626 46.958 131.054 46.958 131.278 46.958C132.034 46.958 132.3 46.72 132.398 45.768C132.146 45.712 131.796 45.6 131.614 45.474C131.572 46.132 131.502 46.216 131.152 46.216C130.872 46.216 129.724 46.216 129.5 46.216C129.024 46.216 128.94 46.16 128.94 45.894V44.438H128.044ZM128.506 51.774C129.472 52.278 130.508 52.95 131.068 53.468L132.104 53.006C131.432 52.488 130.284 51.802 129.262 51.312L128.506 51.774ZM125.944 51.284C125.314 51.858 124.264 52.39 123.312 52.768C123.536 52.908 123.928 53.244 124.082 53.426C125.02 52.978 126.154 52.292 126.868 51.606L125.944 51.284ZM143.724 43.57H145.152V45.054H143.724V43.57ZM141.484 43.57H142.884V45.054H141.484V43.57ZM139.314 43.57H140.644V45.054H139.314V43.57ZM138.446 42.814V45.81H146.034V42.814H138.446ZM138.6 46.678V47.476H145.754V46.678H138.6ZM137.9 48.47V49.31H146.454V48.47H137.9ZM138.04 50.64V51.466H146.258V50.64H138.04ZM138.32 52.474V53.286H145.95V52.474H138.32ZM141.624 45.614V48.806H142.632V45.614H141.624ZM141.624 51.004V55.232H142.632V51.004H141.624ZM139.65 49.436C139.874 49.856 140.084 50.43 140.168 50.78L141.078 50.542C140.994 50.178 140.742 49.632 140.518 49.24L139.65 49.436ZM143.836 49.1C143.696 49.506 143.416 50.136 143.192 50.556L143.99 50.78C144.228 50.416 144.536 49.884 144.816 49.366L143.836 49.1ZM133.378 49.506L133.658 50.528C134.848 50.15 136.388 49.646 137.844 49.142L137.704 48.176C136.108 48.694 134.47 49.198 133.378 49.506ZM133.574 45.068V46.048H137.83V45.068H133.574ZM135.338 42.254V53.902C135.338 54.112 135.254 54.154 135.086 54.154C134.918 54.168 134.386 54.168 133.77 54.154C133.91 54.448 134.036 54.882 134.078 55.134C134.96 55.134 135.506 55.106 135.828 54.938C136.178 54.77 136.318 54.49 136.318 53.902V42.254H135.338ZM151.816 45.362V46.426H160.356V45.362H151.816ZM157.514 42.408V53.692C157.514 54.014 157.388 54.098 157.052 54.126C156.73 54.14 155.568 54.14 154.378 54.098C154.546 54.392 154.742 54.868 154.798 55.148C156.324 55.162 157.276 55.148 157.822 54.966C158.354 54.812 158.578 54.49 158.578 53.692V42.408H157.514ZM152.698 48.33C153.412 49.45 154.322 50.962 154.742 51.83L155.722 51.298C155.274 50.444 154.336 48.988 153.608 47.896L152.698 48.33ZM149.59 46.062V55.092H150.654V45.026L150.64 44.998L149.59 46.062ZM151.116 42.338C150.304 44.522 148.96 46.664 147.518 48.036C147.714 48.288 148.05 48.82 148.176 49.072C149.73 47.49 151.2 45.082 152.138 42.646L151.116 42.338ZM161.714 43.584V44.466H168.182V43.584H161.714ZM161.546 49.576V50.458H168.308V49.576H161.546ZM162.036 45.67V46.566H167.888V45.67H162.036ZM162.19 47.616V48.498H167.72V47.616H162.19ZM164.458 49.954V54.042C164.458 54.182 164.416 54.224 164.262 54.224C164.108 54.238 163.618 54.238 163.058 54.224C163.184 54.49 163.324 54.868 163.366 55.134C164.164 55.134 164.668 55.12 165.004 54.966C165.354 54.826 165.438 54.546 165.438 54.056V49.954H164.458ZM164.444 42.296V46.244H165.438V42.296H164.444ZM162.624 50.948C162.372 51.998 161.924 53.048 161.336 53.776C161.56 53.86 161.966 54.084 162.148 54.21C162.722 53.44 163.226 52.292 163.52 51.116L162.624 50.948ZM166.25 51.256C166.656 51.942 167.076 52.88 167.258 53.44L168.084 53.034C167.916 52.488 167.468 51.606 167.048 50.934L166.25 51.256ZM169.33 44.788V45.754H173.572V44.788H169.33ZM171.038 45.18H170.52V47.672C170.52 48.82 170.1 52.418 167.16 54.294C167.356 54.49 167.65 54.91 167.762 55.134C170.058 53.636 170.884 51.032 171.024 49.828C171.164 50.976 171.892 53.706 173.88 55.134C174.02 54.882 174.342 54.476 174.524 54.238C171.948 52.418 171.528 48.792 171.528 47.672V45.18H171.038ZM169.372 42.226C169.106 44.466 168.588 46.622 167.692 48.008C167.944 48.162 168.406 48.47 168.588 48.638C169.498 47.126 170.1 44.816 170.422 42.394L169.372 42.226ZM173.278 44.788V44.984C173.152 46.062 172.942 47.476 172.718 48.33L173.558 48.568C173.838 47.644 174.104 46.174 174.286 44.942L173.614 44.746L173.432 44.788H173.278Z" fill="#E8E7D1"/>
<path d="M246.272 43.486V44.494H253.454V43.486H246.272ZM249.73 43.906V53.748C249.73 54 249.646 54.084 249.38 54.084C249.114 54.098 248.232 54.098 247.28 54.056C247.434 54.378 247.616 54.84 247.658 55.134C248.89 55.134 249.688 55.12 250.15 54.938C250.612 54.77 250.78 54.462 250.78 53.748V43.906H249.73ZM241.19 46.482V47.322H245.558V46.482H241.19ZM241.274 42.744V43.584H245.572V42.744H241.274ZM241.19 48.358V49.198H245.558V48.358H241.19ZM240.532 44.578V45.446H246.104V44.578H240.532ZM241.68 50.248V51.116H244.578V53.454H241.68V54.336H245.516V50.248H241.68ZM241.176 50.248V54.98H242.114V50.248H241.176ZM259.698 43.458V44.256H267.09V43.458H259.698ZM259.376 46.804V47.602H267.384V46.804H259.376ZM259.334 51.998V52.81H267.44V51.998H259.334ZM260.062 45.096V45.88H266.852V45.096H260.062ZM261.406 42.254V47.126H262.344V42.254H261.406ZM264.43 42.254V47.126H265.368V42.254H264.43ZM262.89 47.154V52.25H263.828V47.154H262.89ZM265.634 48.414V54.028C265.634 54.21 265.578 54.252 265.382 54.266C265.2 54.28 264.514 54.28 263.786 54.252C263.912 54.504 264.038 54.868 264.08 55.106C265.088 55.106 265.732 55.12 266.124 54.966C266.488 54.812 266.6 54.546 266.6 54.028V48.414H265.634ZM260.23 48.414V55.134H261.182V49.212H266.054V48.414H260.23ZM260.72 50.22V50.948H266.026V50.22H260.72ZM255.848 51.886C255.582 52.908 255.064 53.902 254.434 54.574C254.658 54.714 255.05 54.994 255.232 55.134C255.876 54.392 256.464 53.258 256.8 52.11L255.848 51.886ZM257.612 52.236C258.046 52.922 258.522 53.86 258.732 54.448L259.572 54.042C259.362 53.468 258.858 52.558 258.396 51.872L257.612 52.236ZM256.072 46.272H258.172V48.078H256.072V46.272ZM256.072 48.89H258.172V50.724H256.072V48.89ZM256.072 43.654H258.172V45.446H256.072V43.654ZM255.148 42.772V51.592H259.11V42.772H255.148ZM271.178 46.314V47.266H278.794V46.314H271.178ZM268.784 48.89V49.884H281.202V48.89H268.784ZM272.466 49.576C272.228 51.858 271.626 53.468 268.476 54.252C268.7 54.462 268.98 54.882 269.092 55.148C272.508 54.196 273.292 52.306 273.586 49.576H272.466ZM276.008 49.492V53.44C276.008 54.56 276.344 54.882 277.632 54.882C277.912 54.882 279.522 54.882 279.802 54.882C280.922 54.882 281.23 54.392 281.342 52.474C281.062 52.39 280.614 52.222 280.39 52.054C280.348 53.664 280.25 53.916 279.718 53.916C279.354 53.916 278.024 53.916 277.744 53.916C277.156 53.916 277.058 53.846 277.058 53.426V49.492H276.008ZM274.412 42.254V44.48H275.518V42.254H274.412ZM269.106 43.752V46.72H270.17V44.746H279.774V46.72H280.88V43.752H269.106ZM284.38 47.49V48.47H287.866V47.49H284.38ZM287.446 47.49V47.672C287.404 50.696 287.334 51.746 287.124 51.998C287.026 52.124 286.886 52.138 286.69 52.138C286.452 52.138 285.836 52.138 285.206 52.082C285.36 52.348 285.472 52.754 285.5 53.062C286.186 53.09 286.816 53.104 287.18 53.062C287.572 53.02 287.796 52.922 288.02 52.67C288.314 52.278 288.398 51.102 288.468 47.938C288.468 47.798 288.468 47.49 288.468 47.49H287.446ZM291.394 42.954C292.276 43.416 293.354 44.13 293.886 44.62L294.544 43.906C293.998 43.416 292.892 42.744 292.024 42.296L291.394 42.954ZM293.396 46.748C292.346 50.122 290.372 52.684 287.53 54.196C287.754 54.406 288.146 54.84 288.3 55.05C291.17 53.356 293.256 50.654 294.446 47L293.396 46.748ZM284.464 44.62V45.656H295.3V44.62H284.464ZM283.792 44.62V48.554C283.792 50.388 283.666 52.796 282.504 54.518C282.756 54.644 283.204 55.008 283.386 55.218C284.66 53.384 284.884 50.556 284.884 48.568V44.62H283.792ZM289.602 42.268C289.658 48.974 290.918 55.022 293.774 55.022C294.838 55.022 295.23 54.336 295.426 51.942C295.146 51.844 294.754 51.606 294.516 51.368C294.432 53.23 294.25 53.958 293.858 53.958C292.038 53.958 290.666 48.708 290.694 42.268H289.602Z" fill="#E8E7D1"/>
</svg>
