<svg width="40" height="40" viewBox="0 0 40 40" fill="none" xmlns="http://www.w3.org/2000/svg">
<g clip-path="url(#clip0_30_551)">
<path d="M0 1.09853C0 0.70771 0.278813 0.374981 0.633237 0.374981C0.98766 0.374981 1.26647 0.70771 1.26647 1.09853V12.2476H3.35521L3.33631 9.02594C3.3174 8.14394 3.98845 7.39927 4.77763 7.39927H25.8729C26.6621 7.39927 27.3142 8.14394 27.3284 9.02594L27.3473 12.2476H37.7626V0.70771C37.7626 0.316885 38.0415 0 38.3959 0C38.7503 0 39.0291 0.311604 39.0291 0.70771V12.9553C39.0291 13.3461 38.7503 13.663 38.3959 13.663H33.5993C33.6182 13.7634 33.6324 13.8584 33.6324 13.9588V30.3101H28.576V13.663H27.3473L27.4513 25.9899H3.45917L3.36939 13.663H0.633237C0.283539 13.663 0 13.3461 0 12.9553V1.09853ZM27.3284 27.3841V33.0775C27.3284 33.9806 26.6621 34.7042 25.8729 34.7042H4.77763C3.98845 34.7042 3.33631 33.9806 3.33631 33.0775V27.3841H27.3284V27.3841ZM33.6324 31.7043V37.3977C33.6324 38.3008 32.985 39.0297 32.1722 39.0297H11.1005C10.2925 39.0297 9.64504 38.3008 9.64504 37.3977V36.1038H25.3436C27.1347 36.1038 28.5949 34.4771 28.5949 32.4702V31.7043H33.6372H33.6324Z" fill="#7C8C38"/>
</g>
<defs>
<clipPath id="clip0_30_551">
<rect width="40" height="40" fill="white"/>
</clipPath>
</defs>
</svg>
