<svg width="40" height="40" viewBox="0 0 40 40" fill="none" xmlns="http://www.w3.org/2000/svg">
<g clip-path="url(#clip0_30_485)">
<path d="M29.145 12.1074C28.1327 12.1074 27.2039 12.4954 26.457 13.1421C25.7101 12.4954 24.7813 12.1074 23.769 12.1074C22.8206 12.1074 21.941 12.4505 21.2187 13.0297C20.4963 12.4505 19.6167 12.1074 18.6683 12.1074C17.1056 12.1074 15.7297 13.0297 14.9337 14.4243C14.1376 13.0297 12.7617 12.1074 11.199 12.1074C8.73218 12.1074 6.73218 14.3962 6.73218 17.2192C6.73218 20.0422 8.73218 22.331 11.199 22.331C12.7617 22.331 14.1376 21.4087 14.9337 20.0141C15.7297 21.4087 17.1056 22.331 18.6683 22.331C19.6167 22.331 20.4963 21.9879 21.2187 21.4087C21.941 21.9879 22.8206 22.331 23.769 22.331C24.7813 22.331 25.7101 21.9429 26.457 21.2962C27.2039 21.9429 28.1327 22.331 29.145 22.331C31.6118 22.331 33.6118 20.0422 33.6118 17.2192C33.6118 14.3962 31.6118 12.1074 29.145 12.1074Z" fill="#7C8C38"/>
<path d="M25.8771 40C25.8771 40 22.0589 35.1413 23.7837 28.798C25.5085 22.4547 27.6019 21.6056 27.6019 21.6056L25.9066 20.374C25.9066 20.374 23.597 22.5953 22.5798 25.7669C21.2874 27.1391 23.3169 18.1527 23.3169 18.1527L21.1007 17.731C21.1007 17.731 20.7321 23.7594 19.9901 24.0743H20.0049C19.2678 23.7594 18.8943 17.731 18.8943 17.731L16.6781 18.1527C16.6781 18.1527 18.7125 27.1447 17.4152 25.7669C16.398 22.5953 14.0884 20.374 14.0884 20.374L12.3931 21.6056C12.3931 21.6056 14.4864 22.4491 16.2112 28.798C17.9361 35.1413 14.1179 40 14.1179 40H25.8722H25.8771Z" fill="#7C8C38"/>
<path d="M32.5749 5.13988C32.0393 5.13988 31.5233 5.20737 31.0221 5.32546C29.9214 2.20441 27.2531 0 24.1327 0C22.6044 0 21.1843 0.52861 20 1.43399C18.8206 0.52861 17.3956 0 15.8673 0C12.7469 0 10.0786 2.20441 8.97789 5.32546C8.47666 5.20174 7.95577 5.13988 7.42506 5.13988C3.32678 5.13988 0 8.94137 0 13.637C0 18.3326 3.32678 22.1341 7.42506 22.1341C10.5455 22.1341 13.2138 19.9297 14.3145 16.8087C14.8157 16.9324 15.3366 16.9942 15.8673 16.9942C17.3956 16.9942 18.8157 16.4656 20 15.5602C21.1794 16.4656 22.6044 16.9942 24.1327 16.9942C24.6683 16.9942 25.1843 16.9268 25.6855 16.8087C26.7813 19.9297 29.4545 22.1341 32.5749 22.1341C36.6781 22.1341 40 18.327 40 13.637C40 8.947 36.6732 5.13988 32.5749 5.13988V5.13988Z" fill="#7C8C38"/>
</g>
<defs>
<clipPath id="clip0_30_485">
<rect width="40" height="40" fill="white"/>
</clipPath>
</defs>
</svg>
