<svg width="40" height="36" viewBox="0 0 40 36" fill="none" xmlns="http://www.w3.org/2000/svg">
<g clip-path="url(#clip0_30_559)">
<path d="M25.116 0.271008C24.4703 -0.19423 23.5826 -0.0411137 23.1214 0.618464L18.994 6.56055L15.887 2.50886C15.4027 1.87284 14.5035 1.76684 13.8809 2.26152C13.2583 2.7562 13.1488 3.6749 13.6388 4.31092L17.9218 9.90556C18.1928 10.2589 18.6078 10.465 19.0459 10.465H19.0805C19.5301 10.4532 19.951 10.2236 20.2104 9.85256L25.4503 2.30274C25.9057 1.64317 25.7558 0.736246 25.1102 0.265119L25.116 0.271008Z" fill="#7C8C38"/>
<path d="M36.1897 7.78516H3.81035C1.7063 7.78516 0 9.52833 0 11.6778V32.1071C0 34.2566 1.7063 35.9998 3.81035 35.9998H36.1897C38.2937 35.9998 40 34.2566 40 32.1071V11.6778C40 9.52833 38.2937 7.78516 36.1897 7.78516V7.78516ZM27.6178 28.2203C27.6178 30.3698 25.9115 32.113 23.8075 32.113H7.6207C5.51665 32.113 3.81035 30.3698 3.81035 28.2203V15.5705C3.81035 13.421 5.51665 11.6778 7.6207 11.6778H23.8132C25.9173 11.6778 27.6236 13.421 27.6236 15.5705V28.2203H27.6178ZM33.3305 28.5147C32.1199 28.5147 31.1399 27.5136 31.1399 26.2769C31.1399 25.0402 32.1199 24.039 33.3305 24.039C34.541 24.039 35.521 25.0402 35.521 26.2769C35.521 27.5136 34.541 28.5147 33.3305 28.5147ZM33.3305 19.7577C32.1199 19.7577 31.1399 18.7565 31.1399 17.5198C31.1399 16.2831 32.1199 15.282 33.3305 15.282C34.541 15.282 35.521 16.2831 35.521 17.5198C35.521 18.7565 34.541 19.7577 33.3305 19.7577Z" fill="#7C8C38"/>
</g>
<defs>
<clipPath id="clip0_30_559">
<rect width="40" height="36" fill="white"/>
</clipPath>
</defs>
</svg>
