<svg width="40" height="32" viewBox="0 0 40 32" fill="none" xmlns="http://www.w3.org/2000/svg">
<g clip-path="url(#clip0_30_487)">
<path d="M39.8209 4.63845C38.4876 5.17263 37.0746 5.54853 35.602 5.7068C37.1741 4.79672 38.3881 3.37226 39.0249 1.65103C39.0647 1.55211 38.9453 1.45319 38.8458 1.49276C37.3732 2.30391 35.7413 2.91722 34.01 3.25355C32.5374 1.73017 30.4479 0.760742 28.1394 0.760742C23.7017 0.760742 20.0798 4.28233 20.0798 8.63486C20.0798 9.24818 20.1594 9.86149 20.2788 10.4352C13.6322 10.1187 7.72178 7.01256 3.74173 2.26434C3.72183 2.24456 3.68203 2.24456 3.66213 2.26434C2.98552 3.41183 2.60741 4.75716 2.60741 6.18162C2.60741 8.85249 3.96063 11.2266 6.05016 12.6511C6.08996 12.6708 6.05016 12.75 6.01035 12.75C4.77654 12.6906 3.62232 12.3543 2.60741 11.8003C2.58751 11.8003 2.54771 11.8003 2.54771 11.8399C2.54771 12.196 2.68701 13.7392 3.08502 14.7284C4.09993 17.1817 6.28896 19.0612 8.99539 19.5953C8.31878 19.7734 7.60237 19.8723 6.86607 19.8723C6.36856 19.8723 5.89095 19.8327 5.41335 19.7338C5.37355 19.7338 5.35365 19.7536 5.35365 19.7932C6.38846 22.8399 9.274 25.0756 12.7167 25.1943C12.7565 25.1943 12.7764 25.2536 12.7366 25.2734C9.9904 27.331 6.56756 28.5576 2.84622 28.5576C2.18951 28.5576 1.5527 28.518 0.935791 28.4587C4.49794 30.6943 8.73669 32 13.2739 32C19.5425 32 24.5972 29.8436 28.3583 26.5792C32.1593 23.2752 34.607 18.8435 35.6418 14.3327C36 12.75 36.199 11.1475 36.199 9.58451C36.199 9.24818 36.199 8.91184 36.1791 8.57551C37.6319 7.54673 38.9055 6.28054 39.9403 4.83629C40.0199 4.73737 39.9005 4.59888 39.801 4.65824L39.8209 4.63845Z" fill="#7C8C38"/>
</g>
<defs>
<clipPath id="clip0_30_487">
<rect width="40" height="32" fill="white"/>
</clipPath>
</defs>
</svg>
