<svg width="40" height="40" viewBox="0 0 40 40" fill="none" xmlns="http://www.w3.org/2000/svg">
<g clip-path="url(#clip0_30_476)">
<path d="M29.2339 11.9915L21.7911 1.07783C20.816 -0.353744 19.2041 -0.353744 18.229 1.07783L10.7862 11.9915C9.81105 13.4231 10.6071 14.602 12.5573 14.602H14.8459V21.5747C14.8459 23.9831 17.1543 25.9536 20.02 25.9536C22.8658 25.9536 25.1941 23.9999 25.1941 21.5747V14.602H27.4827C29.4329 14.602 30.2489 13.4231 29.2538 11.9915H29.2339Z" fill="#7C8C38"/>
<path d="M36.8756 32.6736H3.12438C1.39883 32.6736 0 33.8574 0 35.3178V37.3557C0 38.816 1.39883 39.9999 3.12438 39.9999H36.8756C38.6012 39.9999 40 38.816 40 37.3557V35.3178C40 33.8574 38.6012 32.6736 36.8756 32.6736Z" fill="#7C8C38"/>
<path d="M8.65674 37.4906L8.65674 23.8148C8.65674 22.773 7.65885 21.9285 6.42788 21.9285H2.22888C0.997915 21.9285 2.09808e-05 22.773 2.09808e-05 23.8148L2.09808e-05 37.4906C2.09808e-05 38.5324 0.997915 39.3769 2.22888 39.3769H6.42788C7.65885 39.3769 8.65674 38.5324 8.65674 37.4906Z" fill="#7C8C38"/>
<path d="M40 37.4906V23.8148C40 22.773 39.0021 21.9285 37.7711 21.9285H33.5721C32.3412 21.9285 31.3433 22.773 31.3433 23.8148V37.4906C31.3433 38.5324 32.3412 39.3769 33.5721 39.3769H37.7711C39.0021 39.3769 40 38.5324 40 37.4906Z" fill="#7C8C38"/>
</g>
<defs>
<clipPath id="clip0_30_476">
<rect width="40" height="40" fill="white"/>
</clipPath>
</defs>
</svg>
