<svg width="34" height="35" viewBox="0 0 34 35" fill="none" xmlns="http://www.w3.org/2000/svg">
<path d="M-9.53674e-07 16.9997C-9.53674e-07 7.61091 7.61124 -0.000244141 17 -0.000244141C26.3888 -0.000244141 34 7.61091 34 16.9997C34 19.7924 33.3248 22.4897 32.0537 24.9052L33.9515 32.1955C34.0136 32.4342 34.0136 32.6849 33.9514 32.9238C33.7503 33.6961 32.9611 34.159 32.1889 33.9579L24.8952 32.0588C22.4822 33.3265 19.7887 33.9997 17 33.9997C7.61124 33.9997 -9.53674e-07 26.3886 -9.53674e-07 16.9997ZM17 7.65224C16.2959 7.65224 15.725 8.22308 15.725 8.92724V19.5522C15.725 20.2564 16.2959 20.8272 17 20.8272C17.7041 20.8272 18.275 20.2564 18.275 19.5522V8.92724C18.275 8.22308 17.7041 7.65224 17 7.65224ZM15.3 24.6487C15.3 25.5874 16.0611 26.3487 17 26.3487C17.9389 26.3487 18.7 25.5874 18.7 24.6487C18.7 23.7098 17.9389 22.9487 17 22.9487C16.0611 22.9487 15.3 23.7098 15.3 24.6487Z" fill="#7C8C38"/>
</svg>
