<svg width="40" height="32" viewBox="0 0 40 32" fill="none" xmlns="http://www.w3.org/2000/svg">
<g clip-path="url(#clip0_30_478)">
<path d="M7.96729 16.4736C6.96826 17.5719 6.96826 19.3428 7.96729 20.441C8.96631 21.5393 10.5772 21.5393 11.5763 20.441C15.947 15.6362 23.065 15.6362 27.4483 20.441C28.4473 21.5393 30.0582 21.5393 31.0572 20.441C32.0563 19.3428 32.0563 17.5719 31.0572 16.4736C24.6885 9.47233 14.3361 9.47233 7.97977 16.4736H7.96729Z" fill="#7C8C38"/>
<path d="M38.2751 8.5251C27.9352 -2.8417 11.0892 -2.8417 0.749268 8.5251C-0.249756 9.62334 -0.249756 11.3943 0.749268 12.4925C1.74829 13.5907 3.35922 13.5907 4.35824 12.4925C12.7126 3.30845 26.3118 3.30845 34.6786 12.4925C35.6777 13.5907 37.2886 13.5907 38.2876 12.4925C39.2866 11.3943 39.2866 9.62334 38.2876 8.5251H38.2751Z" fill="#7C8C38"/>
<path d="M16.0842 22.5552C14.1236 24.7105 14.1236 28.2249 16.0842 30.3802C18.0448 32.5355 21.2417 32.5355 23.2023 30.3802C25.1628 28.2249 25.1628 24.7105 23.2023 22.5552C21.2417 20.3999 18.0448 20.3999 16.0842 22.5552V22.5552Z" fill="#7C8C38"/>
</g>
<defs>
<clipPath id="clip0_30_478">
<rect width="40" height="32" fill="white"/>
</clipPath>
</defs>
</svg>
