<?xml version="1.0" encoding="utf-8"?>
<!-- Generator: Adobe Illustrator 26.3.1, SVG Export Plug-In . SVG Version: 6.00 Build 0)  -->
<svg version="1.1" id="圖層_1" xmlns="http://www.w3.org/2000/svg" xmlns:xlink="http://www.w3.org/1999/xlink" x="0px" y="0px"
	 viewBox="0 0 36 36" style="enable-background:new 0 0 36 36;" xml:space="preserve">
<style type="text/css">
	.st0{clip-path:url(#SVGID_00000029766311204842988800000008556871060685446314_);}
	.st1{fill:#FFFFFF;}
</style>
<g>
	<defs>
		<rect id="SVGID_1_" y="0" width="36" height="36"/>
	</defs>
	<clipPath id="SVGID_00000178169000185065487750000001691890531971178649_">
		<use xlink:href="#SVGID_1_"  style="overflow:visible;"/>
	</clipPath>
	<g style="clip-path:url(#SVGID_00000178169000185065487750000001691890531971178649_);">
		<path class="st1" d="M34.9,29.2c1.4,1.4,1.4,3.6,0,5c-0.7,0.7-1.6,1-2.5,1c-0.9,0-1.8-0.3-2.5-1L18,22.6L6.1,34.1
			c-0.7,0.7-1.6,1-2.5,1s-1.8-0.3-2.5-1c-1.4-1.4-1.4-3.6,0-5l11.9-11.6L1.1,6c-1.4-1.4-1.4-3.6,0-5c1.4-1.4,3.7-1.4,5.1,0L18,12.6
			L29.9,1.1c1.4-1.4,3.7-1.4,5.1,0c1.4,1.4,1.4,3.6,0,5L23.1,17.6L34.9,29.2z"/>
	</g>
</g>
</svg>
