<svg width="36" height="36" viewBox="0 0 36 36" fill="none" xmlns="http://www.w3.org/2000/svg">
<g clip-path="url(#clip0_201_4542)">
<path d="M34.9398 29.1719C36.3459 30.5437 36.3459 32.7661 34.9398 34.1379C34.2423 34.8238 33.3199 35.1641 32.3975 35.1641C31.475 35.1641 30.5549 34.8211 29.8529 34.1352L17.9986 22.576L6.1454 34.1324C5.44232 34.8238 4.52102 35.1641 3.59972 35.1641C2.67842 35.1641 1.75824 34.8238 1.05461 34.1324C-0.351535 32.7606 -0.351535 30.5382 1.05461 29.1664L12.9112 17.599L1.05461 6.03707C-0.351535 4.66523 -0.351535 2.44284 1.05461 1.071C2.46075 -0.300847 4.73869 -0.300847 6.14483 1.071L17.9986 12.6439L29.8552 1.07649C31.2613 -0.295359 33.5393 -0.295359 34.9454 1.07649C36.3515 2.44833 36.3515 4.67072 34.9454 6.04256L23.0888 17.6099L34.9398 29.1719Z" fill="#7C8C38"/>
</g>
<defs>
<clipPath id="clip0_201_4542">
<rect width="36" height="36" fill="white"/>
</clipPath>
</defs>
</svg>
