<?xml version="1.0" encoding="UTF-8"?><svg id="_層_2" xmlns="http://www.w3.org/2000/svg" viewBox="0 0 140.25 196.86"><defs><style>.cls-1{fill:#fff;}</style></defs><g id="_層_1-2"><path class="cls-1" d="M127.13,87.21c4.72-10.21,13.12-25.35,13.12-34.71,0-12.61-2.06-21.41-3.71-23.88-5.73-8.6-10.72-13.01-11.83-14.16-8.33-8.67-13.11-11.13-16.88-13.84,0,0-3.33-.9-4.18-.53-2.54,1.12-8.38,6.69-8.59,6.88-27.73,26.39-42.71,64.03-42.71,64.03-18.86,41.38-34.75,64.91-37.22,71.49-3.18,8.47-18.47,27.25-14.47,28.41,17.88,5.18,36.81,25.09,39.88,25.94,2.38,.66,84.48-105.09,86.59-109.65Z"/></g></svg>