<?xml version="1.0" encoding="UTF-8"?><svg id="_層_2" xmlns="http://www.w3.org/2000/svg" viewBox="0 0 156.57 103.36"><defs><style>.cls-1{fill:#fff;}</style></defs><g id="_層_1-2"><path class="cls-1" d="M93.51,102.45c10.98,2.11,18.04,.07,23.88-1.33,12.26-2.94,20.04-9.65,22.24-11.65,7.65-6.95,11.01-14.42,11.65-15.88,4.3-9.85,5.29-22.24,5.29-22.24h0s-2.1-8.03-2.33-8.2C124,19.68,84.54,10.49,84.54,10.49,40.81-1.98,11.16-1.54,5.51,2.65-.79,7.33-.36,17.67,.46,21.75c4.1,20.43,12.81,34.55,35.4,48.67,32.97,20.61,52.71,31.09,57.65,32.03Z"/></g></svg>