<svg width="28" height="29" viewBox="0 0 28 29" fill="none" xmlns="http://www.w3.org/2000/svg">
<g clip-path="url(#clip0_649_31935)">
<path d="M26.9697 13.0296C26.2202 12.6074 25.2567 12.1197 24.5851 11.7257C24.4196 11.6319 24.3126 11.4912 24.2736 11.3036C23.2419 6.55703 21.5192 5.54394 17.9569 3.98678C17.9569 3.98678 17.9374 3.9774 17.918 3.96802C17.5676 3.79917 17.4411 3.4521 17.4605 3.14254L17.5676 1.10698C17.6163 0.234592 17.3048 -0.0374416 16.5846 0.00946083C16.5651 0.00946083 16.5359 0.00946083 16.5164 0.00946083C5.43053 1.88556 6.37463 11.7538 3.39633 17.7761C2.66636 19.2488 1.65413 20.3745 0.4375 21.2281C5.13854 25.4587 11.7862 28.5167 19.4169 27.9727C19.7186 25.3743 19.6407 22.7477 19.1151 20.1493C19.0762 19.9524 19.1151 19.7741 19.2514 19.624C19.3779 19.4739 19.5531 19.3895 19.7575 19.3895C23.1738 19.3426 26.2981 17.3164 27.2909 14.2021C27.2909 14.1834 27.3006 14.1646 27.3103 14.1458C27.4369 13.5642 27.1741 13.1703 26.9599 13.0483L26.9697 13.0296ZM19.4655 12.9639C18.6285 12.9264 17.9958 12.2416 18.0348 11.4349C18.0737 10.6375 18.7842 10.0184 19.6213 10.056C20.4486 10.0935 21.0909 10.7782 21.052 11.585C21.0131 12.3823 20.3026 13.0014 19.4655 12.9639Z" fill="#7C8C38"/>
</g>
<defs>
<clipPath id="clip0_649_31935">
<rect width="26.9118" height="28.7296" fill="white" transform="translate(0.4375)"/>
</clipPath>
</defs>
</svg>
