<svg width="28" height="26" viewBox="0 0 28 26" fill="none" xmlns="http://www.w3.org/2000/svg">
<g clip-path="url(#clip0_649_31934)">
<path d="M19.6257 14.0093C22.7737 11.1239 27.1435 10.5522 27.2327 4.87981C27.2416 3.96865 25.1548 4.34383 23.5585 4.34383C21.9622 4.34383 20.0002 3.53093 18.3415 1.99447C16.6827 0.458004 11.76 0.797456 8.71897 1.88727C5.67794 2.97709 0.897912 8.87283 1.67378 10.1949C2.44964 11.517 7.55964 14.4916 8.31766 14.6167C9.07569 14.7418 10.6988 12.4817 9.77129 10.186C9.01327 8.29219 8.87058 7.40783 9.05786 6.5056C9.09353 6.33588 9.25405 6.21081 9.42349 6.22868C9.59293 6.24655 9.73562 6.38947 9.73562 6.56813C9.75346 7.3721 9.9229 8.34579 10.4134 9.44454C11.8313 12.6336 9.7267 16.1889 8.99543 16.046C8.4336 15.9388 6.72135 15.0634 5.93657 14.6524C5.83847 14.5988 5.73145 14.5988 5.63335 14.6524C5.53526 14.6971 5.46391 14.7864 5.44608 14.8936C5.16962 16.1353 4.28674 19.7889 2.91337 22.969C5.91873 24.3715 13.6239 27.1854 20.9366 23.4425C19.8129 20.5928 18.3682 18.44 18.4039 16.8231C18.4039 16.8053 18.4039 16.7874 18.4039 16.7695C18.6179 15.51 19.0281 14.572 19.6346 14.0182L19.6257 14.0093ZM17.1197 6.84505C16.5579 6.87185 16.0852 6.44307 16.0585 5.88923C16.0317 5.33539 16.4598 4.85301 17.0127 4.82621C17.5656 4.79941 18.0472 5.22819 18.0739 5.78203C18.1007 6.33588 17.6726 6.81825 17.1197 6.84505Z" fill="#7C8C38"/>
</g>
<defs>
<clipPath id="clip0_649_31934">
<rect width="26.9118" height="24.9508" fill="white" transform="translate(0.953125 0.949219)"/>
</clipPath>
</defs>
</svg>
