<svg width="296" height="163" viewBox="0 0 296 163" fill="none" xmlns="http://www.w3.org/2000/svg">
<rect width="296" height="163" rx="20" fill="#F5C362"/>
<path d="M296 134L296 143C296 154.046 287.046 163 276 163L20 163C8.95431 163 -8.79471e-07 154.046 -3.9486e-07 143L0 134L296 134Z" fill="#D99D2A"/>
<path d="M155.03 151.14C156.57 151.14 157.52 150.22 157.52 149.06C157.52 147.97 156.87 147.46 156.01 147.09L154.97 146.64C154.4 146.4 153.76 146.14 153.76 145.42C153.76 144.77 154.3 144.35 155.13 144.35C155.8 144.35 156.34 144.62 156.79 145.04L157.28 144.45C156.77 143.91 156 143.54 155.13 143.54C153.79 143.54 152.82 144.36 152.82 145.49C152.82 146.56 153.62 147.08 154.31 147.37L155.36 147.83C156.05 148.13 156.58 148.37 156.58 149.13C156.58 149.84 156.01 150.32 155.05 150.32C154.29 150.32 153.55 149.97 153.02 149.41L152.47 150.05C153.11 150.72 154 151.14 155.03 151.14ZM158.877 153.29H159.787V151.46L159.767 150.51C160.257 150.91 160.767 151.14 161.257 151.14C162.507 151.14 163.617 150.06 163.617 148.21C163.617 146.53 162.867 145.44 161.457 145.44C160.827 145.44 160.227 145.79 159.737 146.2H159.707L159.617 145.57H158.877V153.29ZM161.117 150.37C160.757 150.37 160.277 150.22 159.787 149.81V146.95C160.317 146.46 160.777 146.2 161.237 146.2C162.267 146.2 162.677 147.01 162.677 148.22C162.677 149.56 162.007 150.37 161.117 150.37ZM167.268 151.14C168.008 151.14 168.578 150.89 169.058 150.58L168.728 149.97C168.328 150.24 167.898 150.41 167.378 150.41C166.338 150.41 165.638 149.66 165.568 148.51H169.228C169.258 148.37 169.268 148.18 169.268 147.99C169.268 146.43 168.488 145.44 167.108 145.44C165.858 145.44 164.668 146.53 164.668 148.3C164.668 150.08 165.818 151.14 167.268 151.14ZM165.558 147.85C165.678 146.78 166.358 146.17 167.118 146.17C167.978 146.17 168.468 146.76 168.468 147.85H165.558ZM172.745 151.14C173.395 151.14 174.025 150.88 174.505 150.45L174.115 149.84C173.775 150.14 173.325 150.38 172.835 150.38C171.835 150.38 171.145 149.54 171.145 148.3C171.145 147.04 171.865 146.2 172.865 146.2C173.285 146.2 173.625 146.39 173.945 146.68L174.405 146.08C174.025 145.73 173.525 145.44 172.815 145.44C171.425 145.44 170.205 146.48 170.205 148.3C170.205 150.09 171.305 151.14 172.745 151.14ZM175.713 151H176.623V145.57H175.713V151ZM176.173 144.45C176.523 144.45 176.783 144.22 176.783 143.84C176.783 143.49 176.523 143.26 176.173 143.26C175.813 143.26 175.563 143.49 175.563 143.84C175.563 144.22 175.813 144.45 176.173 144.45ZM179.717 151.14C180.387 151.14 180.997 150.79 181.507 150.36H181.547L181.627 151H182.377V147.67C182.377 146.32 181.817 145.44 180.487 145.44C179.617 145.44 178.857 145.82 178.357 146.14L178.717 146.78C179.137 146.49 179.707 146.19 180.347 146.19C181.237 146.19 181.457 146.86 181.457 147.56C179.147 147.82 178.127 148.41 178.127 149.59C178.127 150.57 178.807 151.14 179.717 151.14ZM179.967 150.4C179.437 150.4 179.017 150.15 179.017 149.53C179.017 148.83 179.627 148.38 181.457 148.17V149.68C180.937 150.15 180.497 150.4 179.967 150.4ZM185.062 151.14C185.312 151.14 185.452 151.1 185.582 151.06L185.462 150.36C185.352 150.38 185.312 150.38 185.272 150.38C185.132 150.38 185.012 150.27 185.012 149.98V143.05H184.102V149.92C184.102 150.7 184.372 151.14 185.062 151.14ZM192.03 151.14C192.98 151.14 193.69 150.76 194.27 150.08L193.77 149.5C193.3 150.02 192.76 150.32 192.07 150.32C190.67 150.32 189.79 149.17 189.79 147.32C189.79 145.49 190.71 144.35 192.1 144.35C192.72 144.35 193.21 144.63 193.59 145.04L194.1 144.44C193.67 143.97 192.98 143.54 192.09 143.54C190.23 143.54 188.84 144.98 188.84 147.34C188.84 149.72 190.2 151.14 192.03 151.14ZM197.667 151.14C198.997 151.14 200.177 150.09 200.177 148.3C200.177 146.48 198.997 145.44 197.667 145.44C196.327 145.44 195.147 146.48 195.147 148.3C195.147 150.09 196.327 151.14 197.667 151.14ZM197.667 150.38C196.717 150.38 196.087 149.54 196.087 148.3C196.087 147.04 196.717 146.2 197.667 146.2C198.607 146.2 199.237 147.04 199.237 148.3C199.237 149.54 198.607 150.38 197.667 150.38ZM203.201 151.14C203.951 151.14 204.491 150.74 205.001 150.15H205.021L205.101 151H205.851V145.57H204.941V149.43C204.431 150.07 204.031 150.34 203.481 150.34C202.761 150.34 202.451 149.91 202.451 148.9V145.57H201.541V149.01C201.541 150.4 202.061 151.14 203.201 151.14ZM207.695 153.29H208.605V151.46L208.585 150.51C209.075 150.91 209.585 151.14 210.075 151.14C211.325 151.14 212.435 150.06 212.435 148.21C212.435 146.53 211.685 145.44 210.275 145.44C209.645 145.44 209.045 145.79 208.555 146.2H208.525L208.435 145.57H207.695V153.29ZM209.935 150.37C209.575 150.37 209.095 150.22 208.605 149.81V146.95C209.135 146.46 209.595 146.2 210.055 146.2C211.085 146.2 211.495 147.01 211.495 148.22C211.495 149.56 210.825 150.37 209.935 150.37ZM216.007 151.14C217.337 151.14 218.517 150.09 218.517 148.3C218.517 146.48 217.337 145.44 216.007 145.44C214.667 145.44 213.487 146.48 213.487 148.3C213.487 150.09 214.667 151.14 216.007 151.14ZM216.007 150.38C215.057 150.38 214.427 149.54 214.427 148.3C214.427 147.04 215.057 146.2 216.007 146.2C216.947 146.2 217.577 147.04 217.577 148.3C217.577 149.54 216.947 150.38 216.007 150.38ZM219.961 151H220.871V147.06C221.411 146.52 221.801 146.23 222.351 146.23C223.071 146.23 223.381 146.66 223.381 147.68V151H224.301V147.56C224.301 146.18 223.781 145.44 222.641 145.44C221.891 145.44 221.331 145.85 220.821 146.36H220.791L220.701 145.57H219.961V151Z" fill="white"/>
<line x1="96" y1="147.5" x2="144" y2="147.5" stroke="white"/>
<line x1="236" y1="147.5" x2="284" y2="147.5" stroke="white"/>
</svg>
