<svg width="524" height="270" viewBox="0 0 524 270" fill="none" xmlns="http://www.w3.org/2000/svg">
<rect x="1" width="523" height="270" rx="20" fill="#F5C362"/>
<path d="M257.38 197.84C265.18 197.84 270.22 193.1 270.22 185.96C270.22 171.56 251.5 174.26 251.5 164.48C251.5 160.64 254.14 158.06 258.28 158.06C261.94 158.06 263.98 159.38 266.44 161.84L269.32 158.6C266.62 155.66 263.44 153.5 258.1 153.5C251.08 153.5 246.16 158 246.16 164.78C246.16 177.86 264.88 175.4 264.88 186.38C264.88 190.58 262.36 193.28 257.38 193.28C253.3 193.28 249.88 191.24 247.06 188.84L244.42 192.56C247.6 195.5 252.58 197.84 257.38 197.84ZM255.88 204.38H259.9V195.92H255.88V204.38ZM255.88 155.48H259.9V146.9H255.88V155.48Z" fill="#B14F42"/>
<path d="M524 214L524 249.793C524 260.839 515.046 269.793 504 269.793L20 269.793C8.95431 269.793 -2.05498e-06 260.839 -1.57037e-06 249.793L0 214L524 214Z" fill="#D99D2A"/>
<path d="M33.5463 72.7761C32.7096 79.4455 41.914 82.7802 46.8509 84.9478C47.353 84.0307 47.2693 82.8636 47.8551 82.0299C48.5245 81.0295 49.8633 80.6127 50.2817 79.5289C50.7838 78.195 49.7796 76.7777 49.8633 75.3605C49.947 74.0266 51.0348 73.0262 51.3695 71.7756C51.7042 70.6919 51.6205 69.5247 51.1185 68.5243C48.5245 67.774 45.9305 67.3571 43.2528 67.2738C39.8221 66.8569 34.1321 68.3575 33.5463 72.7761Z" fill="#EDEAE6"/>
<path d="M57.3933 115.128C53.4605 121.547 32.0392 146.557 35.3026 167.066C38.9844 190.326 60.2383 206.499 61.9118 205.165C62.7486 204.498 66.6814 202.664 67.0998 201.747C68.7733 197.412 69.2754 192.576 68.355 189.659C62.8323 186.241 58.6485 180.822 55.8871 174.902C53.5442 169.9 52.038 164.315 52.4564 158.812C52.7911 154.06 54.5483 149.475 56.6402 145.223C60.4057 137.554 65.4263 130.551 69.5264 123.048C73.6266 115.544 76.89 107.208 76.4716 98.704C76.1369 90.3672 72.2041 82.2805 66.012 76.6115C61.8282 72.6932 56.6402 69.942 51.1175 68.4414C51.5359 69.5252 51.7033 70.6923 51.3686 71.6928C50.9502 72.9433 49.9461 74.0271 49.8624 75.2776C49.7787 76.6948 50.8665 78.1121 50.2808 79.446C49.8624 80.5298 48.5235 81.03 47.8541 81.947C47.2684 82.7807 47.3521 83.9479 46.85 84.8649C47.5194 85.115 48.1052 85.4485 48.6072 85.6986C52.54 87.7828 56.5565 90.0337 58.9832 93.7019C63.0833 100.038 61.3261 108.625 57.3933 115.128Z" fill="#715947"/>
<path d="M115.13 219.757C111.7 222.675 109.608 227.094 109.608 231.596C110.696 231.512 111.867 231.512 112.955 231.596C114.712 231.762 116.386 232.179 118.143 232.263C119.9 232.346 121.741 231.929 122.996 230.762C124.084 229.678 124.586 228.094 124.586 226.593C124.502 225.093 123.917 223.592 123.163 222.342C122.076 220.508 120.486 218.924 118.645 217.84C117.306 218.173 116.135 218.924 115.13 219.757Z" fill="#7A5F4C"/>
<path d="M163.835 218.337C161.074 219.421 158.563 221.255 156.806 223.589C157.727 224.756 158.647 225.84 159.818 226.757C163.333 229.508 168.856 230.259 172.203 227.341C173.039 226.59 173.709 225.673 173.96 224.59C174.546 222.172 172.956 219.838 171.952 217.503C169.19 217.003 166.429 217.337 163.835 218.337Z" fill="#EDEAE6"/>
<path d="M114.719 184.327C115.974 187.912 116.643 191.663 116.727 195.498C116.894 198.416 116.727 201.334 115.974 204.169C115.137 207.087 113.966 209.838 112.71 212.589C112.376 213.339 111.957 214.09 111.539 214.756C113.129 215.09 114.719 215.673 116.225 216.257C116.643 216.424 117.145 216.674 117.647 217.007C120.576 215.257 124.425 209.087 124.174 207.837C124.258 207.92 125.68 211.588 127.438 215.757C123.254 205.336 120.409 194.248 116.643 183.66L114.719 184.327Z" fill="#EDEAE6"/>
<path d="M116.481 183.742C120.246 194.329 123.091 205.334 127.275 215.838C128.614 218.84 130.12 222.091 131.375 224.342C131.877 225.176 132.296 226.009 132.714 226.926C134.639 224.759 137.149 223.175 139.91 222.424C142.504 221.757 145.349 221.757 147.943 222.591C147.358 221.507 147.19 220.257 147.023 219.006C146.437 214.338 146.521 209.669 146.437 205C146.186 203.917 146.186 202.75 146.353 201.666C146.27 199.998 146.186 198.248 146.019 196.58C146.27 197.581 146.604 198.581 146.855 199.582C147.106 198.915 147.358 198.331 147.692 197.831C149.617 194.579 153.215 192.495 154.972 189.161C156.897 185.326 155.976 180.824 155.976 176.489C155.976 171.153 157.482 165.817 160.578 161.482C162.085 159.398 164.009 157.481 165.599 155.396C164.009 149.144 162.085 142.891 160.997 136.472C159.658 128.885 159.407 120.799 162.001 113.546C163.423 110.044 165.85 106.793 168.109 103.291C166.854 103.375 165.515 103.375 164.177 103.291C152.797 102.291 142.253 94.9546 137.4 84.7003C136.563 82.9496 135.894 81.1155 134.722 79.6982C133.551 78.1976 131.626 77.1138 129.702 77.4473C128.112 77.7808 126.94 78.9479 126.104 80.3652C125.35 81.7824 124.932 83.2831 124.346 84.7837C121.418 92.2035 114.473 97.2889 107.527 101.207C104.766 102.791 102.005 104.292 98.9086 104.875C97.4024 105.209 95.7289 105.209 94.2227 104.959C94.3064 105.042 94.3064 105.042 94.3901 105.126C95.2268 106.126 96.1473 107.043 96.482 108.293C96.984 115.38 94.8921 122.466 91.7961 128.969C90.2899 132.22 88.5327 135.305 86.6918 138.389C87.1102 140.474 87.8633 142.474 88.8674 144.309C90.7083 147.81 93.2186 150.895 95.2268 154.229C97.1514 157.481 98.6576 161.065 98.3229 164.817C98.7412 165.067 99.076 165.317 99.4943 165.567C101.084 166.651 102.59 167.735 104.013 169.069C107.444 172.153 110.372 175.822 112.715 179.823C113.468 181.324 114.138 182.908 114.724 184.492L116.481 183.742Z" fill="#EDEAE6"/>
<path d="M139.991 222.339C137.229 223.089 134.635 224.673 132.794 226.841C133.882 228.925 135.054 230.926 137.062 232.177C138.903 233.344 141.162 233.677 143.338 233.761C145.262 233.844 147.354 233.594 148.86 232.51C150.785 231.093 151.454 228.342 150.45 226.174C149.864 224.924 148.777 223.923 148.107 222.756C148.107 222.673 148.024 222.589 148.024 222.589C145.43 221.756 142.585 221.672 139.991 222.339Z" fill="#7A5F4C"/>
<path d="M117.814 217.675C115.806 216.341 113.463 215.924 111.12 215.257C110.952 215.174 110.952 214.924 111.12 214.84C111.12 214.757 111.12 214.757 111.203 214.673C111.622 213.923 111.957 213.173 112.291 212.423C113.546 209.421 114.634 206.253 115.387 203.002C115.889 200.584 115.973 198.083 115.889 195.415C115.806 191.08 114.885 186.995 113.128 182.827C112.542 181.41 111.203 179.075 110.032 177.575C108.191 174.907 106.434 172.656 104.091 170.238C104.091 176.908 102.083 183.661 96.9784 187.912C94.5518 189.913 91.4557 191.33 89.7822 194.082C88.4433 196.332 88.1923 199.084 86.8535 201.251C85.431 203.502 82.9207 204.919 80.494 206.087C77.0633 207.754 73.3815 209.088 69.616 209.588C67.4404 209.838 65.1812 209.838 63.0892 209.421C63.2566 209.838 63.424 210.338 63.5913 210.755C66.52 218.092 72.6284 223.927 79.741 227.345C86.8535 230.764 94.9701 231.931 102.836 231.43C105.179 231.764 107.438 231.514 109.697 231.43C109.697 226.929 111.706 222.51 115.22 219.592C116.224 218.758 117.479 218.008 118.734 217.675C118.567 217.591 118.4 217.425 118.232 217.341C118.065 217.675 117.898 217.758 117.814 217.675Z" fill="#EDEAE6"/>
<path d="M147.765 197.748C147.43 198.332 147.179 198.915 146.928 199.499C148.602 205.001 150.526 210.337 152.702 215.589C153.79 218.34 155.129 221.091 156.886 223.509C158.727 221.175 161.153 219.341 163.915 218.257C166.509 217.256 169.27 216.923 172.031 217.34C172.031 217.256 171.948 217.173 171.948 217.173C170.023 212.838 170.107 207.919 170.19 203.167C170.441 188.328 169.856 173.405 166.509 158.899C166.258 157.648 165.923 156.481 165.672 155.23C164.082 157.315 162.157 159.149 160.651 161.316C157.555 165.651 156.049 170.987 156.049 176.323C156.049 180.574 156.969 185.16 155.045 188.995C153.288 192.413 149.69 194.497 147.765 197.748Z" fill="#7A5F4C"/>
<path d="M62.3312 189.994C60.9924 196.497 60.9087 203.333 63.0843 209.502C65.2599 209.919 67.4355 209.919 69.6111 209.669C73.4602 209.169 77.0583 207.752 80.4891 206.168C82.9157 205 85.426 203.667 86.8485 201.332C88.271 199.081 88.4384 196.33 89.7772 194.163C91.4507 191.495 94.5468 190.078 96.9734 187.993C101.994 183.742 104.002 176.989 104.086 170.319C103.835 170.069 103.584 169.736 103.249 169.486C100.488 166.818 97.6428 164.734 94.2957 162.9C93.5426 162.483 92.9569 162.233 92.1201 161.983C92.0365 161.983 91.9528 161.816 91.9528 161.732C91.9528 161.649 92.1201 161.566 92.2038 161.566C94.3794 162.233 96.3877 163.4 98.2286 164.65C98.4796 160.982 97.0571 157.314 95.1325 154.063C93.1243 150.728 90.614 147.643 88.7731 144.142C87.7689 142.308 87.0159 140.307 86.5975 138.223C84.7566 141.307 82.832 144.309 81.0748 147.393C76.8073 154.73 72.9581 162.316 69.4437 169.986C66.5987 176.489 63.7537 183.075 62.3312 189.994Z" fill="#7A5F4C"/>
<path d="M88.5245 93.6211C88.4408 94.8717 88.4408 96.2056 88.8592 97.3727C89.1939 98.4565 89.947 99.4569 90.6164 100.374C91.7879 101.958 92.9593 103.459 94.2982 104.876C95.8044 105.126 97.4779 105.126 98.9841 104.792C102.08 104.209 104.925 102.708 107.603 101.124C114.548 97.1226 121.409 92.1205 124.338 84.7008C124.924 83.2001 125.342 81.6995 126.095 80.2822C126.848 78.9484 128.104 77.6978 129.693 77.3644C131.618 77.0309 133.459 78.1147 134.714 79.6153C135.886 81.1159 136.639 82.95 137.392 84.6174C142.245 94.8717 152.872 102.208 164.168 103.208C165.424 103.292 166.762 103.375 168.101 103.208C170.695 99.2902 172.954 95.1218 173.205 90.3698C173.456 86.2847 172.034 82.2831 170.444 78.5315C168.101 72.8625 165.34 67.3602 162.244 62.0246C160.403 56.6891 158.562 51.5203 156.386 46.4348C154.043 41.0993 151.198 35.6803 146.345 32.5123C145.927 32.2622 145.508 32.0121 145.09 32.0121C143.668 31.8454 142.747 33.4294 142.245 34.7633C140.153 40.0988 138.145 45.5178 136.053 50.8533C129.945 50.6866 121.912 51.9371 115.887 53.9379C111.368 46.7683 102.499 38.5148 100.323 38.7649C94.8002 39.3485 92.792 60.3573 94.5492 70.945C91.8715 79.1985 88.8592 85.5344 88.5245 93.6211Z" fill="#7A5F4C"/>
<path d="M92.2945 161.562C94.4701 162.229 96.4784 163.397 98.3193 164.647C98.7377 164.897 99.0724 165.147 99.4908 165.397C101.081 166.481 102.587 167.565 104.009 168.899C107.44 171.984 110.369 175.652 112.712 179.653C113.465 181.154 114.134 182.738 114.72 184.322C115.975 187.907 116.645 191.658 116.728 195.493C116.896 198.411 116.728 201.329 115.975 204.164C115.138 207.081 113.967 209.833 112.712 212.584C112.377 213.334 111.959 214.084 111.54 214.751C113.13 215.085 114.72 215.668 116.226 216.252C116.645 216.419 117.147 216.669 117.649 217.002C117.565 217.086 117.565 217.086 117.481 217.086C117.732 217.169 117.983 217.336 118.234 217.419C118.234 217.586 118.067 217.669 117.9 217.586C115.891 216.252 113.548 215.835 111.206 215.168C111.038 215.085 111.038 214.835 111.206 214.751C111.206 214.668 111.206 214.668 111.289 214.585C111.708 213.834 112.042 213.084 112.377 212.334C113.632 209.332 114.72 206.164 115.473 202.913C115.975 200.495 116.059 197.994 115.975 195.327C115.891 190.991 114.971 186.906 113.214 182.738C112.628 181.321 111.289 178.986 110.118 177.486C108.277 174.818 106.52 172.567 104.177 170.149C103.926 169.899 103.675 169.566 103.34 169.316C100.579 166.648 97.7335 164.564 94.3865 162.73C93.6334 162.313 93.0476 162.063 92.2109 161.813C92.1272 161.813 92.0435 161.646 92.0435 161.562C92.0435 161.646 92.2109 161.562 92.2945 161.562Z" fill="#493E37"/>
<path d="M117.563 217.008C117.479 217.091 117.479 217.091 117.395 217.091C117.646 217.175 117.897 217.341 118.148 217.425V217.341C117.981 217.341 117.814 217.175 117.563 217.008Z" fill="black"/>
<path d="M108.685 166.983C118.726 185.574 121.237 207.25 131.529 225.674C131.613 225.841 131.78 225.841 131.947 225.758C132.115 225.674 132.115 225.508 132.031 225.341C124.918 211.168 121.739 195.579 116.049 180.906C114.124 175.987 111.949 171.152 109.187 166.65C109.104 166.483 108.936 166.483 108.769 166.566C108.685 166.65 108.685 166.817 108.685 166.983Z" fill="#493E37"/>
<path d="M168.429 222.925C169.601 224.509 170.187 226.177 170.103 228.177C170.103 228.511 170.521 228.594 170.689 228.344C171.191 227.344 171.275 226.093 170.94 225.009C170.605 223.926 169.852 222.925 168.848 222.425C168.513 222.342 168.262 222.758 168.429 222.925Z" fill="#493E37"/>
<path d="M165.17 223.512C166.007 225.179 166.509 227.18 166.342 228.931C166.174 229.181 166.342 229.514 166.676 229.431C167.095 229.264 167.178 228.847 167.262 228.597C167.848 226.68 167.262 224.429 165.672 223.178C165.421 222.928 165.086 223.262 165.17 223.512Z" fill="#493E37"/>
<path d="M145.083 227.177C146.087 229.011 147.007 231.179 146.422 233.18C146.254 233.43 146.673 233.763 146.924 233.513C148.011 232.596 147.928 231.012 147.677 229.762C147.342 228.511 146.673 227.344 145.585 226.677C145.25 226.594 144.915 226.927 145.083 227.177Z" fill="#493E37"/>
<path d="M140.649 227.759C141.151 229.26 141.486 230.76 141.151 232.261C140.984 232.761 140.816 233.178 140.482 233.428C140.231 233.595 140.398 234.012 140.649 234.012C142.155 233.762 142.574 232.011 142.49 230.844C142.49 229.593 141.988 228.343 141.151 227.509C140.9 227.176 140.482 227.426 140.649 227.759Z" fill="#493E37"/>
<path d="M120.906 226.678C121.743 227.678 122.077 228.845 122.412 230.096C122.496 230.513 122.663 230.846 122.58 231.096C122.412 231.346 122.747 231.68 122.998 231.513C123.5 231.179 123.5 230.429 123.5 229.929C123.416 228.929 123.165 227.928 122.496 227.094C122.245 226.761 121.073 225.761 120.822 226.427C120.822 226.427 120.906 226.594 120.906 226.678Z" fill="#493E37"/>
<path d="M117.214 227.676C118.219 229.26 118.637 230.927 118.47 232.845C118.386 233.178 118.888 233.345 119.055 233.095C119.725 232.178 119.808 231.011 119.557 229.927C119.306 228.843 118.637 227.843 117.633 227.342C117.298 227.092 117.047 227.426 117.214 227.676Z" fill="#493E37"/>
<path d="M147.594 80.6964C147.594 79.3625 146.59 78.1953 145.334 78.1953C144.079 78.1953 143.075 79.2791 143.075 80.6964C143.075 82.0302 144.079 83.1974 145.334 83.1974C146.59 83.1974 147.594 82.0302 147.594 80.6964Z" fill="#37291D"/>
<path d="M118.898 82.4503C118.898 81.1164 117.894 79.9492 116.639 79.9492C115.384 79.9492 114.38 81.033 114.38 82.4503C114.38 83.7842 115.384 84.9513 116.639 84.9513C117.894 84.8679 118.898 83.7842 118.898 82.4503Z" fill="#37291D"/>
<path d="M138.136 91.0343C138.22 91.1176 137.551 91.1176 137.634 90.8675V90.7842C137.634 90.7842 137.634 90.7008 137.634 90.7842C136.798 92.2014 134.873 93.6187 133.283 92.5349C132.614 92.0347 132.112 91.1176 131.861 90.2006C131.61 89.2835 131.526 88.2831 131.442 87.1993C131.442 86.8659 130.856 86.8659 130.856 87.1993C129.936 90.3673 132.028 95.8696 136.128 93.702C137.132 93.1185 137.969 92.118 138.22 90.9509C138.22 90.9509 138.22 90.9509 138.22 90.8675C138.304 90.6174 137.551 90.6174 137.718 90.7008C137.467 90.8675 137.885 91.2844 138.136 91.0343Z" fill="#302317"/>
<path d="M130.772 87.6989C130.689 88.866 130.605 90.1166 130.27 91.2003C128.848 93.9515 126.087 92.9511 124.413 90.9502C124.162 90.7001 123.744 91.0336 123.911 91.2837C125.25 94.0349 128.932 95.2854 130.94 92.3675C131.777 90.9502 131.609 89.1161 131.358 87.5321C131.274 87.282 130.772 87.3654 130.772 87.6989Z" fill="#302317"/>
<path d="M156.544 59.4358C156.46 57.6017 156.209 57.2682 155.54 55.5175C155.205 54.6838 154.87 53.7667 154.117 53.1832C153.95 53.0164 153.699 52.933 153.448 53.0164C153.197 53.0998 153.113 53.3499 153.113 53.6C152.778 54.7671 152.611 56.0177 152.611 57.2682C152.527 56.101 152.192 54.9339 151.69 53.8501C151.607 53.6 151.356 53.3499 151.105 53.4333C150.937 53.5166 150.854 53.6834 150.854 53.8501C150.686 54.517 150.603 55.2674 150.603 55.9343C150.435 54.8505 149.933 53.8501 149.347 52.933C149.18 52.6829 148.929 52.5162 148.678 52.5996C148.594 52.6829 148.511 52.7663 148.511 52.933C148.343 53.5166 148.343 54.1002 148.427 54.6004C146.837 53.6834 145.08 52.8497 143.323 52.2661C144.16 48.5145 145.08 44.8463 145.582 41.0114C145.749 39.9276 145.833 38.9272 146.168 37.9268C146.251 37.6767 146.419 37.3432 146.586 37.2598C147.005 37.0097 147.59 37.2598 148.009 37.51C150.268 38.8438 156.711 45.8468 156.544 59.4358Z" fill="#E6B0B2"/>
<path d="M99.3132 65.189C99.4805 63.5216 99.5642 61.104 101.07 60.7705C101.907 60.6038 102.493 62.1044 103.079 63.1882C102.66 62.1044 102.158 59.8534 103.246 59.52C103.664 59.4366 105.171 60.9372 105.422 61.5208C105.087 60.437 105.003 59.3532 105.254 58.2695C105.338 58.0193 105.422 57.6859 105.756 57.6859C105.84 57.6859 106.007 57.7692 106.091 57.8526C106.509 58.2695 106.76 58.7697 106.928 59.3532C107.932 57.7692 109.689 56.8522 111.195 55.685C108.852 52.1836 102.158 44.0969 101.405 43.4299C101.238 43.2632 100.987 43.0131 100.652 43.0131C100.15 42.9297 99.7316 43.4299 99.4806 43.8468C98.058 46.2645 95.9661 54.8514 99.3132 65.189Z" fill="#E6B0B2"/>
<path d="M152.612 151.892C151.942 157.561 150.855 163.23 149.014 168.649C148.093 171.317 146.838 173.985 146.001 176.736C145.165 179.57 144.83 182.488 144.83 185.406C144.997 193.409 145.667 203.247 146.085 211.334L146.587 219.92C146.587 220.087 146.754 220.171 146.922 220.171C147.089 220.171 147.173 220.004 147.173 219.837L146.922 211.167C146.754 206.832 146.503 198.245 146.336 193.91C146.169 188.241 145.499 182.405 147.173 176.986C147.926 174.235 149.181 171.65 150.102 168.899C151.942 163.397 152.863 157.644 153.281 151.892C153.281 151.725 153.198 151.559 153.03 151.559C152.779 151.642 152.696 151.725 152.612 151.892Z" fill="#493E37"/>
<path d="M130.944 87.9517C129.773 87.785 128.685 86.4511 128.434 85.9509C128.35 85.7841 128.266 85.534 128.266 85.2839C128.35 84.8671 128.852 84.2001 129.94 84.7837C130.442 85.0338 130.777 85.1172 131.279 85.1172C131.613 85.1172 131.864 84.9504 132.199 84.8671C132.534 84.7837 132.952 84.4502 133.454 84.7837C133.622 84.9504 133.789 85.2839 133.789 85.534C133.789 86.5344 132.952 87.0346 132.534 87.2848C132.199 87.5349 131.446 87.9517 130.944 87.9517Z" fill="#E6B0B2"/>
<path d="M150.439 88.0316C157.468 88.6151 164.413 89.6989 171.358 91.1996C178.303 92.7002 185.332 94.5343 191.943 97.2854C192.277 97.4522 192.11 97.869 191.775 97.7856C185.081 95.7014 178.387 93.6172 171.525 92.0332C164.58 90.4492 157.551 89.2821 150.439 88.6151C150.02 88.5318 150.02 87.9482 150.439 88.0316Z" fill="#FFFEEF"/>
<path d="M149.016 92.4525C156.044 94.1199 162.99 96.3708 169.767 99.122C176.378 101.873 182.905 104.958 188.846 108.959C189.18 109.126 188.846 109.626 188.511 109.46C182.235 105.875 175.876 102.457 169.182 99.7055C162.571 96.9544 155.793 94.7868 148.848 93.1194C148.346 93.0361 148.513 92.3691 149.016 92.4525Z" fill="#FFFEEF"/>
<path d="M79.9804 98.2906C82.407 96.6232 85.4194 95.7061 88.1807 94.7057C91.1931 93.6219 94.2891 92.7049 97.3852 91.8712C103.41 90.2872 109.518 89.1201 115.71 88.4531C115.878 88.4531 115.878 88.7032 115.71 88.7032C109.518 89.3702 103.41 90.5373 97.4689 92.2047C94.5402 93.0384 91.6952 93.8721 88.8501 94.9558C85.9215 96.0396 82.9091 97.1234 80.2314 98.7908C79.9804 98.8741 79.7294 98.4573 79.9804 98.2906Z" fill="#FFFEEF"/>
<path d="M79.3966 107.207C82.4089 105.373 85.5887 103.872 88.7684 102.205C91.8644 100.621 94.8768 99.0369 97.9728 97.4529C103.747 94.4517 109.604 91.7005 115.796 89.8664C116.047 89.7831 116.131 90.1999 115.88 90.2833C109.604 92.2007 103.663 95.1186 97.8055 98.1199C94.7931 99.6205 91.7807 101.204 88.7684 102.788C85.6723 104.372 82.66 106.04 79.4802 107.457C79.3129 107.374 79.3129 107.29 79.3966 107.207Z" fill="#FFFEEF"/>
<path d="M150.774 121.052C151.025 121.719 151.276 122.386 151.527 123.053C151.778 123.72 152.029 124.387 152.28 125.054C152.363 125.471 151.861 125.554 151.694 125.221C151.443 124.554 151.192 123.887 151.025 123.137C150.774 122.47 150.606 121.803 150.355 121.052C150.104 120.886 150.606 120.802 150.774 121.052Z" fill="#5E4838"/>
<path d="M149.099 124.13C149.434 124.88 149.768 125.631 150.103 126.381C150.27 126.715 150.438 127.131 150.605 127.465C150.772 127.882 150.94 128.299 151.023 128.715C151.023 128.882 150.856 129.132 150.689 129.132C150.438 129.216 150.27 129.049 150.187 128.882C149.936 128.549 149.768 128.132 149.685 127.715C149.517 127.381 149.434 126.965 149.266 126.631C149.015 125.881 148.764 125.131 148.513 124.38C148.262 124.047 148.932 123.797 149.099 124.13Z" fill="#5E4838"/>
<path d="M147.929 127.634C148.18 127.467 148.515 127.55 148.682 127.8C149.017 128.301 149.184 128.968 149.268 129.551C149.352 129.885 149.352 130.218 149.352 130.552C149.352 130.718 149.352 130.885 149.268 131.052C149.184 131.218 149.184 131.385 149.101 131.552C149.017 131.719 148.766 131.802 148.598 131.719C148.431 131.635 148.264 131.469 148.264 131.302C148.264 131.218 148.264 131.135 148.264 131.052C148.264 130.968 148.264 130.968 148.264 131.052V130.968C148.264 130.802 148.264 130.635 148.264 130.468C148.264 130.301 148.264 130.218 148.264 130.051C148.264 129.968 148.264 129.968 148.264 129.885V129.801C148.264 129.885 148.264 129.885 148.264 129.801C148.264 129.551 148.18 129.301 148.096 129.051C148.096 128.968 148.013 128.801 147.929 128.717C147.929 128.717 147.929 128.634 147.845 128.634C147.845 128.551 147.762 128.467 147.762 128.467C147.594 128.134 147.678 127.8 147.929 127.634Z" fill="#5E4838"/>
<path d="M101.071 109.129C101.238 109.129 101.405 109.296 101.405 109.462L101.656 111.88C101.656 112.047 101.656 112.13 101.656 112.297C101.656 112.464 101.656 112.547 101.573 112.714C101.489 112.88 101.238 112.964 101.071 112.797C100.987 112.63 100.903 112.547 100.903 112.38C100.903 112.214 100.903 112.13 100.903 111.963C100.903 111.713 100.819 111.38 100.819 111.13C100.736 110.546 100.736 110.046 100.652 109.462C100.736 109.296 100.903 109.129 101.071 109.129Z" fill="#5E4838"/>
<path d="M103.752 111.211C103.752 110.794 104.338 110.794 104.338 111.211C104.338 112.462 104.421 113.712 104.338 114.963C104.338 115.379 103.668 115.379 103.668 114.963C103.668 113.795 103.668 112.462 103.752 111.211Z" fill="#5E4838"/>
<path d="M164.748 207.916C164.748 207.165 164.915 206.415 165.082 205.665C165.166 205.331 165.585 205.081 165.919 205.165C166.254 205.248 166.505 205.665 166.421 205.998C166.254 206.665 166.17 207.249 166.17 207.916C166.17 208.249 166.17 208.583 166.17 208.916C166.17 209.25 166.087 209.666 166.003 210C166.003 210.167 165.752 210.333 165.501 210.333C165.25 210.333 165.082 210.167 164.999 210C164.915 209.833 164.831 209.666 164.831 209.5C164.748 209.333 164.748 209.083 164.748 208.833C164.664 208.666 164.664 208.333 164.748 207.916Z" fill="#5E4838"/>
<path d="M162.737 207.919C162.737 207.669 162.821 207.419 162.821 207.169C162.904 206.669 162.988 206.168 162.988 205.668C162.988 205.418 163.155 205.168 163.49 205.168C163.741 205.168 163.992 205.335 163.992 205.668L163.909 207.252C163.909 207.502 163.909 207.752 163.825 208.002C163.825 208.169 163.825 208.253 163.825 208.419C163.825 208.503 163.825 208.586 163.825 208.669C163.825 208.836 163.741 208.92 163.657 209.003C163.406 209.253 163.072 209.17 162.904 208.92C162.57 208.503 162.653 208.253 162.737 207.919Z" fill="#5E4838"/>
<path d="M164.416 202.75C164.499 202.166 164.583 201.666 164.667 201.083C164.75 200.749 165.085 200.582 165.42 200.666C165.754 200.749 165.922 201.083 165.838 201.416C165.587 202.5 165.42 203.667 165.001 204.667C164.918 204.834 164.667 204.918 164.583 204.834C164.416 204.751 164.332 204.584 164.248 204.417C164.165 203.917 164.248 203.334 164.416 202.75Z" fill="#5E4838"/>
<path d="M106.001 160.981C106.084 160.564 106.837 160.648 106.837 161.064C106.754 161.898 106.754 162.648 107.005 163.399C107.172 164.149 107.591 164.899 107.842 165.65C108.009 165.983 107.507 166.233 107.256 165.983C106.586 165.316 106.252 164.483 106.084 163.565C105.833 162.732 105.833 161.815 106.001 160.981Z" fill="#5E4838"/>
<path d="M102.912 159.899C102.912 159.649 103.079 159.398 103.414 159.398C103.665 159.398 103.916 159.649 103.916 159.899C103.916 160.649 103.916 161.483 104.083 162.233C104.167 162.65 104.251 162.983 104.335 163.4C104.335 163.567 104.418 163.817 104.502 163.984C104.586 164.234 104.502 164.484 104.502 164.734C104.418 165.067 103.916 165.151 103.665 164.984C103.498 164.817 103.33 164.651 103.247 164.401C103.163 164.234 103.163 163.984 103.079 163.817C102.996 163.4 102.912 162.9 102.912 162.483C102.828 161.566 102.828 160.732 102.912 159.899Z" fill="#5E4838"/>
<path d="M66.0063 94.4532C66.1737 94.3699 66.341 94.2865 66.5084 94.1198C66.6757 94.0364 66.8431 93.953 67.0104 93.8697C67.1778 93.7863 67.3451 93.6196 67.5125 93.5362L67.5962 93.4528C67.6798 93.3695 67.7635 93.3695 67.8472 93.2861C68.0146 93.1194 68.0982 93.036 68.2656 92.8693C68.3493 92.7859 68.4329 92.7025 68.4329 92.6191C68.4329 92.6191 68.4329 92.5358 68.5166 92.5358L68.6003 92.4524C68.8513 92.1189 69.0187 91.7855 69.186 91.3686C69.3534 91.0352 69.7718 90.9518 70.0228 91.1185C70.3575 91.2853 70.3575 91.6187 70.2738 91.9522C69.9391 92.7859 69.3534 93.5362 68.684 94.1198C68.3493 94.4532 67.9309 94.7034 67.5125 94.8701C67.2615 94.9535 67.0941 95.1202 66.8431 95.1202C66.592 95.2036 66.341 95.2036 66.09 95.2036C65.839 95.3703 65.6716 94.7034 66.0063 94.4532Z" fill="#5E4838"/>
<path d="M66.4206 97.5415C66.5042 97.5415 66.6716 97.4581 66.7553 97.4581C66.7553 97.4581 66.9226 97.3747 66.8389 97.4581C66.9226 97.4581 67.0063 97.3747 67.09 97.3747C67.341 97.2914 67.5084 97.208 67.7594 97.1246C67.7594 97.1246 67.7594 97.1246 67.8431 97.1246C67.9268 97.1246 67.9268 97.0413 68.0104 97.0413C68.0941 96.9579 68.1778 96.9579 68.2615 96.8745C68.3451 96.7912 68.4288 96.7912 68.5962 96.7078L68.6798 96.6244C68.6798 96.6244 68.6798 96.6244 68.7635 96.5411C68.9309 96.3743 69.0982 96.291 69.2656 96.1242C69.3493 96.0409 69.4329 95.9575 69.5166 95.8741L69.6003 95.7907L69.684 95.7074C69.8513 95.5406 69.935 95.3739 70.0187 95.1238C70.1023 95.0404 70.1023 94.9571 70.186 94.7903V94.707C70.186 94.6236 70.186 94.6236 70.2697 94.5402C70.3534 94.2068 70.6881 93.9566 71.1065 94.1234C71.4412 94.2068 71.6922 94.6236 71.5249 94.9571C71.1901 95.9575 70.6044 96.8745 69.7676 97.6248C69.3493 97.9583 68.9309 98.2918 68.4288 98.4585C67.8431 98.7086 67.341 98.792 66.7553 98.792C66.5042 98.792 66.2532 98.6253 66.1695 98.2918C66.0022 97.8749 66.1695 97.6248 66.4206 97.5415Z" fill="#5E4838"/>
<path d="M53.6323 125.301C53.8833 125.051 54.3017 125.051 54.5527 125.301C54.8038 125.634 55.1385 125.884 55.3895 126.218C55.5569 126.385 55.6405 126.551 55.8079 126.635C55.8916 126.718 55.9753 126.801 55.9753 126.885C55.9753 126.885 55.9753 126.968 56.0589 127.052C56.1426 127.135 56.1426 127.218 56.2263 127.385C56.31 127.552 56.31 127.802 56.1426 127.969C55.9753 128.135 55.8079 128.135 55.5569 128.052C55.4732 127.969 55.3895 127.969 55.3058 127.885C55.1385 127.802 55.0548 127.719 54.9711 127.635L54.5527 127.218C54.218 126.885 53.967 126.635 53.6323 126.301C53.3813 125.968 53.2976 125.551 53.6323 125.301Z" fill="#5E4838"/>
<path d="M53.3672 127.386C53.5346 127.636 53.6183 127.886 53.7856 128.136C53.953 128.386 54.204 128.637 54.455 128.803C54.5387 128.887 54.7061 128.97 54.7897 129.137C54.8734 129.22 54.8734 129.22 54.9571 129.304L55.0408 129.387L55.1244 129.47L55.2081 129.554C55.2918 129.637 55.3755 129.72 55.4591 129.804C55.6265 129.97 55.7102 130.054 55.8775 130.221C56.0449 130.387 55.9612 130.721 55.7938 130.888C55.6265 131.054 55.3755 131.138 55.2081 131.054C55.0408 130.971 54.7897 130.888 54.6224 130.804C54.455 130.721 54.2877 130.554 54.204 130.387C53.953 130.137 53.7019 129.804 53.5346 129.47C53.1999 128.887 52.9488 128.22 52.7815 127.636C52.7815 127.303 53.2835 127.136 53.3672 127.386Z" fill="#5E4838"/>
<path d="M50.1962 129.388C50.4473 129.221 50.782 129.304 50.9493 129.554C51.2003 129.888 51.4514 130.221 51.7024 130.555C51.7861 130.721 51.9534 130.888 52.0371 131.055C52.2045 131.222 52.2882 131.388 52.3718 131.638C52.4555 131.889 52.4555 132.139 52.2045 132.305C52.0371 132.472 51.7024 132.472 51.5351 132.305C51.3677 132.139 51.2004 131.972 51.033 131.722C50.9493 131.555 50.782 131.388 50.6983 131.222C50.4473 130.888 50.1962 130.555 49.9452 130.138C49.8615 129.971 49.9452 129.554 50.1962 129.388Z" fill="#5E4838"/>
<path d="M50.6115 195.082C50.6115 194.998 50.6952 194.915 50.6952 194.832C50.7788 194.748 50.8625 194.748 50.9462 194.665C51.0299 194.581 51.1972 194.498 51.2809 194.415C51.5319 194.248 51.6993 194.081 51.9503 193.915C52.3687 193.498 52.7871 193.081 53.2055 192.581C53.2891 192.414 53.5402 192.497 53.6239 192.581C53.7075 192.664 53.7912 192.914 53.7075 192.997C53.2891 193.498 52.8708 193.998 52.4524 194.415C52.2013 194.665 51.9503 194.832 51.6993 194.998C51.6156 195.082 51.4482 195.165 51.3646 195.248C51.2809 195.332 51.1972 195.332 51.1136 195.415C51.0299 195.415 50.9462 195.415 50.8625 195.415C50.6115 195.415 50.5278 195.248 50.6115 195.082Z" fill="#5E4838"/>
<path d="M47.4309 190.994C49.1044 189.577 50.778 188.16 52.2842 186.492C52.5352 186.242 53.0373 186.242 53.2883 186.492C53.5393 186.742 53.5393 187.159 53.2883 187.493C51.7821 189.16 50.1086 190.744 48.2677 192.078C47.5983 192.411 46.8452 191.411 47.4309 190.994Z" fill="#5E4838"/>
<path d="M44.332 187.66C44.4157 187.576 44.5831 187.493 44.6667 187.41C44.8341 187.326 45.0015 187.243 45.2525 187.16H45.3362C45.4198 187.16 45.5035 187.076 45.5035 187.076C45.6709 186.993 45.7545 186.909 45.9219 186.826C46.0893 186.743 46.1729 186.659 46.3403 186.576C46.3403 186.576 46.5913 186.409 46.675 186.326C46.675 186.326 46.5913 186.409 46.675 186.326L46.7587 186.242C46.8423 186.159 46.8424 186.159 46.926 186.076C47.0097 185.992 47.1771 185.826 47.2607 185.742C47.5118 185.492 48.0138 185.492 48.2649 185.742C48.5159 185.992 48.5159 186.493 48.2649 186.743C47.7628 187.243 47.2607 187.66 46.675 187.993C46.3403 188.16 46.0056 188.327 45.6709 188.41C45.5035 188.493 45.3362 188.577 45.1688 188.577C45.0015 188.577 44.8341 188.577 44.5831 188.577C44.081 188.744 43.83 187.993 44.332 187.66Z" fill="#5E4838"/>
<path d="M41.9062 183.828C42.0736 183.745 42.1573 183.745 42.2409 183.661C42.3246 183.661 42.3246 183.661 42.4083 183.578H42.492H42.5756H42.6593C42.743 183.578 42.743 183.495 42.8267 183.495C42.9103 183.411 42.994 183.411 43.1614 183.328C43.2451 183.245 43.3287 183.245 43.4124 183.161C43.4124 183.161 43.3287 183.245 43.4124 183.161C43.4124 183.161 43.4124 183.161 43.4961 183.078C43.5798 183.078 43.5798 182.994 43.5798 182.994C43.6634 182.911 43.7471 182.828 43.8308 182.744L43.9145 182.661C43.9145 182.661 44.0818 182.494 43.9145 182.578C43.9981 182.411 44.0818 182.327 44.2492 182.327C44.4165 182.244 44.6676 182.328 44.8349 182.411C45.0023 182.494 45.0859 182.661 45.0859 182.828C45.0859 183.078 45.0023 183.161 44.9186 183.328C44.5839 183.745 44.1655 184.078 43.7471 184.328C43.4961 184.495 43.245 184.578 42.994 184.662C42.9103 184.745 42.743 184.745 42.6593 184.745C42.492 184.745 42.3246 184.829 42.1572 184.829C41.9062 184.829 41.6552 184.578 41.5715 184.328C41.4042 184.162 41.5715 183.995 41.9062 183.828Z" fill="#5E4838"/>
<path d="M67.6836 191.666C67.9347 190.749 68.2694 189.832 68.6041 188.915C68.6878 188.581 69.0225 188.414 69.3572 188.498C69.6919 188.581 69.8592 188.915 69.7756 189.248C69.4408 190.165 69.1898 191.082 68.9388 191.999C68.6878 192.916 68.6041 193.917 68.2694 194.75C68.0183 195.334 67.2652 195.251 67.2652 194.584C67.0979 193.583 67.4326 192.583 67.6836 191.666Z" fill="#5E4838"/>
<path d="M70.3594 192.832C70.4431 192.165 70.6104 191.498 70.7778 190.915C70.8614 190.581 71.2798 190.331 71.6145 190.415C71.9492 190.498 72.2003 190.915 72.1166 191.248C72.0329 191.582 71.9492 191.915 71.8656 192.249C71.8656 192.415 71.7819 192.499 71.7819 192.666C71.7819 192.749 71.7819 192.832 71.6982 192.916C71.6982 192.916 71.6982 192.916 71.6982 192.999C71.6982 192.999 71.6982 192.999 71.6982 193.082C71.6982 193.416 71.6145 193.666 71.6145 193.999C71.6145 194.166 71.6145 194.333 71.5309 194.5C71.5309 194.666 71.4472 194.916 71.3635 195.083C71.1962 195.667 70.3594 195.583 70.192 195.083C70.1083 194.75 70.0247 194.416 70.0247 193.999C70.2757 193.583 70.2757 193.166 70.3594 192.832Z" fill="#5E4838"/>
<path d="M70.5267 188.077C70.5267 187.91 70.6104 187.743 70.6104 187.576C70.694 187.326 70.7777 187.076 70.8614 186.743C71.0287 186.159 71.2798 185.659 71.4471 185.075C71.5308 184.742 71.8655 184.492 72.2002 184.659C72.5349 184.742 72.786 185.075 72.6186 185.409C72.4513 185.992 72.2002 186.493 72.0329 187.076C71.9492 187.326 71.8655 187.576 71.6982 187.91C71.6145 188.077 71.6145 188.243 71.4471 188.41C71.3634 188.493 71.2798 188.66 71.1961 188.744C71.1124 188.91 70.8614 188.994 70.694 188.994C70.5267 188.91 70.3593 188.744 70.3593 188.577C70.5267 188.327 70.5267 188.16 70.5267 188.077Z" fill="#5E4838"/>
<path d="M246.12 42.2032V43.3232H256.392V42.2032H246.12ZM247.704 45.8992H254.696V48.2992H247.704V45.8992ZM246.6 44.8752V49.3232H255.864V44.8752H246.6ZM247.592 49.6432L246.6 49.9792C248.296 52.9072 251.576 54.5712 255.816 55.1792C255.976 54.8432 256.28 54.3632 256.536 54.1072C252.376 53.6432 249.096 52.1552 247.592 49.6432ZM250.568 40.4912V47.5632C250.568 50.2672 250.296 53.0032 245.544 54.2032C245.784 54.4592 246.12 54.9392 246.264 55.2112C251.224 53.7392 251.752 50.6672 251.752 47.5792V40.4912H250.568ZM245.432 40.3952C244.504 42.8272 242.936 45.2112 241.32 46.7312C241.544 47.0192 241.88 47.6432 241.992 47.9152C243.768 46.1392 245.48 43.4512 246.568 40.7472L245.432 40.3952ZM243.752 44.5872V55.2272H244.904V43.4672L244.888 43.4512L243.752 44.5872ZM260.12 41.5632V42.7152H270.472V41.5632H260.12ZM260.12 45.2912V46.4272H270.456V45.2912H260.12ZM260.04 49.1152V50.2512H270.488V49.1152H260.04ZM259.448 41.5632V47.3552C259.448 49.6112 259.272 52.4592 257.512 54.4432C257.768 54.6032 258.248 55.0032 258.44 55.2432C260.344 53.1152 260.632 49.8032 260.632 47.3712V41.5632H259.448ZM269.992 41.5632V53.5152C269.992 53.8192 269.88 53.9152 269.576 53.9312C269.272 53.9312 268.184 53.9472 267.048 53.8992C267.224 54.2192 267.416 54.7472 267.464 55.0672C268.984 55.0832 269.912 55.0672 270.456 54.8752C270.984 54.6672 271.176 54.2992 271.176 53.5152V41.5632H269.992ZM264.472 41.9952V55.0032H265.688V41.9952H264.472ZM282.76 41.2272V42.3312H287.208V41.2272H282.76ZM282.76 44.9072V45.9792H287.208V44.9072H282.76ZM282.744 48.6352V49.7232H287.24V48.6352H282.744ZM286.664 41.2272V53.6112C286.664 53.8512 286.584 53.9312 286.344 53.9312C286.104 53.9472 285.304 53.9472 284.456 53.9312C284.616 54.2352 284.792 54.7632 284.824 55.0992C286.008 55.0992 286.76 55.0672 287.208 54.8752C287.672 54.6832 287.832 54.3152 287.832 53.6272V41.2272H286.664ZM282.264 41.2272V47.0352C282.264 49.3552 282.152 52.3952 280.808 54.5392C281.08 54.6512 281.56 55.0032 281.768 55.2272C283.208 52.9552 283.4 49.4992 283.4 47.0352V41.2272H282.264ZM273.816 42.5712V43.6272H281.48V42.5712H273.816ZM275.704 45.0512V46.0272H279.752V45.0512H275.704ZM275.704 47.5952V48.5552H279.768V47.5952H275.704ZM273.608 50.1712V51.2432H281.48V50.1712H273.608ZM275.176 40.6192V50.6032H276.28V40.6192H275.176ZM279.192 40.6192V50.6032H280.296V40.6192H279.192ZM275.832 51.5952C275.352 52.6672 274.52 53.7392 273.624 54.4592C273.912 54.6192 274.376 54.9712 274.6 55.1632C275.464 54.3632 276.392 53.1312 276.984 51.9152L275.832 51.5952ZM278.136 52.0912C278.76 52.8432 279.48 53.8992 279.784 54.5392L280.76 53.9632C280.44 53.3072 279.688 52.3152 279.064 51.5952L278.136 52.0912ZM290.456 41.0992V55.1312H291.528V42.1872H294.312V41.0992H290.456ZM294.088 41.0992V41.4192C293.768 42.5072 293.176 44.3472 292.584 45.8032C293.752 47.0672 294.024 48.1872 294.024 49.0672C294.024 49.5472 293.928 49.9952 293.704 50.1712C293.56 50.2672 293.384 50.2992 293.208 50.3152C292.936 50.3472 292.616 50.3312 292.264 50.2992C292.44 50.6032 292.552 51.0672 292.568 51.3552C292.92 51.3712 293.32 51.3712 293.64 51.3392C293.96 51.2912 294.264 51.1952 294.472 51.0352C294.92 50.7152 295.112 50.0272 295.112 49.1632C295.112 48.1712 294.84 47.0032 293.672 45.6752C294.216 44.3952 294.792 42.8272 295.272 41.5152L294.488 41.0512L294.296 41.0992H294.088ZM296.68 41.1472V42.2032H301.96V47.1152H296.68V48.1712H303.128V41.1472H296.68ZM296.76 44.1392V45.1472H302.584V44.1392H296.76ZM299.688 47.5472L298.696 47.7392C299.464 51.1472 300.984 53.7712 303.608 55.0352C303.8 54.7152 304.168 54.2352 304.44 53.9952C301.912 52.9712 300.376 50.5552 299.688 47.5472ZM303.288 48.6992C302.536 49.4032 301.208 50.3472 300.296 50.8912L300.952 51.6592C301.88 51.1312 303.144 50.2992 304.088 49.5312L303.288 48.6992ZM296.024 55.1632C296.328 54.9552 296.824 54.7792 300.136 53.8672C300.088 53.6112 300.072 53.1152 300.072 52.7792L296.504 53.6432L295.928 54.0912L296.024 55.1632ZM296.024 55.1632C296.024 54.7152 297.24 53.9792 297.24 53.9792V41.1472H296.072V53.0352C296.072 53.6912 295.72 54.0272 295.48 54.1712C295.672 54.3952 295.928 54.8912 296.024 55.1632ZM313 45.1792C313.64 45.1792 314.2 44.6992 314.2 43.9792C314.2 43.2432 313.64 42.7632 313 42.7632C312.344 42.7632 311.784 43.2432 311.784 43.9792C311.784 44.6992 312.344 45.1792 313 45.1792ZM313 53.0032C313.64 53.0032 314.2 52.5392 314.2 51.8032C314.2 51.0672 313.64 50.6032 313 50.6032C312.344 50.6032 311.784 51.0672 311.784 51.8032C311.784 52.5392 312.344 53.0032 313 53.0032Z" fill="#B14F42"/>
<rect x="241" y="63.7656" width="108" height="25.9041" rx="12.952" fill="#B18042"/>
<path d="M261.328 79.4736V80.1336H256.732V79.4736H261.328ZM256.732 81.5736V80.9016H261.328V81.5736H256.732ZM255.628 82.7016H256.732V82.3296H261.328V82.6536H262.468V78.7056H255.628V82.7016ZM255.196 75.1056C255.796 74.8776 256.384 74.6256 256.936 74.3136V74.6016H261.088V74.2536C261.7 74.5896 262.36 74.8776 263.008 75.1056H255.196ZM262.072 77.4936H260.8C261.016 77.1456 261.28 76.6416 261.544 76.1256L260.608 75.8616C260.476 76.2696 260.224 76.8816 260.008 77.2656L260.752 77.4936H259.408V75.8376H262.072V77.4936ZM256.48 76.1496C256.732 76.5696 256.96 77.1216 257.044 77.4936H255.892V75.8376H258.496V77.4936H257.08L257.872 77.2296C257.788 76.8696 257.524 76.3176 257.26 75.9096L256.48 76.1496ZM257.752 73.8336C258.232 73.5336 258.676 73.1856 259.072 72.8256C259.444 73.1856 259.888 73.5216 260.392 73.8336H257.752ZM258.844 71.6376C257.752 73.0416 255.628 74.0736 253.456 74.6256C253.648 74.8176 253.96 75.2736 254.056 75.4896C254.356 75.4056 254.644 75.3096 254.944 75.2016V78.2256H263.056V75.1176C263.356 75.2256 263.668 75.3216 263.956 75.4056C264.124 75.1416 264.436 74.7456 264.664 74.5416C262.792 74.1336 260.764 73.2336 259.648 72.2016C259.72 72.1296 259.78 72.0456 259.84 71.9736L258.844 71.6376ZM273.664 74.0376H268.372V73.0056H273.664V74.0376ZM274.84 72.1176H267.256V74.9256H274.84V72.1176ZM267.844 79.1856H274.144V79.8936H267.844V79.1856ZM267.844 77.7456H274.144V78.4416H267.844V77.7456ZM267.844 76.3056H274.144V76.9896H267.844V76.3056ZM275.308 80.6856V75.5016H266.74V80.6856H268.84C268.048 81.1416 266.632 81.6456 265.48 81.9096C265.756 82.1136 266.116 82.4856 266.32 82.7136C267.544 82.4136 269.08 81.8376 270.04 81.2616L269.176 80.6856H272.68L271.792 81.3456C273.052 81.7056 274.672 82.3176 275.572 82.7256L276.556 81.9456C275.644 81.5616 274.192 81.0336 272.98 80.6856H275.308ZM283.528 77.3016H285.004L284.728 77.5296C284.968 77.6136 285.22 77.7216 285.46 77.8416L283.528 77.8656V77.3016ZM279.916 76.6056V75.9816H282.436V76.6056H279.916ZM279.916 74.6976H282.436V75.2976H279.916V74.6976ZM286.132 74.6976V75.2976H283.528V74.6976H286.132ZM286.132 76.6056H283.528V75.9816H286.132V76.6056ZM288.412 79.2096H285.64V78.5616L286.684 78.5376C286.924 78.6936 287.14 78.8376 287.308 78.9816L287.968 78.3816C287.536 78.0456 286.828 77.6256 286.108 77.3016H287.224V73.9776H283.528V73.4136H287.956V72.5496H283.528V71.7096H282.436V72.5496H277.936V73.4136H282.436V73.9776H278.86V77.3016H282.436V77.8656C280.768 77.8776 279.232 77.8896 278.08 77.8896L278.116 78.7296C279.82 78.7056 282.148 78.6576 284.548 78.5976V79.2096H277.6V80.1096H280.036L279.496 80.5776C280.18 81.0216 280.996 81.6816 281.38 82.1376L282.196 81.4176C281.848 81.0336 281.176 80.5056 280.564 80.1096H284.548V81.5496C284.548 81.6936 284.5 81.7416 284.308 81.7536C284.128 81.7656 283.444 81.7656 282.784 81.7416C282.928 82.0056 283.084 82.4256 283.132 82.7016C284.056 82.7016 284.692 82.7016 285.1 82.5576C285.532 82.4016 285.64 82.1136 285.64 81.5856V80.1096H288.412V79.2096ZM297.904 80.9976V79.5336H295.732V79.1256H298.984C298.888 80.8656 298.768 81.5376 298.636 81.7296C298.552 81.8376 298.468 81.8616 298.336 81.8616C298.276 81.8616 298.204 81.8616 298.12 81.8616C297.94 81.5856 297.652 81.2736 297.376 80.9976H297.904ZM295.732 81.4296V80.9976H296.8L296.512 81.1296C296.584 81.2016 296.668 81.2856 296.752 81.3696L295.732 81.4296ZM297.04 80.5056H295.732V80.0256H297.04V80.5056ZM293.452 80.5056V80.0256H294.784V80.5056H293.452ZM294.784 79.1256V79.5336H293.128C293.296 79.4016 293.452 79.2696 293.596 79.1256H294.784ZM298.72 72.8976V73.5816H291.628V72.8976H298.72ZM293.056 76.9416H294.316V77.5416H293.056V76.9416ZM295.18 76.9416H296.488V77.5416H295.18V76.9416ZM297.352 76.9416H298.696V77.5416H297.352V76.9416ZM294.184 78.4656C294.292 78.3336 294.388 78.2016 294.484 78.0576H299.62V76.4376H292.156V78.0576H293.344C292.9 78.6216 292.228 79.1856 291.352 79.6416C291.58 78.2376 291.628 76.7976 291.628 75.6696V74.3376H298.888C298.372 74.4936 297.556 74.7576 297.028 74.8536L297.268 75.3336C297.856 75.2616 298.72 75.0936 299.32 74.8536L299.008 74.3376H299.8V72.1416H290.548V75.6816C290.548 77.5656 290.464 80.2536 289.468 82.1376C289.732 82.2336 290.224 82.4976 290.428 82.6776C290.884 81.8136 291.172 80.7576 291.352 79.6656C291.568 79.7976 291.868 80.0976 292.024 80.2896C292.24 80.1816 292.42 80.0496 292.612 79.9176V80.9976H294.784V81.4896C293.704 81.5496 292.696 81.5976 291.916 81.6336L292 82.3896C293.416 82.3056 295.372 82.1616 297.268 82.0056C297.352 82.1256 297.424 82.2336 297.472 82.3176L297.736 82.1976C297.784 82.3416 297.808 82.4976 297.82 82.6296C298.216 82.6536 298.612 82.6536 298.84 82.6176C299.116 82.5936 299.32 82.5096 299.5 82.2816C299.764 81.9816 299.884 81.1296 299.992 78.8496C300.004 78.7296 300.016 78.4656 300.016 78.4656H294.184ZM296.872 75.9096C297.664 76.0176 298.576 76.2336 299.128 76.4256L299.344 75.8376C298.792 75.6456 297.88 75.4776 297.04 75.3936L296.872 75.9096ZM296.392 76.2576V74.5176H295.36V76.2576H296.392ZM292.42 76.4256C293.116 76.2936 294.076 76.0776 294.964 75.8856L294.952 75.2856L294.472 75.3816L294.688 74.8296C294.184 74.6616 293.368 74.4936 292.612 74.4096L292.42 74.9376C293.128 75.0336 293.896 75.2136 294.4 75.3936C293.572 75.5496 292.78 75.6816 292.228 75.7656L292.42 76.4256ZM305.932 77.7696L305.8 76.7376C305.308 76.8816 304.804 77.0256 304.312 77.1456V75.0696H305.848V74.0376H304.312V71.7096H303.22V74.0376H301.648V75.0696H303.22V77.4456C302.56 77.6256 301.96 77.7696 301.468 77.8896L301.756 78.9696L303.22 78.5616V81.4296C303.22 81.5976 303.16 81.6456 302.992 81.6576C302.848 81.6576 302.344 81.6576 301.84 81.6336C301.984 81.9216 302.14 82.3896 302.176 82.6656C302.98 82.6656 303.496 82.6416 303.856 82.4616C304.192 82.2936 304.312 82.0056 304.312 81.4176V78.2496L305.932 77.7696ZM312.496 75.6576H307.516V73.6176C309.1 73.4256 310.828 73.1256 312.076 72.7416L311.404 71.7936C310.168 72.2016 308.152 72.5616 306.424 72.7776V76.4616C306.424 78.2736 306.28 80.2536 305.14 81.9936C305.452 82.1736 305.836 82.4736 306.04 82.7136C307.252 80.9016 307.492 78.8136 307.516 76.7256H309.508V82.6536H310.612V76.7256H312.496V75.6576ZM321.04 73.7256H319.936V73.1016H321.04V73.7256ZM323.02 74.3976V75.4056H321.94V74.3976H323.02ZM319.936 74.3976H321.04V75.4056H319.936V74.3976ZM318.004 74.3976H319.048V75.4056H318.004V74.3976ZM319.048 73.7256H317.032V76.0896H324.028V73.7256H321.94V73.1016H324.4V72.2616H316.78V73.1016H319.048V73.7256ZM315.724 71.7456C315.172 73.5456 314.248 75.3216 313.252 76.4856C313.42 76.7616 313.708 77.3856 313.804 77.6616C314.14 77.2776 314.452 76.8336 314.764 76.3416V82.7016H315.82V74.3976C316.18 73.6296 316.492 72.8256 316.756 72.0336L315.724 71.7456ZM318.292 79.6896H322.816V80.2896H318.292V79.6896ZM318.292 78.4656H322.816V79.0536H318.292V78.4656ZM318.292 77.2656H322.816V77.8416H318.292V77.2656ZM323.908 80.9496V76.5936H317.248V80.9496H319.156C318.52 81.3576 317.392 81.7536 316.372 81.9576C316.576 82.1496 316.84 82.5096 316.972 82.7256C318.04 82.4736 319.216 82.0296 319.96 81.4896L319.192 80.9496H323.908ZM321.052 81.5856C322.048 81.9336 323.092 82.3896 323.68 82.7376L324.64 82.1016C323.956 81.7536 322.792 81.2976 321.76 80.9616L321.052 81.5856ZM328.348 78.0096C328.84 77.6136 329.296 77.1696 329.68 76.7136H332.176C332.524 77.1936 332.944 77.6376 333.424 78.0096H328.348ZM336.268 76.7136V75.7176H330.412C330.604 75.3816 330.796 75.0456 330.964 74.6856H335.464V73.7016H333.724C334.036 73.2936 334.396 72.7896 334.696 72.2856L333.664 71.9616C333.424 72.4776 332.992 73.1976 332.632 73.7016H331.372C331.588 73.0656 331.744 72.4176 331.852 71.7696L330.676 71.6496C330.58 72.3336 330.424 73.0296 330.16 73.7016H328.756L329.356 73.3896C329.188 72.9696 328.744 72.3576 328.36 71.9136L327.484 72.3336C327.796 72.7536 328.144 73.2936 328.348 73.7016H326.488V74.6856H329.704C329.512 75.0456 329.296 75.3816 329.044 75.7176H325.768V76.7136H328.132C327.412 77.3856 326.512 77.9736 325.42 78.4296C325.672 78.6456 325.996 79.0776 326.116 79.3656C326.656 79.1136 327.148 78.8496 327.592 78.5496V79.0176H329.308C329.032 80.3136 328.372 81.2256 326.188 81.7416C326.404 81.9576 326.704 82.4016 326.812 82.6896C329.344 81.9936 330.148 80.7576 330.484 79.0176H333.124C333.004 80.5896 332.872 81.2616 332.68 81.4656C332.572 81.5616 332.452 81.5976 332.248 81.5856C332.02 81.5976 331.456 81.5856 330.868 81.5256C331.06 81.8016 331.168 82.2576 331.192 82.5816C331.828 82.6056 332.428 82.6056 332.776 82.5696C333.136 82.5336 333.4 82.4376 333.628 82.1856C333.976 81.8256 334.132 80.8776 334.276 78.5976C334.804 78.9096 335.368 79.1616 335.956 79.3416C336.112 79.0656 336.424 78.6456 336.676 78.4296C335.428 78.1176 334.276 77.4936 333.472 76.7136H336.268Z" fill="white"/>
<path d="M299.864 245.356C302.312 245.356 303.848 243.884 303.848 242.028C303.848 240.284 302.792 239.484 301.432 238.892L299.752 238.172C298.84 237.788 297.816 237.356 297.816 236.22C297.816 235.164 298.68 234.492 300.008 234.492C301.096 234.492 301.96 234.924 302.68 235.596L303.464 234.652C302.632 233.788 301.4 233.196 300.008 233.196C297.88 233.196 296.312 234.508 296.312 236.316C296.312 238.028 297.608 238.86 298.696 239.324L300.392 240.06C301.496 240.556 302.344 240.94 302.344 242.14C302.344 243.292 301.416 244.06 299.88 244.06C298.664 244.06 297.48 243.484 296.648 242.604L295.752 243.612C296.776 244.684 298.2 245.356 299.864 245.356ZM306.019 248.812H307.475V245.868L307.443 244.348C308.227 244.988 309.059 245.356 309.843 245.356C311.843 245.356 313.619 243.644 313.619 240.668C313.619 237.996 312.403 236.236 310.163 236.236C309.155 236.236 308.179 236.812 307.395 237.452H307.347L307.219 236.46H306.019V248.812ZM309.603 244.14C309.027 244.14 308.259 243.9 307.475 243.228V238.668C308.323 237.884 309.075 237.468 309.811 237.468C311.459 237.468 312.099 238.764 312.099 240.684C312.099 242.844 311.043 244.14 309.603 244.14ZM319.445 245.356C320.629 245.356 321.557 244.956 322.325 244.46L321.797 243.5C321.157 243.932 320.469 244.188 319.621 244.188C317.973 244.188 316.837 243.004 316.741 241.148H322.597C322.629 240.94 322.661 240.636 322.661 240.316C322.661 237.836 321.413 236.236 319.205 236.236C317.189 236.236 315.285 237.996 315.285 240.812C315.285 243.676 317.141 245.356 319.445 245.356ZM316.725 240.092C316.901 238.396 317.989 237.404 319.221 237.404C320.581 237.404 321.381 238.348 321.381 240.092H316.725ZM328.224 245.356C329.264 245.356 330.256 244.956 331.04 244.252L330.4 243.276C329.856 243.772 329.152 244.14 328.352 244.14C326.752 244.14 325.664 242.812 325.664 240.812C325.664 238.812 326.816 237.452 328.4 237.452C329.088 237.452 329.616 237.772 330.128 238.22L330.88 237.26C330.256 236.716 329.472 236.236 328.336 236.236C326.112 236.236 324.144 237.916 324.144 240.812C324.144 243.692 325.92 245.356 328.224 245.356ZM332.941 245.148H334.397V236.46H332.941V245.148ZM333.677 234.668C334.253 234.668 334.653 234.284 334.653 233.692C334.653 233.132 334.253 232.748 333.677 232.748C333.101 232.748 332.701 233.132 332.701 233.692C332.701 234.284 333.101 234.668 333.677 234.668ZM339.347 245.356C340.419 245.356 341.395 244.796 342.227 244.108H342.275L342.403 245.148H343.603V239.804C343.603 237.66 342.707 236.236 340.595 236.236C339.203 236.236 337.971 236.86 337.171 237.372L337.747 238.38C338.435 237.916 339.347 237.452 340.355 237.452C341.779 237.452 342.147 238.524 342.147 239.644C338.451 240.06 336.803 241.004 336.803 242.892C336.803 244.46 337.891 245.356 339.347 245.356ZM339.763 244.188C338.899 244.188 338.227 243.788 338.227 242.796C338.227 241.676 339.219 240.956 342.147 240.604V243.036C341.299 243.788 340.611 244.188 339.763 244.188ZM347.914 245.356C348.314 245.356 348.554 245.308 348.762 245.228L348.554 244.108C348.394 244.14 348.33 244.14 348.25 244.14C348.026 244.14 347.834 243.964 347.834 243.516V232.412H346.378V243.42C346.378 244.652 346.826 245.356 347.914 245.356ZM359.079 245.356C360.599 245.356 361.751 244.748 362.679 243.676L361.863 242.748C361.111 243.564 360.263 244.06 359.143 244.06C356.903 244.06 355.495 242.204 355.495 239.244C355.495 236.316 356.967 234.492 359.191 234.492C360.199 234.492 360.983 234.956 361.591 235.612L362.391 234.652C361.719 233.9 360.599 233.196 359.175 233.196C356.199 233.196 353.975 235.5 353.975 239.292C353.975 243.1 356.167 245.356 359.079 245.356ZM368.098 245.356C370.226 245.356 372.13 243.692 372.13 240.812C372.13 237.916 370.226 236.236 368.098 236.236C365.97 236.236 364.066 237.916 364.066 240.812C364.066 243.692 365.97 245.356 368.098 245.356ZM368.098 244.14C366.594 244.14 365.586 242.812 365.586 240.812C365.586 238.812 366.594 237.452 368.098 237.452C369.602 237.452 370.626 238.812 370.626 240.812C370.626 242.812 369.602 244.14 368.098 244.14ZM376.953 245.356C378.153 245.356 379.017 244.732 379.833 243.788H379.881L379.993 245.148H381.209V236.46H379.753V242.62C378.921 243.66 378.297 244.092 377.401 244.092C376.249 244.092 375.769 243.404 375.769 241.788V236.46H374.313V241.964C374.313 244.172 375.129 245.356 376.953 245.356ZM384.144 248.812H385.6V245.868L385.568 244.348C386.352 244.988 387.184 245.356 387.968 245.356C389.968 245.356 391.744 243.644 391.744 240.668C391.744 237.996 390.528 236.236 388.288 236.236C387.28 236.236 386.304 236.812 385.52 237.452H385.472L385.344 236.46H384.144V248.812ZM387.728 244.14C387.152 244.14 386.384 243.9 385.6 243.228V238.668C386.448 237.884 387.2 237.468 387.936 237.468C389.584 237.468 390.224 238.764 390.224 240.684C390.224 242.844 389.168 244.14 387.728 244.14ZM397.442 245.356C399.57 245.356 401.474 243.692 401.474 240.812C401.474 237.916 399.57 236.236 397.442 236.236C395.314 236.236 393.41 237.916 393.41 240.812C393.41 243.692 395.314 245.356 397.442 245.356ZM397.442 244.14C395.938 244.14 394.93 242.812 394.93 240.812C394.93 238.812 395.938 237.452 397.442 237.452C398.946 237.452 399.97 238.812 399.97 240.812C399.97 242.812 398.946 244.14 397.442 244.14ZM403.769 245.148H405.225V238.844C406.105 237.964 406.713 237.516 407.609 237.516C408.761 237.516 409.257 238.204 409.257 239.836V245.148H410.713V239.644C410.713 237.42 409.881 236.236 408.057 236.236C406.873 236.236 405.977 236.892 405.145 237.708H405.097L404.969 236.46H403.769V245.148Z" fill="white"/>
<line x1="241" y1="239.613" x2="289" y2="239.613" stroke="white"/>
<line x1="417" y1="239.613" x2="465" y2="239.613" stroke="white"/>
</svg>
