<svg width="296" height="163" viewBox="0 0 296 163" fill="none" xmlns="http://www.w3.org/2000/svg">
<rect width="296" height="163" rx="20" fill="#F5C362"/>
<path d="M296 134L296 143C296 154.046 287.046 163 276 163L20 163C8.95431 163 -8.79471e-07 154.046 -3.9486e-07 143L0 134L296 134Z" fill="#D99D2A"/>
<path d="M155.03 151.14C156.57 151.14 157.52 150.22 157.52 149.06C157.52 147.97 156.87 147.46 156.01 147.09L154.97 146.64C154.4 146.4 153.76 146.14 153.76 145.42C153.76 144.77 154.3 144.35 155.13 144.35C155.8 144.35 156.34 144.62 156.79 145.04L157.28 144.45C156.77 143.91 156 143.54 155.13 143.54C153.79 143.54 152.82 144.36 152.82 145.49C152.82 146.56 153.62 147.08 154.31 147.37L155.36 147.83C156.05 148.13 156.58 148.37 156.58 149.13C156.58 149.84 156.01 150.32 155.05 150.32C154.29 150.32 153.55 149.97 153.02 149.41L152.47 150.05C153.11 150.72 154 151.14 155.03 151.14ZM158.877 153.29H159.787V151.46L159.767 150.51C160.257 150.91 160.767 151.14 161.257 151.14C162.507 151.14 163.617 150.06 163.617 148.21C163.617 146.53 162.867 145.44 161.457 145.44C160.827 145.44 160.227 145.79 159.737 146.2H159.707L159.617 145.57H158.877V153.29ZM161.117 150.37C160.757 150.37 160.277 150.22 159.787 149.81V146.95C160.317 146.46 160.777 146.2 161.237 146.2C162.267 146.2 162.677 147.01 162.677 148.22C162.677 149.56 162.007 150.37 161.117 150.37ZM167.268 151.14C168.008 151.14 168.578 150.89 169.058 150.58L168.728 149.97C168.328 150.24 167.898 150.41 167.378 150.41C166.338 150.41 165.638 149.66 165.568 148.51H169.228C169.258 148.37 169.268 148.18 169.268 147.99C169.268 146.43 168.488 145.44 167.108 145.44C165.858 145.44 164.668 146.53 164.668 148.3C164.668 150.08 165.818 151.14 167.268 151.14ZM165.558 147.85C165.678 146.78 166.358 146.17 167.118 146.17C167.978 146.17 168.468 146.76 168.468 147.85H165.558ZM172.745 151.14C173.395 151.14 174.025 150.88 174.505 150.45L174.115 149.84C173.775 150.14 173.325 150.38 172.835 150.38C171.835 150.38 171.145 149.54 171.145 148.3C171.145 147.04 171.865 146.2 172.865 146.2C173.285 146.2 173.625 146.39 173.945 146.68L174.405 146.08C174.025 145.73 173.525 145.44 172.815 145.44C171.425 145.44 170.205 146.48 170.205 148.3C170.205 150.09 171.305 151.14 172.745 151.14ZM175.713 151H176.623V145.57H175.713V151ZM176.173 144.45C176.523 144.45 176.783 144.22 176.783 143.84C176.783 143.49 176.523 143.26 176.173 143.26C175.813 143.26 175.563 143.49 175.563 143.84C175.563 144.22 175.813 144.45 176.173 144.45ZM179.717 151.14C180.387 151.14 180.997 150.79 181.507 150.36H181.547L181.627 151H182.377V147.67C182.377 146.32 181.817 145.44 180.487 145.44C179.617 145.44 178.857 145.82 178.357 146.14L178.717 146.78C179.137 146.49 179.707 146.19 180.347 146.19C181.237 146.19 181.457 146.86 181.457 147.56C179.147 147.82 178.127 148.41 178.127 149.59C178.127 150.57 178.807 151.14 179.717 151.14ZM179.967 150.4C179.437 150.4 179.017 150.15 179.017 149.53C179.017 148.83 179.627 148.38 181.457 148.17V149.68C180.937 150.15 180.497 150.4 179.967 150.4ZM185.062 151.14C185.312 151.14 185.452 151.1 185.582 151.06L185.462 150.36C185.352 150.38 185.312 150.38 185.272 150.38C185.132 150.38 185.012 150.27 185.012 149.98V143.05H184.102V149.92C184.102 150.7 184.372 151.14 185.062 151.14ZM192.03 151.14C192.98 151.14 193.69 150.76 194.27 150.08L193.77 149.5C193.3 150.02 192.76 150.32 192.07 150.32C190.67 150.32 189.79 149.17 189.79 147.32C189.79 145.49 190.71 144.35 192.1 144.35C192.72 144.35 193.21 144.63 193.59 145.04L194.1 144.44C193.67 143.97 192.98 143.54 192.09 143.54C190.23 143.54 188.84 144.98 188.84 147.34C188.84 149.72 190.2 151.14 192.03 151.14ZM197.667 151.14C198.997 151.14 200.177 150.09 200.177 148.3C200.177 146.48 198.997 145.44 197.667 145.44C196.327 145.44 195.147 146.48 195.147 148.3C195.147 150.09 196.327 151.14 197.667 151.14ZM197.667 150.38C196.717 150.38 196.087 149.54 196.087 148.3C196.087 147.04 196.717 146.2 197.667 146.2C198.607 146.2 199.237 147.04 199.237 148.3C199.237 149.54 198.607 150.38 197.667 150.38ZM203.201 151.14C203.951 151.14 204.491 150.74 205.001 150.15H205.021L205.101 151H205.851V145.57H204.941V149.43C204.431 150.07 204.031 150.34 203.481 150.34C202.761 150.34 202.451 149.91 202.451 148.9V145.57H201.541V149.01C201.541 150.4 202.061 151.14 203.201 151.14ZM207.695 153.29H208.605V151.46L208.585 150.51C209.075 150.91 209.585 151.14 210.075 151.14C211.325 151.14 212.435 150.06 212.435 148.21C212.435 146.53 211.685 145.44 210.275 145.44C209.645 145.44 209.045 145.79 208.555 146.2H208.525L208.435 145.57H207.695V153.29ZM209.935 150.37C209.575 150.37 209.095 150.22 208.605 149.81V146.95C209.135 146.46 209.595 146.2 210.055 146.2C211.085 146.2 211.495 147.01 211.495 148.22C211.495 149.56 210.825 150.37 209.935 150.37ZM216.007 151.14C217.337 151.14 218.517 150.09 218.517 148.3C218.517 146.48 217.337 145.44 216.007 145.44C214.667 145.44 213.487 146.48 213.487 148.3C213.487 150.09 214.667 151.14 216.007 151.14ZM216.007 150.38C215.057 150.38 214.427 149.54 214.427 148.3C214.427 147.04 215.057 146.2 216.007 146.2C216.947 146.2 217.577 147.04 217.577 148.3C217.577 149.54 216.947 150.38 216.007 150.38ZM219.961 151H220.871V147.06C221.411 146.52 221.801 146.23 222.351 146.23C223.071 146.23 223.381 146.66 223.381 147.68V151H224.301V147.56C224.301 146.18 223.781 145.44 222.641 145.44C221.891 145.44 221.331 145.85 220.821 146.36H220.791L220.701 145.57H219.961V151Z" fill="white"/>
<line x1="96" y1="147.5" x2="144" y2="147.5" stroke="white"/>
<line x1="236" y1="147.5" x2="284" y2="147.5" stroke="white"/>
<path d="M13.0282 61.1783C12.6168 64.3152 17.1426 65.8836 19.5701 66.9031C19.817 66.4717 19.7758 65.9228 20.0638 65.5307C20.393 65.0602 21.0513 64.8641 21.257 64.3544C21.5039 63.727 21.0102 63.0604 21.0513 62.3939C21.0924 61.7665 21.6273 61.296 21.7919 60.7078C21.9565 60.1981 21.9153 59.6491 21.6685 59.1786C20.393 58.8257 19.1175 58.6297 17.8009 58.5905C16.114 58.3944 13.3163 59.1002 13.0282 61.1783Z" fill="#EDEAE6"/>
<path d="M24.7538 81.0974C22.82 84.1166 12.2872 95.8797 13.8918 105.525C15.7021 116.465 26.1526 124.072 26.9755 123.445C27.387 123.131 29.3207 122.268 29.5264 121.837C30.3493 119.798 30.5962 117.524 30.1436 116.151C27.4281 114.544 25.3709 111.995 24.0132 109.211C22.8611 106.859 22.1205 104.232 22.3263 101.644C22.4908 99.4087 23.3549 97.2521 24.3835 95.2524C26.2349 91.645 28.7036 88.3513 30.7196 84.8224C32.7357 81.2935 34.3403 77.3725 34.1345 73.373C33.97 69.452 32.0362 65.6486 28.9916 62.9823C26.9344 61.1394 24.3835 59.8454 21.668 59.1396C21.8737 59.6494 21.956 60.1983 21.7914 60.6689C21.5857 61.257 21.092 61.7667 21.0508 62.3549C21.0097 63.0215 21.5445 63.688 21.2565 64.3154C21.0508 64.8251 20.3925 65.0604 20.0634 65.4917C19.7753 65.8838 19.8165 66.4328 19.5696 66.8641C19.8988 66.9817 20.1868 67.1386 20.4337 67.2562C22.3674 68.2364 24.3423 69.2951 25.5355 71.0204C27.5515 74.0004 26.6875 78.039 24.7538 81.0974Z" fill="#715947"/>
<path d="M53.1398 130.308C51.4529 131.68 50.4243 133.758 50.4243 135.875C50.9592 135.836 51.5352 135.836 52.0701 135.875C52.9341 135.954 53.757 136.15 54.621 136.189C55.485 136.228 56.3902 136.032 57.0073 135.483C57.5422 134.974 57.7891 134.229 57.7891 133.523C57.7479 132.817 57.4599 132.111 57.0896 131.523C56.5547 130.66 55.773 129.915 54.8679 129.406C54.2095 129.563 53.6335 129.915 53.1398 130.308Z" fill="#7A5F4C"/>
<path d="M77.0885 129.639C75.7308 130.149 74.4965 131.012 73.6324 132.11C74.085 132.659 74.5376 133.168 75.1136 133.6C76.8417 134.894 79.5571 135.246 81.2029 133.874C81.6143 133.521 81.9435 133.09 82.0669 132.58C82.3549 131.443 81.5732 130.345 81.0795 129.247C79.7217 129.012 78.364 129.169 77.0885 129.639Z" fill="#EDEAE6"/>
<path d="M52.9375 113.644C53.5547 115.33 53.8838 117.094 53.925 118.898C54.0073 120.27 53.925 121.643 53.5547 122.976C53.1433 124.348 52.5672 125.642 51.9501 126.936C51.7855 127.289 51.5798 127.642 51.3741 127.956C52.1558 128.112 52.9375 128.387 53.6781 128.661C53.8838 128.74 54.1307 128.857 54.3776 129.014C55.8176 128.191 57.7102 125.289 57.5868 124.701C57.6279 124.74 58.3274 126.466 59.1914 128.426C57.1342 123.525 55.7353 118.31 53.8838 113.33L52.9375 113.644Z" fill="#EDEAE6"/>
<path d="M53.8057 113.368C55.6571 118.348 57.056 123.524 59.1132 128.464C59.7715 129.876 60.5121 131.405 61.1293 132.464C61.3761 132.856 61.5818 133.248 61.7876 133.679C62.7339 132.66 63.9682 131.915 65.3259 131.562C66.6014 131.248 68.0003 131.248 69.2757 131.64C68.9877 131.131 68.9054 130.542 68.8232 129.954C68.5352 127.759 68.5763 125.563 68.5352 123.367C68.4117 122.857 68.4117 122.308 68.494 121.799C68.4529 121.014 68.4117 120.191 68.3294 119.407C68.4529 119.877 68.6174 120.348 68.7409 120.818C68.8643 120.505 68.9877 120.23 69.1523 119.995C70.0986 118.466 71.8678 117.485 72.7318 115.917C73.6781 114.113 73.2255 111.996 73.2255 109.957C73.2255 107.448 73.9661 104.938 75.4885 102.899C76.2291 101.919 77.1754 101.017 77.9571 100.037C77.1754 97.0961 76.2291 94.1553 75.6942 91.1361C75.0359 87.5679 74.9124 83.7645 76.1879 80.3532C76.8874 78.7064 78.0805 77.1772 79.1914 75.5304C78.5742 75.5696 77.9159 75.5696 77.2576 75.5304C71.6621 75.0599 66.478 71.6093 64.0916 66.7865C63.6802 65.9631 63.351 65.1004 62.775 64.4339C62.199 63.7281 61.2527 63.2183 60.3064 63.3752C59.5246 63.532 58.9486 64.081 58.5372 64.7475C58.1669 65.4141 57.9612 66.1199 57.6732 66.8257C56.2331 70.3154 52.8182 72.7072 49.4033 74.5501C48.0455 75.2951 46.6878 76.0009 45.1654 76.2754C44.4249 76.4322 43.602 76.4322 42.8614 76.3146C42.9025 76.3538 42.9025 76.3538 42.9437 76.393C43.3551 76.8635 43.8077 77.2948 43.9723 77.883C44.2191 81.2159 43.1905 84.5488 41.6682 87.6072C40.9276 89.1364 40.0636 90.5871 39.1584 92.0379C39.3642 93.0182 39.7345 93.9592 40.2282 94.8219C41.1333 96.4687 42.3677 97.9195 43.3551 99.4879C44.3014 101.017 45.042 102.703 44.8774 104.468C45.0832 104.585 45.2477 104.703 45.4535 104.82C46.2352 105.33 46.9758 105.84 47.6752 106.467C49.3621 107.918 50.8022 109.643 51.9542 111.525C52.3245 112.231 52.6536 112.976 52.9416 113.721L53.8057 113.368Z" fill="#EDEAE6"/>
<path d="M65.3633 131.522C64.0056 131.875 62.7301 132.62 61.825 133.639C62.3598 134.619 62.9358 135.561 63.9233 136.149C64.8285 136.698 65.9393 136.854 67.0091 136.894C67.9554 136.933 68.984 136.815 69.7246 136.306C70.6709 135.639 71 134.345 70.5063 133.326C70.2183 132.737 69.6834 132.267 69.3543 131.718C69.3543 131.679 69.3131 131.639 69.3131 131.639C68.0377 131.247 66.6388 131.208 65.3633 131.522Z" fill="#7A5F4C"/>
<path d="M54.4615 129.328C53.474 128.701 52.322 128.505 51.17 128.191C51.0877 128.152 51.0877 128.034 51.17 127.995C51.17 127.956 51.17 127.956 51.2111 127.916C51.4168 127.564 51.5814 127.211 51.746 126.858C52.3631 125.446 52.898 123.956 53.2683 122.427C53.5152 121.29 53.5563 120.114 53.5152 118.859C53.474 116.82 53.0214 114.899 52.1574 112.938C51.8694 112.272 51.2111 111.174 50.6351 110.468C49.7299 109.213 48.8659 108.154 47.7139 107.017C47.7139 110.154 46.7264 113.33 44.2167 115.33C43.0235 116.271 41.5012 116.938 40.6783 118.231C40.02 119.29 39.8966 120.584 39.2383 121.604C38.5388 122.662 37.3045 123.329 36.1113 123.878C34.4244 124.662 32.6141 125.289 30.7626 125.525C29.6929 125.642 28.582 125.642 27.5534 125.446C27.6357 125.642 27.718 125.878 27.8003 126.074C29.2403 129.524 32.2438 132.269 35.741 133.876C39.2383 135.484 43.2292 136.033 47.0967 135.798C48.2488 135.955 49.3596 135.837 50.4705 135.798C50.4705 133.68 51.458 131.602 53.186 130.23C53.6797 129.838 54.2969 129.485 54.9141 129.328C54.8318 129.289 54.7495 129.21 54.6672 129.171C54.5849 129.328 54.5026 129.367 54.4615 129.328Z" fill="#EDEAE6"/>
<path d="M69.1855 119.956C69.0209 120.23 68.8975 120.505 68.774 120.779C69.5969 123.367 70.5432 125.877 71.613 128.347C72.1478 129.641 72.8061 130.935 73.6702 132.072C74.5753 130.974 75.7685 130.111 77.1262 129.602C78.4017 129.131 79.7594 128.974 81.1172 129.17C81.1172 129.131 81.076 129.092 81.076 129.092C80.1297 127.053 80.1709 124.74 80.212 122.505C80.3355 115.525 80.0474 108.507 78.4017 101.684C78.2783 101.096 78.1137 100.547 77.9903 99.9587C77.2085 100.939 76.2622 101.802 75.5216 102.821C73.9993 104.86 73.2587 107.369 73.2587 109.879C73.2587 111.879 73.7113 114.035 72.765 115.839C71.901 117.447 70.1318 118.427 69.1855 119.956Z" fill="#7A5F4C"/>
<path d="M27.1802 116.309C26.5219 119.367 26.4807 122.583 27.5504 125.484C28.6202 125.68 29.6899 125.68 30.7597 125.563C32.6523 125.327 34.4215 124.661 36.1084 123.916C37.3015 123.367 38.5359 122.74 39.2353 121.642C39.9348 120.583 40.017 119.289 40.6753 118.27C41.4982 117.015 43.0205 116.348 44.2137 115.368C46.6823 113.368 47.6698 110.192 47.7109 107.055C47.5875 106.938 47.4641 106.781 47.2995 106.663C45.9418 105.409 44.5429 104.428 42.8971 103.566C42.5268 103.37 42.2388 103.252 41.8274 103.134C41.7862 103.134 41.7451 103.056 41.7451 103.017C41.7451 102.978 41.8274 102.938 41.8685 102.938C42.9382 103.252 43.9257 103.801 44.8309 104.389C44.9543 102.664 44.2549 100.939 43.3085 99.4094C42.3211 97.841 41.0868 96.3902 40.1816 94.7434C39.6879 93.8808 39.3176 92.9397 39.1119 91.9595C38.2067 93.4103 37.2604 94.8218 36.3964 96.2726C34.298 99.7231 32.4054 103.291 30.6774 106.899C29.2785 109.957 27.8796 113.055 27.1802 116.309Z" fill="#7A5F4C"/>
<path d="M40.0591 70.9821C40.018 71.5703 40.018 72.1977 40.2237 72.7466C40.3883 73.2563 40.7586 73.7269 41.0877 74.1582C41.6638 74.9032 42.2398 75.609 42.8981 76.2755C43.6387 76.3932 44.4615 76.3932 45.2021 76.2363C46.7245 75.9618 48.1233 75.2561 49.4399 74.5111C52.8549 72.629 56.2287 70.2763 57.6687 66.7866C57.9567 66.0808 58.1624 65.3751 58.5327 64.7085C58.903 64.0811 59.5202 63.493 60.3019 63.3361C61.2482 63.1793 62.1534 63.689 62.7706 64.3948C63.3466 65.1006 63.7169 65.9632 64.0872 66.7474C66.4735 71.5703 71.6988 75.0208 77.2532 75.4913C77.8703 75.5305 78.5286 75.5697 79.1869 75.4913C80.4624 73.6484 81.5733 71.6879 81.6967 69.4529C81.8202 67.5316 81.1207 65.6495 80.339 63.8851C79.1869 61.2188 77.8292 58.6309 76.3069 56.1214C75.4017 53.612 74.4965 51.1809 73.4268 48.7891C72.2748 46.2796 70.8759 43.731 68.4895 42.241C68.2838 42.1233 68.0781 42.0057 67.8724 42.0057C67.1729 41.9273 66.7204 42.6723 66.4735 43.2996C65.4449 45.8091 64.4575 48.3578 63.4289 50.8672C60.4254 50.7888 56.4755 51.377 53.5132 52.318C51.2914 48.9459 46.9302 45.0641 45.8604 45.1817C43.1449 45.4562 42.1575 55.3372 43.0215 60.3169C41.7049 64.1987 40.2237 67.1787 40.0591 70.9821Z" fill="#7A5F4C"/>
<path d="M41.9134 102.937C42.9831 103.25 43.9706 103.799 44.8757 104.388C45.0815 104.505 45.246 104.623 45.4517 104.74C46.2335 105.25 46.9741 105.76 47.6735 106.387C49.3604 107.838 50.8004 109.563 51.9525 111.445C52.3228 112.151 52.6519 112.896 52.9399 113.641C53.5571 115.327 53.8862 117.092 53.9274 118.895C54.0097 120.268 53.9274 121.64 53.5571 122.973C53.1456 124.346 52.5696 125.64 51.9525 126.933C51.7879 127.286 51.5822 127.639 51.3765 127.953C52.1582 128.11 52.9399 128.384 53.6805 128.659C53.8862 128.737 54.1331 128.855 54.38 129.012C54.3388 129.051 54.3388 129.051 54.2977 129.051C54.4211 129.09 54.5445 129.168 54.668 129.208C54.668 129.286 54.5857 129.325 54.5034 129.286C53.5159 128.659 52.3639 128.463 51.2119 128.149C51.1296 128.11 51.1296 127.992 51.2119 127.953C51.2119 127.914 51.2119 127.914 51.253 127.875C51.4587 127.522 51.6233 127.169 51.7879 126.816C52.4051 125.404 52.9399 123.914 53.3102 122.385C53.5571 121.248 53.5982 120.072 53.5571 118.817C53.5159 116.778 53.0634 114.857 52.1993 112.896C51.9113 112.23 51.253 111.132 50.677 110.426C49.7718 109.171 48.9078 108.113 47.7558 106.975C47.6324 106.858 47.5089 106.701 47.3444 106.583C45.9866 105.329 44.5877 104.348 42.942 103.486C42.5717 103.29 42.2837 103.172 41.8722 103.054C41.8311 103.054 41.7899 102.976 41.7899 102.937C41.7899 102.976 41.8722 102.937 41.9134 102.937Z" fill="#493E37"/>
<path d="M54.337 129.014C54.2959 129.054 54.2959 129.054 54.2547 129.054C54.3781 129.093 54.5016 129.171 54.625 129.21V129.171C54.5427 129.171 54.4604 129.093 54.337 129.014Z" fill="black"/>
<path d="M49.9782 105.484C54.9155 114.228 56.1498 124.423 61.2105 133.088C61.2516 133.167 61.3339 133.167 61.4162 133.128C61.4985 133.088 61.4985 133.01 61.4574 132.931C57.9601 126.266 56.3967 118.933 53.5989 112.032C52.6526 109.719 51.5828 107.445 50.2251 105.327C50.1839 105.249 50.1016 105.249 50.0194 105.288C49.9782 105.327 49.9782 105.406 49.9782 105.484Z" fill="#493E37"/>
<path d="M79.3505 131.796C79.9265 132.541 80.2146 133.325 80.1734 134.266C80.1734 134.423 80.3791 134.462 80.4614 134.344C80.7083 133.874 80.7494 133.286 80.5848 132.776C80.4203 132.266 80.05 131.796 79.5563 131.561C79.3917 131.521 79.2682 131.717 79.3505 131.796Z" fill="#493E37"/>
<path d="M77.7488 132.073C78.1602 132.857 78.4071 133.799 78.3248 134.622C78.2425 134.74 78.3248 134.896 78.4894 134.857C78.6951 134.779 78.7363 134.583 78.7774 134.465C79.0654 133.563 78.7774 132.505 77.9957 131.916C77.8722 131.799 77.7077 131.956 77.7488 132.073Z" fill="#493E37"/>
<path d="M67.865 133.799C68.3587 134.661 68.8113 135.681 68.5233 136.622C68.441 136.739 68.6467 136.896 68.7702 136.779C69.305 136.347 69.2639 135.602 69.1405 135.014C68.9759 134.426 68.6467 133.877 68.1119 133.563C67.9473 133.524 67.7827 133.681 67.865 133.799Z" fill="#493E37"/>
<path d="M65.6875 134.071C65.9344 134.777 66.0989 135.483 65.9344 136.189C65.8521 136.424 65.7698 136.62 65.6052 136.738C65.4818 136.816 65.5641 137.012 65.6875 137.012C66.4281 136.894 66.6338 136.071 66.5927 135.522C66.5927 134.934 66.3458 134.346 65.9344 133.954C65.8109 133.797 65.6052 133.914 65.6875 134.071Z" fill="#493E37"/>
<path d="M55.9824 133.562C56.3938 134.032 56.5584 134.581 56.7229 135.169C56.7641 135.365 56.8464 135.522 56.8052 135.64C56.7229 135.757 56.8875 135.914 57.011 135.836C57.2578 135.679 57.2578 135.326 57.2578 135.091C57.2167 134.62 57.0932 134.15 56.7641 133.758C56.6407 133.601 56.0646 133.13 55.9412 133.444C55.9412 133.444 55.9824 133.522 55.9824 133.562Z" fill="#493E37"/>
<path d="M54.1668 134.033C54.6605 134.778 54.8662 135.562 54.7839 136.464C54.7428 136.621 54.9897 136.7 55.0719 136.582C55.4011 136.151 55.4422 135.602 55.3188 135.092C55.1954 134.582 54.8662 134.112 54.3725 133.876C54.2079 133.759 54.0845 133.916 54.1668 134.033Z" fill="#493E37"/>
<path d="M69.1055 64.9034C69.1055 64.276 68.6117 63.7271 67.9946 63.7271C67.3774 63.7271 66.8837 64.2368 66.8837 64.9034C66.8837 65.5307 67.3774 66.0797 67.9946 66.0797C68.6117 66.0797 69.1055 65.5307 69.1055 64.9034Z" fill="#37291D"/>
<path d="M54.9961 65.7281C54.9961 65.1007 54.5024 64.5518 53.8852 64.5518C53.2681 64.5518 52.7743 65.0615 52.7743 65.7281C52.7743 66.3554 53.2681 66.9044 53.8852 66.9044C54.5024 66.8652 54.9961 66.3554 54.9961 65.7281Z" fill="#37291D"/>
<path d="M64.4517 69.7658C64.4929 69.805 64.1637 69.805 64.2049 69.6874V69.6482C64.2049 69.6482 64.2049 69.6089 64.2049 69.6482C63.7934 70.3147 62.8471 70.9813 62.0654 70.4716C61.7363 70.2363 61.4894 69.805 61.366 69.3737C61.2425 68.9424 61.2014 68.4718 61.1602 67.9621C61.1602 67.8053 60.8722 67.8053 60.8722 67.9621C60.4197 69.4521 61.4482 72.04 63.4643 71.0205C63.958 70.746 64.3695 70.2755 64.4929 69.7266C64.4929 69.7266 64.4929 69.7266 64.4929 69.6874C64.534 69.5697 64.1637 69.5697 64.246 69.6089C64.1226 69.6874 64.3283 69.8834 64.4517 69.7658Z" fill="#302317"/>
<path d="M60.8342 68.1959C60.793 68.7448 60.7519 69.333 60.5873 69.8427C59.8879 71.1367 58.5301 70.6661 57.7072 69.7251C57.5838 69.6075 57.3781 69.7643 57.4604 69.8819C58.1187 71.1759 59.929 71.764 60.9165 70.3917C61.3279 69.7251 61.2456 68.8625 61.1222 68.1175C61.081 67.9998 60.8342 68.039 60.8342 68.1959Z" fill="#302317"/>
<path d="M73.5062 54.9037C73.4651 54.0411 73.3417 53.8843 73.0125 53.0608C72.8479 52.6687 72.6834 52.2374 72.3131 51.9629C72.2308 51.8845 72.1073 51.8453 71.9839 51.8845C71.8605 51.9237 71.8193 52.0414 71.8193 52.159C71.6548 52.7079 71.5725 53.2961 71.5725 53.8843C71.5313 53.3353 71.3668 52.7864 71.1199 52.2766C71.0788 52.159 70.9553 52.0414 70.8319 52.0806C70.7496 52.1198 70.7085 52.1982 70.7085 52.2766C70.6262 52.5903 70.585 52.9432 70.585 53.2569C70.5027 52.7472 70.2559 52.2766 69.9679 51.8453C69.8856 51.7277 69.7622 51.6493 69.6387 51.6885C69.5976 51.7277 69.5564 51.7669 69.5564 51.8453C69.4741 52.1198 69.4741 52.3943 69.5153 52.6295C68.7336 52.1982 67.8695 51.8061 67.0055 51.5316C67.417 49.7672 67.8695 48.0419 68.1164 46.2382C68.1987 45.7285 68.2398 45.258 68.4044 44.7875C68.4455 44.6698 68.5278 44.513 68.6101 44.4738C68.8158 44.3561 69.1038 44.4738 69.3096 44.5914C70.4205 45.2188 73.5885 48.5124 73.5062 54.9037Z" fill="#E6B0B2"/>
<path d="M45.3646 57.6098C45.4469 56.8256 45.488 55.6885 46.2286 55.5317C46.6401 55.4532 46.9281 56.159 47.2161 56.6688C47.0104 56.159 46.7635 55.1003 47.2984 54.9435C47.5041 54.9043 48.2447 55.6101 48.3681 55.8846C48.2035 55.3748 48.1624 54.8651 48.2858 54.3553C48.327 54.2377 48.3681 54.0809 48.5327 54.0809C48.5738 54.0809 48.6561 54.1201 48.6973 54.1593C48.903 54.3553 49.0264 54.5906 49.1087 54.8651C49.6024 54.1201 50.4664 53.6888 51.207 53.1398C50.055 51.493 46.7635 47.6896 46.3932 47.3759C46.3109 47.2975 46.1875 47.1799 46.0229 47.1799C45.776 47.1406 45.5703 47.3759 45.4469 47.572C44.7474 48.7091 43.7189 52.7477 45.3646 57.6098Z" fill="#E6B0B2"/>
<path d="M71.5732 98.3897C71.244 101.056 70.7092 103.722 69.804 106.271C69.3514 107.526 68.7343 108.78 68.3228 110.074C67.9114 111.408 67.7468 112.78 67.7468 114.152C67.8291 117.916 68.1583 122.543 68.364 126.347L68.6108 130.385C68.6108 130.464 68.6931 130.503 68.7754 130.503C68.8577 130.503 68.8988 130.425 68.8988 130.346L68.7754 126.268C68.6931 124.229 68.5697 120.191 68.4874 118.152C68.4051 115.485 68.076 112.741 68.8988 110.192C69.2691 108.898 69.8863 107.683 70.3389 106.389C71.244 103.801 71.6966 101.095 71.9023 98.3897C71.9023 98.3113 71.8612 98.2329 71.7789 98.2329C71.6555 98.2721 71.6143 98.3113 71.5732 98.3897Z" fill="#493E37"/>
<path d="M60.9175 68.3157C60.3415 68.2373 59.8066 67.6099 59.6832 67.3747C59.6421 67.2963 59.6009 67.1786 59.6009 67.061C59.6421 66.8649 59.8889 66.5513 60.4238 66.8257C60.6707 66.9434 60.8352 66.9826 61.0821 66.9826C61.2467 66.9826 61.3701 66.9042 61.5347 66.8649C61.6992 66.8257 61.905 66.6689 62.1518 66.8257C62.2341 66.9042 62.3164 67.061 62.3164 67.1786C62.3164 67.6492 61.905 67.8844 61.6992 68.002C61.5347 68.1197 61.1644 68.3157 60.9175 68.3157Z" fill="#E6B0B2"/>
<path d="M70.5029 68.3532C73.959 68.6277 77.374 69.1374 80.7889 69.8432C84.2038 70.549 87.6599 71.4116 90.9103 72.7055C91.0749 72.784 90.9926 72.98 90.828 72.9408C87.5365 71.9605 84.245 70.9803 80.8712 70.2353C77.4563 69.4903 74.0002 68.9413 70.5029 68.6277C70.2972 68.5885 70.2972 68.314 70.5029 68.3532Z" fill="#FFFEEF"/>
<path d="M69.8044 70.4326C73.2605 71.2168 76.6754 72.2755 80.0081 73.5694C83.2584 74.8634 86.4676 76.3141 89.3889 78.1962C89.5534 78.2746 89.3889 78.5099 89.2243 78.4315C86.1385 76.7454 83.0116 75.1378 79.7201 73.8439C76.4697 72.5499 73.137 71.5305 69.7221 70.7463C69.4752 70.7071 69.5575 70.3934 69.8044 70.4326Z" fill="#FFFEEF"/>
<path d="M35.8581 73.1783C37.0513 72.3941 38.5325 71.9628 39.8902 71.4923C41.3714 70.9826 42.8937 70.5512 44.4161 70.1591C47.3784 69.4141 50.3819 68.8652 53.4266 68.5515C53.5089 68.5515 53.5089 68.6691 53.4266 68.6691C50.3819 68.9828 47.3784 69.5318 44.4572 70.316C43.0172 70.7081 41.6183 71.1002 40.2194 71.6099C38.7794 72.1197 37.2982 72.6294 35.9816 73.4136C35.8581 73.4528 35.7347 73.2568 35.8581 73.1783Z" fill="#FFFEEF"/>
<path d="M35.5727 77.3718C37.0539 76.5092 38.6173 75.8034 40.1808 75.0192C41.7031 74.2742 43.1843 73.5292 44.7066 72.7842C47.5456 71.3727 50.4256 70.0787 53.4703 69.2161C53.5937 69.1769 53.6348 69.3729 53.5114 69.4121C50.4256 70.314 47.5044 71.6863 44.6243 73.0979C43.1432 73.8037 41.662 74.5487 40.1808 75.2937C38.6585 76.0387 37.1773 76.8229 35.6138 77.4895C35.5315 77.4503 35.5315 77.4111 35.5727 77.3718Z" fill="#FFFEEF"/>
<path d="M70.6689 83.8838C70.7923 84.1975 70.9157 84.5112 71.0392 84.8249C71.1626 85.1385 71.286 85.4522 71.4095 85.7659C71.4506 85.962 71.2038 86.0012 71.1215 85.8443C70.998 85.5306 70.8746 85.217 70.7923 84.8641C70.6689 84.5504 70.5866 84.2367 70.4632 83.8838C70.3397 83.8054 70.5866 83.7662 70.6689 83.8838Z" fill="#5E4838"/>
<path d="M69.8428 85.3314C70.0073 85.6843 70.1719 86.0372 70.3365 86.3901C70.4188 86.5469 70.5011 86.743 70.5833 86.8998C70.6656 87.0959 70.7479 87.2919 70.7891 87.488C70.7891 87.5664 70.7068 87.684 70.6245 87.684C70.5011 87.7232 70.4188 87.6448 70.3776 87.5664C70.2542 87.4095 70.1719 87.2135 70.1308 87.0174C70.0485 86.8606 70.0073 86.6645 69.925 86.5077C69.8016 86.1548 69.6782 85.8019 69.5547 85.449C69.4313 85.2922 69.7605 85.1745 69.8428 85.3314Z" fill="#5E4838"/>
<path d="M69.2693 86.9793C69.3927 86.9009 69.5573 86.9401 69.6396 87.0577C69.8042 87.293 69.8865 87.6066 69.9276 87.8811C69.9688 88.038 69.9688 88.1948 69.9688 88.3516C69.9688 88.4301 69.9688 88.5085 69.9276 88.5869C69.8865 88.6653 69.8865 88.7437 69.8453 88.8222C69.8042 88.9006 69.6807 88.9398 69.5985 88.9006C69.5162 88.8614 69.4339 88.783 69.4339 88.7045C69.4339 88.6653 69.4339 88.6261 69.4339 88.5869C69.4339 88.5477 69.4339 88.5477 69.4339 88.5869V88.5477C69.4339 88.4693 69.4339 88.3908 69.4339 88.3124C69.4339 88.234 69.4339 88.1948 69.4339 88.1164C69.4339 88.0772 69.4339 88.0772 69.4339 88.038V87.9987C69.4339 88.038 69.4339 88.038 69.4339 87.9987C69.4339 87.8811 69.3927 87.7635 69.3516 87.6459C69.3516 87.6066 69.3104 87.5282 69.2693 87.489C69.2693 87.489 69.2693 87.4498 69.2282 87.4498C69.2282 87.4106 69.187 87.3714 69.187 87.3714C69.1047 87.2145 69.1459 87.0577 69.2693 86.9793Z" fill="#5E4838"/>
<path d="M46.2276 78.2759C46.3099 78.2759 46.3922 78.3543 46.3922 78.4327L46.5156 79.5698C46.5156 79.6482 46.5156 79.6874 46.5156 79.7659C46.5156 79.8443 46.5156 79.8835 46.4745 79.9619C46.4333 80.0403 46.3099 80.0796 46.2276 80.0011C46.1865 79.9227 46.1453 79.8835 46.1453 79.8051C46.1453 79.7267 46.1453 79.6875 46.1453 79.609C46.1453 79.4914 46.1042 79.3346 46.1042 79.2169C46.063 78.9425 46.063 78.7072 46.0219 78.4327C46.063 78.3543 46.1453 78.2759 46.2276 78.2759Z" fill="#5E4838"/>
<path d="M47.5453 79.2552C47.5453 79.0591 47.8333 79.0591 47.8333 79.2552C47.8333 79.8433 47.8744 80.4315 47.8333 81.0197C47.8333 81.2157 47.5041 81.2157 47.5041 81.0197C47.5041 80.4707 47.5041 79.8433 47.5453 79.2552Z" fill="#5E4838"/>
<path d="M77.5402 124.738C77.5402 124.385 77.6225 124.032 77.7048 123.679C77.746 123.523 77.9517 123.405 78.1163 123.444C78.2808 123.483 78.4043 123.679 78.3631 123.836C78.2808 124.15 78.2397 124.424 78.2397 124.738C78.2397 124.895 78.2397 125.052 78.2397 125.209C78.2397 125.365 78.1985 125.561 78.1574 125.718C78.1574 125.797 78.034 125.875 77.9105 125.875C77.7871 125.875 77.7048 125.797 77.6637 125.718C77.6225 125.64 77.5814 125.561 77.5814 125.483C77.5402 125.405 77.5402 125.287 77.5402 125.169C77.4991 125.091 77.4991 124.934 77.5402 124.738Z" fill="#5E4838"/>
<path d="M76.5508 124.74C76.5508 124.622 76.592 124.504 76.592 124.387C76.6331 124.152 76.6742 123.916 76.6742 123.681C76.6742 123.563 76.7565 123.446 76.9211 123.446C77.0445 123.446 77.168 123.524 77.168 123.681L77.1268 124.426C77.1268 124.544 77.1268 124.661 77.0857 124.779C77.0857 124.857 77.0857 124.897 77.0857 124.975C77.0857 125.014 77.0857 125.053 77.0857 125.093C77.0857 125.171 77.0445 125.21 77.0034 125.249C76.88 125.367 76.7154 125.328 76.6331 125.21C76.4685 125.014 76.5097 124.897 76.5508 124.74Z" fill="#5E4838"/>
<path d="M77.376 122.308C77.4172 122.034 77.4583 121.799 77.4994 121.524C77.5406 121.367 77.7052 121.289 77.8697 121.328C78.0343 121.367 78.1166 121.524 78.0755 121.681C77.952 122.191 77.8697 122.74 77.664 123.21C77.6229 123.289 77.4994 123.328 77.4583 123.289C77.376 123.249 77.3349 123.171 77.2937 123.093C77.2526 122.857 77.2937 122.583 77.376 122.308Z" fill="#5E4838"/>
<path d="M48.6526 102.663C48.6937 102.467 49.064 102.506 49.064 102.703C49.0229 103.095 49.0229 103.448 49.1463 103.8C49.2286 104.153 49.4343 104.506 49.5578 104.859C49.6401 105.016 49.3932 105.134 49.2698 105.016C48.9406 104.702 48.776 104.31 48.6937 103.879C48.5703 103.487 48.5703 103.055 48.6526 102.663Z" fill="#5E4838"/>
<path d="M47.1336 102.154C47.1336 102.037 47.2159 101.919 47.3804 101.919C47.5039 101.919 47.6273 102.037 47.6273 102.154C47.6273 102.507 47.6273 102.899 47.7096 103.252C47.7507 103.448 47.7919 103.605 47.833 103.801C47.833 103.879 47.8742 103.997 47.9153 104.076C47.9565 104.193 47.9153 104.311 47.9153 104.428C47.8742 104.585 47.6273 104.624 47.5039 104.546C47.4216 104.468 47.3393 104.389 47.2981 104.272C47.257 104.193 47.257 104.076 47.2159 103.997C47.1747 103.801 47.1336 103.566 47.1336 103.37C47.0924 102.938 47.0924 102.546 47.1336 102.154Z" fill="#5E4838"/>
<path d="M28.9882 71.3735C29.0705 71.3343 29.1528 71.2951 29.235 71.2167C29.3173 71.1774 29.3996 71.1382 29.4819 71.099C29.5642 71.0598 29.6465 70.9814 29.7288 70.9422L29.7699 70.903C29.8111 70.8638 29.8522 70.8638 29.8933 70.8245C29.9756 70.7461 30.0168 70.7069 30.0991 70.6285C30.1402 70.5893 30.1814 70.5501 30.1814 70.5109C30.1814 70.5109 30.1814 70.4717 30.2225 70.4717L30.2636 70.4324C30.3871 70.2756 30.4694 70.1188 30.5516 69.9227C30.6339 69.7659 30.8397 69.7267 30.9631 69.8051C31.1277 69.8835 31.1277 70.0403 31.0865 70.1972C30.9219 70.5893 30.6339 70.9422 30.3048 71.2167C30.1402 71.3735 29.9345 71.4911 29.7288 71.5695C29.6053 71.6088 29.523 71.6872 29.3996 71.6872C29.2762 71.7264 29.1528 71.7264 29.0293 71.7264C28.9059 71.8048 28.8236 71.4911 28.9882 71.3735Z" fill="#5E4838"/>
<path d="M29.1906 72.8259C29.2317 72.8259 29.314 72.7867 29.3552 72.7867C29.3552 72.7867 29.4375 72.7475 29.3963 72.7867C29.4375 72.7867 29.4786 72.7475 29.5197 72.7475C29.6432 72.7083 29.7255 72.6691 29.8489 72.6299C29.8489 72.6299 29.8489 72.6299 29.89 72.6299C29.9312 72.6299 29.9312 72.5907 29.9723 72.5907C30.0135 72.5515 30.0546 72.5515 30.0958 72.5123C30.1369 72.473 30.178 72.4731 30.2603 72.4338L30.3015 72.3946C30.3015 72.3946 30.3015 72.3946 30.3426 72.3554C30.4249 72.277 30.5072 72.2378 30.5895 72.1594C30.6306 72.1202 30.6718 72.0809 30.7129 72.0417L30.7541 72.0025L30.7952 71.9633C30.8775 71.8849 30.9186 71.8065 30.9598 71.6888C31.0009 71.6496 31.0009 71.6104 31.0421 71.532V71.4928C31.0421 71.4536 31.0421 71.4536 31.0832 71.4144C31.1244 71.2575 31.2889 71.1399 31.4947 71.2183C31.6592 71.2575 31.7827 71.4536 31.7004 71.6104C31.5358 72.0809 31.2478 72.5123 30.8363 72.8652C30.6306 73.022 30.4249 73.1788 30.178 73.2573C29.89 73.3749 29.6432 73.4141 29.3552 73.4141C29.2317 73.4141 29.1083 73.3357 29.0672 73.1788C28.9849 72.9828 29.0672 72.8652 29.1906 72.8259Z" fill="#5E4838"/>
<path d="M22.9045 85.8819C23.028 85.7643 23.2337 85.7643 23.3571 85.8819C23.4806 86.0388 23.6451 86.1564 23.7686 86.3132C23.8509 86.3917 23.892 86.4701 23.9743 86.5093C24.0154 86.5485 24.0566 86.5877 24.0566 86.6269C24.0566 86.6269 24.0566 86.6661 24.0977 86.7053C24.1389 86.7446 24.1389 86.7838 24.18 86.8622C24.2211 86.9406 24.2212 87.0582 24.1389 87.1367C24.0566 87.2151 23.9743 87.2151 23.8509 87.1759C23.8097 87.1367 23.7686 87.1367 23.7274 87.0974C23.6451 87.0582 23.604 87.019 23.5628 86.9798L23.3571 86.7838C23.1926 86.6269 23.0691 86.5093 22.9045 86.3524C22.7811 86.1956 22.74 85.9996 22.9045 85.8819Z" fill="#5E4838"/>
<path d="M22.7716 86.8628C22.8539 86.9804 22.895 87.098 22.9773 87.2157C23.0596 87.3333 23.1831 87.4509 23.3065 87.5294C23.3476 87.5686 23.4299 87.6078 23.4711 87.6862C23.5122 87.7254 23.5122 87.7254 23.5533 87.7646L23.5945 87.8038L23.6356 87.843L23.6768 87.8823C23.7179 87.9215 23.7591 87.9607 23.8002 87.9999C23.8825 88.0783 23.9236 88.1175 24.0059 88.1959C24.0882 88.2744 24.0471 88.4312 23.9648 88.5096C23.8825 88.588 23.7591 88.6273 23.6768 88.588C23.5945 88.5488 23.4711 88.5096 23.3888 88.4704C23.3065 88.4312 23.2242 88.3528 23.1831 88.2744C23.0596 88.1567 22.9362 87.9999 22.8539 87.843C22.6893 87.5686 22.5659 87.2549 22.4836 86.9804C22.4836 86.8236 22.7305 86.7452 22.7716 86.8628Z" fill="#5E4838"/>
<path d="M21.2142 87.804C21.3377 87.7256 21.5023 87.7648 21.5845 87.8824C21.708 88.0392 21.8314 88.1961 21.9548 88.3529C21.996 88.4313 22.0783 88.5098 22.1194 88.5882C22.2017 88.6666 22.2428 88.745 22.284 88.8627C22.3251 88.9803 22.3251 89.0979 22.2017 89.1763C22.1194 89.2548 21.9548 89.2548 21.8725 89.1763C21.7903 89.0979 21.708 89.0195 21.6257 88.9019C21.5845 88.8235 21.5023 88.745 21.4611 88.6666C21.3377 88.5098 21.2142 88.3529 21.0908 88.1569C21.0497 88.0785 21.0908 87.8824 21.2142 87.804Z" fill="#5E4838"/>
<path d="M21.4177 118.702C21.4177 118.663 21.4588 118.623 21.4588 118.584C21.5 118.545 21.5411 118.545 21.5822 118.506C21.6234 118.467 21.7057 118.427 21.7468 118.388C21.8703 118.31 21.9525 118.231 22.076 118.153C22.2817 117.957 22.4874 117.761 22.6931 117.526C22.7343 117.447 22.8577 117.486 22.8988 117.526C22.94 117.565 22.9811 117.682 22.94 117.722C22.7343 117.957 22.5285 118.192 22.3228 118.388C22.1994 118.506 22.076 118.584 21.9525 118.663C21.9114 118.702 21.8291 118.741 21.788 118.78C21.7468 118.819 21.7057 118.819 21.6645 118.859C21.6234 118.859 21.5822 118.859 21.5411 118.859C21.4177 118.859 21.3765 118.78 21.4177 118.702Z" fill="#5E4838"/>
<path d="M19.8555 116.779C20.6784 116.113 21.5012 115.446 22.2418 114.662C22.3653 114.544 22.6121 114.544 22.7356 114.662C22.859 114.78 22.859 114.976 22.7356 115.132C21.995 115.917 21.1721 116.662 20.2669 117.289C19.9378 117.446 19.5675 116.975 19.8555 116.779Z" fill="#5E4838"/>
<path d="M18.3291 115.21C18.3703 115.17 18.4526 115.131 18.4937 115.092C18.576 115.053 18.6583 115.013 18.7817 114.974H18.8229C18.864 114.974 18.9051 114.935 18.9051 114.935C18.9874 114.896 19.0286 114.857 19.1109 114.817C19.1932 114.778 19.2343 114.739 19.3166 114.7C19.3166 114.7 19.44 114.621 19.4812 114.582C19.4812 114.582 19.44 114.621 19.4812 114.582L19.5223 114.543C19.5634 114.504 19.5635 114.504 19.6046 114.465C19.6457 114.425 19.728 114.347 19.7692 114.308C19.8926 114.19 20.1395 114.19 20.2629 114.308C20.3863 114.425 20.3863 114.661 20.2629 114.778C20.016 115.013 19.7692 115.21 19.4812 115.366C19.3166 115.445 19.152 115.523 18.9874 115.562C18.9052 115.602 18.8229 115.641 18.7406 115.641C18.6583 115.641 18.576 115.641 18.4526 115.641C18.2057 115.719 18.0823 115.366 18.3291 115.21Z" fill="#5E4838"/>
<path d="M17.1319 113.408C17.2141 113.369 17.2553 113.369 17.2964 113.33C17.3376 113.33 17.3376 113.33 17.3787 113.29H17.4199H17.461H17.5021C17.5433 113.29 17.5433 113.251 17.5844 113.251C17.6256 113.212 17.6667 113.212 17.749 113.173C17.7902 113.134 17.8313 113.134 17.8724 113.094C17.8724 113.094 17.8313 113.134 17.8724 113.094C17.8724 113.094 17.8724 113.094 17.9136 113.055C17.9547 113.055 17.9547 113.016 17.9547 113.016C17.9959 112.977 18.037 112.938 18.0782 112.898L18.1193 112.859C18.1193 112.859 18.2016 112.781 18.1193 112.82C18.1604 112.741 18.2016 112.702 18.2839 112.702C18.3662 112.663 18.4896 112.702 18.5719 112.741C18.6542 112.781 18.6953 112.859 18.6953 112.938C18.6953 113.055 18.6542 113.094 18.613 113.173C18.4485 113.369 18.2427 113.526 18.037 113.643C17.9136 113.722 17.7901 113.761 17.6667 113.8C17.6256 113.839 17.5433 113.839 17.5021 113.839C17.4199 113.839 17.3376 113.879 17.2553 113.879C17.1318 113.879 17.0084 113.761 16.9673 113.643C16.885 113.565 16.9673 113.486 17.1319 113.408Z" fill="#5E4838"/>
<path d="M29.8125 117.095C29.9359 116.664 30.1005 116.233 30.2651 115.801C30.3062 115.644 30.4708 115.566 30.6354 115.605C30.7999 115.644 30.8822 115.801 30.8411 115.958C30.6765 116.389 30.5531 116.821 30.4296 117.252C30.3062 117.683 30.2651 118.154 30.1005 118.546C29.9771 118.82 29.6068 118.781 29.6068 118.468C29.5245 117.997 29.689 117.527 29.8125 117.095Z" fill="#5E4838"/>
<path d="M31.128 117.644C31.1692 117.33 31.2514 117.017 31.3337 116.742C31.3749 116.585 31.5806 116.468 31.7452 116.507C31.9097 116.546 32.0332 116.742 31.992 116.899C31.9509 117.056 31.9097 117.213 31.8686 117.369C31.8686 117.448 31.8275 117.487 31.8275 117.566C31.8275 117.605 31.8275 117.644 31.7863 117.683C31.7863 117.683 31.7863 117.683 31.7863 117.722C31.7863 117.722 31.7863 117.722 31.7863 117.762C31.7863 117.918 31.7452 118.036 31.7452 118.193C31.7452 118.271 31.7452 118.35 31.704 118.428C31.704 118.507 31.6629 118.624 31.6217 118.703C31.5394 118.977 31.128 118.938 31.0457 118.703C31.0046 118.546 30.9634 118.389 30.9634 118.193C31.0869 117.997 31.0869 117.801 31.128 117.644Z" fill="#5E4838"/>
<path d="M31.2108 115.407C31.2108 115.329 31.252 115.25 31.252 115.172C31.2931 115.054 31.3343 114.937 31.3754 114.78C31.4577 114.505 31.5811 114.27 31.6634 113.996C31.7046 113.839 31.8691 113.721 32.0337 113.8C32.1983 113.839 32.3217 113.996 32.2394 114.153C32.1571 114.427 32.0337 114.662 31.9514 114.937C31.9103 115.054 31.8691 115.172 31.7868 115.329C31.7457 115.407 31.7457 115.486 31.6634 115.564C31.6223 115.603 31.5811 115.682 31.54 115.721C31.4988 115.799 31.3754 115.839 31.2931 115.839C31.2108 115.799 31.1286 115.721 31.1286 115.643C31.2108 115.525 31.2108 115.446 31.2108 115.407Z" fill="#5E4838"/>
<path d="M129.961 127.121V123.605C128.203 123.384 126.771 122.993 125.664 122.434C124.57 121.861 123.62 120.943 122.812 119.68C122.018 118.417 121.556 116.874 121.426 115.051L124.961 114.387C125.234 116.275 125.716 117.661 126.406 118.547C127.396 119.797 128.581 120.493 129.961 120.637V109.445C128.516 109.172 127.038 108.612 125.527 107.766C124.408 107.141 123.542 106.275 122.93 105.168C122.331 104.061 122.031 102.805 122.031 101.398C122.031 98.8984 122.917 96.8737 124.688 95.3242C125.872 94.2826 127.63 93.6445 129.961 93.4102V91.7305H132.031V93.4102C134.076 93.6055 135.697 94.2044 136.895 95.207C138.431 96.4831 139.355 98.2344 139.668 100.461L136.035 101.008C135.827 99.6276 135.391 98.5729 134.727 97.8438C134.076 97.1016 133.177 96.6133 132.031 96.3789V106.516C133.802 106.958 134.974 107.303 135.547 107.551C136.641 108.033 137.533 108.618 138.223 109.309C138.913 109.999 139.44 110.819 139.805 111.77C140.182 112.72 140.371 113.749 140.371 114.855C140.371 117.29 139.596 119.322 138.047 120.949C136.497 122.577 134.492 123.449 132.031 123.566V127.121H129.961ZM129.961 96.3398C128.594 96.5482 127.513 97.0951 126.719 97.9805C125.938 98.8659 125.547 99.9141 125.547 101.125C125.547 102.323 125.879 103.326 126.543 104.133C127.22 104.94 128.359 105.585 129.961 106.066V96.3398ZM132.031 120.637C133.398 120.467 134.525 119.875 135.41 118.859C136.309 117.844 136.758 116.587 136.758 115.09C136.758 113.814 136.439 112.792 135.801 112.023C135.176 111.242 133.919 110.546 132.031 109.934V120.637Z" fill="#B14F42"/>
<path d="M123.84 22.252V23.092H131.544V22.252H123.84ZM125.028 25.024H130.272V26.824H125.028V25.024ZM124.2 24.256V27.592H131.148V24.256H124.2ZM124.944 27.832L124.2 28.084C125.472 30.28 127.932 31.528 131.112 31.984C131.232 31.732 131.46 31.372 131.652 31.18C128.532 30.832 126.072 29.716 124.944 27.832ZM127.176 20.968V26.272C127.176 28.3 126.972 30.352 123.408 31.252C123.588 31.444 123.84 31.804 123.948 32.008C127.668 30.904 128.064 28.6 128.064 26.284V20.968H127.176ZM123.324 20.896C122.628 22.72 121.452 24.508 120.24 25.648C120.408 25.864 120.66 26.332 120.744 26.536C122.076 25.204 123.36 23.188 124.176 21.16L123.324 20.896ZM122.064 24.04V32.02H122.928V23.2L122.916 23.188L122.064 24.04ZM134.34 21.772V22.636H142.104V21.772H134.34ZM134.34 24.568V25.42H142.092V24.568H134.34ZM134.28 27.436V28.288H142.116V27.436H134.28ZM133.836 21.772V26.116C133.836 27.808 133.704 29.944 132.384 31.432C132.576 31.552 132.936 31.852 133.08 32.032C134.508 30.436 134.724 27.952 134.724 26.128V21.772H133.836ZM141.744 21.772V30.736C141.744 30.964 141.66 31.036 141.432 31.048C141.204 31.048 140.388 31.06 139.536 31.024C139.668 31.264 139.812 31.66 139.848 31.9C140.988 31.912 141.684 31.9 142.092 31.756C142.488 31.6 142.632 31.324 142.632 30.736V21.772H141.744ZM137.604 22.096V31.852H138.516V22.096H137.604ZM151.32 21.52V22.348H154.656V21.52H151.32ZM151.32 24.28V25.084H154.656V24.28H151.32ZM151.308 27.076V27.892H154.68V27.076H151.308ZM154.248 21.52V30.808C154.248 30.988 154.188 31.048 154.008 31.048C153.828 31.06 153.228 31.06 152.592 31.048C152.712 31.276 152.844 31.672 152.868 31.924C153.756 31.924 154.32 31.9 154.656 31.756C155.004 31.612 155.124 31.336 155.124 30.82V21.52H154.248ZM150.948 21.52V25.876C150.948 27.616 150.864 29.896 149.856 31.504C150.06 31.588 150.42 31.852 150.576 32.02C151.656 30.316 151.8 27.724 151.8 25.876V21.52H150.948ZM144.612 22.528V23.32H150.36V22.528H144.612ZM146.028 24.388V25.12H149.064V24.388H146.028ZM146.028 26.296V27.016H149.076V26.296H146.028ZM144.456 28.228V29.032H150.36V28.228H144.456ZM145.632 21.064V28.552H146.46V21.064H145.632ZM148.644 21.064V28.552H149.472V21.064H148.644ZM146.124 29.296C145.764 30.1 145.14 30.904 144.468 31.444C144.684 31.564 145.032 31.828 145.2 31.972C145.848 31.372 146.544 30.448 146.988 29.536L146.124 29.296ZM147.852 29.668C148.32 30.232 148.86 31.024 149.088 31.504L149.82 31.072C149.58 30.58 149.016 29.836 148.548 29.296L147.852 29.668ZM157.092 21.424V31.948H157.896V22.24H159.984V21.424H157.092ZM159.816 21.424V21.664C159.576 22.48 159.132 23.86 158.688 24.952C159.564 25.9 159.768 26.74 159.768 27.4C159.768 27.76 159.696 28.096 159.528 28.228C159.42 28.3 159.288 28.324 159.156 28.336C158.952 28.36 158.712 28.348 158.448 28.324C158.58 28.552 158.664 28.9 158.676 29.116C158.94 29.128 159.24 29.128 159.48 29.104C159.72 29.068 159.948 28.996 160.104 28.876C160.44 28.636 160.584 28.12 160.584 27.472C160.584 26.728 160.38 25.852 159.504 24.856C159.912 23.896 160.344 22.72 160.704 21.736L160.116 21.388L159.972 21.424H159.816ZM161.76 21.46V22.252H165.72V25.936H161.76V26.728H166.596V21.46H161.76ZM161.82 23.704V24.46H166.188V23.704H161.82ZM164.016 26.26L163.272 26.404C163.848 28.96 164.988 30.928 166.956 31.876C167.1 31.636 167.376 31.276 167.58 31.096C165.684 30.328 164.532 28.516 164.016 26.26ZM166.716 27.124C166.152 27.652 165.156 28.36 164.472 28.768L164.964 29.344C165.66 28.948 166.608 28.324 167.316 27.748L166.716 27.124ZM161.268 31.972C161.496 31.816 161.868 31.684 164.352 31C164.316 30.808 164.304 30.436 164.304 30.184L161.628 30.832L161.196 31.168L161.268 31.972ZM161.268 31.972C161.268 31.636 162.18 31.084 162.18 31.084V21.46H161.304V30.376C161.304 30.868 161.04 31.12 160.86 31.228C161.004 31.396 161.196 31.768 161.268 31.972ZM174 24.484C174.48 24.484 174.9 24.124 174.9 23.584C174.9 23.032 174.48 22.672 174 22.672C173.508 22.672 173.088 23.032 173.088 23.584C173.088 24.124 173.508 24.484 174 24.484ZM174 30.352C174.48 30.352 174.9 30.004 174.9 29.452C174.9 28.9 174.48 28.552 174 28.552C173.508 28.552 173.088 28.9 173.088 29.452C173.088 30.004 173.508 30.352 174 30.352Z" fill="#B14F42"/>
<rect x="120" y="38" width="94" height="25.9041" rx="12.952" fill="#B18042"/>
<path d="M134.27 48.99H139.69V50.5H134.27V48.99ZM133.63 48.48V51.01H140.37V48.48H133.63ZM135.27 47.43V47.96H138.76V47.43H135.27ZM136.65 48.66V50.75H137.28V48.66H136.65ZM134.88 49.29C135.13 49.65 135.36 50.14 135.44 50.46L136.02 50.25C135.92 49.93 135.68 49.46 135.42 49.11L134.88 49.29ZM138.48 49.07C138.36 49.41 138.11 49.94 137.92 50.28L138.44 50.46C138.64 50.16 138.9 49.7 139.12 49.27L138.48 49.07ZM134.22 51.49V54.8H134.96V52.02H139.11V54.76H139.87V51.49H134.22ZM134.66 52.69V53.24H139.44V52.69H134.66ZM134.66 53.92V54.46H139.44V53.92H134.66ZM136.92 45.56C135.99 46.78 134.2 47.66 132.37 48.16C132.51 48.29 132.72 48.6 132.8 48.75C134.65 48.15 136.53 47.19 137.59 45.81L136.92 45.56ZM137.36 45.91L136.78 46.16C137.79 47.27 139.61 48.23 141.23 48.67C141.34 48.49 141.55 48.22 141.71 48.09C140.09 47.71 138.28 46.87 137.36 45.91ZM144.64 46.6H149.39V47.63H144.64V46.6ZM143.89 45.99V48.25H150.18V45.99H143.89ZM144.21 50.62H149.81V51.33H144.21V50.62ZM144.21 51.86H149.81V52.58H144.21V51.86ZM144.21 49.39H149.81V50.09H144.21V49.39ZM143.46 48.83V53.13H150.58V48.83H143.46ZM145.37 53.12C144.74 53.53 143.43 54.01 142.38 54.26C142.56 54.41 142.81 54.65 142.94 54.81C143.97 54.55 145.27 54.07 146.07 53.58L145.37 53.12ZM147.81 53.64C148.87 53.95 150.23 54.47 150.97 54.82L151.62 54.28C150.84 53.95 149.5 53.46 148.46 53.15L147.81 53.64ZM152.46 51.95V52.57H161.54V51.95H152.46ZM152.75 46.38V46.98H161.13V46.38H152.75ZM158.42 51.3V53.98C158.42 54.11 158.37 54.15 158.21 54.16C158.04 54.17 157.48 54.17 156.88 54.15C156.98 54.34 157.08 54.61 157.11 54.8C157.92 54.8 158.43 54.8 158.75 54.7C159.06 54.59 159.14 54.39 159.14 54V51.3H158.42ZM156.61 45.62V50.98H157.35V45.62H156.61ZM154.06 52.99C154.66 53.36 155.36 53.91 155.7 54.31L156.25 53.81C155.9 53.42 155.16 52.89 154.57 52.55L154.06 52.99ZM154.23 49.15H159.79V49.77H154.23V49.15ZM154.23 48.05H159.79V48.66H154.23V48.05ZM153.52 47.55V50.28H160.52V47.55H153.52ZM158.48 50.49C159.27 50.76 160.22 51.28 160.71 51.68L161.16 51.25C160.66 50.88 159.71 50.38 158.91 50.11L158.48 50.49ZM152.86 50.86L152.89 51.45C154.78 51.42 157.62 51.36 160.29 51.29L160.33 50.78C157.59 50.83 154.68 50.86 152.86 50.86ZM163.32 45.99V48.95C163.32 50.55 163.24 52.8 162.39 54.4C162.58 54.47 162.89 54.65 163.04 54.76C163.92 53.1 164.05 50.64 164.05 48.95V45.99H163.32ZM163.77 45.99V46.52H170.25V47.19H163.77V47.71H170.97V45.99H163.77ZM167.33 47.89V49.38H168.03V47.89H167.33ZM166.87 51.52V54.03H167.52V51.52H166.87ZM165.54 51.25V51.73H170.67V51.25H165.54ZM168.9 49.92H170.22V50.48H168.9V49.92ZM167 49.92H168.3V50.48H167V49.92ZM165.15 49.92H166.4V50.48H165.15V49.92ZM164.53 49.53V50.87H170.86V49.53H164.53ZM170.46 51.25V51.36C170.38 53.22 170.26 53.9 170.11 54.08C170.05 54.16 169.98 54.17 169.87 54.17C169.74 54.17 169.48 54.17 169.18 54.14C169.26 54.3 169.32 54.54 169.33 54.71C169.66 54.73 169.99 54.73 170.18 54.71C170.4 54.69 170.56 54.63 170.7 54.46C170.92 54.21 171.04 53.5 171.14 51.53C171.15 51.43 171.15 51.25 171.15 51.25H170.46ZM165.54 52.49H168.83V52.95H165.54V52.49ZM164.96 52.11V53.34H169.43V52.11H164.96ZM165.77 50.7C165.42 51.23 164.78 51.83 163.91 52.29C164.06 52.37 164.28 52.58 164.4 52.72C165.33 52.17 166 51.52 166.47 50.82L165.77 50.7ZM164.38 53.94L164.44 54.48C165.66 54.39 167.37 54.26 169.03 54.12L169.04 53.66C167.32 53.77 165.55 53.88 164.38 53.94ZM168.3 53.47C168.63 53.74 169.02 54.14 169.2 54.41L169.68 54.14C169.49 53.87 169.09 53.49 168.75 53.24L168.3 53.47ZM164.6 49L164.74 49.47C165.34 49.37 166.16 49.19 166.92 49.02L166.91 48.59C166.05 48.76 165.18 48.91 164.6 49ZM170.34 47.74C169.9 47.87 169.12 48.11 168.62 48.19L168.81 48.54C169.32 48.48 170.07 48.35 170.58 48.14L170.34 47.74ZM168.5 49.03C169.2 49.12 169.96 49.3 170.42 49.47L170.61 49.05C170.14 48.88 169.36 48.72 168.65 48.65L168.5 49.03ZM164.76 48.21C165.38 48.3 166.07 48.46 166.49 48.62L166.67 48.2C166.25 48.04 165.54 47.9 164.91 47.83L164.76 48.21ZM180.76 45.69C179.75 46.02 178 46.31 176.53 46.49C176.62 46.66 176.72 46.93 176.75 47.12C178.24 46.96 180.04 46.68 181.22 46.32L180.76 45.69ZM176.91 48.93V49.65H181.59V48.93H176.91ZM179.16 49.33V54.75H179.91V49.33H179.16ZM172.37 50.91L172.59 51.63C173.56 51.35 174.86 50.96 176.08 50.58L175.98 49.89C174.67 50.27 173.28 50.67 172.37 50.91ZM172.52 47.62V48.33H176.01V47.62H172.52ZM173.92 45.61V53.88C173.92 54.01 173.87 54.05 173.73 54.06C173.6 54.06 173.19 54.07 172.73 54.05C172.83 54.25 172.94 54.56 172.97 54.75C173.63 54.75 174.04 54.74 174.3 54.61C174.56 54.5 174.66 54.29 174.66 53.87V45.61H173.92ZM176.53 46.49V49.65C176.53 51.23 176.41 52.88 175.43 54.3C175.63 54.42 175.89 54.62 176.03 54.79C177.11 53.24 177.27 51.48 177.27 49.66V46.49H176.53ZM185.08 46.11V46.69H191.5V46.11H185.08ZM185.99 47.78H190.5V48.74H185.99V47.78ZM185.32 47.28V49.23H191.2V47.28H185.32ZM187.05 46.3V48.93H187.67V46.3H187.05ZM188.78 46.3V48.93H189.4V46.3H188.78ZM186.23 51.23H190.35V51.8H186.23V51.23ZM186.23 52.27H190.35V52.86H186.23V52.27ZM186.23 50.19H190.35V50.76H186.23V50.19ZM185.53 49.71V53.34H191.08V49.71H185.53ZM188.78 53.84C189.64 54.14 190.53 54.53 191.04 54.83L191.69 54.39C191.11 54.09 190.14 53.7 189.27 53.41L188.78 53.84ZM187.14 53.4C186.61 53.74 185.64 54.11 184.77 54.31C184.91 54.44 185.09 54.67 185.19 54.82C186.08 54.6 187.07 54.22 187.68 53.78L187.14 53.4ZM184.32 45.66C183.84 47.2 183.05 48.74 182.17 49.74C182.3 49.93 182.5 50.33 182.57 50.51C183.56 49.34 184.45 47.58 185.02 45.85L184.32 45.66ZM183.52 48.11V54.8H184.23V47.44L184.21 47.42L183.52 48.11ZM192.62 49.06V49.74H201.41V49.06H192.62ZM193.24 47.36V48.03H200.72V47.36H193.24ZM198.48 49.19L197.83 49.42C198.54 50.61 199.84 51.57 201.25 52.03C201.36 51.83 201.57 51.55 201.74 51.4C200.37 51.03 199.1 50.2 198.48 49.19ZM196.82 45.57C196.51 47.76 195.22 50.15 192.33 51.4C192.5 51.54 192.73 51.83 192.81 52.02C195.8 50.64 197.2 48.1 197.6 45.66L196.82 45.57ZM194.09 46.12C194.42 46.52 194.78 47.07 194.93 47.41L195.56 47.08C195.4 46.73 195.02 46.2 194.69 45.83L194.09 46.12ZM199.32 45.86C199.08 46.33 198.64 47.02 198.29 47.44L198.86 47.65C199.22 47.25 199.65 46.64 200.01 46.09L199.32 45.86ZM194.13 50.95V51.63H199.07V50.95H194.13ZM198.94 50.95V51.06C198.82 52.98 198.69 53.73 198.49 53.93C198.39 54.01 198.3 54.03 198.11 54.03C197.92 54.03 197.41 54.03 196.87 53.97C197 54.17 197.08 54.47 197.09 54.68C197.64 54.72 198.17 54.72 198.44 54.7C198.75 54.67 198.93 54.61 199.12 54.41C199.4 54.11 199.54 53.31 199.68 51.28C199.69 51.16 199.7 50.95 199.7 50.95H198.94ZM195.75 51.21C195.56 52.63 195.07 53.65 192.95 54.16C193.1 54.31 193.31 54.6 193.38 54.79C195.69 54.16 196.3 52.94 196.53 51.21H195.75Z" fill="white"/>
</svg>
