<svg width="78" height="96" viewBox="0 0 78 96" fill="none" xmlns="http://www.w3.org/2000/svg">
<path d="M0.0243384 19.1783C-0.3871 22.3152 4.13872 23.8836 6.56621 24.9031C6.81307 24.4717 6.77192 23.9228 7.05993 23.5307C7.38908 23.0602 8.04739 22.8641 8.25311 22.3544C8.49997 21.727 8.00624 21.0604 8.04739 20.3939C8.08853 19.7665 8.6234 19.296 8.78797 18.7078C8.95255 18.1981 8.91141 17.6491 8.66455 17.1786C7.38909 16.8257 6.11362 16.6297 4.79702 16.5905C3.11012 16.3944 0.312345 17.1002 0.0243384 19.1783Z" fill="#EDEAE6"/>
<path d="M11.7498 39.0974C9.81609 42.1166 -0.716737 53.8797 0.887872 63.5255C2.6982 74.4652 13.1487 82.072 13.9716 81.4446C14.3831 81.1309 16.3168 80.2683 16.5225 79.837C17.3454 77.798 17.5923 75.5238 17.1397 74.1515C14.4242 72.5438 12.367 69.9952 11.0093 67.2112C9.85723 64.8586 9.11664 62.2315 9.32236 59.6437C9.48693 57.4087 10.351 55.2521 11.3796 53.2524C13.231 49.645 15.6997 46.3513 17.7157 42.8224C19.7318 39.2935 21.3364 35.3725 21.1306 31.373C20.9661 27.452 19.0323 23.6486 15.9877 20.9823C13.9305 19.1394 11.3796 17.8454 8.66406 17.1396C8.86978 17.6494 8.95206 18.1983 8.78749 18.6689C8.58177 19.257 8.08805 19.7667 8.0469 20.3549C8.00576 21.0215 8.54063 21.688 8.25262 22.3154C8.0469 22.8251 7.3886 23.0604 7.05945 23.4917C6.77144 23.8838 6.81259 24.4328 6.56572 24.8641C6.89487 24.9817 7.18288 25.1386 7.42975 25.2562C9.36351 26.2364 11.3384 27.2951 12.5316 29.0204C14.5476 32.0004 13.6836 36.039 11.7498 39.0974Z" fill="#715947"/>
<path d="M40.1359 88.3076C38.449 89.68 37.4204 91.7581 37.4204 93.8755C37.9553 93.8363 38.5313 93.8363 39.0662 93.8755C39.9302 93.9539 40.7531 94.1499 41.6171 94.1891C42.4811 94.2284 43.3863 94.0323 44.0034 93.4834C44.5383 92.9736 44.7852 92.2286 44.7852 91.5228C44.744 90.8171 44.456 90.1113 44.0857 89.5231C43.5508 88.6605 42.7691 87.9155 41.8639 87.4058C41.2056 87.5626 40.6296 87.9155 40.1359 88.3076Z" fill="#7A5F4C"/>
<path d="M64.0846 87.6394C62.7269 88.1491 61.4926 89.0117 60.6285 90.1096C61.0811 90.6585 61.5337 91.1683 62.1097 91.5996C63.8377 92.8935 66.5532 93.2464 68.199 91.8741C68.6104 91.5212 68.9396 91.0899 69.063 90.5801C69.351 89.443 68.5693 88.3451 68.0756 87.2472C66.7178 87.012 65.3601 87.1688 64.0846 87.6394Z" fill="#EDEAE6"/>
<path d="M39.9336 71.6438C40.5508 73.3298 40.8799 75.0943 40.9211 76.8979C41.0034 78.2703 40.9211 79.6427 40.5508 80.9758C40.1394 82.3482 39.5633 83.6421 38.9462 84.9361C38.7816 85.289 38.5759 85.6418 38.3702 85.9555C39.1519 86.1124 39.9336 86.3868 40.6742 86.6613C40.8799 86.7397 41.1268 86.8574 41.3737 87.0142C42.8137 86.1908 44.7063 83.2892 44.5829 82.7011C44.624 82.7403 45.3235 84.4655 46.1875 86.4261C44.1303 81.5248 42.7314 76.3098 40.8799 71.3301L39.9336 71.6438Z" fill="#EDEAE6"/>
<path d="M40.8017 71.3683C42.6532 76.3481 44.0521 81.5238 46.1093 86.4643C46.7676 87.8759 47.5082 89.4051 48.1254 90.4638C48.3722 90.8559 48.5779 91.248 48.7837 91.6793C49.73 90.6598 50.9643 89.9148 52.322 89.5619C53.5975 89.2483 54.9964 89.2483 56.2718 89.6404C55.9838 89.1306 55.9015 88.5425 55.8193 87.9543C55.5312 85.7585 55.5724 83.5628 55.5312 81.367C55.4078 80.8572 55.4078 80.3083 55.4901 79.7986C55.449 79.0144 55.4078 78.1909 55.3255 77.4067C55.449 77.8773 55.6135 78.3478 55.737 78.8183C55.8604 78.5046 55.9838 78.2302 56.1484 77.9949C57.0947 76.4657 58.8639 75.4854 59.7279 73.917C60.6742 72.1133 60.2216 69.996 60.2216 67.957C60.2216 65.4476 60.9622 62.9381 62.4846 60.8992C63.2251 59.9189 64.1715 59.0171 64.9532 58.0368C64.1715 55.0961 63.2251 52.1553 62.6903 49.1361C62.032 45.5679 61.9085 41.7645 63.184 38.3532C63.8834 36.7064 65.0766 35.1772 66.1875 33.5304C65.5703 33.5696 64.912 33.5696 64.2537 33.5304C58.6582 33.0599 53.474 29.6093 51.0877 24.7865C50.6763 23.9631 50.3471 23.1004 49.7711 22.4339C49.1951 21.7281 48.2488 21.2183 47.3025 21.3752C46.5207 21.532 45.9447 22.081 45.5333 22.7475C45.163 23.4141 44.9573 24.1199 44.6693 24.8257C43.2292 28.3154 39.8143 30.7072 36.3994 32.5501C35.0416 33.2951 33.6839 34.0009 32.1615 34.2754C31.4209 34.4322 30.5981 34.4322 29.8575 34.3146C29.8986 34.3538 29.8986 34.3538 29.9398 34.393C30.3512 34.8635 30.8038 35.2948 30.9684 35.883C31.2152 39.2159 30.1866 42.5488 28.6643 45.6072C27.9237 47.1364 27.0597 48.5871 26.1545 50.0379C26.3603 51.0182 26.7305 51.9592 27.2243 52.8219C28.1294 54.4687 29.3638 55.9195 30.3512 57.4879C31.2975 59.0171 32.0381 60.7031 31.8735 62.4676C32.0793 62.5852 32.2438 62.7029 32.4495 62.8205C33.2313 63.3302 33.9719 63.84 34.6713 64.4673C36.3582 65.9181 37.7982 67.6434 38.9503 69.5255C39.3206 70.2312 39.6497 70.9762 39.9377 71.7212L40.8017 71.3683Z" fill="#EDEAE6"/>
<path d="M52.3594 89.5219C51.0017 89.8748 49.7262 90.6198 48.821 91.6392C49.3559 92.6195 49.9319 93.5605 50.9194 94.1487C51.8246 94.6976 52.9354 94.8545 54.0052 94.8937C54.9515 94.9329 55.9801 94.8153 56.7207 94.3055C57.667 93.6389 57.9961 92.345 57.5024 91.3255C57.2144 90.7374 56.6795 90.2669 56.3504 89.7179C56.3504 89.6787 56.3092 89.6395 56.3092 89.6395C55.0338 89.2474 53.6349 89.2082 52.3594 89.5219Z" fill="#7A5F4C"/>
<path d="M41.4576 87.328C40.4701 86.7006 39.3181 86.5046 38.1661 86.1909C38.0838 86.1517 38.0838 86.0341 38.1661 85.9949C38.1661 85.9556 38.1661 85.9556 38.2072 85.9164C38.4129 85.5635 38.5775 85.2107 38.7421 84.8578C39.3592 83.4462 39.8941 81.9562 40.2644 80.427C40.5113 79.2899 40.5524 78.1136 40.5113 76.8589C40.4701 74.8199 40.0175 72.8986 39.1535 70.9381C38.8655 70.2715 38.2072 69.1736 37.6312 68.4678C36.726 67.2131 35.862 66.1544 34.71 65.0173C34.71 68.1542 33.7225 71.3302 31.2128 73.3299C30.0196 74.271 28.4973 74.9375 27.6744 76.2315C27.0161 77.2902 26.8927 78.5841 26.2344 79.6036C25.5349 80.6623 24.3006 81.3288 23.1074 81.8778C21.4205 82.662 19.6102 83.2893 17.7587 83.5246C16.689 83.6422 15.5781 83.6422 14.5495 83.4462C14.6318 83.6422 14.7141 83.8775 14.7964 84.0736C16.2364 87.5241 19.2399 90.2688 22.7371 91.8764C26.2344 93.484 30.2253 94.033 34.0928 93.7977C35.2449 93.9546 36.3557 93.8369 37.4666 93.7977C37.4666 91.6804 38.4541 89.6022 40.1821 88.2298C40.6758 87.8377 41.293 87.4849 41.9102 87.328C41.8279 87.2888 41.7456 87.2104 41.6633 87.1712C41.581 87.328 41.4987 87.3672 41.4576 87.328Z" fill="#EDEAE6"/>
<path d="M56.1816 77.956C56.017 78.2305 55.8936 78.505 55.7701 78.7794C56.593 81.3673 57.5393 83.8768 58.6091 86.347C59.1439 87.641 59.8022 88.9349 60.6662 90.072C61.5714 88.9741 62.7646 88.1115 64.1223 87.6018C65.3978 87.1312 66.7555 86.9744 68.1133 87.1704C68.1133 87.1312 68.0721 87.092 68.0721 87.092C67.1258 85.0531 67.167 82.7397 67.2081 80.5047C67.3315 73.5252 67.0435 66.5066 65.3978 59.684C65.2744 59.0958 65.1098 58.5469 64.9863 57.9587C64.2046 58.939 63.2583 59.8016 62.5177 60.8211C60.9954 62.86 60.2548 65.3695 60.2548 67.879C60.2548 69.8787 60.7074 72.0352 59.7611 73.8389C58.8971 75.4465 57.1279 76.4268 56.1816 77.956Z" fill="#7A5F4C"/>
<path d="M14.1763 74.3091C13.5179 77.3675 13.4768 80.5827 14.5465 83.4843C15.6163 83.6804 16.686 83.6804 17.7558 83.5627C19.6484 83.3275 21.4176 82.6609 23.1045 81.9159C24.2976 81.3669 25.532 80.7396 26.2314 79.6417C26.9308 78.583 27.0131 77.2891 27.6714 76.2696C28.4943 75.0149 30.0166 74.3483 31.2098 73.368C33.6784 71.3683 34.6659 68.1923 34.707 65.0555C34.5836 64.9378 34.4602 64.781 34.2956 64.6633C32.9378 63.4086 31.539 62.4284 29.8932 61.5657C29.5229 61.3697 29.2349 61.252 28.8235 61.1344C28.7823 61.1344 28.7412 61.056 28.7412 61.0168C28.7412 60.9776 28.8235 60.9384 28.8646 60.9384C29.9343 61.252 30.9218 61.801 31.827 62.3891C31.9504 60.6639 31.2509 58.9386 30.3046 57.4094C29.3172 55.841 28.0829 54.3902 27.1777 52.7434C26.684 51.8808 26.3137 50.9397 26.108 49.9595C25.2028 51.4103 24.2565 52.8218 23.3925 54.2726C21.2941 57.7231 19.4015 61.2913 17.6735 64.8986C16.2746 67.957 14.8757 71.0546 14.1763 74.3091Z" fill="#7A5F4C"/>
<path d="M27.0552 28.9821C27.0141 29.5703 27.0141 30.1977 27.2198 30.7466C27.3844 31.2563 27.7547 31.7269 28.0838 32.1582C28.6599 32.9032 29.2359 33.609 29.8942 34.2755C30.6348 34.3932 31.4576 34.3932 32.1982 34.2363C33.7205 33.9618 35.1194 33.2561 36.436 32.5111C39.851 30.629 43.2248 28.2763 44.6648 24.7866C44.9528 24.0808 45.1585 23.3751 45.5288 22.7085C45.8991 22.0811 46.5163 21.493 47.298 21.3361C48.2443 21.1793 49.1495 21.689 49.7666 22.3948C50.3427 23.1006 50.713 23.9632 51.0832 24.7474C53.4696 29.5703 58.6949 33.0208 64.2493 33.4913C64.8664 33.5305 65.5247 33.5697 66.183 33.4913C67.4585 31.6484 68.5694 29.6879 68.6928 27.4529C68.8162 25.5316 68.1168 23.6495 67.3351 21.8851C66.183 19.2188 64.8253 16.6309 63.303 14.1214C62.3978 11.612 61.4926 9.18092 60.4229 6.78909C59.2709 4.27963 57.872 1.73096 55.4856 0.240969C55.2799 0.123338 55.0742 0.00570748 54.8685 0.00570748C54.169 -0.0727132 53.7165 0.672283 53.4696 1.29965C52.441 3.80911 51.4535 6.35778 50.4249 8.86724C47.4214 8.78882 43.4716 9.37697 40.5093 10.318C38.2875 6.94593 33.9263 3.06411 32.8565 3.18174C30.141 3.45622 29.1536 13.3372 30.0176 18.3169C28.701 22.1987 27.2198 25.1787 27.0552 28.9821Z" fill="#7A5F4C"/>
<path d="M28.9095 60.9368C29.9792 61.2505 30.9667 61.7994 31.8718 62.3875C32.0775 62.5052 32.2421 62.6228 32.4478 62.7404C33.2296 63.2502 33.9702 63.7599 34.6696 64.3873C36.3565 65.8381 37.7965 67.5633 38.9486 69.4454C39.3189 70.1512 39.648 70.8962 39.936 71.6412C40.5532 73.3272 40.8823 75.0917 40.9235 76.8954C41.0058 78.2677 40.9235 79.6401 40.5532 80.9732C40.1417 82.3456 39.5657 83.6395 38.9486 84.9335C38.784 85.2864 38.5783 85.6393 38.3726 85.953C39.1543 86.1098 39.936 86.3843 40.6766 86.6587C40.8823 86.7372 41.1292 86.8548 41.3761 87.0116C41.3349 87.0508 41.3349 87.0508 41.2938 87.0508C41.4172 87.0901 41.5406 87.1685 41.6641 87.2077C41.6641 87.2861 41.5818 87.3253 41.4995 87.2861C40.512 86.6587 39.36 86.4627 38.208 86.149C38.1257 86.1098 38.1257 85.9922 38.208 85.953C38.208 85.9137 38.208 85.9137 38.2491 85.8745C38.4548 85.5216 38.6194 85.1688 38.784 84.8159C39.4012 83.4043 39.936 81.9143 40.3063 80.3851C40.5532 79.248 40.5943 78.0717 40.5532 76.817C40.512 74.778 40.0595 72.8567 39.1954 70.8962C38.9074 70.2296 38.2491 69.1317 37.6731 68.4259C36.7679 67.1712 35.9039 66.1125 34.7519 64.9754C34.6285 64.8578 34.505 64.701 34.3405 64.5833C32.9827 63.3286 31.5838 62.3483 29.9381 61.4857C29.5678 61.2897 29.2798 61.172 28.8683 61.0544C28.8272 61.0544 28.786 60.976 28.786 60.9368C28.786 60.976 28.8683 60.9368 28.9095 60.9368Z" fill="#493E37"/>
<path d="M41.3331 87.0144C41.2919 87.0536 41.2919 87.0536 41.2508 87.0536C41.3742 87.0928 41.4977 87.1712 41.6211 87.2105V87.1712C41.5388 87.1712 41.4565 87.0928 41.3331 87.0144Z" fill="black"/>
<path d="M36.9743 63.4843C41.9116 72.2282 43.1459 82.4228 48.2066 91.0883C48.2477 91.1668 48.33 91.1668 48.4123 91.1275C48.4946 91.0883 48.4946 91.0099 48.4534 90.9315C44.9562 84.2657 43.3927 76.9334 40.595 70.0324C39.6487 67.719 38.5789 65.4448 37.2212 63.3274C37.18 63.249 37.0977 63.249 37.0155 63.2882C36.9743 63.3274 36.9743 63.4058 36.9743 63.4843Z" fill="#493E37"/>
<path d="M66.3466 89.7958C66.9226 90.5408 67.2106 91.325 67.1695 92.2661C67.1695 92.4229 67.3752 92.4621 67.4575 92.3445C67.7044 91.874 67.7455 91.2858 67.5809 90.7761C67.4164 90.2663 67.0461 89.7958 66.5523 89.5605C66.3878 89.5213 66.2643 89.7174 66.3466 89.7958Z" fill="#493E37"/>
<path d="M64.7449 90.0733C65.1563 90.8575 65.4032 91.7985 65.3209 92.6219C65.2386 92.7396 65.3209 92.8964 65.4855 92.8572C65.6912 92.7788 65.7323 92.5827 65.7735 92.4651C66.0615 91.5633 65.7735 90.5046 64.9918 89.9164C64.8683 89.7988 64.7037 89.9556 64.7449 90.0733Z" fill="#493E37"/>
<path d="M54.8611 91.7985C55.3548 92.6612 55.8074 93.6806 55.5194 94.6217C55.4371 94.7393 55.6428 94.8962 55.7663 94.7785C56.3011 94.3472 56.26 93.6022 56.1366 93.0141C55.972 92.4259 55.6428 91.877 55.108 91.5633C54.9434 91.5241 54.7788 91.6809 54.8611 91.7985Z" fill="#493E37"/>
<path d="M52.6836 92.0713C52.9305 92.7771 53.095 93.4829 52.9305 94.1887C52.8482 94.424 52.7659 94.62 52.6013 94.7376C52.4779 94.8161 52.5602 95.0121 52.6836 95.0121C53.4242 94.8945 53.6299 94.0711 53.5888 93.5221C53.5888 92.934 53.3419 92.3458 52.9305 91.9537C52.807 91.7969 52.6013 91.9145 52.6836 92.0713Z" fill="#493E37"/>
<path d="M42.9784 91.5615C43.3899 92.032 43.5545 92.581 43.719 93.1691C43.7602 93.3652 43.8425 93.522 43.8013 93.6397C43.719 93.7573 43.8836 93.9141 44.007 93.8357C44.2539 93.6789 44.2539 93.326 44.2539 93.0907C44.2128 92.6202 44.0893 92.1497 43.7602 91.7576C43.6367 91.6007 43.0607 91.1302 42.9373 91.4439C42.9373 91.4439 42.9784 91.5223 42.9784 91.5615Z" fill="#493E37"/>
<path d="M41.1629 92.0332C41.6566 92.7782 41.8623 93.5624 41.78 94.4643C41.7389 94.6211 41.9858 94.6995 42.068 94.5819C42.3972 94.1506 42.4383 93.6016 42.3149 93.0919C42.1915 92.5822 41.8623 92.1116 41.3686 91.8764C41.204 91.7587 41.0806 91.9156 41.1629 92.0332Z" fill="#493E37"/>
<path d="M56.1016 22.9034C56.1016 22.276 55.6078 21.7271 54.9907 21.7271C54.3735 21.7271 53.8798 22.2368 53.8798 22.9034C53.8798 23.5307 54.3735 24.0797 54.9907 24.0797C55.6078 24.0797 56.1016 23.5307 56.1016 22.9034Z" fill="#37291D"/>
<path d="M41.9922 23.7281C41.9922 23.1007 41.4985 22.5518 40.8813 22.5518C40.2641 22.5518 39.7704 23.0615 39.7704 23.7281C39.7704 24.3554 40.2641 24.9044 40.8813 24.9044C41.4985 24.8652 41.9922 24.3554 41.9922 23.7281Z" fill="#37291D"/>
<path d="M51.4478 27.7658C51.489 27.805 51.1598 27.805 51.201 27.6874V27.6482C51.201 27.6482 51.201 27.6089 51.201 27.6482C50.7895 28.3147 49.8432 28.9813 49.0615 28.4716C48.7323 28.2363 48.4855 27.805 48.3621 27.3737C48.2386 26.9424 48.1975 26.4718 48.1563 25.9621C48.1563 25.8053 47.8683 25.8053 47.8683 25.9621C47.4157 27.4521 48.4443 30.04 50.4604 29.0205C50.9541 28.746 51.3656 28.2755 51.489 27.7266C51.489 27.7266 51.489 27.7266 51.489 27.6874C51.5301 27.5697 51.1598 27.5697 51.2421 27.6089C51.1187 27.6874 51.3244 27.8834 51.4478 27.7658Z" fill="#302317"/>
<path d="M47.8303 26.1959C47.7891 26.7448 47.748 27.333 47.5834 27.8427C46.884 29.1367 45.5262 28.6661 44.7033 27.7251C44.5799 27.6075 44.3742 27.7643 44.4565 27.8819C45.1148 29.1759 46.9251 29.764 47.9125 28.3917C48.324 27.7251 48.2417 26.8625 48.1183 26.1175C48.0771 25.9998 47.8303 26.039 47.8303 26.1959Z" fill="#302317"/>
<path d="M60.5023 12.9037C60.4612 12.0411 60.3378 11.8843 60.0086 11.0608C59.844 10.6687 59.6795 10.2374 59.3092 9.96295C59.2269 9.88453 59.1034 9.84532 58.98 9.88453C58.8566 9.92374 58.8154 10.0414 58.8154 10.159C58.6509 10.7079 58.5686 11.2961 58.5686 11.8843C58.5274 11.3353 58.3629 10.7864 58.116 10.2766C58.0748 10.159 57.9514 10.0414 57.828 10.0806C57.7457 10.1198 57.7046 10.1982 57.7046 10.2766C57.6223 10.5903 57.5811 10.9432 57.5811 11.2569C57.4988 10.7472 57.252 10.2766 56.964 9.84532C56.8817 9.72768 56.7582 9.64926 56.6348 9.68847C56.5937 9.72768 56.5525 9.76689 56.5525 9.84532C56.4702 10.1198 56.4702 10.3943 56.5114 10.6295C55.7296 10.1982 54.8656 9.80611 54.0016 9.53163C54.413 7.76717 54.8656 6.04191 55.1125 4.23824C55.1948 3.7285 55.2359 3.25798 55.4005 2.78746C55.4416 2.66982 55.5239 2.51298 55.6062 2.47377C55.8119 2.35614 56.0999 2.47377 56.3057 2.5914C57.4165 3.21877 60.5846 6.51244 60.5023 12.9037Z" fill="#E6B0B2"/>
<path d="M32.3607 15.6098C32.443 14.8256 32.4841 13.6885 33.2247 13.5317C33.6362 13.4532 33.9242 14.159 34.2122 14.6688C34.0065 14.159 33.7596 13.1003 34.2945 12.9435C34.5002 12.9043 35.2408 13.6101 35.3642 13.8846C35.1996 13.3748 35.1585 12.8651 35.2819 12.3553C35.3231 12.2377 35.3642 12.0809 35.5288 12.0809C35.5699 12.0809 35.6522 12.1201 35.6934 12.1593C35.8991 12.3553 36.0225 12.5906 36.1048 12.8651C36.5985 12.1201 37.4625 11.6888 38.2031 11.1398C37.0511 9.493 33.7596 5.68959 33.3893 5.37591C33.307 5.29749 33.1836 5.17986 33.019 5.17986C32.7721 5.14065 32.5664 5.37591 32.443 5.57196C31.7435 6.70906 30.7149 10.7477 32.3607 15.6098Z" fill="#E6B0B2"/>
<path d="M58.5693 56.3897C58.2401 59.0561 57.7053 61.7224 56.8001 64.271C56.3475 65.5258 55.7304 66.7805 55.3189 68.0744C54.9075 69.4076 54.7429 70.7799 54.7429 72.1523C54.8252 75.9165 55.1543 80.5433 55.3601 84.3467L55.6069 88.3854C55.6069 88.4638 55.6892 88.503 55.7715 88.503C55.8538 88.503 55.8949 88.4246 55.8949 88.3462L55.7715 84.2683C55.6892 82.2294 55.5658 78.1907 55.4835 76.1518C55.4012 73.4855 55.0721 70.7407 55.8949 68.1921C56.2652 66.8981 56.8824 65.6826 57.335 64.3887C58.2401 61.8008 58.6927 59.0953 58.8984 56.3897C58.8984 56.3113 58.8573 56.2329 58.775 56.2329C58.6516 56.2721 58.6104 56.3113 58.5693 56.3897Z" fill="#493E37"/>
<path d="M47.9136 26.3157C47.3376 26.2373 46.8027 25.6099 46.6793 25.3747C46.6381 25.2963 46.597 25.1786 46.597 25.061C46.6382 24.8649 46.885 24.5513 47.4199 24.8257C47.6667 24.9434 47.8313 24.9826 48.0782 24.9826C48.2428 24.9826 48.3662 24.9042 48.5308 24.8649C48.6953 24.8257 48.9011 24.6689 49.1479 24.8257C49.2302 24.9042 49.3125 25.061 49.3125 25.1786C49.3125 25.6492 48.9011 25.8844 48.6953 26.002C48.5308 26.1197 48.1605 26.3157 47.9136 26.3157Z" fill="#E6B0B2"/>
<path d="M57.499 26.3532C60.9551 26.6277 64.3701 27.1374 67.785 27.8432C71.1999 28.549 74.656 29.4116 77.9064 30.7055C78.071 30.784 77.9887 30.98 77.8241 30.9408C74.5326 29.9605 71.2411 28.9803 67.8673 28.2353C64.4524 27.4903 60.9963 26.9413 57.499 26.6277C57.2933 26.5885 57.2933 26.314 57.499 26.3532Z" fill="#FFFEEF"/>
<path d="M56.8005 28.4326C60.2566 29.2168 63.6715 30.2755 67.0042 31.5694C70.2545 32.8634 73.4637 34.3141 76.385 36.1962C76.5495 36.2746 76.385 36.5099 76.2204 36.4315C73.1346 34.7454 70.0077 33.1378 66.7162 31.8439C63.4658 30.5499 60.1331 29.5305 56.7182 28.7463C56.4713 28.7071 56.5536 28.3934 56.8005 28.4326Z" fill="#FFFEEF"/>
<path d="M22.8542 31.1783C24.0474 30.3941 25.5286 29.9628 26.8863 29.4923C28.3675 28.9826 29.8898 28.5512 31.4122 28.1591C34.3745 27.4141 37.378 26.8652 40.4227 26.5515C40.5049 26.5515 40.5049 26.6691 40.4227 26.6691C37.378 26.9828 34.3745 27.5318 31.4533 28.316C30.0133 28.7081 28.6144 29.1002 27.2155 29.6099C25.7754 30.1197 24.2943 30.6294 22.9777 31.4136C22.8542 31.4528 22.7308 31.2568 22.8542 31.1783Z" fill="#FFFEEF"/>
<path d="M22.5688 35.3718C24.05 34.5092 25.6134 33.8034 27.1769 33.0192C28.6992 32.2742 30.1804 31.5292 31.7027 30.7842C34.5416 29.3727 37.4217 28.0787 40.4664 27.2161C40.5898 27.1769 40.6309 27.3729 40.5075 27.4121C37.4217 28.314 34.5005 29.6863 31.6204 31.0979C30.1393 31.8037 28.6581 32.5487 27.1769 33.2937C25.6546 34.0387 24.1734 34.8229 22.6099 35.4895C22.5276 35.4503 22.5276 35.4111 22.5688 35.3718Z" fill="#FFFEEF"/>
<path d="M57.665 41.8838C57.7884 42.1975 57.9118 42.5112 58.0353 42.8249C58.1587 43.1385 58.2821 43.4522 58.4056 43.7659C58.4467 43.962 58.1998 44.0012 58.1176 43.8443C57.9941 43.5306 57.8707 43.217 57.7884 42.8641C57.665 42.5504 57.5827 42.2367 57.4593 41.8838C57.3358 41.8054 57.5827 41.7662 57.665 41.8838Z" fill="#5E4838"/>
<path d="M56.8388 43.3314C57.0034 43.6843 57.168 44.0372 57.3326 44.3901C57.4149 44.5469 57.4971 44.743 57.5794 44.8998C57.6617 45.0959 57.744 45.2919 57.7852 45.488C57.7852 45.5664 57.7029 45.684 57.6206 45.684C57.4971 45.7232 57.4149 45.6448 57.3737 45.5664C57.2503 45.4095 57.168 45.2135 57.1269 45.0174C57.0446 44.8606 57.0034 44.6645 56.9211 44.5077C56.7977 44.1548 56.6743 43.8019 56.5508 43.449C56.4274 43.2922 56.7566 43.1745 56.8388 43.3314Z" fill="#5E4838"/>
<path d="M56.2654 44.9793C56.3888 44.9009 56.5534 44.9401 56.6357 45.0577C56.8003 45.293 56.8826 45.6066 56.9237 45.8811C56.9648 46.038 56.9648 46.1948 56.9648 46.3516C56.9648 46.4301 56.9648 46.5085 56.9237 46.5869C56.8826 46.6653 56.8826 46.7437 56.8414 46.8222C56.8003 46.9006 56.6768 46.9398 56.5945 46.9006C56.5123 46.8614 56.43 46.783 56.43 46.7045C56.43 46.6653 56.43 46.6261 56.43 46.5869C56.43 46.5477 56.43 46.5477 56.43 46.5869V46.5477C56.43 46.4693 56.43 46.3908 56.43 46.3124C56.43 46.234 56.43 46.1948 56.43 46.1164C56.43 46.0772 56.43 46.0772 56.43 46.038V45.9987C56.43 46.038 56.43 46.038 56.43 45.9987C56.43 45.8811 56.3888 45.7635 56.3477 45.6459C56.3477 45.6066 56.3065 45.5282 56.2654 45.489C56.2654 45.489 56.2654 45.4498 56.2243 45.4498C56.2243 45.4106 56.1831 45.3714 56.1831 45.3714C56.1008 45.2145 56.142 45.0577 56.2654 44.9793Z" fill="#5E4838"/>
<path d="M33.2237 36.2759C33.306 36.2759 33.3883 36.3543 33.3883 36.4327L33.5117 37.5698C33.5117 37.6482 33.5117 37.6874 33.5117 37.7659C33.5117 37.8443 33.5117 37.8835 33.4706 37.9619C33.4294 38.0403 33.306 38.0796 33.2237 38.0011C33.1826 37.9227 33.1414 37.8835 33.1414 37.8051C33.1414 37.7267 33.1414 37.6875 33.1414 37.609C33.1414 37.4914 33.1003 37.3346 33.1003 37.2169C33.0591 36.9425 33.0591 36.7072 33.018 36.4327C33.0591 36.3543 33.1414 36.2759 33.2237 36.2759Z" fill="#5E4838"/>
<path d="M34.5414 37.2552C34.5414 37.0591 34.8294 37.0591 34.8294 37.2552C34.8294 37.8433 34.8705 38.4315 34.8294 39.0197C34.8294 39.2157 34.5002 39.2157 34.5002 39.0197C34.5002 38.4707 34.5002 37.8433 34.5414 37.2552Z" fill="#5E4838"/>
<path d="M64.5363 82.7381C64.5363 82.3852 64.6186 82.0323 64.7009 81.6794C64.7421 81.5225 64.9478 81.4049 65.1124 81.4441C65.2769 81.4833 65.4004 81.6794 65.3592 81.8362C65.2769 82.1499 65.2358 82.4244 65.2358 82.7381C65.2358 82.8949 65.2358 83.0517 65.2358 83.2086C65.2358 83.3654 65.1946 83.5615 65.1535 83.7183C65.1535 83.7967 65.0301 83.8752 64.9066 83.8752C64.7832 83.8752 64.7009 83.7967 64.6598 83.7183C64.6186 83.6399 64.5775 83.5615 64.5775 83.4831C64.5363 83.4046 64.5363 83.287 64.5363 83.1694C64.4952 83.091 64.4952 82.9341 64.5363 82.7381Z" fill="#5E4838"/>
<path d="M63.5469 82.7397C63.5469 82.6221 63.588 82.5045 63.588 82.3868C63.6292 82.1516 63.6703 81.9163 63.6703 81.6811C63.6703 81.5634 63.7526 81.4458 63.9172 81.4458C64.0406 81.4458 64.1641 81.5242 64.1641 81.6811L64.1229 82.4261C64.1229 82.5437 64.1229 82.6613 64.0818 82.7789C64.0818 82.8574 64.0818 82.8966 64.0818 82.975C64.0818 83.0142 64.0818 83.0534 64.0818 83.0926C64.0818 83.1711 64.0406 83.2103 63.9995 83.2495C63.8761 83.3671 63.7115 83.3279 63.6292 83.2103C63.4646 83.0142 63.5058 82.8966 63.5469 82.7397Z" fill="#5E4838"/>
<path d="M64.3721 80.3084C64.4132 80.0339 64.4544 79.7986 64.4955 79.5242C64.5367 79.3673 64.7013 79.2889 64.8658 79.3281C65.0304 79.3673 65.1127 79.5242 65.0715 79.681C64.9481 80.1907 64.8658 80.7397 64.6601 81.2102C64.619 81.2886 64.4955 81.3278 64.4544 81.2886C64.3721 81.2494 64.331 81.171 64.2898 81.0926C64.2487 80.8573 64.2898 80.5828 64.3721 80.3084Z" fill="#5E4838"/>
<path d="M35.6487 60.6633C35.6898 60.4673 36.0601 60.5065 36.0601 60.7025C36.019 61.0946 36.019 61.4475 36.1424 61.8004C36.2247 62.1533 36.4304 62.5062 36.5539 62.8591C36.6361 63.0159 36.3893 63.1336 36.2659 63.0159C35.9367 62.7023 35.7721 62.3101 35.6898 61.8788C35.5664 61.4867 35.5664 61.0554 35.6487 60.6633Z" fill="#5E4838"/>
<path d="M34.1297 60.1542C34.1297 60.0366 34.212 59.9189 34.3765 59.9189C34.5 59.9189 34.6234 60.0366 34.6234 60.1542C34.6234 60.5071 34.6234 60.8992 34.7057 61.2521C34.7468 61.4482 34.788 61.605 34.8291 61.801C34.8291 61.8795 34.8703 61.9971 34.9114 62.0755C34.9525 62.1931 34.9114 62.3108 34.9114 62.4284C34.8703 62.5853 34.6234 62.6245 34.5 62.546C34.4177 62.4676 34.3354 62.3892 34.2942 62.2716C34.2531 62.1931 34.2531 62.0755 34.212 61.9971C34.1708 61.801 34.1297 61.5658 34.1297 61.3697C34.0885 60.9384 34.0885 60.5463 34.1297 60.1542Z" fill="#5E4838"/>
<path d="M15.9843 29.3735C16.0666 29.3343 16.1489 29.2951 16.2311 29.2167C16.3134 29.1774 16.3957 29.1382 16.478 29.099C16.5603 29.0598 16.6426 28.9814 16.7249 28.9422L16.766 28.903C16.8072 28.8638 16.8483 28.8638 16.8894 28.8245C16.9717 28.7461 17.0129 28.7069 17.0952 28.6285C17.1363 28.5893 17.1774 28.5501 17.1774 28.5109C17.1774 28.5109 17.1774 28.4717 17.2186 28.4717L17.2597 28.4324C17.3832 28.2756 17.4655 28.1188 17.5477 27.9227C17.63 27.7659 17.8357 27.7267 17.9592 27.8051C18.1238 27.8835 18.1238 28.0403 18.0826 28.1972C17.918 28.5893 17.63 28.9422 17.3009 29.2167C17.1363 29.3735 16.9306 29.4911 16.7249 29.5695C16.6014 29.6088 16.5191 29.6872 16.3957 29.6872C16.2723 29.7264 16.1489 29.7264 16.0254 29.7264C15.902 29.8048 15.8197 29.4911 15.9843 29.3735Z" fill="#5E4838"/>
<path d="M16.1867 30.8259C16.2278 30.8259 16.3101 30.7867 16.3513 30.7867C16.3513 30.7867 16.4336 30.7475 16.3924 30.7867C16.4336 30.7867 16.4747 30.7475 16.5158 30.7475C16.6393 30.7083 16.7216 30.6691 16.845 30.6299C16.845 30.6299 16.845 30.6299 16.8861 30.6299C16.9273 30.6299 16.9273 30.5907 16.9684 30.5907C17.0096 30.5515 17.0507 30.5515 17.0919 30.5123C17.133 30.473 17.1741 30.4731 17.2564 30.4338L17.2976 30.3946C17.2976 30.3946 17.2976 30.3946 17.3387 30.3554C17.421 30.277 17.5033 30.2378 17.5856 30.1594C17.6267 30.1202 17.6679 30.0809 17.709 30.0417L17.7502 30.0025L17.7913 29.9633C17.8736 29.8849 17.9147 29.8065 17.9559 29.6888C17.997 29.6496 17.997 29.6104 18.0382 29.532V29.4928C18.0382 29.4536 18.0382 29.4536 18.0793 29.4144C18.1205 29.2575 18.285 29.1399 18.4907 29.2183C18.6553 29.2575 18.7788 29.4536 18.6965 29.6104C18.5319 30.0809 18.2439 30.5123 17.8324 30.8652C17.6267 31.022 17.421 31.1788 17.1741 31.2573C16.8861 31.3749 16.6393 31.4141 16.3513 31.4141C16.2278 31.4141 16.1044 31.3357 16.0633 31.1788C15.981 30.9828 16.0633 30.8652 16.1867 30.8259Z" fill="#5E4838"/>
<path d="M9.90064 43.8819C10.0241 43.7643 10.2298 43.7643 10.3532 43.8819C10.4767 44.0388 10.6412 44.1564 10.7647 44.3132C10.8469 44.3917 10.8881 44.4701 10.9704 44.5093C11.0115 44.5485 11.0527 44.5877 11.0527 44.6269C11.0527 44.6269 11.0527 44.6661 11.0938 44.7053C11.135 44.7446 11.135 44.7838 11.1761 44.8622C11.2172 44.9406 11.2172 45.0582 11.135 45.1367C11.0527 45.2151 10.9704 45.2151 10.8469 45.1759C10.8058 45.1367 10.7647 45.1367 10.7235 45.0974C10.6412 45.0582 10.6001 45.019 10.5589 44.9798L10.3532 44.7838C10.1886 44.6269 10.0652 44.5093 9.90064 44.3524C9.77721 44.1956 9.73607 43.9996 9.90064 43.8819Z" fill="#5E4838"/>
<path d="M9.76771 44.8628C9.84999 44.9804 9.89114 45.098 9.97343 45.2157C10.0557 45.3333 10.1791 45.4509 10.3026 45.5294C10.3437 45.5686 10.426 45.6078 10.4672 45.6862C10.5083 45.7254 10.5083 45.7254 10.5494 45.7646L10.5906 45.8038L10.6317 45.843L10.6729 45.8823C10.714 45.9215 10.7552 45.9607 10.7963 45.9999C10.8786 46.0783 10.9197 46.1175 11.002 46.1959C11.0843 46.2744 11.0432 46.4312 10.9609 46.5096C10.8786 46.588 10.7552 46.6273 10.6729 46.588C10.5906 46.5488 10.4672 46.5096 10.3849 46.4704C10.3026 46.4312 10.2203 46.3528 10.1791 46.2744C10.0557 46.1567 9.93228 45.9999 9.84999 45.843C9.68542 45.5686 9.56199 45.2549 9.4797 44.9804C9.4797 44.8236 9.72656 44.7452 9.76771 44.8628Z" fill="#5E4838"/>
<path d="M8.21034 45.804C8.33377 45.7256 8.49834 45.7648 8.58063 45.8824C8.70406 46.0392 8.8275 46.1961 8.95093 46.3529C8.99207 46.4313 9.07436 46.5098 9.1155 46.5882C9.19779 46.6666 9.23894 46.745 9.28008 46.8627C9.32123 46.9803 9.32122 47.0979 9.19779 47.1763C9.1155 47.2548 8.95093 47.2548 8.86864 47.1763C8.78636 47.0979 8.70407 47.0195 8.62178 46.9019C8.58063 46.8235 8.49835 46.745 8.4572 46.6666C8.33377 46.5098 8.21034 46.3529 8.08691 46.1569C8.04576 46.0785 8.08691 45.8824 8.21034 45.804Z" fill="#5E4838"/>
<path d="M8.41376 76.7018C8.41376 76.6626 8.45491 76.6234 8.45491 76.5842C8.49605 76.545 8.53719 76.545 8.57833 76.5058C8.61948 76.4665 8.70177 76.4273 8.74291 76.3881C8.86634 76.3097 8.94863 76.2313 9.07206 76.1529C9.27778 75.9568 9.4835 75.7608 9.68922 75.5255C9.73037 75.4471 9.8538 75.4863 9.89494 75.5255C9.93609 75.5647 9.97723 75.6823 9.93608 75.7216C9.73036 75.9568 9.52464 76.1921 9.31892 76.3881C9.19549 76.5058 9.07206 76.5842 8.94863 76.6626C8.90749 76.7018 8.8252 76.741 8.78405 76.7802C8.74291 76.8194 8.70177 76.8194 8.66063 76.8586C8.61948 76.8586 8.57834 76.8586 8.53719 76.8586C8.41376 76.8586 8.37262 76.7802 8.41376 76.7018Z" fill="#5E4838"/>
<path d="M6.85158 74.7793C7.67445 74.1127 8.49733 73.4462 9.23792 72.662C9.36135 72.5443 9.60821 72.5443 9.73165 72.662C9.85508 72.7796 9.85508 72.9756 9.73165 73.1325C8.99106 73.9167 8.16818 74.6617 7.26301 75.289C6.93386 75.4459 6.56357 74.9754 6.85158 74.7793Z" fill="#5E4838"/>
<path d="M5.32523 73.2095C5.36637 73.1703 5.44866 73.1311 5.4898 73.0919C5.57209 73.0527 5.65438 73.0135 5.77781 72.9743H5.81895C5.8601 72.9743 5.90124 72.9351 5.90124 72.9351C5.98353 72.8959 6.02467 72.8567 6.10696 72.8174C6.18925 72.7782 6.23039 72.739 6.31268 72.6998C6.31268 72.6998 6.43611 72.6214 6.47726 72.5822C6.47726 72.5822 6.43611 72.6214 6.47726 72.5822L6.5184 72.543C6.55954 72.5038 6.55955 72.5038 6.60069 72.4645C6.64184 72.4253 6.72412 72.3469 6.76526 72.3077C6.8887 72.1901 7.13556 72.1901 7.25899 72.3077C7.38242 72.4253 7.38242 72.6606 7.25899 72.7782C7.01213 73.0135 6.76527 73.2095 6.47726 73.3664C6.31268 73.4448 6.14811 73.5232 5.98353 73.5624C5.90125 73.6016 5.81896 73.6409 5.73667 73.6409C5.65438 73.6409 5.57209 73.6409 5.44866 73.6409C5.2018 73.7193 5.07837 73.3664 5.32523 73.2095Z" fill="#5E4838"/>
<path d="M4.12795 71.4081C4.21023 71.3689 4.25137 71.3689 4.29252 71.3296C4.33366 71.3296 4.33366 71.3296 4.3748 71.2904H4.41595H4.45709H4.49824C4.53938 71.2904 4.53938 71.2512 4.58052 71.2512C4.62167 71.212 4.66282 71.212 4.7451 71.1728C4.78625 71.1336 4.82739 71.1336 4.86853 71.0944C4.86853 71.0944 4.82739 71.1336 4.86853 71.0944C4.86853 71.0944 4.86853 71.0944 4.90968 71.0552C4.95082 71.0552 4.95082 71.016 4.95082 71.016C4.99197 70.9767 5.0331 70.9375 5.07425 70.8983L5.11539 70.8591C5.11539 70.8591 5.19768 70.7807 5.11539 70.8199C5.15654 70.7415 5.19768 70.7023 5.27997 70.7023C5.36226 70.6631 5.48569 70.7023 5.56798 70.7415C5.65027 70.7807 5.69141 70.8591 5.69141 70.9375C5.69141 71.0552 5.65026 71.0944 5.60912 71.1728C5.44454 71.3689 5.23883 71.5257 5.03311 71.6433C4.90968 71.7217 4.78624 71.761 4.66281 71.8002C4.62167 71.8394 4.53938 71.8394 4.49824 71.8394C4.41595 71.8394 4.33366 71.8786 4.25137 71.8786C4.12794 71.8786 4.00451 71.761 3.96337 71.6433C3.88108 71.5649 3.96337 71.4865 4.12795 71.4081Z" fill="#5E4838"/>
<path d="M16.8086 75.0952C16.932 74.6639 17.0966 74.2326 17.2612 73.8013C17.3023 73.6444 17.4669 73.566 17.6315 73.6052C17.796 73.6444 17.8783 73.8013 17.8372 73.9581C17.6726 74.3894 17.5492 74.8207 17.4257 75.252C17.3023 75.6834 17.2612 76.1539 17.0966 76.546C16.9732 76.8205 16.6029 76.7812 16.6029 76.4676C16.5206 75.997 16.6851 75.5265 16.8086 75.0952Z" fill="#5E4838"/>
<path d="M18.1241 75.644C18.1652 75.3303 18.2475 75.0166 18.3298 74.7421C18.371 74.5853 18.5767 74.4677 18.7413 74.5069C18.9058 74.5461 19.0293 74.7421 18.9881 74.899C18.947 75.0558 18.9058 75.2127 18.8647 75.3695C18.8647 75.4479 18.8235 75.4871 18.8235 75.5656C18.8235 75.6048 18.8235 75.644 18.7824 75.6832C18.7824 75.6832 18.7824 75.6832 18.7824 75.7224C18.7824 75.7224 18.7824 75.7224 18.7824 75.7616C18.7824 75.9184 18.7413 76.0361 18.7413 76.1929C18.7413 76.2713 18.7413 76.3498 18.7001 76.4282C18.7001 76.5066 18.659 76.6242 18.6178 76.7026C18.5355 76.9771 18.1241 76.9379 18.0418 76.7026C18.0007 76.5458 17.9595 76.389 17.9595 76.1929C18.083 75.9969 18.083 75.8008 18.1241 75.644Z" fill="#5E4838"/>
<path d="M18.2069 73.4072C18.2069 73.3288 18.2481 73.2504 18.2481 73.172C18.2892 73.0543 18.3304 72.9367 18.3715 72.7799C18.4538 72.5054 18.5772 72.2701 18.6595 71.9957C18.7007 71.8388 18.8652 71.7212 19.0298 71.7996C19.1944 71.8388 19.3178 71.9957 19.2355 72.1525C19.1532 72.427 19.0298 72.6622 18.9475 72.9367C18.9064 73.0543 18.8652 73.172 18.7829 73.3288C18.7418 73.4072 18.7418 73.4857 18.6595 73.5641C18.6184 73.6033 18.5772 73.6817 18.5361 73.7209C18.4949 73.7993 18.3715 73.8386 18.2892 73.8386C18.2069 73.7993 18.1246 73.7209 18.1246 73.6425C18.2069 73.5249 18.2069 73.4465 18.2069 73.4072Z" fill="#5E4838"/>
</svg>
