<svg width="20" height="20" viewBox="0 0 20 20" fill="none" xmlns="http://www.w3.org/2000/svg">
<path fill-rule="evenodd" clip-rule="evenodd" d="M10 20C15.5228 20 20 15.5228 20 10C20 4.47715 15.5228 0 10 0C4.47715 0 0 4.47715 0 10C0 15.5228 4.47715 20 10 20ZM8.93934 15.0607C9.22064 15.342 9.60218 15.5 10 15.5C10.3978 15.5 10.7794 15.342 11.0607 15.0607L16.0607 10.0607C16.6464 9.47487 16.6464 8.52513 16.0607 7.93934C15.4749 7.35355 14.5251 7.35355 13.9393 7.93934L10 11.8787L6.06066 7.93934C5.47487 7.35355 4.52513 7.35355 3.93934 7.93934C3.35355 8.52513 3.35355 9.47487 3.93934 10.0607L8.93934 15.0607Z" fill="#7C8C38"/>
</svg>
