<svg width="30" height="14" viewBox="0 0 30 14" fill="none" xmlns="http://www.w3.org/2000/svg">
<path d="M15.0647 4.42458L14.7632 4.19656L14.4616 4.42458L4.19948 12.1842C3.34639 12.8292 1.92641 12.8292 1.07332 12.1842C0.663363 11.8742 0.498129 11.5038 0.498129 11.1731C0.498129 10.8424 0.663363 10.472 1.07332 10.162L13.2133 0.982449C14.0664 0.337393 15.4864 0.337393 16.3395 0.982449L28.4795 10.162C28.8895 10.472 29.0547 10.8424 29.0547 11.1731C29.0547 11.5031 28.8901 11.8727 28.482 12.1823C28.066 12.4877 27.4942 12.6583 26.9014 12.6605C26.3074 12.6627 25.739 12.4958 25.3269 12.1842L15.0647 4.42458Z" fill="#4C4C4C" stroke="black"/>
</svg>
