<svg width="20" height="20" viewBox="0 0 20 20" fill="none" xmlns="http://www.w3.org/2000/svg">
<path fill-rule="evenodd" clip-rule="evenodd" d="M10 20C15.5228 20 20 15.5228 20 10C20 4.47715 15.5228 0 10 0C4.47715 0 0 4.47715 0 10C0 15.5228 4.47715 20 10 20ZM16.0607 10.9393L11.0607 5.93934C10.4749 5.35355 9.52513 5.35355 8.93934 5.93934L3.93934 10.9393C3.35355 11.5251 3.35355 12.4749 3.93934 13.0607C4.52513 13.6464 5.47487 13.6464 6.06066 13.0607L10 9.12132L13.9393 13.0607C14.5251 13.6464 15.4749 13.6464 16.0607 13.0607C16.6464 12.4749 16.6464 11.5251 16.0607 10.9393Z" fill="#7C8C38"/>
</svg>
