<svg width="154" height="48" viewBox="0 0 154 48" fill="none" xmlns="http://www.w3.org/2000/svg">
<path d="M62.5711 34V13H66.5911L78.9811 28.12H77.0311V13H81.8311V34H77.8411L65.4211 18.88H67.3711V34H62.5711ZM88.2396 34.24C87.4396 34.24 86.7496 33.97 86.1696 33.43C85.6096 32.87 85.3296 32.16 85.3296 31.3C85.3296 30.44 85.6096 29.75 86.1696 29.23C86.7496 28.69 87.4396 28.42 88.2396 28.42C89.0596 28.42 89.7496 28.69 90.3096 29.23C90.8696 29.75 91.1496 30.44 91.1496 31.3C91.1496 32.16 90.8696 32.87 90.3096 33.43C89.7496 33.97 89.0596 34.24 88.2396 34.24ZM92.8579 34L102.218 13H107.018L116.408 34H111.308L103.628 15.46H105.548L97.8379 34H92.8579ZM97.5379 29.5L98.8279 25.81H109.628L110.948 29.5H97.5379ZM120.993 34.24C120.193 34.24 119.503 33.97 118.923 33.43C118.363 32.87 118.083 32.16 118.083 31.3C118.083 30.44 118.363 29.75 118.923 29.23C119.503 28.69 120.193 28.42 120.993 28.42C121.813 28.42 122.503 28.69 123.063 29.23C123.623 29.75 123.903 30.44 123.903 31.3C123.903 32.16 123.623 32.87 123.063 33.43C122.503 33.97 121.813 34.24 120.993 34.24ZM127.405 34V13H136.495C138.375 13 139.995 13.31 141.355 13.93C142.715 14.53 143.765 15.4 144.505 16.54C145.245 17.68 145.615 19.04 145.615 20.62C145.615 22.18 145.245 23.53 144.505 24.67C143.765 25.81 142.715 26.69 141.355 27.31C139.995 27.91 138.375 28.21 136.495 28.21H130.105L132.265 26.02V34H127.405ZM132.265 26.56L130.105 24.25H136.225C137.725 24.25 138.845 23.93 139.585 23.29C140.325 22.65 140.695 21.76 140.695 20.62C140.695 19.46 140.325 18.56 139.585 17.92C138.845 17.28 137.725 16.96 136.225 16.96H130.105L132.265 14.65V26.56ZM149.997 34.24C149.197 34.24 148.507 33.97 147.927 33.43C147.367 32.87 147.087 32.16 147.087 31.3C147.087 30.44 147.367 29.75 147.927 29.23C148.507 28.69 149.197 28.42 149.997 28.42C150.817 28.42 151.507 28.69 152.067 29.23C152.627 29.75 152.907 30.44 152.907 31.3C152.907 32.16 152.627 32.87 152.067 33.43C151.507 33.97 150.817 34.24 149.997 34.24Z" fill="#7C8C38"/>
<g clip-path="url(#clip0_795_38944)">
<path fill-rule="evenodd" clip-rule="evenodd" d="M0.00669897 23.6488C0.280749 11.7773 8.9192 -0.0644959 25.0226 -0.000227862H25.0663L25.11 0.00306794C25.1537 0.00636373 25.1957 0.00965953 25.2394 0.0129553C27.5764 0.185985 29.794 0.350775 31.6334 1.25053C33.4794 2.15358 34.8177 3.71578 35.7929 6.27662C38.4863 6.93413 40.0196 6.8369 41.099 6.76934C41.1427 6.76604 41.1864 6.7644 41.2285 6.7611H41.2638C41.827 6.7232 42.5214 6.68035 43.1989 6.90941C43.9505 7.16319 44.5188 7.67898 45.0534 8.38428C45.6351 9.15055 45.9848 10.0009 46 10.9171C46.0151 11.8317 45.6923 12.682 45.1593 13.4466C44.2481 14.7584 42.6307 15.9498 40.5324 17.0654C43.51 22.1591 44.9122 26.5623 45.1291 30.3491C45.3829 34.7836 44.0009 38.3019 41.7514 40.983C39.522 43.6394 36.4839 45.4241 33.4677 46.5249C30.4548 47.624 27.3814 48.0706 24.9856 47.9899C16.4968 47.7987 10.1549 44.732 5.97527 40.1442C1.80904 35.573 -0.129485 29.5779 0.00669897 23.6488ZM39.253 14.9841C41.2823 13.9179 42.5332 12.9308 43.1334 12.069C43.4461 11.6191 43.547 11.2533 43.5419 10.9534C43.5369 10.6551 43.4276 10.2893 43.0863 9.84102C42.6996 9.33017 42.4995 9.23954 42.4054 9.20823C42.2524 9.15715 42.0405 9.14396 41.3815 9.18516C41.3479 9.18681 41.3125 9.1901 41.2772 9.19175C39.9793 9.2725 37.997 9.39609 34.5286 8.46173L33.8947 8.29035L33.6862 7.67404C32.8338 5.14451 31.7763 4.03218 30.5422 3.4274C29.1955 2.76824 27.4789 2.61499 24.9704 2.43042C10.4357 2.39252 2.71189 12.9572 2.46474 23.7048C2.34032 29.0885 4.10399 34.4606 7.80114 38.5194C11.4832 42.5601 17.1609 45.3862 25.0461 45.5609H25.0612C27.1191 45.6317 29.8798 45.2428 32.6153 44.2459C35.349 43.2489 37.9786 41.6735 39.8582 39.4323C41.7177 37.2159 42.8913 34.2991 42.6744 30.4859C42.4592 26.7073 40.872 21.9794 37.0942 16.1558C36.9597 16.6403 36.8605 17.217 36.7932 17.7394C36.7579 18.0212 36.7327 18.275 36.7159 18.4744C36.7075 18.5732 36.7025 18.6573 36.6991 18.7215C36.6974 18.7545 36.6957 18.7792 36.6957 18.8006V20.6743L34.9859 19.9492H34.9842C34.9842 19.9492 34.9724 19.9426 34.9606 19.9393C34.9371 19.9295 34.8984 19.9146 34.8463 19.8965C34.7404 19.857 34.579 19.8009 34.3688 19.7383C33.9468 19.6114 33.3382 19.4549 32.6052 19.3527C31.1307 19.1451 29.2258 19.1549 27.3478 19.9509L25.8733 20.5754L25.6463 19.0066C25.4967 17.9718 25.3302 17.1758 25.1554 16.6056C25.1453 16.5727 25.1352 16.543 25.1268 16.5134C25.0545 16.6353 24.9755 16.7803 24.8914 16.9501C24.6829 17.3637 24.3433 17.9273 23.9684 18.5535L23.9297 18.6161C23.5514 19.2456 23.1143 19.974 22.6587 20.7814C21.7121 22.4557 20.7067 24.4332 20.0275 26.4617C19.3449 28.5018 19.0271 30.4925 19.3499 32.2294C19.6609 33.9086 20.5806 35.4378 22.5813 36.6243C23.1631 36.9687 23.3514 37.7152 23.0033 38.292C22.6536 38.8671 21.8987 39.0533 21.317 38.7089C18.7093 37.1615 17.3693 35.0325 16.9322 32.6677C16.5052 30.3623 16.949 27.9251 17.6938 25.6988C18.4437 23.4593 19.5348 21.3285 20.5134 19.5982C20.9858 18.7611 21.4381 18.0097 21.8147 17.3835L21.8567 17.3142C22.2518 16.6551 22.5359 16.1805 22.6957 15.8641C23.079 15.1077 23.5161 14.4222 24.0491 14.0053C24.3332 13.7828 24.7317 13.5719 25.221 13.5587C25.7354 13.5455 26.1591 13.7564 26.4651 14.0217C26.9964 14.4832 27.3024 15.2214 27.5109 15.9003C27.6302 16.2893 27.7395 16.7309 27.837 17.2203C29.7453 16.7078 31.556 16.754 32.9549 16.9517C33.4912 17.0275 33.9737 17.1264 34.3856 17.2269C34.4714 16.6139 34.5992 15.9234 34.7841 15.3203C34.89 14.9726 35.0296 14.6051 35.2162 14.2788C35.3894 13.9756 35.687 13.5636 36.1779 13.328C36.7663 13.0462 37.3867 13.1302 37.8894 13.4269C38.3249 13.6839 38.6712 14.0943 38.9571 14.5276C39.0579 14.6842 39.1571 14.8358 39.2563 14.9891L39.253 14.9841ZM37.3951 15.4027C37.3951 15.4027 37.3935 15.406 37.3901 15.4093C37.3935 15.4043 37.3951 15.4027 37.3951 15.4027Z" fill="#7C8C38"/>
<path d="M25.3875 1.4585C26.0633 4.19236 25.3875 9.66009 23.9735 11.7249C22.5595 13.7897 18.4421 12.9394 15.3082 11.3607C12.1742 9.78204 13.2183 5.89299 13.8942 3.15913" fill="#7C8C38"/>
<path d="M30.7591 8.68617C31.3694 8.68617 31.8654 7.87046 31.8654 6.86359C31.8654 5.85673 31.3694 5.04102 30.7591 5.04102C30.1488 5.04102 29.6528 5.85673 29.6528 6.86359C29.6528 7.87046 30.1488 8.68617 30.7591 8.68617Z" fill="#7C8C38"/>
<path d="M26.3693 26.7289C26.9797 26.7289 27.4756 25.9132 27.4756 24.9063C27.4756 23.8994 26.9797 23.0837 26.3693 23.0837C25.759 23.0837 25.2631 23.8994 25.2631 24.9063C25.2631 25.9132 25.759 26.7289 26.3693 26.7289Z" fill="#7C8C38"/>
<path d="M35.5877 26.7289C36.198 26.7289 36.694 25.9132 36.694 24.9063C36.694 23.8994 36.198 23.0837 35.5877 23.0837C34.9774 23.0837 34.4814 23.8994 34.4814 24.9063C34.4814 25.9132 34.9774 26.7289 35.5877 26.7289Z" fill="#7C8C38"/>
<path d="M44.4599 12.1582C45.0736 11.354 44.581 9.96652 43.3603 9.05688C42.1414 8.14888 40.6551 8.06319 40.0415 8.86737C39.4278 9.67154 39.9204 11.0591 41.141 11.9687C42.36 12.8767 43.8462 12.9624 44.4599 12.1582V12.1582Z" fill="#7C8C38"/>
<path d="M29.5049 28.1263C30.3035 28.0044 31.5325 27.8231 32.8843 28.1263C34.236 28.4295 33.5602 28.7954 33.192 29.1596C32.701 29.7067 31.9629 30.2521 31.5325 30.557C31.1021 30.8602 31.0416 30.7399 30.7944 30.557C30.364 30.2538 29.6259 29.7067 29.135 29.1596C28.6441 28.6125 29.0123 28.2483 29.4427 28.1263H29.5049V28.1263Z" fill="#7C8C38"/>
<path d="M31 32C30.4472 32 30 31.6306 30 31.176V29.824C30 29.3685 30.4483 29 31 29C31.5517 29 32 29.3694 32 29.824V31.176C32 31.6315 31.5517 32 31 32Z" fill="#7C8C38"/>
</g>
<defs>
<clipPath id="clip0_795_38944">
<rect width="46" height="48" fill="white"/>
</clipPath>
</defs>
</svg>
