<svg width="40" height="41" viewBox="0 0 40 41" fill="none" xmlns="http://www.w3.org/2000/svg">
<g clip-path="url(#clip0_795_38956)">
<path fill-rule="evenodd" clip-rule="evenodd" d="M0.00582519 20.1999C0.244129 10.0597 7.75583 -0.0551615 21.7587 -0.00026584H21.7968L21.8348 0.00254932C21.8728 0.00536448 21.9093 0.00817964 21.9473 0.0109948C23.9795 0.158791 25.9079 0.299549 27.5073 1.06809C29.1125 1.83944 30.2763 3.17383 31.1242 5.36121C33.4664 5.92283 34.7997 5.83978 35.7383 5.78207C35.7763 5.77926 35.8143 5.77785 35.8509 5.77503H35.8816C36.3713 5.74266 36.9751 5.70606 37.5643 5.90172C38.2178 6.11848 38.712 6.55906 39.1769 7.1615C39.6827 7.81603 39.9868 8.54234 40 9.32495C40.0131 10.1062 39.7324 10.8325 39.269 11.4856C38.4766 12.606 37.0702 13.6237 35.2456 14.5766C37.8348 18.9275 39.0541 22.6885 39.2427 25.9231C39.4634 29.7109 38.2617 32.7161 36.3055 35.0063C34.3669 37.2753 31.7251 38.7997 29.1023 39.7399C26.4824 40.6788 23.8099 41.0603 21.7266 40.9913C14.345 40.828 8.83039 38.2085 5.19588 34.2898C1.57308 30.3852 -0.112596 25.2644 0.00582519 20.1999ZM34.133 12.7989C35.8976 11.8882 36.9854 11.045 37.5073 10.3089C37.7792 9.92458 37.8669 9.6121 37.8626 9.35592C37.8582 9.10115 37.7631 8.78866 37.4663 8.4058C37.1301 7.96945 36.9561 7.89204 36.8742 7.86529C36.7412 7.82166 36.557 7.8104 35.9839 7.84559C35.9547 7.84699 35.924 7.84981 35.8933 7.85122C34.7646 7.92019 33.0409 8.02576 30.0248 7.22766L29.4737 7.08127L29.2924 6.55483C28.5511 4.3942 27.6316 3.44408 26.5585 2.9275C25.3874 2.36447 23.8947 2.23356 21.7134 2.07591C9.07454 2.04354 2.35816 11.0675 2.14325 20.2478C2.03506 24.8463 3.56869 29.435 6.7836 32.9019C9.98536 36.3533 14.9225 38.7673 21.7792 38.9165H21.7924C23.5818 38.977 25.9824 38.6448 28.3611 37.7933C30.7383 36.9417 33.0248 35.596 34.6593 33.6817C36.2763 31.7885 37.2968 29.2971 37.1082 26.04C36.921 22.8124 35.5409 18.774 32.2558 13.7996C32.1389 14.2135 32.0526 14.7061 31.9941 15.1523C31.9634 15.393 31.9415 15.6098 31.9269 15.7801C31.9196 15.8646 31.9152 15.9364 31.9123 15.9913C31.9108 16.0194 31.9093 16.0405 31.9093 16.0588V17.6592L30.4225 17.0399H30.421C30.421 17.0399 30.4108 17.0343 30.4006 17.0315C30.3801 17.023 30.3465 17.0103 30.3011 16.9949C30.209 16.9611 30.0687 16.9132 29.8859 16.8597C29.519 16.7513 28.9897 16.6176 28.3523 16.5304C27.0702 16.353 25.4137 16.3614 23.7807 17.0413L22.4985 17.5748L22.3011 16.2348C22.171 15.3508 22.0263 14.6709 21.8742 14.1839C21.8655 14.1558 21.8567 14.1304 21.8494 14.1051C21.7865 14.2093 21.7178 14.3331 21.6447 14.4781C21.4634 14.8314 21.1681 15.3128 20.8421 15.8477L20.8085 15.9012C20.4795 16.4389 20.0994 17.061 19.7032 17.7507C18.8801 19.1808 18.0058 20.8699 17.4152 22.6027C16.8216 24.3452 16.5453 26.0456 16.826 27.5292C17.0965 28.9635 17.8962 30.2697 19.6359 31.2832C20.1418 31.5774 20.3055 32.215 20.0029 32.7077C19.6988 33.1989 19.0424 33.358 18.5365 33.0638C16.269 31.7421 15.1038 29.9235 14.7237 27.9036C14.3523 25.9344 14.7383 23.8526 15.3859 21.9509C16.038 20.038 16.9868 18.218 17.8377 16.7401C18.2485 16.025 18.6418 15.3832 18.9693 14.8483L19.0058 14.7892C19.3494 14.2261 19.5965 13.8208 19.7354 13.5505C20.0687 12.9044 20.4488 12.3189 20.9123 11.9628C21.1593 11.7727 21.5058 11.5926 21.9313 11.5813C22.3786 11.57 22.7471 11.7502 23.0131 11.9768C23.4751 12.371 23.7412 13.0016 23.9225 13.5815C24.0263 13.9137 24.1213 14.2909 24.2061 14.7089C25.8655 14.2712 27.44 14.3106 28.6564 14.4795C29.1228 14.5443 29.5424 14.6287 29.9006 14.7146C29.9751 14.191 30.0862 13.6012 30.2471 13.086C30.3392 12.789 30.4605 12.4751 30.6228 12.1964C30.7734 11.9374 31.0321 11.5855 31.459 11.3842C31.9707 11.1435 32.5102 11.2153 32.9473 11.4687C33.326 11.6883 33.6272 12.0388 33.8757 12.409C33.9634 12.5427 34.0497 12.6722 34.1359 12.8031L34.133 12.7989ZM32.5175 13.1564C32.5175 13.1564 32.5161 13.1592 32.5131 13.162C32.5161 13.1578 32.5175 13.1564 32.5175 13.1564Z" fill="#7C8C38"/>
<path d="M22.076 1.24561C22.6637 3.58078 22.076 8.25113 20.8465 10.0148C19.6169 11.7785 16.0365 11.0522 13.3114 9.70376C10.5862 8.3553 11.4941 5.0334 12.0818 2.69823" fill="#7C8C38"/>
<path d="M26.747 7.41948C27.2777 7.41948 27.709 6.72272 27.709 5.86269C27.709 5.00266 27.2777 4.30591 26.747 4.30591C26.2163 4.30591 25.785 5.00266 25.785 5.86269C25.785 6.72272 26.2163 7.41948 26.747 7.41948Z" fill="#7C8C38"/>
<path d="M22.9298 22.8309C23.4605 22.8309 23.8918 22.1341 23.8918 21.2741C23.8918 20.414 23.4605 19.7173 22.9298 19.7173C22.3991 19.7173 21.9678 20.414 21.9678 21.2741C21.9678 22.1341 22.3991 22.8309 22.9298 22.8309Z" fill="#7C8C38"/>
<path d="M30.9459 22.8309C31.4766 22.8309 31.9079 22.1341 31.9079 21.2741C31.9079 20.414 31.4766 19.7173 30.9459 19.7173C30.4152 19.7173 29.9839 20.414 29.9839 21.2741C29.9839 22.1341 30.4152 22.8309 30.9459 22.8309Z" fill="#7C8C38"/>
<path d="M38.6608 10.3852C39.1944 9.69834 38.7661 8.51316 37.7047 7.73617C36.6447 6.9606 35.3523 6.8874 34.8187 7.5743C34.2851 8.2612 34.7134 9.44638 35.7748 10.2234C36.8348 10.9989 38.1272 11.0721 38.6608 10.3852V10.3852Z" fill="#7C8C38"/>
<path d="M25.6565 24.0245C26.3509 23.9203 27.4196 23.7655 28.5951 24.0245C29.7705 24.2835 29.1828 24.5959 28.8626 24.907C28.4357 25.3743 27.7939 25.8402 27.4196 26.1006C27.0453 26.3596 26.9927 26.2569 26.7778 26.1006C26.4035 25.8417 25.7617 25.3743 25.3348 24.907C24.9079 24.4397 25.2281 24.1286 25.6024 24.0245H25.6565V24.0245Z" fill="#7C8C38"/>
<path d="M26.9565 27.3333C26.4758 27.3333 26.0869 27.0177 26.0869 26.6294V25.4746C26.0869 25.0855 26.4767 24.7708 26.9565 24.7708C27.4362 24.7708 27.826 25.0863 27.826 25.4746V26.6294C27.826 27.0185 27.4362 27.3333 26.9565 27.3333Z" fill="#7C8C38"/>
</g>
<defs>
<clipPath id="clip0_795_38956">
<rect width="40" height="41" fill="white"/>
</clipPath>
</defs>
</svg>
