<svg width="40" height="40" viewBox="0 0 40 40" fill="none" xmlns="http://www.w3.org/2000/svg">
<g clip-path="url(#clip0_1335_35084)">
<path d="M31.7476 9.53829C30.2523 7.97405 28.2736 7.11548 26.1599 7.11548C24.0462 7.11548 22.0674 7.97405 20.5721 9.53829C20.0212 10.1146 20.0212 11.0437 20.5721 11.62C21.123 12.1963 22.0112 12.1963 22.5621 11.62C23.5178 10.6086 24.7995 10.0558 26.1599 10.0558C27.5203 10.0558 28.802 10.6086 29.7576 11.62C30.0275 11.9023 30.3872 12.0552 30.747 12.0552C31.1068 12.0552 31.4666 11.9141 31.7364 11.62C32.2873 11.0437 32.2873 10.1146 31.7364 9.53829H31.7476Z" fill="white"/>
<path d="M35.8852 4.30462C33.1419 1.43487 29.5441 0 25.9464 0C22.3486 0 18.7509 1.43487 16.0076 4.30462C11.1956 9.33843 10.5997 17.1009 14.2199 22.8051L11.6341 25.5101L11.2406 25.0985C11.0157 24.8633 10.6672 24.8633 10.4423 25.0985L1.30176 34.6604C0.863281 35.1191 0.863281 35.86 1.30176 36.3187L4.48352 39.6472C4.922 40.1059 5.63031 40.1059 6.06878 39.6472L15.2093 30.0853C15.4342 29.85 15.4342 29.4855 15.2093 29.2502L14.8158 28.8386L17.278 26.2629C19.8189 28.3446 22.877 29.4031 25.9464 29.4031C29.5441 29.4031 33.1419 27.9682 35.8852 25.0985C41.3717 19.359 41.3717 10.0441 35.8852 4.30462V4.30462ZM32.7034 21.7701C30.8933 23.6636 28.4985 24.6986 25.9464 24.6986C23.3942 24.6986 20.9995 23.6636 19.1893 21.7701C17.3792 19.8765 16.3898 17.3714 16.3898 14.7016C16.3898 12.0318 17.3792 9.52661 19.1893 7.63305C20.9995 5.73949 23.3942 4.7045 25.9464 4.7045C28.4985 4.7045 30.8933 5.73949 32.7034 7.63305C34.5135 9.52661 35.5029 12.0318 35.5029 14.7016C35.5029 17.3714 34.5135 19.8765 32.7034 21.7701Z" fill="white"/>
</g>
<defs>
<clipPath id="clip0_1335_35084">
<rect width="40" height="40" fill="white"/>
</clipPath>
</defs>
</svg>
