<svg width="40" height="40" viewBox="0 0 40 40" fill="none" xmlns="http://www.w3.org/2000/svg">
<g clip-path="url(#clip0_1181_35068)">
<path d="M20 40C31.0457 40 40 31.0457 40 20C40 8.95431 31.0457 0 20 0C8.95431 0 0 8.95431 0 20C0 31.0457 8.95431 40 20 40Z" fill="#7C8C38"/>
<path d="M22.1065 17.7056C24.8999 16.5422 26.2213 13.3346 25.058 10.5412C23.8946 7.74778 20.687 6.42636 17.8936 7.58972C15.1002 8.75308 13.7788 11.9607 14.9421 14.7541C16.1055 17.5475 19.3131 18.8689 22.1065 17.7056Z" fill="white"/>
<path d="M19.9999 20C14.3863 20 9.83521 24.5511 9.83521 30.1647C9.83521 31.6368 11.0295 32.8312 12.5017 32.8312H27.4952C28.9674 32.8312 30.1617 31.6368 30.1617 30.1647C30.1617 24.5511 25.6107 20 19.997 20H19.9999Z" fill="white"/>
</g>
<defs>
<clipPath id="clip0_1181_35068">
<rect width="40" height="40" fill="white"/>
</clipPath>
</defs>
</svg>
