<svg width="40" height="40" viewBox="0 0 40 40" fill="none" xmlns="http://www.w3.org/2000/svg">
<g clip-path="url(#clip0_30_465)">
<path d="M35 5H5C2.23647 5 0 6.67735 0 8.75V10H40V8.75C40 6.67735 37.7635 5 35 5ZM26.2678 2.5L27.0085 6.44231H12.9915L13.7322 2.5H26.2678M26.6667 0H13.3333C11.9658 0 10.6838 0.833333 10.4843 1.85897L9.51567 7.09402C9.33048 8.11966 10.2991 8.95299 11.6667 8.95299H28.3333C29.7009 8.95299 30.6838 8.11966 30.4843 7.09402L29.5157 1.85897C29.3305 0.833333 28.0484 0 26.6667 0V0ZM35.8262 12.5H4.17379C2.33618 12.5 0.982906 13.6218 1.1396 14.9893L3.87464 37.5107C4.04558 38.8782 5.68376 40 7.50712 40H32.4929C34.3305 40 35.9687 38.8782 36.1254 37.5107L38.8604 14.9893C39.0313 13.6218 37.6638 12.5 35.8262 12.5V12.5ZM13.3333 35H8.33333L6.66667 17.5H13.3333V35ZM23.3333 35H16.6667V17.5H23.3333V35ZM31.6667 35H26.6667V17.5H33.3333L31.6667 35Z" fill="#7C8C38"/>
</g>
<defs>
<clipPath id="clip0_30_465">
<rect width="40" height="40" fill="white"/>
</clipPath>
</defs>
</svg>
