<svg width="28" height="28" viewBox="0 0 28 28" fill="none" xmlns="http://www.w3.org/2000/svg">
<path d="M18.8357 13.9955L26.9677 5.85562C28.3079 4.51408 28.3079 2.34769 26.9677 1.00615C25.6274 -0.335384 23.4631 -0.335384 22.1229 1.00615L13.9819 9.146L5.84994 1.00615C4.5097 -0.335384 2.34541 -0.335384 1.00517 1.00615C-0.335058 2.34769 -0.335058 4.51408 1.00517 5.85562L9.13713 13.9955L1.00517 22.1444C-0.335058 23.4859 -0.335058 25.6523 1.00517 26.9939C1.67529 27.6646 2.55369 28 3.43208 28C4.31048 28 5.18887 27.6646 5.85899 26.9939L14 18.8449L22.141 26.9939C22.8111 27.6646 23.6895 28 24.5679 28C25.4463 28 26.3247 27.6646 26.9948 26.9939C28.3351 25.6523 28.3351 23.4859 26.9948 22.1444L18.8538 13.9955H18.8357Z" fill="#D6D48A"/>
</svg>
